G04 #@! TF.GenerationSoftware,KiCad,Pcbnew,5.1.6-c6e7f7d~87~ubuntu18.04.1*
G04 #@! TF.CreationDate,2020-07-29T19:07:16-04:00*
G04 #@! TF.ProjectId,filter_carrier_board,66696c74-6572-45f6-9361-72726965725f,1*
G04 #@! TF.SameCoordinates,Original*
G04 #@! TF.FileFunction,Copper,L1,Top*
G04 #@! TF.FilePolarity,Positive*
%FSLAX46Y46*%
G04 Gerber Fmt 4.6, Leading zero omitted, Abs format (unit mm)*
G04 Created by KiCad (PCBNEW 5.1.6-c6e7f7d~87~ubuntu18.04.1) date 2020-07-29 19:07:16*
%MOMM*%
%LPD*%
G01*
G04 APERTURE LIST*
G04 #@! TA.AperFunction,ComponentPad*
%ADD10C,1.800000*%
G04 #@! TD*
G04 #@! TA.AperFunction,ComponentPad*
%ADD11C,3.240000*%
G04 #@! TD*
G04 #@! TA.AperFunction,ComponentPad*
%ADD12R,1.800000X1.800000*%
G04 #@! TD*
G04 #@! TA.AperFunction,ComponentPad*
%ADD13R,1.700000X1.700000*%
G04 #@! TD*
G04 #@! TA.AperFunction,ComponentPad*
%ADD14O,1.700000X1.700000*%
G04 #@! TD*
G04 #@! TA.AperFunction,ViaPad*
%ADD15C,1.000000*%
G04 #@! TD*
G04 #@! TA.AperFunction,ViaPad*
%ADD16C,0.800000*%
G04 #@! TD*
G04 #@! TA.AperFunction,Conductor*
%ADD17C,1.000000*%
G04 #@! TD*
G04 #@! TA.AperFunction,Conductor*
%ADD18C,0.254000*%
G04 #@! TD*
G04 APERTURE END LIST*
D10*
X148115000Y-140970000D03*
X159515000Y-140970000D03*
X156415000Y-140970000D03*
X148115000Y-127000000D03*
X159515000Y-127000000D03*
X156415000Y-127000000D03*
X127160000Y-127000000D03*
X138560000Y-127000000D03*
X135460000Y-127000000D03*
X106205000Y-127000000D03*
X117605000Y-127000000D03*
X114505000Y-127000000D03*
X106205000Y-140970000D03*
X117605000Y-140970000D03*
X114505000Y-140970000D03*
D11*
X145020000Y-96640000D03*
X154620000Y-96640000D03*
D10*
X152320000Y-104140000D03*
X149820000Y-104140000D03*
D12*
X147320000Y-104140000D03*
D11*
X145060000Y-58540000D03*
X154660000Y-58540000D03*
D10*
X152360000Y-66040000D03*
X149860000Y-66040000D03*
D12*
X147360000Y-66040000D03*
D11*
X109500000Y-96640000D03*
X119100000Y-96640000D03*
D10*
X116800000Y-104140000D03*
X114300000Y-104140000D03*
D12*
X111800000Y-104140000D03*
D11*
X109500000Y-58540000D03*
X119100000Y-58540000D03*
D10*
X116800000Y-66040000D03*
X114300000Y-66040000D03*
D12*
X111800000Y-66040000D03*
D13*
X130810000Y-64770000D03*
D14*
X133350000Y-64770000D03*
X130810000Y-62230000D03*
X133350000Y-62230000D03*
X130810000Y-59690000D03*
X133350000Y-59690000D03*
X130810000Y-57150000D03*
X133350000Y-57150000D03*
X130810000Y-54610000D03*
X133350000Y-54610000D03*
X158750000Y-119380000D03*
X158750000Y-116840000D03*
X158750000Y-114300000D03*
D13*
X158750000Y-111760000D03*
X105410000Y-71120000D03*
D14*
X105410000Y-73660000D03*
X105410000Y-76200000D03*
X105410000Y-78740000D03*
D13*
X158750000Y-71120000D03*
D14*
X158750000Y-73660000D03*
X158750000Y-76200000D03*
X158750000Y-78740000D03*
D13*
X105410000Y-101600000D03*
D14*
X105410000Y-104140000D03*
X105410000Y-106680000D03*
X105410000Y-109220000D03*
X105410000Y-111760000D03*
X105410000Y-114300000D03*
X105410000Y-116840000D03*
X105410000Y-119380000D03*
D15*
X132892800Y-116840000D03*
X119380000Y-114300000D03*
X119380000Y-119380000D03*
X137414000Y-110172500D03*
X144780000Y-71120000D03*
X124460000Y-71120000D03*
X137160000Y-91440000D03*
X137160000Y-96520000D03*
X144780000Y-86360000D03*
X127000000Y-91440000D03*
X127000000Y-96520000D03*
X131127500Y-111760000D03*
D16*
X107950000Y-80645000D03*
X122555000Y-80645000D03*
X123700740Y-102810057D03*
X127635000Y-82550000D03*
X141605000Y-82563449D03*
D15*
X143586200Y-116840000D03*
D16*
X141605000Y-104140000D03*
X129540000Y-106045000D03*
X137223500Y-107632500D03*
X114300000Y-78105000D03*
X122555000Y-78105000D03*
X123825000Y-93980000D03*
X149860000Y-90424000D03*
D17*
X132892800Y-116840000D02*
X105410000Y-116840000D01*
X105410000Y-111760000D02*
X131127500Y-111760000D01*
X107950000Y-80645000D02*
X122555000Y-80645000D01*
X140335000Y-100965000D02*
X125545797Y-100965000D01*
X145110001Y-105740001D02*
X140335000Y-100965000D01*
X149492791Y-105740001D02*
X145110001Y-105740001D01*
X149820000Y-104140000D02*
X149820000Y-105412792D01*
X125545797Y-100965000D02*
X123700740Y-102810057D01*
X149820000Y-105412792D02*
X149492791Y-105740001D01*
X141358472Y-82550000D02*
X127635000Y-82550000D01*
X141605000Y-82563449D02*
X141358472Y-82550000D01*
X158750000Y-116840000D02*
X143586200Y-116840000D01*
X141605000Y-104140000D02*
X131445000Y-104140000D01*
X131445000Y-104140000D02*
X129540000Y-106045000D01*
X105410000Y-106680000D02*
X105410000Y-109220000D01*
X136971498Y-107632500D02*
X137223500Y-107632500D01*
X135959999Y-108643999D02*
X136971498Y-107632500D01*
X135959999Y-108648500D02*
X135959999Y-108643999D01*
X105410000Y-109220000D02*
X105981500Y-108648500D01*
X105981500Y-108648500D02*
X135959999Y-108648500D01*
X118400001Y-67640001D02*
X150759999Y-67640001D01*
X150759999Y-67640001D02*
X152360000Y-66040000D01*
X116800000Y-66040000D02*
X118400001Y-67640001D01*
X114300000Y-78105000D02*
X122555000Y-78105000D01*
X144272000Y-90424000D02*
X149860000Y-90424000D01*
X123825000Y-93980000D02*
X140716000Y-93980000D01*
X140716000Y-93980000D02*
X144272000Y-90424000D01*
D18*
G36*
X160630000Y-126132289D02*
G01*
X160579080Y-126115525D01*
X159694605Y-127000000D01*
X160579080Y-127884475D01*
X160630000Y-127867711D01*
X160630000Y-140102289D01*
X160579080Y-140085525D01*
X159694605Y-140970000D01*
X160579080Y-141854475D01*
X160630000Y-141837711D01*
X160630000Y-145390000D01*
X103530000Y-145390000D01*
X103530000Y-140818816D01*
X104670000Y-140818816D01*
X104670000Y-141121184D01*
X104728989Y-141417743D01*
X104844701Y-141697095D01*
X105012688Y-141948505D01*
X105226495Y-142162312D01*
X105477905Y-142330299D01*
X105757257Y-142446011D01*
X106053816Y-142505000D01*
X106356184Y-142505000D01*
X106652743Y-142446011D01*
X106932095Y-142330299D01*
X107183505Y-142162312D01*
X107397312Y-141948505D01*
X107565299Y-141697095D01*
X107681011Y-141417743D01*
X107740000Y-141121184D01*
X107740000Y-140970000D01*
X109093000Y-140970000D01*
X109095440Y-140994776D01*
X109102667Y-141018601D01*
X109114403Y-141040557D01*
X109130197Y-141059803D01*
X110930197Y-142859803D01*
X110949443Y-142875597D01*
X110971399Y-142887333D01*
X110995224Y-142894560D01*
X111020000Y-142897000D01*
X111044776Y-142894560D01*
X111068601Y-142887333D01*
X111090557Y-142875597D01*
X111109803Y-142859803D01*
X111935526Y-142034080D01*
X113620525Y-142034080D01*
X113704208Y-142288261D01*
X113976775Y-142419158D01*
X114269642Y-142494365D01*
X114571553Y-142510991D01*
X114870907Y-142468397D01*
X115156199Y-142368222D01*
X115305792Y-142288261D01*
X115389475Y-142034080D01*
X116720525Y-142034080D01*
X116804208Y-142288261D01*
X117076775Y-142419158D01*
X117369642Y-142494365D01*
X117671553Y-142510991D01*
X117970907Y-142468397D01*
X118256199Y-142368222D01*
X118405792Y-142288261D01*
X118489475Y-142034080D01*
X117605000Y-141149605D01*
X116720525Y-142034080D01*
X115389475Y-142034080D01*
X114505000Y-141149605D01*
X113620525Y-142034080D01*
X111935526Y-142034080D01*
X112909803Y-141059803D01*
X112925597Y-141040557D01*
X112927737Y-141036553D01*
X112964009Y-141036553D01*
X113006603Y-141335907D01*
X113106778Y-141621199D01*
X113186739Y-141770792D01*
X113440920Y-141854475D01*
X114325395Y-140970000D01*
X114684605Y-140970000D01*
X115569080Y-141854475D01*
X115823261Y-141770792D01*
X115954158Y-141498225D01*
X116029365Y-141205358D01*
X116038660Y-141036553D01*
X116064009Y-141036553D01*
X116106603Y-141335907D01*
X116206778Y-141621199D01*
X116286739Y-141770792D01*
X116540920Y-141854475D01*
X117425395Y-140970000D01*
X117784605Y-140970000D01*
X118669080Y-141854475D01*
X118923261Y-141770792D01*
X119054158Y-141498225D01*
X119129365Y-141205358D01*
X119145991Y-140903447D01*
X119133950Y-140818816D01*
X146580000Y-140818816D01*
X146580000Y-141121184D01*
X146638989Y-141417743D01*
X146754701Y-141697095D01*
X146922688Y-141948505D01*
X147136495Y-142162312D01*
X147387905Y-142330299D01*
X147667257Y-142446011D01*
X147963816Y-142505000D01*
X148266184Y-142505000D01*
X148562743Y-142446011D01*
X148842095Y-142330299D01*
X149093505Y-142162312D01*
X149307312Y-141948505D01*
X149475299Y-141697095D01*
X149591011Y-141417743D01*
X149650000Y-141121184D01*
X149650000Y-140970000D01*
X151003000Y-140970000D01*
X151005440Y-140994776D01*
X151012667Y-141018601D01*
X151024403Y-141040557D01*
X151040197Y-141059803D01*
X152840197Y-142859803D01*
X152859443Y-142875597D01*
X152881399Y-142887333D01*
X152905224Y-142894560D01*
X152930000Y-142897000D01*
X152954776Y-142894560D01*
X152978601Y-142887333D01*
X153000557Y-142875597D01*
X153019803Y-142859803D01*
X154819803Y-141059803D01*
X154835597Y-141040557D01*
X154847333Y-141018601D01*
X154854560Y-140994776D01*
X154857000Y-140970000D01*
X154854560Y-140945224D01*
X154847333Y-140921399D01*
X154835597Y-140899443D01*
X154819803Y-140880197D01*
X154758422Y-140818816D01*
X154880000Y-140818816D01*
X154880000Y-141121184D01*
X154938989Y-141417743D01*
X155054701Y-141697095D01*
X155222688Y-141948505D01*
X155436495Y-142162312D01*
X155687905Y-142330299D01*
X155967257Y-142446011D01*
X156263816Y-142505000D01*
X156566184Y-142505000D01*
X156862743Y-142446011D01*
X157142095Y-142330299D01*
X157393505Y-142162312D01*
X157521737Y-142034080D01*
X158630525Y-142034080D01*
X158714208Y-142288261D01*
X158986775Y-142419158D01*
X159279642Y-142494365D01*
X159581553Y-142510991D01*
X159880907Y-142468397D01*
X160166199Y-142368222D01*
X160315792Y-142288261D01*
X160399475Y-142034080D01*
X159515000Y-141149605D01*
X158630525Y-142034080D01*
X157521737Y-142034080D01*
X157607312Y-141948505D01*
X157775299Y-141697095D01*
X157891011Y-141417743D01*
X157950000Y-141121184D01*
X157950000Y-141036553D01*
X157974009Y-141036553D01*
X158016603Y-141335907D01*
X158116778Y-141621199D01*
X158196739Y-141770792D01*
X158450920Y-141854475D01*
X159335395Y-140970000D01*
X158450920Y-140085525D01*
X158196739Y-140169208D01*
X158065842Y-140441775D01*
X157990635Y-140734642D01*
X157974009Y-141036553D01*
X157950000Y-141036553D01*
X157950000Y-140818816D01*
X157891011Y-140522257D01*
X157775299Y-140242905D01*
X157607312Y-139991495D01*
X157521737Y-139905920D01*
X158630525Y-139905920D01*
X159515000Y-140790395D01*
X160399475Y-139905920D01*
X160315792Y-139651739D01*
X160043225Y-139520842D01*
X159750358Y-139445635D01*
X159448447Y-139429009D01*
X159149093Y-139471603D01*
X158863801Y-139571778D01*
X158714208Y-139651739D01*
X158630525Y-139905920D01*
X157521737Y-139905920D01*
X157393505Y-139777688D01*
X157142095Y-139609701D01*
X156862743Y-139493989D01*
X156566184Y-139435000D01*
X156263816Y-139435000D01*
X155967257Y-139493989D01*
X155687905Y-139609701D01*
X155436495Y-139777688D01*
X155222688Y-139991495D01*
X155054701Y-140242905D01*
X154938989Y-140522257D01*
X154880000Y-140818816D01*
X154758422Y-140818816D01*
X153019803Y-139080197D01*
X153000557Y-139064403D01*
X152978601Y-139052667D01*
X152954776Y-139045440D01*
X152930000Y-139043000D01*
X152905224Y-139045440D01*
X152881399Y-139052667D01*
X152859443Y-139064403D01*
X152840197Y-139080197D01*
X151040197Y-140880197D01*
X151024403Y-140899443D01*
X151012667Y-140921399D01*
X151005440Y-140945224D01*
X151003000Y-140970000D01*
X149650000Y-140970000D01*
X149650000Y-140818816D01*
X149591011Y-140522257D01*
X149475299Y-140242905D01*
X149307312Y-139991495D01*
X149093505Y-139777688D01*
X148842095Y-139609701D01*
X148562743Y-139493989D01*
X148266184Y-139435000D01*
X147963816Y-139435000D01*
X147667257Y-139493989D01*
X147387905Y-139609701D01*
X147136495Y-139777688D01*
X146922688Y-139991495D01*
X146754701Y-140242905D01*
X146638989Y-140522257D01*
X146580000Y-140818816D01*
X119133950Y-140818816D01*
X119103397Y-140604093D01*
X119003222Y-140318801D01*
X118923261Y-140169208D01*
X118669080Y-140085525D01*
X117784605Y-140970000D01*
X117425395Y-140970000D01*
X116540920Y-140085525D01*
X116286739Y-140169208D01*
X116155842Y-140441775D01*
X116080635Y-140734642D01*
X116064009Y-141036553D01*
X116038660Y-141036553D01*
X116045991Y-140903447D01*
X116003397Y-140604093D01*
X115903222Y-140318801D01*
X115823261Y-140169208D01*
X115569080Y-140085525D01*
X114684605Y-140970000D01*
X114325395Y-140970000D01*
X113440920Y-140085525D01*
X113186739Y-140169208D01*
X113055842Y-140441775D01*
X112980635Y-140734642D01*
X112964009Y-141036553D01*
X112927737Y-141036553D01*
X112937333Y-141018601D01*
X112944560Y-140994776D01*
X112947000Y-140970000D01*
X112944560Y-140945224D01*
X112937333Y-140921399D01*
X112925597Y-140899443D01*
X112909803Y-140880197D01*
X111935526Y-139905920D01*
X113620525Y-139905920D01*
X114505000Y-140790395D01*
X115389475Y-139905920D01*
X116720525Y-139905920D01*
X117605000Y-140790395D01*
X118489475Y-139905920D01*
X118405792Y-139651739D01*
X118133225Y-139520842D01*
X117840358Y-139445635D01*
X117538447Y-139429009D01*
X117239093Y-139471603D01*
X116953801Y-139571778D01*
X116804208Y-139651739D01*
X116720525Y-139905920D01*
X115389475Y-139905920D01*
X115305792Y-139651739D01*
X115033225Y-139520842D01*
X114740358Y-139445635D01*
X114438447Y-139429009D01*
X114139093Y-139471603D01*
X113853801Y-139571778D01*
X113704208Y-139651739D01*
X113620525Y-139905920D01*
X111935526Y-139905920D01*
X111109803Y-139080197D01*
X111090557Y-139064403D01*
X111068601Y-139052667D01*
X111044776Y-139045440D01*
X111020000Y-139043000D01*
X110995224Y-139045440D01*
X110971399Y-139052667D01*
X110949443Y-139064403D01*
X110930197Y-139080197D01*
X109130197Y-140880197D01*
X109114403Y-140899443D01*
X109102667Y-140921399D01*
X109095440Y-140945224D01*
X109093000Y-140970000D01*
X107740000Y-140970000D01*
X107740000Y-140818816D01*
X107681011Y-140522257D01*
X107565299Y-140242905D01*
X107397312Y-139991495D01*
X107183505Y-139777688D01*
X106932095Y-139609701D01*
X106652743Y-139493989D01*
X106356184Y-139435000D01*
X106053816Y-139435000D01*
X105757257Y-139493989D01*
X105477905Y-139609701D01*
X105226495Y-139777688D01*
X105012688Y-139991495D01*
X104844701Y-140242905D01*
X104728989Y-140522257D01*
X104670000Y-140818816D01*
X103530000Y-140818816D01*
X103530000Y-126848816D01*
X104670000Y-126848816D01*
X104670000Y-127151184D01*
X104728989Y-127447743D01*
X104844701Y-127727095D01*
X105012688Y-127978505D01*
X105226495Y-128192312D01*
X105477905Y-128360299D01*
X105757257Y-128476011D01*
X106053816Y-128535000D01*
X106356184Y-128535000D01*
X106652743Y-128476011D01*
X106932095Y-128360299D01*
X107183505Y-128192312D01*
X107397312Y-127978505D01*
X107565299Y-127727095D01*
X107681011Y-127447743D01*
X107740000Y-127151184D01*
X107740000Y-126895000D01*
X109198000Y-126895000D01*
X109200440Y-126919776D01*
X109207667Y-126943601D01*
X109219403Y-126965557D01*
X109235197Y-126984803D01*
X111035197Y-128784803D01*
X111054443Y-128800597D01*
X111076399Y-128812333D01*
X111100224Y-128819560D01*
X111125000Y-128822000D01*
X111149776Y-128819560D01*
X111173601Y-128812333D01*
X111195557Y-128800597D01*
X111214803Y-128784803D01*
X111935526Y-128064080D01*
X113620525Y-128064080D01*
X113704208Y-128318261D01*
X113976775Y-128449158D01*
X114269642Y-128524365D01*
X114571553Y-128540991D01*
X114870907Y-128498397D01*
X115156199Y-128398222D01*
X115305792Y-128318261D01*
X115389475Y-128064080D01*
X116720525Y-128064080D01*
X116804208Y-128318261D01*
X117076775Y-128449158D01*
X117369642Y-128524365D01*
X117671553Y-128540991D01*
X117970907Y-128498397D01*
X118256199Y-128398222D01*
X118405792Y-128318261D01*
X118489475Y-128064080D01*
X117605000Y-127179605D01*
X116720525Y-128064080D01*
X115389475Y-128064080D01*
X114505000Y-127179605D01*
X113620525Y-128064080D01*
X111935526Y-128064080D01*
X112965813Y-127033793D01*
X112964009Y-127066553D01*
X113006603Y-127365907D01*
X113106778Y-127651199D01*
X113186739Y-127800792D01*
X113440920Y-127884475D01*
X114325395Y-127000000D01*
X114684605Y-127000000D01*
X115569080Y-127884475D01*
X115823261Y-127800792D01*
X115954158Y-127528225D01*
X116029365Y-127235358D01*
X116038660Y-127066553D01*
X116064009Y-127066553D01*
X116106603Y-127365907D01*
X116206778Y-127651199D01*
X116286739Y-127800792D01*
X116540920Y-127884475D01*
X117425395Y-127000000D01*
X117784605Y-127000000D01*
X118669080Y-127884475D01*
X118923261Y-127800792D01*
X119054158Y-127528225D01*
X119129365Y-127235358D01*
X119145991Y-126933447D01*
X119133950Y-126848816D01*
X125625000Y-126848816D01*
X125625000Y-127151184D01*
X125683989Y-127447743D01*
X125799701Y-127727095D01*
X125967688Y-127978505D01*
X126181495Y-128192312D01*
X126432905Y-128360299D01*
X126712257Y-128476011D01*
X127008816Y-128535000D01*
X127311184Y-128535000D01*
X127607743Y-128476011D01*
X127887095Y-128360299D01*
X128138505Y-128192312D01*
X128352312Y-127978505D01*
X128520299Y-127727095D01*
X128636011Y-127447743D01*
X128695000Y-127151184D01*
X128695000Y-127000000D01*
X130048000Y-127000000D01*
X130050440Y-127024776D01*
X130057667Y-127048601D01*
X130069403Y-127070557D01*
X130085197Y-127089803D01*
X131885197Y-128889803D01*
X131904443Y-128905597D01*
X131926399Y-128917333D01*
X131950224Y-128924560D01*
X131975000Y-128927000D01*
X131999776Y-128924560D01*
X132023601Y-128917333D01*
X132045557Y-128905597D01*
X132064803Y-128889803D01*
X132890526Y-128064080D01*
X134575525Y-128064080D01*
X134659208Y-128318261D01*
X134931775Y-128449158D01*
X135224642Y-128524365D01*
X135526553Y-128540991D01*
X135825907Y-128498397D01*
X136111199Y-128398222D01*
X136260792Y-128318261D01*
X136344475Y-128064080D01*
X137675525Y-128064080D01*
X137759208Y-128318261D01*
X138031775Y-128449158D01*
X138324642Y-128524365D01*
X138626553Y-128540991D01*
X138925907Y-128498397D01*
X139211199Y-128398222D01*
X139360792Y-128318261D01*
X139444475Y-128064080D01*
X138560000Y-127179605D01*
X137675525Y-128064080D01*
X136344475Y-128064080D01*
X135460000Y-127179605D01*
X134575525Y-128064080D01*
X132890526Y-128064080D01*
X133864803Y-127089803D01*
X133880597Y-127070557D01*
X133882737Y-127066553D01*
X133919009Y-127066553D01*
X133961603Y-127365907D01*
X134061778Y-127651199D01*
X134141739Y-127800792D01*
X134395920Y-127884475D01*
X135280395Y-127000000D01*
X135639605Y-127000000D01*
X136524080Y-127884475D01*
X136778261Y-127800792D01*
X136909158Y-127528225D01*
X136984365Y-127235358D01*
X136993660Y-127066553D01*
X137019009Y-127066553D01*
X137061603Y-127365907D01*
X137161778Y-127651199D01*
X137241739Y-127800792D01*
X137495920Y-127884475D01*
X138380395Y-127000000D01*
X138739605Y-127000000D01*
X139624080Y-127884475D01*
X139878261Y-127800792D01*
X140009158Y-127528225D01*
X140084365Y-127235358D01*
X140100991Y-126933447D01*
X140088950Y-126848816D01*
X146580000Y-126848816D01*
X146580000Y-127151184D01*
X146638989Y-127447743D01*
X146754701Y-127727095D01*
X146922688Y-127978505D01*
X147136495Y-128192312D01*
X147387905Y-128360299D01*
X147667257Y-128476011D01*
X147963816Y-128535000D01*
X148266184Y-128535000D01*
X148562743Y-128476011D01*
X148842095Y-128360299D01*
X149093505Y-128192312D01*
X149307312Y-127978505D01*
X149475299Y-127727095D01*
X149591011Y-127447743D01*
X149650000Y-127151184D01*
X149650000Y-127000000D01*
X151213000Y-127000000D01*
X151215440Y-127024776D01*
X151222667Y-127048601D01*
X151234403Y-127070557D01*
X151250197Y-127089803D01*
X153050197Y-128889803D01*
X153069443Y-128905597D01*
X153091399Y-128917333D01*
X153115224Y-128924560D01*
X153140000Y-128927000D01*
X153164776Y-128924560D01*
X153188601Y-128917333D01*
X153210557Y-128905597D01*
X153229803Y-128889803D01*
X154055526Y-128064080D01*
X155530525Y-128064080D01*
X155614208Y-128318261D01*
X155886775Y-128449158D01*
X156179642Y-128524365D01*
X156481553Y-128540991D01*
X156780907Y-128498397D01*
X157066199Y-128398222D01*
X157215792Y-128318261D01*
X157299475Y-128064080D01*
X158630525Y-128064080D01*
X158714208Y-128318261D01*
X158986775Y-128449158D01*
X159279642Y-128524365D01*
X159581553Y-128540991D01*
X159880907Y-128498397D01*
X160166199Y-128398222D01*
X160315792Y-128318261D01*
X160399475Y-128064080D01*
X159515000Y-127179605D01*
X158630525Y-128064080D01*
X157299475Y-128064080D01*
X156415000Y-127179605D01*
X155530525Y-128064080D01*
X154055526Y-128064080D01*
X154896311Y-127223295D01*
X154916603Y-127365907D01*
X155016778Y-127651199D01*
X155096739Y-127800792D01*
X155350920Y-127884475D01*
X156235395Y-127000000D01*
X156594605Y-127000000D01*
X157479080Y-127884475D01*
X157733261Y-127800792D01*
X157864158Y-127528225D01*
X157939365Y-127235358D01*
X157948660Y-127066553D01*
X157974009Y-127066553D01*
X158016603Y-127365907D01*
X158116778Y-127651199D01*
X158196739Y-127800792D01*
X158450920Y-127884475D01*
X159335395Y-127000000D01*
X158450920Y-126115525D01*
X158196739Y-126199208D01*
X158065842Y-126471775D01*
X157990635Y-126764642D01*
X157974009Y-127066553D01*
X157948660Y-127066553D01*
X157955991Y-126933447D01*
X157913397Y-126634093D01*
X157813222Y-126348801D01*
X157733261Y-126199208D01*
X157479080Y-126115525D01*
X156594605Y-127000000D01*
X156235395Y-127000000D01*
X155350920Y-126115525D01*
X155096739Y-126199208D01*
X154965842Y-126471775D01*
X154890635Y-126764642D01*
X154890302Y-126770696D01*
X154055526Y-125935920D01*
X155530525Y-125935920D01*
X156415000Y-126820395D01*
X157299475Y-125935920D01*
X158630525Y-125935920D01*
X159515000Y-126820395D01*
X160399475Y-125935920D01*
X160315792Y-125681739D01*
X160043225Y-125550842D01*
X159750358Y-125475635D01*
X159448447Y-125459009D01*
X159149093Y-125501603D01*
X158863801Y-125601778D01*
X158714208Y-125681739D01*
X158630525Y-125935920D01*
X157299475Y-125935920D01*
X157215792Y-125681739D01*
X156943225Y-125550842D01*
X156650358Y-125475635D01*
X156348447Y-125459009D01*
X156049093Y-125501603D01*
X155763801Y-125601778D01*
X155614208Y-125681739D01*
X155530525Y-125935920D01*
X154055526Y-125935920D01*
X153229803Y-125110197D01*
X153210557Y-125094403D01*
X153188601Y-125082667D01*
X153164776Y-125075440D01*
X153140000Y-125073000D01*
X153115224Y-125075440D01*
X153091399Y-125082667D01*
X153069443Y-125094403D01*
X153050197Y-125110197D01*
X151250197Y-126910197D01*
X151234403Y-126929443D01*
X151222667Y-126951399D01*
X151215440Y-126975224D01*
X151213000Y-127000000D01*
X149650000Y-127000000D01*
X149650000Y-126848816D01*
X149591011Y-126552257D01*
X149475299Y-126272905D01*
X149307312Y-126021495D01*
X149093505Y-125807688D01*
X148842095Y-125639701D01*
X148562743Y-125523989D01*
X148266184Y-125465000D01*
X147963816Y-125465000D01*
X147667257Y-125523989D01*
X147387905Y-125639701D01*
X147136495Y-125807688D01*
X146922688Y-126021495D01*
X146754701Y-126272905D01*
X146638989Y-126552257D01*
X146580000Y-126848816D01*
X140088950Y-126848816D01*
X140058397Y-126634093D01*
X139958222Y-126348801D01*
X139878261Y-126199208D01*
X139624080Y-126115525D01*
X138739605Y-127000000D01*
X138380395Y-127000000D01*
X137495920Y-126115525D01*
X137241739Y-126199208D01*
X137110842Y-126471775D01*
X137035635Y-126764642D01*
X137019009Y-127066553D01*
X136993660Y-127066553D01*
X137000991Y-126933447D01*
X136958397Y-126634093D01*
X136858222Y-126348801D01*
X136778261Y-126199208D01*
X136524080Y-126115525D01*
X135639605Y-127000000D01*
X135280395Y-127000000D01*
X134395920Y-126115525D01*
X134141739Y-126199208D01*
X134010842Y-126471775D01*
X133935635Y-126764642D01*
X133919009Y-127066553D01*
X133882737Y-127066553D01*
X133892333Y-127048601D01*
X133899560Y-127024776D01*
X133902000Y-127000000D01*
X133899560Y-126975224D01*
X133892333Y-126951399D01*
X133880597Y-126929443D01*
X133864803Y-126910197D01*
X132890526Y-125935920D01*
X134575525Y-125935920D01*
X135460000Y-126820395D01*
X136344475Y-125935920D01*
X137675525Y-125935920D01*
X138560000Y-126820395D01*
X139444475Y-125935920D01*
X139360792Y-125681739D01*
X139088225Y-125550842D01*
X138795358Y-125475635D01*
X138493447Y-125459009D01*
X138194093Y-125501603D01*
X137908801Y-125601778D01*
X137759208Y-125681739D01*
X137675525Y-125935920D01*
X136344475Y-125935920D01*
X136260792Y-125681739D01*
X135988225Y-125550842D01*
X135695358Y-125475635D01*
X135393447Y-125459009D01*
X135094093Y-125501603D01*
X134808801Y-125601778D01*
X134659208Y-125681739D01*
X134575525Y-125935920D01*
X132890526Y-125935920D01*
X132064803Y-125110197D01*
X132045557Y-125094403D01*
X132023601Y-125082667D01*
X131999776Y-125075440D01*
X131975000Y-125073000D01*
X131950224Y-125075440D01*
X131926399Y-125082667D01*
X131904443Y-125094403D01*
X131885197Y-125110197D01*
X130085197Y-126910197D01*
X130069403Y-126929443D01*
X130057667Y-126951399D01*
X130050440Y-126975224D01*
X130048000Y-127000000D01*
X128695000Y-127000000D01*
X128695000Y-126848816D01*
X128636011Y-126552257D01*
X128520299Y-126272905D01*
X128352312Y-126021495D01*
X128138505Y-125807688D01*
X127887095Y-125639701D01*
X127607743Y-125523989D01*
X127311184Y-125465000D01*
X127008816Y-125465000D01*
X126712257Y-125523989D01*
X126432905Y-125639701D01*
X126181495Y-125807688D01*
X125967688Y-126021495D01*
X125799701Y-126272905D01*
X125683989Y-126552257D01*
X125625000Y-126848816D01*
X119133950Y-126848816D01*
X119103397Y-126634093D01*
X119003222Y-126348801D01*
X118923261Y-126199208D01*
X118669080Y-126115525D01*
X117784605Y-127000000D01*
X117425395Y-127000000D01*
X116540920Y-126115525D01*
X116286739Y-126199208D01*
X116155842Y-126471775D01*
X116080635Y-126764642D01*
X116064009Y-127066553D01*
X116038660Y-127066553D01*
X116045991Y-126933447D01*
X116003397Y-126634093D01*
X115903222Y-126348801D01*
X115823261Y-126199208D01*
X115569080Y-126115525D01*
X114684605Y-127000000D01*
X114325395Y-127000000D01*
X113440920Y-126115525D01*
X113186739Y-126199208D01*
X113055842Y-126471775D01*
X112980635Y-126764642D01*
X112980302Y-126770696D01*
X112145526Y-125935920D01*
X113620525Y-125935920D01*
X114505000Y-126820395D01*
X115389475Y-125935920D01*
X116720525Y-125935920D01*
X117605000Y-126820395D01*
X118489475Y-125935920D01*
X118405792Y-125681739D01*
X118133225Y-125550842D01*
X117840358Y-125475635D01*
X117538447Y-125459009D01*
X117239093Y-125501603D01*
X116953801Y-125601778D01*
X116804208Y-125681739D01*
X116720525Y-125935920D01*
X115389475Y-125935920D01*
X115305792Y-125681739D01*
X115033225Y-125550842D01*
X114740358Y-125475635D01*
X114438447Y-125459009D01*
X114139093Y-125501603D01*
X113853801Y-125601778D01*
X113704208Y-125681739D01*
X113620525Y-125935920D01*
X112145526Y-125935920D01*
X111214803Y-125005197D01*
X111195557Y-124989403D01*
X111173601Y-124977667D01*
X111149776Y-124970440D01*
X111125000Y-124968000D01*
X111100224Y-124970440D01*
X111076399Y-124977667D01*
X111054443Y-124989403D01*
X111035197Y-125005197D01*
X109235197Y-126805197D01*
X109219403Y-126824443D01*
X109207667Y-126846399D01*
X109200440Y-126870224D01*
X109198000Y-126895000D01*
X107740000Y-126895000D01*
X107740000Y-126848816D01*
X107681011Y-126552257D01*
X107565299Y-126272905D01*
X107397312Y-126021495D01*
X107183505Y-125807688D01*
X106932095Y-125639701D01*
X106652743Y-125523989D01*
X106356184Y-125465000D01*
X106053816Y-125465000D01*
X105757257Y-125523989D01*
X105477905Y-125639701D01*
X105226495Y-125807688D01*
X105012688Y-126021495D01*
X104844701Y-126272905D01*
X104728989Y-126552257D01*
X104670000Y-126848816D01*
X103530000Y-126848816D01*
X103530000Y-106533740D01*
X103925000Y-106533740D01*
X103925000Y-106826260D01*
X103982068Y-107113158D01*
X104094010Y-107383411D01*
X104256525Y-107626632D01*
X104275000Y-107645107D01*
X104275001Y-108254892D01*
X104256525Y-108273368D01*
X104094010Y-108516589D01*
X103982068Y-108786842D01*
X103925000Y-109073740D01*
X103925000Y-109366260D01*
X103982068Y-109653158D01*
X104094010Y-109923411D01*
X104256525Y-110166632D01*
X104463368Y-110373475D01*
X104637760Y-110490000D01*
X104463368Y-110606525D01*
X104256525Y-110813368D01*
X104094010Y-111056589D01*
X103982068Y-111326842D01*
X103925000Y-111613740D01*
X103925000Y-111906260D01*
X103982068Y-112193158D01*
X104094010Y-112463411D01*
X104256525Y-112706632D01*
X104463368Y-112913475D01*
X104637760Y-113030000D01*
X104463368Y-113146525D01*
X104256525Y-113353368D01*
X104094010Y-113596589D01*
X103982068Y-113866842D01*
X103925000Y-114153740D01*
X103925000Y-114446260D01*
X103982068Y-114733158D01*
X104094010Y-115003411D01*
X104256525Y-115246632D01*
X104463368Y-115453475D01*
X104637760Y-115570000D01*
X104463368Y-115686525D01*
X104256525Y-115893368D01*
X104094010Y-116136589D01*
X103982068Y-116406842D01*
X103925000Y-116693740D01*
X103925000Y-116986260D01*
X103982068Y-117273158D01*
X104094010Y-117543411D01*
X104256525Y-117786632D01*
X104463368Y-117993475D01*
X104637760Y-118110000D01*
X104463368Y-118226525D01*
X104256525Y-118433368D01*
X104094010Y-118676589D01*
X103982068Y-118946842D01*
X103925000Y-119233740D01*
X103925000Y-119526260D01*
X103982068Y-119813158D01*
X104094010Y-120083411D01*
X104256525Y-120326632D01*
X104463368Y-120533475D01*
X104706589Y-120695990D01*
X104976842Y-120807932D01*
X105263740Y-120865000D01*
X105556260Y-120865000D01*
X105843158Y-120807932D01*
X106113411Y-120695990D01*
X106356632Y-120533475D01*
X106563475Y-120326632D01*
X106725990Y-120083411D01*
X106837932Y-119813158D01*
X106895000Y-119526260D01*
X106895000Y-119233740D01*
X106837932Y-118946842D01*
X106725990Y-118676589D01*
X106563475Y-118433368D01*
X106356632Y-118226525D01*
X106182240Y-118110000D01*
X106356632Y-117993475D01*
X106375107Y-117975000D01*
X133004588Y-117975000D01*
X133059547Y-117964068D01*
X133115299Y-117958577D01*
X133168906Y-117942315D01*
X133223867Y-117931383D01*
X133275642Y-117909937D01*
X133329247Y-117893676D01*
X133378651Y-117867269D01*
X133430424Y-117845824D01*
X133477014Y-117814693D01*
X133526423Y-117788284D01*
X133569732Y-117752741D01*
X133616320Y-117721612D01*
X133655941Y-117681991D01*
X133699249Y-117646449D01*
X133734791Y-117603141D01*
X133774412Y-117563520D01*
X133805541Y-117516932D01*
X133841084Y-117473623D01*
X133867493Y-117424214D01*
X133898624Y-117377624D01*
X133920069Y-117325851D01*
X133946476Y-117276447D01*
X133962737Y-117222842D01*
X133984183Y-117171067D01*
X133995115Y-117116106D01*
X134011377Y-117062499D01*
X134016868Y-117006747D01*
X134027800Y-116951788D01*
X134027800Y-116895752D01*
X134033291Y-116840000D01*
X142445709Y-116840000D01*
X142451200Y-116895752D01*
X142451200Y-116951788D01*
X142462132Y-117006747D01*
X142467623Y-117062499D01*
X142483885Y-117116106D01*
X142494817Y-117171067D01*
X142516263Y-117222842D01*
X142532524Y-117276447D01*
X142558931Y-117325851D01*
X142580376Y-117377624D01*
X142611507Y-117424214D01*
X142637916Y-117473623D01*
X142673459Y-117516932D01*
X142704588Y-117563520D01*
X142744209Y-117603141D01*
X142779751Y-117646449D01*
X142823059Y-117681991D01*
X142862680Y-117721612D01*
X142909268Y-117752741D01*
X142952577Y-117788284D01*
X143001986Y-117814693D01*
X143048576Y-117845824D01*
X143100349Y-117867269D01*
X143149753Y-117893676D01*
X143203358Y-117909937D01*
X143255133Y-117931383D01*
X143310094Y-117942315D01*
X143363701Y-117958577D01*
X143419453Y-117964068D01*
X143474412Y-117975000D01*
X157784893Y-117975000D01*
X157803368Y-117993475D01*
X157977760Y-118110000D01*
X157803368Y-118226525D01*
X157596525Y-118433368D01*
X157434010Y-118676589D01*
X157322068Y-118946842D01*
X157265000Y-119233740D01*
X157265000Y-119526260D01*
X157322068Y-119813158D01*
X157434010Y-120083411D01*
X157596525Y-120326632D01*
X157803368Y-120533475D01*
X158046589Y-120695990D01*
X158316842Y-120807932D01*
X158603740Y-120865000D01*
X158896260Y-120865000D01*
X159183158Y-120807932D01*
X159453411Y-120695990D01*
X159696632Y-120533475D01*
X159903475Y-120326632D01*
X160065990Y-120083411D01*
X160177932Y-119813158D01*
X160235000Y-119526260D01*
X160235000Y-119233740D01*
X160177932Y-118946842D01*
X160065990Y-118676589D01*
X159903475Y-118433368D01*
X159696632Y-118226525D01*
X159522240Y-118110000D01*
X159696632Y-117993475D01*
X159903475Y-117786632D01*
X160065990Y-117543411D01*
X160177932Y-117273158D01*
X160235000Y-116986260D01*
X160235000Y-116693740D01*
X160177932Y-116406842D01*
X160065990Y-116136589D01*
X159903475Y-115893368D01*
X159696632Y-115686525D01*
X159514466Y-115564805D01*
X159631355Y-115495178D01*
X159847588Y-115300269D01*
X160021641Y-115066920D01*
X160146825Y-114804099D01*
X160191476Y-114656890D01*
X160070155Y-114427000D01*
X158877000Y-114427000D01*
X158877000Y-114447000D01*
X158623000Y-114447000D01*
X158623000Y-114427000D01*
X157429845Y-114427000D01*
X157308524Y-114656890D01*
X157353175Y-114804099D01*
X157478359Y-115066920D01*
X157652412Y-115300269D01*
X157868645Y-115495178D01*
X157985534Y-115564805D01*
X157803368Y-115686525D01*
X157784893Y-115705000D01*
X143474412Y-115705000D01*
X143419453Y-115715932D01*
X143363701Y-115721423D01*
X143310094Y-115737685D01*
X143255133Y-115748617D01*
X143203358Y-115770063D01*
X143149753Y-115786324D01*
X143100349Y-115812731D01*
X143048576Y-115834176D01*
X143001986Y-115865307D01*
X142952577Y-115891716D01*
X142909268Y-115927259D01*
X142862680Y-115958388D01*
X142823059Y-115998009D01*
X142779751Y-116033551D01*
X142744209Y-116076859D01*
X142704588Y-116116480D01*
X142673459Y-116163068D01*
X142637916Y-116206377D01*
X142611507Y-116255786D01*
X142580376Y-116302376D01*
X142558931Y-116354149D01*
X142532524Y-116403553D01*
X142516263Y-116457158D01*
X142494817Y-116508933D01*
X142483885Y-116563894D01*
X142467623Y-116617501D01*
X142462132Y-116673253D01*
X142451200Y-116728212D01*
X142451200Y-116784248D01*
X142445709Y-116840000D01*
X134033291Y-116840000D01*
X134027800Y-116784248D01*
X134027800Y-116728212D01*
X134016868Y-116673253D01*
X134011377Y-116617501D01*
X133995115Y-116563894D01*
X133984183Y-116508933D01*
X133962737Y-116457158D01*
X133946476Y-116403553D01*
X133920069Y-116354149D01*
X133898624Y-116302376D01*
X133867493Y-116255786D01*
X133841084Y-116206377D01*
X133805541Y-116163068D01*
X133774412Y-116116480D01*
X133734791Y-116076859D01*
X133699249Y-116033551D01*
X133655941Y-115998009D01*
X133616320Y-115958388D01*
X133569732Y-115927259D01*
X133526423Y-115891716D01*
X133477014Y-115865307D01*
X133430424Y-115834176D01*
X133378651Y-115812731D01*
X133329247Y-115786324D01*
X133275642Y-115770063D01*
X133223867Y-115748617D01*
X133168906Y-115737685D01*
X133115299Y-115721423D01*
X133059547Y-115715932D01*
X133004588Y-115705000D01*
X106375107Y-115705000D01*
X106356632Y-115686525D01*
X106182240Y-115570000D01*
X106356632Y-115453475D01*
X106563475Y-115246632D01*
X106725990Y-115003411D01*
X106837932Y-114733158D01*
X106895000Y-114446260D01*
X106895000Y-114153740D01*
X106837932Y-113866842D01*
X106725990Y-113596589D01*
X106563475Y-113353368D01*
X106356632Y-113146525D01*
X106182240Y-113030000D01*
X106356632Y-112913475D01*
X106375107Y-112895000D01*
X131239288Y-112895000D01*
X131294247Y-112884068D01*
X131349999Y-112878577D01*
X131403606Y-112862315D01*
X131458567Y-112851383D01*
X131510342Y-112829937D01*
X131563947Y-112813676D01*
X131613351Y-112787269D01*
X131665124Y-112765824D01*
X131711714Y-112734693D01*
X131761123Y-112708284D01*
X131804432Y-112672741D01*
X131851020Y-112641612D01*
X131882632Y-112610000D01*
X157261928Y-112610000D01*
X157274188Y-112734482D01*
X157310498Y-112854180D01*
X157369463Y-112964494D01*
X157448815Y-113061185D01*
X157545506Y-113140537D01*
X157655820Y-113199502D01*
X157736466Y-113223966D01*
X157652412Y-113299731D01*
X157478359Y-113533080D01*
X157353175Y-113795901D01*
X157308524Y-113943110D01*
X157429845Y-114173000D01*
X158623000Y-114173000D01*
X158623000Y-111887000D01*
X158877000Y-111887000D01*
X158877000Y-114173000D01*
X160070155Y-114173000D01*
X160191476Y-113943110D01*
X160146825Y-113795901D01*
X160021641Y-113533080D01*
X159847588Y-113299731D01*
X159763534Y-113223966D01*
X159844180Y-113199502D01*
X159954494Y-113140537D01*
X160051185Y-113061185D01*
X160130537Y-112964494D01*
X160189502Y-112854180D01*
X160225812Y-112734482D01*
X160238072Y-112610000D01*
X160235000Y-112045750D01*
X160076250Y-111887000D01*
X158877000Y-111887000D01*
X158623000Y-111887000D01*
X157423750Y-111887000D01*
X157265000Y-112045750D01*
X157261928Y-112610000D01*
X131882632Y-112610000D01*
X131890641Y-112601991D01*
X131933949Y-112566449D01*
X131969491Y-112523141D01*
X132009112Y-112483520D01*
X132040241Y-112436932D01*
X132075784Y-112393623D01*
X132102193Y-112344214D01*
X132133324Y-112297624D01*
X132154769Y-112245851D01*
X132181176Y-112196447D01*
X132197437Y-112142842D01*
X132218883Y-112091067D01*
X132229815Y-112036106D01*
X132246077Y-111982499D01*
X132251568Y-111926747D01*
X132262500Y-111871788D01*
X132262500Y-111815752D01*
X132267991Y-111760000D01*
X132262500Y-111704248D01*
X132262500Y-111648212D01*
X132251568Y-111593253D01*
X132246077Y-111537501D01*
X132229815Y-111483894D01*
X132218883Y-111428933D01*
X132197437Y-111377158D01*
X132181176Y-111323553D01*
X132154769Y-111274149D01*
X132133324Y-111222376D01*
X132102193Y-111175786D01*
X132075784Y-111126377D01*
X132040241Y-111083068D01*
X132009112Y-111036480D01*
X131969491Y-110996859D01*
X131933949Y-110953551D01*
X131890641Y-110918009D01*
X131882632Y-110910000D01*
X157261928Y-110910000D01*
X157265000Y-111474250D01*
X157423750Y-111633000D01*
X158623000Y-111633000D01*
X158623000Y-110433750D01*
X158877000Y-110433750D01*
X158877000Y-111633000D01*
X160076250Y-111633000D01*
X160235000Y-111474250D01*
X160238072Y-110910000D01*
X160225812Y-110785518D01*
X160189502Y-110665820D01*
X160130537Y-110555506D01*
X160051185Y-110458815D01*
X159954494Y-110379463D01*
X159844180Y-110320498D01*
X159724482Y-110284188D01*
X159600000Y-110271928D01*
X159035750Y-110275000D01*
X158877000Y-110433750D01*
X158623000Y-110433750D01*
X158464250Y-110275000D01*
X157900000Y-110271928D01*
X157775518Y-110284188D01*
X157655820Y-110320498D01*
X157545506Y-110379463D01*
X157448815Y-110458815D01*
X157369463Y-110555506D01*
X157310498Y-110665820D01*
X157274188Y-110785518D01*
X157261928Y-110910000D01*
X131882632Y-110910000D01*
X131851020Y-110878388D01*
X131804432Y-110847259D01*
X131761123Y-110811716D01*
X131711714Y-110785307D01*
X131665124Y-110754176D01*
X131613351Y-110732731D01*
X131563947Y-110706324D01*
X131510342Y-110690063D01*
X131458567Y-110668617D01*
X131403606Y-110657685D01*
X131349999Y-110641423D01*
X131294247Y-110635932D01*
X131239288Y-110625000D01*
X106375107Y-110625000D01*
X106356632Y-110606525D01*
X106182240Y-110490000D01*
X106356632Y-110373475D01*
X106563475Y-110166632D01*
X106725990Y-109923411D01*
X106783943Y-109783500D01*
X135904247Y-109783500D01*
X135959999Y-109788991D01*
X136015750Y-109783500D01*
X136015751Y-109783500D01*
X136182498Y-109767077D01*
X136396446Y-109702176D01*
X136593622Y-109596784D01*
X136766448Y-109454949D01*
X136822594Y-109386536D01*
X137463302Y-108745828D01*
X137659947Y-108686176D01*
X137857123Y-108580784D01*
X138029949Y-108438949D01*
X138171784Y-108266123D01*
X138277176Y-108068947D01*
X138342077Y-107854999D01*
X138363991Y-107632500D01*
X138342077Y-107410001D01*
X138277176Y-107196053D01*
X138171784Y-106998877D01*
X138029949Y-106826051D01*
X137857123Y-106684216D01*
X137659947Y-106578824D01*
X137445999Y-106513923D01*
X137279252Y-106497500D01*
X137027250Y-106497500D01*
X136971498Y-106492009D01*
X136748999Y-106513923D01*
X136535051Y-106578824D01*
X136337875Y-106684216D01*
X136208354Y-106790511D01*
X136208352Y-106790513D01*
X136165049Y-106826051D01*
X136129511Y-106869355D01*
X135485366Y-107513500D01*
X106639067Y-107513500D01*
X106725990Y-107383411D01*
X106837932Y-107113158D01*
X106895000Y-106826260D01*
X106895000Y-106533740D01*
X106837932Y-106246842D01*
X106725990Y-105976589D01*
X106563475Y-105733368D01*
X106356632Y-105526525D01*
X106174466Y-105404805D01*
X106291355Y-105335178D01*
X106507588Y-105140269D01*
X106582377Y-105040000D01*
X110261928Y-105040000D01*
X110274188Y-105164482D01*
X110310498Y-105284180D01*
X110369463Y-105394494D01*
X110448815Y-105491185D01*
X110545506Y-105570537D01*
X110655820Y-105629502D01*
X110775518Y-105665812D01*
X110900000Y-105678072D01*
X111514250Y-105675000D01*
X111673000Y-105516250D01*
X111673000Y-104267000D01*
X110423750Y-104267000D01*
X110265000Y-104425750D01*
X110261928Y-105040000D01*
X106582377Y-105040000D01*
X106681641Y-104906920D01*
X106806825Y-104644099D01*
X106851476Y-104496890D01*
X106730155Y-104267000D01*
X105537000Y-104267000D01*
X105537000Y-104287000D01*
X105283000Y-104287000D01*
X105283000Y-104267000D01*
X104089845Y-104267000D01*
X103968524Y-104496890D01*
X104013175Y-104644099D01*
X104138359Y-104906920D01*
X104312412Y-105140269D01*
X104528645Y-105335178D01*
X104645534Y-105404805D01*
X104463368Y-105526525D01*
X104256525Y-105733368D01*
X104094010Y-105976589D01*
X103982068Y-106246842D01*
X103925000Y-106533740D01*
X103530000Y-106533740D01*
X103530000Y-102450000D01*
X103921928Y-102450000D01*
X103934188Y-102574482D01*
X103970498Y-102694180D01*
X104029463Y-102804494D01*
X104108815Y-102901185D01*
X104205506Y-102980537D01*
X104315820Y-103039502D01*
X104396466Y-103063966D01*
X104312412Y-103139731D01*
X104138359Y-103373080D01*
X104013175Y-103635901D01*
X103968524Y-103783110D01*
X104089845Y-104013000D01*
X105283000Y-104013000D01*
X105283000Y-101727000D01*
X105537000Y-101727000D01*
X105537000Y-104013000D01*
X106730155Y-104013000D01*
X106851476Y-103783110D01*
X106806825Y-103635901D01*
X106681641Y-103373080D01*
X106582378Y-103240000D01*
X110261928Y-103240000D01*
X110265000Y-103854250D01*
X110423750Y-104013000D01*
X111673000Y-104013000D01*
X111673000Y-102763750D01*
X111927000Y-102763750D01*
X111927000Y-104013000D01*
X111947000Y-104013000D01*
X111947000Y-104267000D01*
X111927000Y-104267000D01*
X111927000Y-105516250D01*
X112085750Y-105675000D01*
X112700000Y-105678072D01*
X112824482Y-105665812D01*
X112944180Y-105629502D01*
X113054494Y-105570537D01*
X113151185Y-105491185D01*
X113230537Y-105394494D01*
X113283880Y-105294697D01*
X113321495Y-105332312D01*
X113572905Y-105500299D01*
X113852257Y-105616011D01*
X114148816Y-105675000D01*
X114451184Y-105675000D01*
X114747743Y-105616011D01*
X115027095Y-105500299D01*
X115278505Y-105332312D01*
X115492312Y-105118505D01*
X115550000Y-105032169D01*
X115607688Y-105118505D01*
X115821495Y-105332312D01*
X116072905Y-105500299D01*
X116352257Y-105616011D01*
X116648816Y-105675000D01*
X116951184Y-105675000D01*
X117247743Y-105616011D01*
X117527095Y-105500299D01*
X117778505Y-105332312D01*
X117992312Y-105118505D01*
X118160299Y-104867095D01*
X118276011Y-104587743D01*
X118335000Y-104291184D01*
X118335000Y-103988816D01*
X118276011Y-103692257D01*
X118160299Y-103412905D01*
X117992312Y-103161495D01*
X117778505Y-102947688D01*
X117572526Y-102810057D01*
X122560249Y-102810057D01*
X122582163Y-103032555D01*
X122647064Y-103246503D01*
X122752457Y-103443679D01*
X122894292Y-103616505D01*
X123067118Y-103758340D01*
X123264294Y-103863733D01*
X123478242Y-103928634D01*
X123700740Y-103950548D01*
X123923238Y-103928634D01*
X124137186Y-103863733D01*
X124334362Y-103758340D01*
X124463883Y-103652045D01*
X126015930Y-102100000D01*
X139864869Y-102100000D01*
X140769869Y-103005000D01*
X131500752Y-103005000D01*
X131445000Y-102999509D01*
X131389248Y-103005000D01*
X131222501Y-103021423D01*
X131008553Y-103086324D01*
X130811377Y-103191716D01*
X130638551Y-103333551D01*
X130603009Y-103376859D01*
X128698012Y-105281857D01*
X128591717Y-105411378D01*
X128486324Y-105608554D01*
X128421423Y-105822502D01*
X128399509Y-106045000D01*
X128421423Y-106267498D01*
X128486324Y-106481446D01*
X128591717Y-106678622D01*
X128733552Y-106851448D01*
X128906378Y-106993283D01*
X129103554Y-107098676D01*
X129317502Y-107163577D01*
X129540000Y-107185491D01*
X129762498Y-107163577D01*
X129976446Y-107098676D01*
X130173622Y-106993283D01*
X130303143Y-106886988D01*
X131915132Y-105275000D01*
X141660752Y-105275000D01*
X141827499Y-105258577D01*
X142041447Y-105193676D01*
X142238623Y-105088284D01*
X142411449Y-104946449D01*
X142546616Y-104781748D01*
X144268010Y-106503142D01*
X144303552Y-106546450D01*
X144476378Y-106688285D01*
X144673554Y-106793677D01*
X144837706Y-106843472D01*
X144887501Y-106858578D01*
X144908494Y-106860645D01*
X145054249Y-106875001D01*
X145054256Y-106875001D01*
X145110000Y-106880491D01*
X145165744Y-106875001D01*
X149437040Y-106875001D01*
X149492791Y-106880492D01*
X149548542Y-106875001D01*
X149548543Y-106875001D01*
X149715290Y-106858578D01*
X149929238Y-106793677D01*
X150126414Y-106688285D01*
X150299240Y-106546450D01*
X150334787Y-106503136D01*
X150583135Y-106254788D01*
X150626449Y-106219241D01*
X150768284Y-106046415D01*
X150873676Y-105849239D01*
X150938577Y-105635291D01*
X150955000Y-105468544D01*
X150955000Y-105468535D01*
X150960490Y-105412793D01*
X150955000Y-105357051D01*
X150955000Y-105175817D01*
X151012312Y-105118505D01*
X151070000Y-105032169D01*
X151127688Y-105118505D01*
X151341495Y-105332312D01*
X151592905Y-105500299D01*
X151872257Y-105616011D01*
X152168816Y-105675000D01*
X152471184Y-105675000D01*
X152767743Y-105616011D01*
X153047095Y-105500299D01*
X153298505Y-105332312D01*
X153512312Y-105118505D01*
X153680299Y-104867095D01*
X153796011Y-104587743D01*
X153855000Y-104291184D01*
X153855000Y-103988816D01*
X153796011Y-103692257D01*
X153680299Y-103412905D01*
X153512312Y-103161495D01*
X153298505Y-102947688D01*
X153047095Y-102779701D01*
X152767743Y-102663989D01*
X152471184Y-102605000D01*
X152168816Y-102605000D01*
X151872257Y-102663989D01*
X151592905Y-102779701D01*
X151341495Y-102947688D01*
X151127688Y-103161495D01*
X151070000Y-103247831D01*
X151012312Y-103161495D01*
X150798505Y-102947688D01*
X150547095Y-102779701D01*
X150267743Y-102663989D01*
X149971184Y-102605000D01*
X149668816Y-102605000D01*
X149372257Y-102663989D01*
X149092905Y-102779701D01*
X148841495Y-102947688D01*
X148803880Y-102985303D01*
X148750537Y-102885506D01*
X148671185Y-102788815D01*
X148574494Y-102709463D01*
X148464180Y-102650498D01*
X148344482Y-102614188D01*
X148220000Y-102601928D01*
X147605750Y-102605000D01*
X147447000Y-102763750D01*
X147447000Y-104013000D01*
X147467000Y-104013000D01*
X147467000Y-104267000D01*
X147447000Y-104267000D01*
X147447000Y-104287000D01*
X147193000Y-104287000D01*
X147193000Y-104267000D01*
X145943750Y-104267000D01*
X145785000Y-104425750D01*
X145784104Y-104605001D01*
X145580133Y-104605001D01*
X144215132Y-103240000D01*
X145781928Y-103240000D01*
X145785000Y-103854250D01*
X145943750Y-104013000D01*
X147193000Y-104013000D01*
X147193000Y-102763750D01*
X147034250Y-102605000D01*
X146420000Y-102601928D01*
X146295518Y-102614188D01*
X146175820Y-102650498D01*
X146065506Y-102709463D01*
X145968815Y-102788815D01*
X145889463Y-102885506D01*
X145830498Y-102995820D01*
X145794188Y-103115518D01*
X145781928Y-103240000D01*
X144215132Y-103240000D01*
X141176996Y-100201865D01*
X141141449Y-100158551D01*
X140968623Y-100016716D01*
X140771447Y-99911324D01*
X140557499Y-99846423D01*
X140390752Y-99830000D01*
X140390751Y-99830000D01*
X140335000Y-99824509D01*
X140279249Y-99830000D01*
X125601549Y-99830000D01*
X125545797Y-99824509D01*
X125323298Y-99846423D01*
X125109350Y-99911324D01*
X124912174Y-100016716D01*
X124782653Y-100123011D01*
X124782652Y-100123012D01*
X124739348Y-100158551D01*
X124703810Y-100201854D01*
X122858752Y-102046914D01*
X122752457Y-102176435D01*
X122647064Y-102373611D01*
X122582163Y-102587559D01*
X122560249Y-102810057D01*
X117572526Y-102810057D01*
X117527095Y-102779701D01*
X117247743Y-102663989D01*
X116951184Y-102605000D01*
X116648816Y-102605000D01*
X116352257Y-102663989D01*
X116072905Y-102779701D01*
X115821495Y-102947688D01*
X115607688Y-103161495D01*
X115550000Y-103247831D01*
X115492312Y-103161495D01*
X115278505Y-102947688D01*
X115027095Y-102779701D01*
X114747743Y-102663989D01*
X114451184Y-102605000D01*
X114148816Y-102605000D01*
X113852257Y-102663989D01*
X113572905Y-102779701D01*
X113321495Y-102947688D01*
X113283880Y-102985303D01*
X113230537Y-102885506D01*
X113151185Y-102788815D01*
X113054494Y-102709463D01*
X112944180Y-102650498D01*
X112824482Y-102614188D01*
X112700000Y-102601928D01*
X112085750Y-102605000D01*
X111927000Y-102763750D01*
X111673000Y-102763750D01*
X111514250Y-102605000D01*
X110900000Y-102601928D01*
X110775518Y-102614188D01*
X110655820Y-102650498D01*
X110545506Y-102709463D01*
X110448815Y-102788815D01*
X110369463Y-102885506D01*
X110310498Y-102995820D01*
X110274188Y-103115518D01*
X110261928Y-103240000D01*
X106582378Y-103240000D01*
X106507588Y-103139731D01*
X106423534Y-103063966D01*
X106504180Y-103039502D01*
X106614494Y-102980537D01*
X106711185Y-102901185D01*
X106790537Y-102804494D01*
X106849502Y-102694180D01*
X106885812Y-102574482D01*
X106898072Y-102450000D01*
X106895000Y-101885750D01*
X106736250Y-101727000D01*
X105537000Y-101727000D01*
X105283000Y-101727000D01*
X104083750Y-101727000D01*
X103925000Y-101885750D01*
X103921928Y-102450000D01*
X103530000Y-102450000D01*
X103530000Y-100750000D01*
X103921928Y-100750000D01*
X103925000Y-101314250D01*
X104083750Y-101473000D01*
X105283000Y-101473000D01*
X105283000Y-100273750D01*
X105537000Y-100273750D01*
X105537000Y-101473000D01*
X106736250Y-101473000D01*
X106895000Y-101314250D01*
X106898072Y-100750000D01*
X106885812Y-100625518D01*
X106849502Y-100505820D01*
X106790537Y-100395506D01*
X106711185Y-100298815D01*
X106614494Y-100219463D01*
X106504180Y-100160498D01*
X106384482Y-100124188D01*
X106260000Y-100111928D01*
X105695750Y-100115000D01*
X105537000Y-100273750D01*
X105283000Y-100273750D01*
X105124250Y-100115000D01*
X104560000Y-100111928D01*
X104435518Y-100124188D01*
X104315820Y-100160498D01*
X104205506Y-100219463D01*
X104108815Y-100298815D01*
X104029463Y-100395506D01*
X103970498Y-100505820D01*
X103934188Y-100625518D01*
X103921928Y-100750000D01*
X103530000Y-100750000D01*
X103530000Y-96417902D01*
X107245000Y-96417902D01*
X107245000Y-96862098D01*
X107331658Y-97297759D01*
X107501645Y-97708143D01*
X107748427Y-98077479D01*
X108062521Y-98391573D01*
X108431857Y-98638355D01*
X108842241Y-98808342D01*
X109277902Y-98895000D01*
X109722098Y-98895000D01*
X110157759Y-98808342D01*
X110568143Y-98638355D01*
X110937479Y-98391573D01*
X111251573Y-98077479D01*
X111498355Y-97708143D01*
X111668342Y-97297759D01*
X111755000Y-96862098D01*
X111755000Y-96417902D01*
X116845000Y-96417902D01*
X116845000Y-96862098D01*
X116931658Y-97297759D01*
X117101645Y-97708143D01*
X117348427Y-98077479D01*
X117662521Y-98391573D01*
X118031857Y-98638355D01*
X118442241Y-98808342D01*
X118877902Y-98895000D01*
X119322098Y-98895000D01*
X119757759Y-98808342D01*
X120168143Y-98638355D01*
X120537479Y-98391573D01*
X120851573Y-98077479D01*
X121098355Y-97708143D01*
X121268342Y-97297759D01*
X121355000Y-96862098D01*
X121355000Y-96417902D01*
X142765000Y-96417902D01*
X142765000Y-96862098D01*
X142851658Y-97297759D01*
X143021645Y-97708143D01*
X143268427Y-98077479D01*
X143582521Y-98391573D01*
X143951857Y-98638355D01*
X144362241Y-98808342D01*
X144797902Y-98895000D01*
X145242098Y-98895000D01*
X145677759Y-98808342D01*
X146088143Y-98638355D01*
X146457479Y-98391573D01*
X146771573Y-98077479D01*
X147018355Y-97708143D01*
X147188342Y-97297759D01*
X147275000Y-96862098D01*
X147275000Y-96417902D01*
X152365000Y-96417902D01*
X152365000Y-96862098D01*
X152451658Y-97297759D01*
X152621645Y-97708143D01*
X152868427Y-98077479D01*
X153182521Y-98391573D01*
X153551857Y-98638355D01*
X153962241Y-98808342D01*
X154397902Y-98895000D01*
X154842098Y-98895000D01*
X155277759Y-98808342D01*
X155688143Y-98638355D01*
X156057479Y-98391573D01*
X156371573Y-98077479D01*
X156618355Y-97708143D01*
X156788342Y-97297759D01*
X156875000Y-96862098D01*
X156875000Y-96417902D01*
X156788342Y-95982241D01*
X156618355Y-95571857D01*
X156371573Y-95202521D01*
X156057479Y-94888427D01*
X155688143Y-94641645D01*
X155277759Y-94471658D01*
X154842098Y-94385000D01*
X154397902Y-94385000D01*
X153962241Y-94471658D01*
X153551857Y-94641645D01*
X153182521Y-94888427D01*
X152868427Y-95202521D01*
X152621645Y-95571857D01*
X152451658Y-95982241D01*
X152365000Y-96417902D01*
X147275000Y-96417902D01*
X147188342Y-95982241D01*
X147018355Y-95571857D01*
X146771573Y-95202521D01*
X146457479Y-94888427D01*
X146088143Y-94641645D01*
X145677759Y-94471658D01*
X145242098Y-94385000D01*
X144797902Y-94385000D01*
X144362241Y-94471658D01*
X143951857Y-94641645D01*
X143582521Y-94888427D01*
X143268427Y-95202521D01*
X143021645Y-95571857D01*
X142851658Y-95982241D01*
X142765000Y-96417902D01*
X121355000Y-96417902D01*
X121268342Y-95982241D01*
X121098355Y-95571857D01*
X120851573Y-95202521D01*
X120537479Y-94888427D01*
X120168143Y-94641645D01*
X119757759Y-94471658D01*
X119322098Y-94385000D01*
X118877902Y-94385000D01*
X118442241Y-94471658D01*
X118031857Y-94641645D01*
X117662521Y-94888427D01*
X117348427Y-95202521D01*
X117101645Y-95571857D01*
X116931658Y-95982241D01*
X116845000Y-96417902D01*
X111755000Y-96417902D01*
X111668342Y-95982241D01*
X111498355Y-95571857D01*
X111251573Y-95202521D01*
X110937479Y-94888427D01*
X110568143Y-94641645D01*
X110157759Y-94471658D01*
X109722098Y-94385000D01*
X109277902Y-94385000D01*
X108842241Y-94471658D01*
X108431857Y-94641645D01*
X108062521Y-94888427D01*
X107748427Y-95202521D01*
X107501645Y-95571857D01*
X107331658Y-95982241D01*
X107245000Y-96417902D01*
X103530000Y-96417902D01*
X103530000Y-93980000D01*
X122684509Y-93980000D01*
X122706423Y-94202499D01*
X122771324Y-94416447D01*
X122876716Y-94613623D01*
X123018551Y-94786449D01*
X123191377Y-94928284D01*
X123388553Y-95033676D01*
X123602501Y-95098577D01*
X123769248Y-95115000D01*
X140660249Y-95115000D01*
X140716000Y-95120491D01*
X140771751Y-95115000D01*
X140771752Y-95115000D01*
X140938499Y-95098577D01*
X141152447Y-95033676D01*
X141349623Y-94928284D01*
X141522449Y-94786449D01*
X141557996Y-94743135D01*
X144742132Y-91559000D01*
X149915752Y-91559000D01*
X150082499Y-91542577D01*
X150296447Y-91477676D01*
X150493623Y-91372284D01*
X150666449Y-91230449D01*
X150808284Y-91057623D01*
X150913676Y-90860447D01*
X150978577Y-90646499D01*
X151000491Y-90424000D01*
X150978577Y-90201501D01*
X150913676Y-89987553D01*
X150808284Y-89790377D01*
X150666449Y-89617551D01*
X150493623Y-89475716D01*
X150296447Y-89370324D01*
X150082499Y-89305423D01*
X149915752Y-89289000D01*
X144327741Y-89289000D01*
X144271999Y-89283510D01*
X144216257Y-89289000D01*
X144216248Y-89289000D01*
X144049501Y-89305423D01*
X143835553Y-89370324D01*
X143638377Y-89475716D01*
X143465551Y-89617551D01*
X143430009Y-89660859D01*
X140245869Y-92845000D01*
X123769248Y-92845000D01*
X123602501Y-92861423D01*
X123388553Y-92926324D01*
X123191377Y-93031716D01*
X123018551Y-93173551D01*
X122876716Y-93346377D01*
X122771324Y-93543553D01*
X122706423Y-93757501D01*
X122684509Y-93980000D01*
X103530000Y-93980000D01*
X103530000Y-82550000D01*
X126494509Y-82550000D01*
X126516423Y-82772499D01*
X126581324Y-82986447D01*
X126686716Y-83183623D01*
X126828551Y-83356449D01*
X127001377Y-83498284D01*
X127198553Y-83603676D01*
X127412501Y-83668577D01*
X127579248Y-83685000D01*
X141327552Y-83685000D01*
X141598843Y-83699800D01*
X141766237Y-83692485D01*
X141983402Y-83639335D01*
X142186027Y-83544840D01*
X142366322Y-83412630D01*
X142517361Y-83247786D01*
X142633337Y-83056644D01*
X142709796Y-82846549D01*
X142743798Y-82625574D01*
X142734036Y-82402213D01*
X142680886Y-82185047D01*
X142586391Y-81982423D01*
X142454181Y-81802127D01*
X142289338Y-81651089D01*
X142098195Y-81535112D01*
X141888100Y-81458653D01*
X141722496Y-81433172D01*
X141445055Y-81418037D01*
X141414224Y-81415000D01*
X141389394Y-81415000D01*
X141364629Y-81413649D01*
X141333713Y-81415000D01*
X127579248Y-81415000D01*
X127412501Y-81431423D01*
X127198553Y-81496324D01*
X127001377Y-81601716D01*
X126828551Y-81743551D01*
X126686716Y-81916377D01*
X126581324Y-82113553D01*
X126516423Y-82327501D01*
X126494509Y-82550000D01*
X103530000Y-82550000D01*
X103530000Y-80645000D01*
X106809509Y-80645000D01*
X106831423Y-80867499D01*
X106896324Y-81081447D01*
X107001716Y-81278623D01*
X107143551Y-81451449D01*
X107316377Y-81593284D01*
X107513553Y-81698676D01*
X107727501Y-81763577D01*
X107894248Y-81780000D01*
X122610752Y-81780000D01*
X122777499Y-81763577D01*
X122991447Y-81698676D01*
X123188623Y-81593284D01*
X123361449Y-81451449D01*
X123503284Y-81278623D01*
X123608676Y-81081447D01*
X123673577Y-80867499D01*
X123695491Y-80645000D01*
X123673577Y-80422501D01*
X123608676Y-80208553D01*
X123503284Y-80011377D01*
X123361449Y-79838551D01*
X123188623Y-79696716D01*
X122991447Y-79591324D01*
X122777499Y-79526423D01*
X122610752Y-79510000D01*
X107894248Y-79510000D01*
X107727501Y-79526423D01*
X107513553Y-79591324D01*
X107316377Y-79696716D01*
X107143551Y-79838551D01*
X107001716Y-80011377D01*
X106896324Y-80208553D01*
X106831423Y-80422501D01*
X106809509Y-80645000D01*
X103530000Y-80645000D01*
X103530000Y-76053740D01*
X103925000Y-76053740D01*
X103925000Y-76346260D01*
X103982068Y-76633158D01*
X104094010Y-76903411D01*
X104256525Y-77146632D01*
X104463368Y-77353475D01*
X104637760Y-77470000D01*
X104463368Y-77586525D01*
X104256525Y-77793368D01*
X104094010Y-78036589D01*
X103982068Y-78306842D01*
X103925000Y-78593740D01*
X103925000Y-78886260D01*
X103982068Y-79173158D01*
X104094010Y-79443411D01*
X104256525Y-79686632D01*
X104463368Y-79893475D01*
X104706589Y-80055990D01*
X104976842Y-80167932D01*
X105263740Y-80225000D01*
X105556260Y-80225000D01*
X105843158Y-80167932D01*
X106113411Y-80055990D01*
X106356632Y-79893475D01*
X106563475Y-79686632D01*
X106725990Y-79443411D01*
X106837932Y-79173158D01*
X106895000Y-78886260D01*
X106895000Y-78593740D01*
X106837932Y-78306842D01*
X106754327Y-78105000D01*
X113159509Y-78105000D01*
X113181423Y-78327499D01*
X113246324Y-78541447D01*
X113351716Y-78738623D01*
X113493551Y-78911449D01*
X113666377Y-79053284D01*
X113863553Y-79158676D01*
X114077501Y-79223577D01*
X114244248Y-79240000D01*
X122610752Y-79240000D01*
X122777499Y-79223577D01*
X122991447Y-79158676D01*
X123188623Y-79053284D01*
X123361449Y-78911449D01*
X123503284Y-78738623D01*
X123608676Y-78541447D01*
X123673577Y-78327499D01*
X123695491Y-78105000D01*
X123673577Y-77882501D01*
X123608676Y-77668553D01*
X123503284Y-77471377D01*
X123361449Y-77298551D01*
X123188623Y-77156716D01*
X122991447Y-77051324D01*
X122777499Y-76986423D01*
X122610752Y-76970000D01*
X114244248Y-76970000D01*
X114077501Y-76986423D01*
X113863553Y-77051324D01*
X113666377Y-77156716D01*
X113493551Y-77298551D01*
X113351716Y-77471377D01*
X113246324Y-77668553D01*
X113181423Y-77882501D01*
X113159509Y-78105000D01*
X106754327Y-78105000D01*
X106725990Y-78036589D01*
X106563475Y-77793368D01*
X106356632Y-77586525D01*
X106182240Y-77470000D01*
X106356632Y-77353475D01*
X106563475Y-77146632D01*
X106725990Y-76903411D01*
X106837932Y-76633158D01*
X106895000Y-76346260D01*
X106895000Y-76053740D01*
X157265000Y-76053740D01*
X157265000Y-76346260D01*
X157322068Y-76633158D01*
X157434010Y-76903411D01*
X157596525Y-77146632D01*
X157803368Y-77353475D01*
X157977760Y-77470000D01*
X157803368Y-77586525D01*
X157596525Y-77793368D01*
X157434010Y-78036589D01*
X157322068Y-78306842D01*
X157265000Y-78593740D01*
X157265000Y-78886260D01*
X157322068Y-79173158D01*
X157434010Y-79443411D01*
X157596525Y-79686632D01*
X157803368Y-79893475D01*
X158046589Y-80055990D01*
X158316842Y-80167932D01*
X158603740Y-80225000D01*
X158896260Y-80225000D01*
X159183158Y-80167932D01*
X159453411Y-80055990D01*
X159696632Y-79893475D01*
X159903475Y-79686632D01*
X160065990Y-79443411D01*
X160177932Y-79173158D01*
X160235000Y-78886260D01*
X160235000Y-78593740D01*
X160177932Y-78306842D01*
X160065990Y-78036589D01*
X159903475Y-77793368D01*
X159696632Y-77586525D01*
X159522240Y-77470000D01*
X159696632Y-77353475D01*
X159903475Y-77146632D01*
X160065990Y-76903411D01*
X160177932Y-76633158D01*
X160235000Y-76346260D01*
X160235000Y-76053740D01*
X160177932Y-75766842D01*
X160065990Y-75496589D01*
X159903475Y-75253368D01*
X159696632Y-75046525D01*
X159514466Y-74924805D01*
X159631355Y-74855178D01*
X159847588Y-74660269D01*
X160021641Y-74426920D01*
X160146825Y-74164099D01*
X160191476Y-74016890D01*
X160070155Y-73787000D01*
X158877000Y-73787000D01*
X158877000Y-73807000D01*
X158623000Y-73807000D01*
X158623000Y-73787000D01*
X157429845Y-73787000D01*
X157308524Y-74016890D01*
X157353175Y-74164099D01*
X157478359Y-74426920D01*
X157652412Y-74660269D01*
X157868645Y-74855178D01*
X157985534Y-74924805D01*
X157803368Y-75046525D01*
X157596525Y-75253368D01*
X157434010Y-75496589D01*
X157322068Y-75766842D01*
X157265000Y-76053740D01*
X106895000Y-76053740D01*
X106837932Y-75766842D01*
X106725990Y-75496589D01*
X106563475Y-75253368D01*
X106356632Y-75046525D01*
X106174466Y-74924805D01*
X106291355Y-74855178D01*
X106507588Y-74660269D01*
X106681641Y-74426920D01*
X106806825Y-74164099D01*
X106851476Y-74016890D01*
X106730155Y-73787000D01*
X105537000Y-73787000D01*
X105537000Y-73807000D01*
X105283000Y-73807000D01*
X105283000Y-73787000D01*
X104089845Y-73787000D01*
X103968524Y-74016890D01*
X104013175Y-74164099D01*
X104138359Y-74426920D01*
X104312412Y-74660269D01*
X104528645Y-74855178D01*
X104645534Y-74924805D01*
X104463368Y-75046525D01*
X104256525Y-75253368D01*
X104094010Y-75496589D01*
X103982068Y-75766842D01*
X103925000Y-76053740D01*
X103530000Y-76053740D01*
X103530000Y-71970000D01*
X103921928Y-71970000D01*
X103934188Y-72094482D01*
X103970498Y-72214180D01*
X104029463Y-72324494D01*
X104108815Y-72421185D01*
X104205506Y-72500537D01*
X104315820Y-72559502D01*
X104396466Y-72583966D01*
X104312412Y-72659731D01*
X104138359Y-72893080D01*
X104013175Y-73155901D01*
X103968524Y-73303110D01*
X104089845Y-73533000D01*
X105283000Y-73533000D01*
X105283000Y-71247000D01*
X105537000Y-71247000D01*
X105537000Y-73533000D01*
X106730155Y-73533000D01*
X106851476Y-73303110D01*
X106806825Y-73155901D01*
X106681641Y-72893080D01*
X106507588Y-72659731D01*
X106423534Y-72583966D01*
X106504180Y-72559502D01*
X106614494Y-72500537D01*
X106711185Y-72421185D01*
X106790537Y-72324494D01*
X106849502Y-72214180D01*
X106885812Y-72094482D01*
X106898072Y-71970000D01*
X157261928Y-71970000D01*
X157274188Y-72094482D01*
X157310498Y-72214180D01*
X157369463Y-72324494D01*
X157448815Y-72421185D01*
X157545506Y-72500537D01*
X157655820Y-72559502D01*
X157736466Y-72583966D01*
X157652412Y-72659731D01*
X157478359Y-72893080D01*
X157353175Y-73155901D01*
X157308524Y-73303110D01*
X157429845Y-73533000D01*
X158623000Y-73533000D01*
X158623000Y-71247000D01*
X158877000Y-71247000D01*
X158877000Y-73533000D01*
X160070155Y-73533000D01*
X160191476Y-73303110D01*
X160146825Y-73155901D01*
X160021641Y-72893080D01*
X159847588Y-72659731D01*
X159763534Y-72583966D01*
X159844180Y-72559502D01*
X159954494Y-72500537D01*
X160051185Y-72421185D01*
X160130537Y-72324494D01*
X160189502Y-72214180D01*
X160225812Y-72094482D01*
X160238072Y-71970000D01*
X160235000Y-71405750D01*
X160076250Y-71247000D01*
X158877000Y-71247000D01*
X158623000Y-71247000D01*
X157423750Y-71247000D01*
X157265000Y-71405750D01*
X157261928Y-71970000D01*
X106898072Y-71970000D01*
X106895000Y-71405750D01*
X106736250Y-71247000D01*
X105537000Y-71247000D01*
X105283000Y-71247000D01*
X104083750Y-71247000D01*
X103925000Y-71405750D01*
X103921928Y-71970000D01*
X103530000Y-71970000D01*
X103530000Y-70270000D01*
X103921928Y-70270000D01*
X103925000Y-70834250D01*
X104083750Y-70993000D01*
X105283000Y-70993000D01*
X105283000Y-69793750D01*
X105537000Y-69793750D01*
X105537000Y-70993000D01*
X106736250Y-70993000D01*
X106895000Y-70834250D01*
X106898072Y-70270000D01*
X157261928Y-70270000D01*
X157265000Y-70834250D01*
X157423750Y-70993000D01*
X158623000Y-70993000D01*
X158623000Y-69793750D01*
X158877000Y-69793750D01*
X158877000Y-70993000D01*
X160076250Y-70993000D01*
X160235000Y-70834250D01*
X160238072Y-70270000D01*
X160225812Y-70145518D01*
X160189502Y-70025820D01*
X160130537Y-69915506D01*
X160051185Y-69818815D01*
X159954494Y-69739463D01*
X159844180Y-69680498D01*
X159724482Y-69644188D01*
X159600000Y-69631928D01*
X159035750Y-69635000D01*
X158877000Y-69793750D01*
X158623000Y-69793750D01*
X158464250Y-69635000D01*
X157900000Y-69631928D01*
X157775518Y-69644188D01*
X157655820Y-69680498D01*
X157545506Y-69739463D01*
X157448815Y-69818815D01*
X157369463Y-69915506D01*
X157310498Y-70025820D01*
X157274188Y-70145518D01*
X157261928Y-70270000D01*
X106898072Y-70270000D01*
X106885812Y-70145518D01*
X106849502Y-70025820D01*
X106790537Y-69915506D01*
X106711185Y-69818815D01*
X106614494Y-69739463D01*
X106504180Y-69680498D01*
X106384482Y-69644188D01*
X106260000Y-69631928D01*
X105695750Y-69635000D01*
X105537000Y-69793750D01*
X105283000Y-69793750D01*
X105124250Y-69635000D01*
X104560000Y-69631928D01*
X104435518Y-69644188D01*
X104315820Y-69680498D01*
X104205506Y-69739463D01*
X104108815Y-69818815D01*
X104029463Y-69915506D01*
X103970498Y-70025820D01*
X103934188Y-70145518D01*
X103921928Y-70270000D01*
X103530000Y-70270000D01*
X103530000Y-66940000D01*
X110261928Y-66940000D01*
X110274188Y-67064482D01*
X110310498Y-67184180D01*
X110369463Y-67294494D01*
X110448815Y-67391185D01*
X110545506Y-67470537D01*
X110655820Y-67529502D01*
X110775518Y-67565812D01*
X110900000Y-67578072D01*
X111514250Y-67575000D01*
X111673000Y-67416250D01*
X111673000Y-66167000D01*
X110423750Y-66167000D01*
X110265000Y-66325750D01*
X110261928Y-66940000D01*
X103530000Y-66940000D01*
X103530000Y-65140000D01*
X110261928Y-65140000D01*
X110265000Y-65754250D01*
X110423750Y-65913000D01*
X111673000Y-65913000D01*
X111673000Y-64663750D01*
X111927000Y-64663750D01*
X111927000Y-65913000D01*
X111947000Y-65913000D01*
X111947000Y-66167000D01*
X111927000Y-66167000D01*
X111927000Y-67416250D01*
X112085750Y-67575000D01*
X112700000Y-67578072D01*
X112824482Y-67565812D01*
X112944180Y-67529502D01*
X113054494Y-67470537D01*
X113151185Y-67391185D01*
X113230537Y-67294494D01*
X113283880Y-67194697D01*
X113321495Y-67232312D01*
X113572905Y-67400299D01*
X113852257Y-67516011D01*
X114148816Y-67575000D01*
X114451184Y-67575000D01*
X114747743Y-67516011D01*
X115027095Y-67400299D01*
X115278505Y-67232312D01*
X115492312Y-67018505D01*
X115550000Y-66932169D01*
X115607688Y-67018505D01*
X115821495Y-67232312D01*
X116072905Y-67400299D01*
X116352257Y-67516011D01*
X116648816Y-67575000D01*
X116729869Y-67575000D01*
X117558010Y-68403141D01*
X117593552Y-68446450D01*
X117766378Y-68588285D01*
X117963554Y-68693677D01*
X118127706Y-68743472D01*
X118177501Y-68758578D01*
X118400000Y-68780492D01*
X118455752Y-68775001D01*
X150704248Y-68775001D01*
X150759999Y-68780492D01*
X150815750Y-68775001D01*
X150815751Y-68775001D01*
X150982498Y-68758578D01*
X151196446Y-68693677D01*
X151393622Y-68588285D01*
X151566448Y-68446450D01*
X151601995Y-68403136D01*
X152430132Y-67575000D01*
X152511184Y-67575000D01*
X152807743Y-67516011D01*
X153087095Y-67400299D01*
X153338505Y-67232312D01*
X153552312Y-67018505D01*
X153720299Y-66767095D01*
X153836011Y-66487743D01*
X153895000Y-66191184D01*
X153895000Y-65888816D01*
X153836011Y-65592257D01*
X153720299Y-65312905D01*
X153552312Y-65061495D01*
X153338505Y-64847688D01*
X153087095Y-64679701D01*
X152807743Y-64563989D01*
X152511184Y-64505000D01*
X152208816Y-64505000D01*
X151912257Y-64563989D01*
X151632905Y-64679701D01*
X151381495Y-64847688D01*
X151167688Y-65061495D01*
X151110000Y-65147831D01*
X151052312Y-65061495D01*
X150838505Y-64847688D01*
X150587095Y-64679701D01*
X150307743Y-64563989D01*
X150011184Y-64505000D01*
X149708816Y-64505000D01*
X149412257Y-64563989D01*
X149132905Y-64679701D01*
X148881495Y-64847688D01*
X148843880Y-64885303D01*
X148790537Y-64785506D01*
X148711185Y-64688815D01*
X148614494Y-64609463D01*
X148504180Y-64550498D01*
X148384482Y-64514188D01*
X148260000Y-64501928D01*
X147645750Y-64505000D01*
X147487000Y-64663750D01*
X147487000Y-65913000D01*
X147507000Y-65913000D01*
X147507000Y-66167000D01*
X147487000Y-66167000D01*
X147487000Y-66187000D01*
X147233000Y-66187000D01*
X147233000Y-66167000D01*
X145983750Y-66167000D01*
X145825000Y-66325750D01*
X145824104Y-66505001D01*
X118870133Y-66505001D01*
X118335000Y-65969869D01*
X118335000Y-65888816D01*
X118276011Y-65592257D01*
X118160299Y-65312905D01*
X117992312Y-65061495D01*
X117778505Y-64847688D01*
X117527095Y-64679701D01*
X117247743Y-64563989D01*
X116951184Y-64505000D01*
X116648816Y-64505000D01*
X116352257Y-64563989D01*
X116072905Y-64679701D01*
X115821495Y-64847688D01*
X115607688Y-65061495D01*
X115550000Y-65147831D01*
X115492312Y-65061495D01*
X115278505Y-64847688D01*
X115027095Y-64679701D01*
X114747743Y-64563989D01*
X114451184Y-64505000D01*
X114148816Y-64505000D01*
X113852257Y-64563989D01*
X113572905Y-64679701D01*
X113321495Y-64847688D01*
X113283880Y-64885303D01*
X113230537Y-64785506D01*
X113151185Y-64688815D01*
X113054494Y-64609463D01*
X112944180Y-64550498D01*
X112824482Y-64514188D01*
X112700000Y-64501928D01*
X112085750Y-64505000D01*
X111927000Y-64663750D01*
X111673000Y-64663750D01*
X111514250Y-64505000D01*
X110900000Y-64501928D01*
X110775518Y-64514188D01*
X110655820Y-64550498D01*
X110545506Y-64609463D01*
X110448815Y-64688815D01*
X110369463Y-64785506D01*
X110310498Y-64895820D01*
X110274188Y-65015518D01*
X110261928Y-65140000D01*
X103530000Y-65140000D01*
X103530000Y-63920000D01*
X129321928Y-63920000D01*
X129321928Y-65620000D01*
X129334188Y-65744482D01*
X129370498Y-65864180D01*
X129429463Y-65974494D01*
X129508815Y-66071185D01*
X129605506Y-66150537D01*
X129715820Y-66209502D01*
X129835518Y-66245812D01*
X129960000Y-66258072D01*
X131660000Y-66258072D01*
X131784482Y-66245812D01*
X131904180Y-66209502D01*
X132014494Y-66150537D01*
X132111185Y-66071185D01*
X132190537Y-65974494D01*
X132249502Y-65864180D01*
X132271513Y-65791620D01*
X132403368Y-65923475D01*
X132646589Y-66085990D01*
X132916842Y-66197932D01*
X133203740Y-66255000D01*
X133496260Y-66255000D01*
X133783158Y-66197932D01*
X134053411Y-66085990D01*
X134296632Y-65923475D01*
X134503475Y-65716632D01*
X134665990Y-65473411D01*
X134777932Y-65203158D01*
X134790495Y-65140000D01*
X145821928Y-65140000D01*
X145825000Y-65754250D01*
X145983750Y-65913000D01*
X147233000Y-65913000D01*
X147233000Y-64663750D01*
X147074250Y-64505000D01*
X146460000Y-64501928D01*
X146335518Y-64514188D01*
X146215820Y-64550498D01*
X146105506Y-64609463D01*
X146008815Y-64688815D01*
X145929463Y-64785506D01*
X145870498Y-64895820D01*
X145834188Y-65015518D01*
X145821928Y-65140000D01*
X134790495Y-65140000D01*
X134835000Y-64916260D01*
X134835000Y-64623740D01*
X134777932Y-64336842D01*
X134665990Y-64066589D01*
X134503475Y-63823368D01*
X134296632Y-63616525D01*
X134114466Y-63494805D01*
X134231355Y-63425178D01*
X134447588Y-63230269D01*
X134621641Y-62996920D01*
X134746825Y-62734099D01*
X134791476Y-62586890D01*
X134670155Y-62357000D01*
X133477000Y-62357000D01*
X133477000Y-62377000D01*
X133223000Y-62377000D01*
X133223000Y-62357000D01*
X130937000Y-62357000D01*
X130937000Y-62377000D01*
X130683000Y-62377000D01*
X130683000Y-62357000D01*
X129489845Y-62357000D01*
X129368524Y-62586890D01*
X129413175Y-62734099D01*
X129538359Y-62996920D01*
X129712412Y-63230269D01*
X129796466Y-63306034D01*
X129715820Y-63330498D01*
X129605506Y-63389463D01*
X129508815Y-63468815D01*
X129429463Y-63565506D01*
X129370498Y-63675820D01*
X129334188Y-63795518D01*
X129321928Y-63920000D01*
X103530000Y-63920000D01*
X103530000Y-58317902D01*
X107245000Y-58317902D01*
X107245000Y-58762098D01*
X107331658Y-59197759D01*
X107501645Y-59608143D01*
X107748427Y-59977479D01*
X108062521Y-60291573D01*
X108431857Y-60538355D01*
X108842241Y-60708342D01*
X109277902Y-60795000D01*
X109722098Y-60795000D01*
X110157759Y-60708342D01*
X110568143Y-60538355D01*
X110937479Y-60291573D01*
X111251573Y-59977479D01*
X111498355Y-59608143D01*
X111668342Y-59197759D01*
X111755000Y-58762098D01*
X111755000Y-58317902D01*
X116845000Y-58317902D01*
X116845000Y-58762098D01*
X116931658Y-59197759D01*
X117101645Y-59608143D01*
X117348427Y-59977479D01*
X117662521Y-60291573D01*
X118031857Y-60538355D01*
X118442241Y-60708342D01*
X118877902Y-60795000D01*
X119322098Y-60795000D01*
X119757759Y-60708342D01*
X120168143Y-60538355D01*
X120537479Y-60291573D01*
X120782162Y-60046890D01*
X129368524Y-60046890D01*
X129413175Y-60194099D01*
X129538359Y-60456920D01*
X129712412Y-60690269D01*
X129928645Y-60885178D01*
X130054255Y-60960000D01*
X129928645Y-61034822D01*
X129712412Y-61229731D01*
X129538359Y-61463080D01*
X129413175Y-61725901D01*
X129368524Y-61873110D01*
X129489845Y-62103000D01*
X130683000Y-62103000D01*
X130683000Y-59817000D01*
X130937000Y-59817000D01*
X130937000Y-62103000D01*
X133223000Y-62103000D01*
X133223000Y-59817000D01*
X133477000Y-59817000D01*
X133477000Y-62103000D01*
X134670155Y-62103000D01*
X134791476Y-61873110D01*
X134746825Y-61725901D01*
X134621641Y-61463080D01*
X134447588Y-61229731D01*
X134231355Y-61034822D01*
X134105745Y-60960000D01*
X134231355Y-60885178D01*
X134447588Y-60690269D01*
X134621641Y-60456920D01*
X134746825Y-60194099D01*
X134791476Y-60046890D01*
X134670155Y-59817000D01*
X133477000Y-59817000D01*
X133223000Y-59817000D01*
X130937000Y-59817000D01*
X130683000Y-59817000D01*
X129489845Y-59817000D01*
X129368524Y-60046890D01*
X120782162Y-60046890D01*
X120851573Y-59977479D01*
X121098355Y-59608143D01*
X121268342Y-59197759D01*
X121355000Y-58762098D01*
X121355000Y-58317902D01*
X121268342Y-57882241D01*
X121112867Y-57506890D01*
X129368524Y-57506890D01*
X129413175Y-57654099D01*
X129538359Y-57916920D01*
X129712412Y-58150269D01*
X129928645Y-58345178D01*
X130054255Y-58420000D01*
X129928645Y-58494822D01*
X129712412Y-58689731D01*
X129538359Y-58923080D01*
X129413175Y-59185901D01*
X129368524Y-59333110D01*
X129489845Y-59563000D01*
X130683000Y-59563000D01*
X130683000Y-57277000D01*
X130937000Y-57277000D01*
X130937000Y-59563000D01*
X133223000Y-59563000D01*
X133223000Y-57277000D01*
X133477000Y-57277000D01*
X133477000Y-59563000D01*
X134670155Y-59563000D01*
X134791476Y-59333110D01*
X134746825Y-59185901D01*
X134621641Y-58923080D01*
X134447588Y-58689731D01*
X134231355Y-58494822D01*
X134105745Y-58420000D01*
X134231355Y-58345178D01*
X134261615Y-58317902D01*
X142805000Y-58317902D01*
X142805000Y-58762098D01*
X142891658Y-59197759D01*
X143061645Y-59608143D01*
X143308427Y-59977479D01*
X143622521Y-60291573D01*
X143991857Y-60538355D01*
X144402241Y-60708342D01*
X144837902Y-60795000D01*
X145282098Y-60795000D01*
X145717759Y-60708342D01*
X146128143Y-60538355D01*
X146497479Y-60291573D01*
X146811573Y-59977479D01*
X147058355Y-59608143D01*
X147228342Y-59197759D01*
X147315000Y-58762098D01*
X147315000Y-58317902D01*
X152405000Y-58317902D01*
X152405000Y-58762098D01*
X152491658Y-59197759D01*
X152661645Y-59608143D01*
X152908427Y-59977479D01*
X153222521Y-60291573D01*
X153591857Y-60538355D01*
X154002241Y-60708342D01*
X154437902Y-60795000D01*
X154882098Y-60795000D01*
X155317759Y-60708342D01*
X155728143Y-60538355D01*
X156097479Y-60291573D01*
X156411573Y-59977479D01*
X156658355Y-59608143D01*
X156828342Y-59197759D01*
X156915000Y-58762098D01*
X156915000Y-58317902D01*
X156828342Y-57882241D01*
X156658355Y-57471857D01*
X156411573Y-57102521D01*
X156097479Y-56788427D01*
X155728143Y-56541645D01*
X155317759Y-56371658D01*
X154882098Y-56285000D01*
X154437902Y-56285000D01*
X154002241Y-56371658D01*
X153591857Y-56541645D01*
X153222521Y-56788427D01*
X152908427Y-57102521D01*
X152661645Y-57471857D01*
X152491658Y-57882241D01*
X152405000Y-58317902D01*
X147315000Y-58317902D01*
X147228342Y-57882241D01*
X147058355Y-57471857D01*
X146811573Y-57102521D01*
X146497479Y-56788427D01*
X146128143Y-56541645D01*
X145717759Y-56371658D01*
X145282098Y-56285000D01*
X144837902Y-56285000D01*
X144402241Y-56371658D01*
X143991857Y-56541645D01*
X143622521Y-56788427D01*
X143308427Y-57102521D01*
X143061645Y-57471857D01*
X142891658Y-57882241D01*
X142805000Y-58317902D01*
X134261615Y-58317902D01*
X134447588Y-58150269D01*
X134621641Y-57916920D01*
X134746825Y-57654099D01*
X134791476Y-57506890D01*
X134670155Y-57277000D01*
X133477000Y-57277000D01*
X133223000Y-57277000D01*
X130937000Y-57277000D01*
X130683000Y-57277000D01*
X129489845Y-57277000D01*
X129368524Y-57506890D01*
X121112867Y-57506890D01*
X121098355Y-57471857D01*
X120851573Y-57102521D01*
X120537479Y-56788427D01*
X120168143Y-56541645D01*
X119757759Y-56371658D01*
X119322098Y-56285000D01*
X118877902Y-56285000D01*
X118442241Y-56371658D01*
X118031857Y-56541645D01*
X117662521Y-56788427D01*
X117348427Y-57102521D01*
X117101645Y-57471857D01*
X116931658Y-57882241D01*
X116845000Y-58317902D01*
X111755000Y-58317902D01*
X111668342Y-57882241D01*
X111498355Y-57471857D01*
X111251573Y-57102521D01*
X110937479Y-56788427D01*
X110568143Y-56541645D01*
X110157759Y-56371658D01*
X109722098Y-56285000D01*
X109277902Y-56285000D01*
X108842241Y-56371658D01*
X108431857Y-56541645D01*
X108062521Y-56788427D01*
X107748427Y-57102521D01*
X107501645Y-57471857D01*
X107331658Y-57882241D01*
X107245000Y-58317902D01*
X103530000Y-58317902D01*
X103530000Y-54463740D01*
X129325000Y-54463740D01*
X129325000Y-54756260D01*
X129382068Y-55043158D01*
X129494010Y-55313411D01*
X129656525Y-55556632D01*
X129863368Y-55763475D01*
X130045534Y-55885195D01*
X129928645Y-55954822D01*
X129712412Y-56149731D01*
X129538359Y-56383080D01*
X129413175Y-56645901D01*
X129368524Y-56793110D01*
X129489845Y-57023000D01*
X130683000Y-57023000D01*
X130683000Y-57003000D01*
X130937000Y-57003000D01*
X130937000Y-57023000D01*
X133223000Y-57023000D01*
X133223000Y-57003000D01*
X133477000Y-57003000D01*
X133477000Y-57023000D01*
X134670155Y-57023000D01*
X134791476Y-56793110D01*
X134746825Y-56645901D01*
X134621641Y-56383080D01*
X134447588Y-56149731D01*
X134231355Y-55954822D01*
X134114466Y-55885195D01*
X134296632Y-55763475D01*
X134503475Y-55556632D01*
X134665990Y-55313411D01*
X134777932Y-55043158D01*
X134835000Y-54756260D01*
X134835000Y-54463740D01*
X134777932Y-54176842D01*
X134665990Y-53906589D01*
X134503475Y-53663368D01*
X134296632Y-53456525D01*
X134053411Y-53294010D01*
X133783158Y-53182068D01*
X133496260Y-53125000D01*
X133203740Y-53125000D01*
X132916842Y-53182068D01*
X132646589Y-53294010D01*
X132403368Y-53456525D01*
X132196525Y-53663368D01*
X132080000Y-53837760D01*
X131963475Y-53663368D01*
X131756632Y-53456525D01*
X131513411Y-53294010D01*
X131243158Y-53182068D01*
X130956260Y-53125000D01*
X130663740Y-53125000D01*
X130376842Y-53182068D01*
X130106589Y-53294010D01*
X129863368Y-53456525D01*
X129656525Y-53663368D01*
X129494010Y-53906589D01*
X129382068Y-54176842D01*
X129325000Y-54463740D01*
X103530000Y-54463740D01*
X103530000Y-47650000D01*
X160630001Y-47650000D01*
X160630000Y-126132289D01*
G37*
X160630000Y-126132289D02*
X160579080Y-126115525D01*
X159694605Y-127000000D01*
X160579080Y-127884475D01*
X160630000Y-127867711D01*
X160630000Y-140102289D01*
X160579080Y-140085525D01*
X159694605Y-140970000D01*
X160579080Y-141854475D01*
X160630000Y-141837711D01*
X160630000Y-145390000D01*
X103530000Y-145390000D01*
X103530000Y-140818816D01*
X104670000Y-140818816D01*
X104670000Y-141121184D01*
X104728989Y-141417743D01*
X104844701Y-141697095D01*
X105012688Y-141948505D01*
X105226495Y-142162312D01*
X105477905Y-142330299D01*
X105757257Y-142446011D01*
X106053816Y-142505000D01*
X106356184Y-142505000D01*
X106652743Y-142446011D01*
X106932095Y-142330299D01*
X107183505Y-142162312D01*
X107397312Y-141948505D01*
X107565299Y-141697095D01*
X107681011Y-141417743D01*
X107740000Y-141121184D01*
X107740000Y-140970000D01*
X109093000Y-140970000D01*
X109095440Y-140994776D01*
X109102667Y-141018601D01*
X109114403Y-141040557D01*
X109130197Y-141059803D01*
X110930197Y-142859803D01*
X110949443Y-142875597D01*
X110971399Y-142887333D01*
X110995224Y-142894560D01*
X111020000Y-142897000D01*
X111044776Y-142894560D01*
X111068601Y-142887333D01*
X111090557Y-142875597D01*
X111109803Y-142859803D01*
X111935526Y-142034080D01*
X113620525Y-142034080D01*
X113704208Y-142288261D01*
X113976775Y-142419158D01*
X114269642Y-142494365D01*
X114571553Y-142510991D01*
X114870907Y-142468397D01*
X115156199Y-142368222D01*
X115305792Y-142288261D01*
X115389475Y-142034080D01*
X116720525Y-142034080D01*
X116804208Y-142288261D01*
X117076775Y-142419158D01*
X117369642Y-142494365D01*
X117671553Y-142510991D01*
X117970907Y-142468397D01*
X118256199Y-142368222D01*
X118405792Y-142288261D01*
X118489475Y-142034080D01*
X117605000Y-141149605D01*
X116720525Y-142034080D01*
X115389475Y-142034080D01*
X114505000Y-141149605D01*
X113620525Y-142034080D01*
X111935526Y-142034080D01*
X112909803Y-141059803D01*
X112925597Y-141040557D01*
X112927737Y-141036553D01*
X112964009Y-141036553D01*
X113006603Y-141335907D01*
X113106778Y-141621199D01*
X113186739Y-141770792D01*
X113440920Y-141854475D01*
X114325395Y-140970000D01*
X114684605Y-140970000D01*
X115569080Y-141854475D01*
X115823261Y-141770792D01*
X115954158Y-141498225D01*
X116029365Y-141205358D01*
X116038660Y-141036553D01*
X116064009Y-141036553D01*
X116106603Y-141335907D01*
X116206778Y-141621199D01*
X116286739Y-141770792D01*
X116540920Y-141854475D01*
X117425395Y-140970000D01*
X117784605Y-140970000D01*
X118669080Y-141854475D01*
X118923261Y-141770792D01*
X119054158Y-141498225D01*
X119129365Y-141205358D01*
X119145991Y-140903447D01*
X119133950Y-140818816D01*
X146580000Y-140818816D01*
X146580000Y-141121184D01*
X146638989Y-141417743D01*
X146754701Y-141697095D01*
X146922688Y-141948505D01*
X147136495Y-142162312D01*
X147387905Y-142330299D01*
X147667257Y-142446011D01*
X147963816Y-142505000D01*
X148266184Y-142505000D01*
X148562743Y-142446011D01*
X148842095Y-142330299D01*
X149093505Y-142162312D01*
X149307312Y-141948505D01*
X149475299Y-141697095D01*
X149591011Y-141417743D01*
X149650000Y-141121184D01*
X149650000Y-140970000D01*
X151003000Y-140970000D01*
X151005440Y-140994776D01*
X151012667Y-141018601D01*
X151024403Y-141040557D01*
X151040197Y-141059803D01*
X152840197Y-142859803D01*
X152859443Y-142875597D01*
X152881399Y-142887333D01*
X152905224Y-142894560D01*
X152930000Y-142897000D01*
X152954776Y-142894560D01*
X152978601Y-142887333D01*
X153000557Y-142875597D01*
X153019803Y-142859803D01*
X154819803Y-141059803D01*
X154835597Y-141040557D01*
X154847333Y-141018601D01*
X154854560Y-140994776D01*
X154857000Y-140970000D01*
X154854560Y-140945224D01*
X154847333Y-140921399D01*
X154835597Y-140899443D01*
X154819803Y-140880197D01*
X154758422Y-140818816D01*
X154880000Y-140818816D01*
X154880000Y-141121184D01*
X154938989Y-141417743D01*
X155054701Y-141697095D01*
X155222688Y-141948505D01*
X155436495Y-142162312D01*
X155687905Y-142330299D01*
X155967257Y-142446011D01*
X156263816Y-142505000D01*
X156566184Y-142505000D01*
X156862743Y-142446011D01*
X157142095Y-142330299D01*
X157393505Y-142162312D01*
X157521737Y-142034080D01*
X158630525Y-142034080D01*
X158714208Y-142288261D01*
X158986775Y-142419158D01*
X159279642Y-142494365D01*
X159581553Y-142510991D01*
X159880907Y-142468397D01*
X160166199Y-142368222D01*
X160315792Y-142288261D01*
X160399475Y-142034080D01*
X159515000Y-141149605D01*
X158630525Y-142034080D01*
X157521737Y-142034080D01*
X157607312Y-141948505D01*
X157775299Y-141697095D01*
X157891011Y-141417743D01*
X157950000Y-141121184D01*
X157950000Y-141036553D01*
X157974009Y-141036553D01*
X158016603Y-141335907D01*
X158116778Y-141621199D01*
X158196739Y-141770792D01*
X158450920Y-141854475D01*
X159335395Y-140970000D01*
X158450920Y-140085525D01*
X158196739Y-140169208D01*
X158065842Y-140441775D01*
X157990635Y-140734642D01*
X157974009Y-141036553D01*
X157950000Y-141036553D01*
X157950000Y-140818816D01*
X157891011Y-140522257D01*
X157775299Y-140242905D01*
X157607312Y-139991495D01*
X157521737Y-139905920D01*
X158630525Y-139905920D01*
X159515000Y-140790395D01*
X160399475Y-139905920D01*
X160315792Y-139651739D01*
X160043225Y-139520842D01*
X159750358Y-139445635D01*
X159448447Y-139429009D01*
X159149093Y-139471603D01*
X158863801Y-139571778D01*
X158714208Y-139651739D01*
X158630525Y-139905920D01*
X157521737Y-139905920D01*
X157393505Y-139777688D01*
X157142095Y-139609701D01*
X156862743Y-139493989D01*
X156566184Y-139435000D01*
X156263816Y-139435000D01*
X155967257Y-139493989D01*
X155687905Y-139609701D01*
X155436495Y-139777688D01*
X155222688Y-139991495D01*
X155054701Y-140242905D01*
X154938989Y-140522257D01*
X154880000Y-140818816D01*
X154758422Y-140818816D01*
X153019803Y-139080197D01*
X153000557Y-139064403D01*
X152978601Y-139052667D01*
X152954776Y-139045440D01*
X152930000Y-139043000D01*
X152905224Y-139045440D01*
X152881399Y-139052667D01*
X152859443Y-139064403D01*
X152840197Y-139080197D01*
X151040197Y-140880197D01*
X151024403Y-140899443D01*
X151012667Y-140921399D01*
X151005440Y-140945224D01*
X151003000Y-140970000D01*
X149650000Y-140970000D01*
X149650000Y-140818816D01*
X149591011Y-140522257D01*
X149475299Y-140242905D01*
X149307312Y-139991495D01*
X149093505Y-139777688D01*
X148842095Y-139609701D01*
X148562743Y-139493989D01*
X148266184Y-139435000D01*
X147963816Y-139435000D01*
X147667257Y-139493989D01*
X147387905Y-139609701D01*
X147136495Y-139777688D01*
X146922688Y-139991495D01*
X146754701Y-140242905D01*
X146638989Y-140522257D01*
X146580000Y-140818816D01*
X119133950Y-140818816D01*
X119103397Y-140604093D01*
X119003222Y-140318801D01*
X118923261Y-140169208D01*
X118669080Y-140085525D01*
X117784605Y-140970000D01*
X117425395Y-140970000D01*
X116540920Y-140085525D01*
X116286739Y-140169208D01*
X116155842Y-140441775D01*
X116080635Y-140734642D01*
X116064009Y-141036553D01*
X116038660Y-141036553D01*
X116045991Y-140903447D01*
X116003397Y-140604093D01*
X115903222Y-140318801D01*
X115823261Y-140169208D01*
X115569080Y-140085525D01*
X114684605Y-140970000D01*
X114325395Y-140970000D01*
X113440920Y-140085525D01*
X113186739Y-140169208D01*
X113055842Y-140441775D01*
X112980635Y-140734642D01*
X112964009Y-141036553D01*
X112927737Y-141036553D01*
X112937333Y-141018601D01*
X112944560Y-140994776D01*
X112947000Y-140970000D01*
X112944560Y-140945224D01*
X112937333Y-140921399D01*
X112925597Y-140899443D01*
X112909803Y-140880197D01*
X111935526Y-139905920D01*
X113620525Y-139905920D01*
X114505000Y-140790395D01*
X115389475Y-139905920D01*
X116720525Y-139905920D01*
X117605000Y-140790395D01*
X118489475Y-139905920D01*
X118405792Y-139651739D01*
X118133225Y-139520842D01*
X117840358Y-139445635D01*
X117538447Y-139429009D01*
X117239093Y-139471603D01*
X116953801Y-139571778D01*
X116804208Y-139651739D01*
X116720525Y-139905920D01*
X115389475Y-139905920D01*
X115305792Y-139651739D01*
X115033225Y-139520842D01*
X114740358Y-139445635D01*
X114438447Y-139429009D01*
X114139093Y-139471603D01*
X113853801Y-139571778D01*
X113704208Y-139651739D01*
X113620525Y-139905920D01*
X111935526Y-139905920D01*
X111109803Y-139080197D01*
X111090557Y-139064403D01*
X111068601Y-139052667D01*
X111044776Y-139045440D01*
X111020000Y-139043000D01*
X110995224Y-139045440D01*
X110971399Y-139052667D01*
X110949443Y-139064403D01*
X110930197Y-139080197D01*
X109130197Y-140880197D01*
X109114403Y-140899443D01*
X109102667Y-140921399D01*
X109095440Y-140945224D01*
X109093000Y-140970000D01*
X107740000Y-140970000D01*
X107740000Y-140818816D01*
X107681011Y-140522257D01*
X107565299Y-140242905D01*
X107397312Y-139991495D01*
X107183505Y-139777688D01*
X106932095Y-139609701D01*
X106652743Y-139493989D01*
X106356184Y-139435000D01*
X106053816Y-139435000D01*
X105757257Y-139493989D01*
X105477905Y-139609701D01*
X105226495Y-139777688D01*
X105012688Y-139991495D01*
X104844701Y-140242905D01*
X104728989Y-140522257D01*
X104670000Y-140818816D01*
X103530000Y-140818816D01*
X103530000Y-126848816D01*
X104670000Y-126848816D01*
X104670000Y-127151184D01*
X104728989Y-127447743D01*
X104844701Y-127727095D01*
X105012688Y-127978505D01*
X105226495Y-128192312D01*
X105477905Y-128360299D01*
X105757257Y-128476011D01*
X106053816Y-128535000D01*
X106356184Y-128535000D01*
X106652743Y-128476011D01*
X106932095Y-128360299D01*
X107183505Y-128192312D01*
X107397312Y-127978505D01*
X107565299Y-127727095D01*
X107681011Y-127447743D01*
X107740000Y-127151184D01*
X107740000Y-126895000D01*
X109198000Y-126895000D01*
X109200440Y-126919776D01*
X109207667Y-126943601D01*
X109219403Y-126965557D01*
X109235197Y-126984803D01*
X111035197Y-128784803D01*
X111054443Y-128800597D01*
X111076399Y-128812333D01*
X111100224Y-128819560D01*
X111125000Y-128822000D01*
X111149776Y-128819560D01*
X111173601Y-128812333D01*
X111195557Y-128800597D01*
X111214803Y-128784803D01*
X111935526Y-128064080D01*
X113620525Y-128064080D01*
X113704208Y-128318261D01*
X113976775Y-128449158D01*
X114269642Y-128524365D01*
X114571553Y-128540991D01*
X114870907Y-128498397D01*
X115156199Y-128398222D01*
X115305792Y-128318261D01*
X115389475Y-128064080D01*
X116720525Y-128064080D01*
X116804208Y-128318261D01*
X117076775Y-128449158D01*
X117369642Y-128524365D01*
X117671553Y-128540991D01*
X117970907Y-128498397D01*
X118256199Y-128398222D01*
X118405792Y-128318261D01*
X118489475Y-128064080D01*
X117605000Y-127179605D01*
X116720525Y-128064080D01*
X115389475Y-128064080D01*
X114505000Y-127179605D01*
X113620525Y-128064080D01*
X111935526Y-128064080D01*
X112965813Y-127033793D01*
X112964009Y-127066553D01*
X113006603Y-127365907D01*
X113106778Y-127651199D01*
X113186739Y-127800792D01*
X113440920Y-127884475D01*
X114325395Y-127000000D01*
X114684605Y-127000000D01*
X115569080Y-127884475D01*
X115823261Y-127800792D01*
X115954158Y-127528225D01*
X116029365Y-127235358D01*
X116038660Y-127066553D01*
X116064009Y-127066553D01*
X116106603Y-127365907D01*
X116206778Y-127651199D01*
X116286739Y-127800792D01*
X116540920Y-127884475D01*
X117425395Y-127000000D01*
X117784605Y-127000000D01*
X118669080Y-127884475D01*
X118923261Y-127800792D01*
X119054158Y-127528225D01*
X119129365Y-127235358D01*
X119145991Y-126933447D01*
X119133950Y-126848816D01*
X125625000Y-126848816D01*
X125625000Y-127151184D01*
X125683989Y-127447743D01*
X125799701Y-127727095D01*
X125967688Y-127978505D01*
X126181495Y-128192312D01*
X126432905Y-128360299D01*
X126712257Y-128476011D01*
X127008816Y-128535000D01*
X127311184Y-128535000D01*
X127607743Y-128476011D01*
X127887095Y-128360299D01*
X128138505Y-128192312D01*
X128352312Y-127978505D01*
X128520299Y-127727095D01*
X128636011Y-127447743D01*
X128695000Y-127151184D01*
X128695000Y-127000000D01*
X130048000Y-127000000D01*
X130050440Y-127024776D01*
X130057667Y-127048601D01*
X130069403Y-127070557D01*
X130085197Y-127089803D01*
X131885197Y-128889803D01*
X131904443Y-128905597D01*
X131926399Y-128917333D01*
X131950224Y-128924560D01*
X131975000Y-128927000D01*
X131999776Y-128924560D01*
X132023601Y-128917333D01*
X132045557Y-128905597D01*
X132064803Y-128889803D01*
X132890526Y-128064080D01*
X134575525Y-128064080D01*
X134659208Y-128318261D01*
X134931775Y-128449158D01*
X135224642Y-128524365D01*
X135526553Y-128540991D01*
X135825907Y-128498397D01*
X136111199Y-128398222D01*
X136260792Y-128318261D01*
X136344475Y-128064080D01*
X137675525Y-128064080D01*
X137759208Y-128318261D01*
X138031775Y-128449158D01*
X138324642Y-128524365D01*
X138626553Y-128540991D01*
X138925907Y-128498397D01*
X139211199Y-128398222D01*
X139360792Y-128318261D01*
X139444475Y-128064080D01*
X138560000Y-127179605D01*
X137675525Y-128064080D01*
X136344475Y-128064080D01*
X135460000Y-127179605D01*
X134575525Y-128064080D01*
X132890526Y-128064080D01*
X133864803Y-127089803D01*
X133880597Y-127070557D01*
X133882737Y-127066553D01*
X133919009Y-127066553D01*
X133961603Y-127365907D01*
X134061778Y-127651199D01*
X134141739Y-127800792D01*
X134395920Y-127884475D01*
X135280395Y-127000000D01*
X135639605Y-127000000D01*
X136524080Y-127884475D01*
X136778261Y-127800792D01*
X136909158Y-127528225D01*
X136984365Y-127235358D01*
X136993660Y-127066553D01*
X137019009Y-127066553D01*
X137061603Y-127365907D01*
X137161778Y-127651199D01*
X137241739Y-127800792D01*
X137495920Y-127884475D01*
X138380395Y-127000000D01*
X138739605Y-127000000D01*
X139624080Y-127884475D01*
X139878261Y-127800792D01*
X140009158Y-127528225D01*
X140084365Y-127235358D01*
X140100991Y-126933447D01*
X140088950Y-126848816D01*
X146580000Y-126848816D01*
X146580000Y-127151184D01*
X146638989Y-127447743D01*
X146754701Y-127727095D01*
X146922688Y-127978505D01*
X147136495Y-128192312D01*
X147387905Y-128360299D01*
X147667257Y-128476011D01*
X147963816Y-128535000D01*
X148266184Y-128535000D01*
X148562743Y-128476011D01*
X148842095Y-128360299D01*
X149093505Y-128192312D01*
X149307312Y-127978505D01*
X149475299Y-127727095D01*
X149591011Y-127447743D01*
X149650000Y-127151184D01*
X149650000Y-127000000D01*
X151213000Y-127000000D01*
X151215440Y-127024776D01*
X151222667Y-127048601D01*
X151234403Y-127070557D01*
X151250197Y-127089803D01*
X153050197Y-128889803D01*
X153069443Y-128905597D01*
X153091399Y-128917333D01*
X153115224Y-128924560D01*
X153140000Y-128927000D01*
X153164776Y-128924560D01*
X153188601Y-128917333D01*
X153210557Y-128905597D01*
X153229803Y-128889803D01*
X154055526Y-128064080D01*
X155530525Y-128064080D01*
X155614208Y-128318261D01*
X155886775Y-128449158D01*
X156179642Y-128524365D01*
X156481553Y-128540991D01*
X156780907Y-128498397D01*
X157066199Y-128398222D01*
X157215792Y-128318261D01*
X157299475Y-128064080D01*
X158630525Y-128064080D01*
X158714208Y-128318261D01*
X158986775Y-128449158D01*
X159279642Y-128524365D01*
X159581553Y-128540991D01*
X159880907Y-128498397D01*
X160166199Y-128398222D01*
X160315792Y-128318261D01*
X160399475Y-128064080D01*
X159515000Y-127179605D01*
X158630525Y-128064080D01*
X157299475Y-128064080D01*
X156415000Y-127179605D01*
X155530525Y-128064080D01*
X154055526Y-128064080D01*
X154896311Y-127223295D01*
X154916603Y-127365907D01*
X155016778Y-127651199D01*
X155096739Y-127800792D01*
X155350920Y-127884475D01*
X156235395Y-127000000D01*
X156594605Y-127000000D01*
X157479080Y-127884475D01*
X157733261Y-127800792D01*
X157864158Y-127528225D01*
X157939365Y-127235358D01*
X157948660Y-127066553D01*
X157974009Y-127066553D01*
X158016603Y-127365907D01*
X158116778Y-127651199D01*
X158196739Y-127800792D01*
X158450920Y-127884475D01*
X159335395Y-127000000D01*
X158450920Y-126115525D01*
X158196739Y-126199208D01*
X158065842Y-126471775D01*
X157990635Y-126764642D01*
X157974009Y-127066553D01*
X157948660Y-127066553D01*
X157955991Y-126933447D01*
X157913397Y-126634093D01*
X157813222Y-126348801D01*
X157733261Y-126199208D01*
X157479080Y-126115525D01*
X156594605Y-127000000D01*
X156235395Y-127000000D01*
X155350920Y-126115525D01*
X155096739Y-126199208D01*
X154965842Y-126471775D01*
X154890635Y-126764642D01*
X154890302Y-126770696D01*
X154055526Y-125935920D01*
X155530525Y-125935920D01*
X156415000Y-126820395D01*
X157299475Y-125935920D01*
X158630525Y-125935920D01*
X159515000Y-126820395D01*
X160399475Y-125935920D01*
X160315792Y-125681739D01*
X160043225Y-125550842D01*
X159750358Y-125475635D01*
X159448447Y-125459009D01*
X159149093Y-125501603D01*
X158863801Y-125601778D01*
X158714208Y-125681739D01*
X158630525Y-125935920D01*
X157299475Y-125935920D01*
X157215792Y-125681739D01*
X156943225Y-125550842D01*
X156650358Y-125475635D01*
X156348447Y-125459009D01*
X156049093Y-125501603D01*
X155763801Y-125601778D01*
X155614208Y-125681739D01*
X155530525Y-125935920D01*
X154055526Y-125935920D01*
X153229803Y-125110197D01*
X153210557Y-125094403D01*
X153188601Y-125082667D01*
X153164776Y-125075440D01*
X153140000Y-125073000D01*
X153115224Y-125075440D01*
X153091399Y-125082667D01*
X153069443Y-125094403D01*
X153050197Y-125110197D01*
X151250197Y-126910197D01*
X151234403Y-126929443D01*
X151222667Y-126951399D01*
X151215440Y-126975224D01*
X151213000Y-127000000D01*
X149650000Y-127000000D01*
X149650000Y-126848816D01*
X149591011Y-126552257D01*
X149475299Y-126272905D01*
X149307312Y-126021495D01*
X149093505Y-125807688D01*
X148842095Y-125639701D01*
X148562743Y-125523989D01*
X148266184Y-125465000D01*
X147963816Y-125465000D01*
X147667257Y-125523989D01*
X147387905Y-125639701D01*
X147136495Y-125807688D01*
X146922688Y-126021495D01*
X146754701Y-126272905D01*
X146638989Y-126552257D01*
X146580000Y-126848816D01*
X140088950Y-126848816D01*
X140058397Y-126634093D01*
X139958222Y-126348801D01*
X139878261Y-126199208D01*
X139624080Y-126115525D01*
X138739605Y-127000000D01*
X138380395Y-127000000D01*
X137495920Y-126115525D01*
X137241739Y-126199208D01*
X137110842Y-126471775D01*
X137035635Y-126764642D01*
X137019009Y-127066553D01*
X136993660Y-127066553D01*
X137000991Y-126933447D01*
X136958397Y-126634093D01*
X136858222Y-126348801D01*
X136778261Y-126199208D01*
X136524080Y-126115525D01*
X135639605Y-127000000D01*
X135280395Y-127000000D01*
X134395920Y-126115525D01*
X134141739Y-126199208D01*
X134010842Y-126471775D01*
X133935635Y-126764642D01*
X133919009Y-127066553D01*
X133882737Y-127066553D01*
X133892333Y-127048601D01*
X133899560Y-127024776D01*
X133902000Y-127000000D01*
X133899560Y-126975224D01*
X133892333Y-126951399D01*
X133880597Y-126929443D01*
X133864803Y-126910197D01*
X132890526Y-125935920D01*
X134575525Y-125935920D01*
X135460000Y-126820395D01*
X136344475Y-125935920D01*
X137675525Y-125935920D01*
X138560000Y-126820395D01*
X139444475Y-125935920D01*
X139360792Y-125681739D01*
X139088225Y-125550842D01*
X138795358Y-125475635D01*
X138493447Y-125459009D01*
X138194093Y-125501603D01*
X137908801Y-125601778D01*
X137759208Y-125681739D01*
X137675525Y-125935920D01*
X136344475Y-125935920D01*
X136260792Y-125681739D01*
X135988225Y-125550842D01*
X135695358Y-125475635D01*
X135393447Y-125459009D01*
X135094093Y-125501603D01*
X134808801Y-125601778D01*
X134659208Y-125681739D01*
X134575525Y-125935920D01*
X132890526Y-125935920D01*
X132064803Y-125110197D01*
X132045557Y-125094403D01*
X132023601Y-125082667D01*
X131999776Y-125075440D01*
X131975000Y-125073000D01*
X131950224Y-125075440D01*
X131926399Y-125082667D01*
X131904443Y-125094403D01*
X131885197Y-125110197D01*
X130085197Y-126910197D01*
X130069403Y-126929443D01*
X130057667Y-126951399D01*
X130050440Y-126975224D01*
X130048000Y-127000000D01*
X128695000Y-127000000D01*
X128695000Y-126848816D01*
X128636011Y-126552257D01*
X128520299Y-126272905D01*
X128352312Y-126021495D01*
X128138505Y-125807688D01*
X127887095Y-125639701D01*
X127607743Y-125523989D01*
X127311184Y-125465000D01*
X127008816Y-125465000D01*
X126712257Y-125523989D01*
X126432905Y-125639701D01*
X126181495Y-125807688D01*
X125967688Y-126021495D01*
X125799701Y-126272905D01*
X125683989Y-126552257D01*
X125625000Y-126848816D01*
X119133950Y-126848816D01*
X119103397Y-126634093D01*
X119003222Y-126348801D01*
X118923261Y-126199208D01*
X118669080Y-126115525D01*
X117784605Y-127000000D01*
X117425395Y-127000000D01*
X116540920Y-126115525D01*
X116286739Y-126199208D01*
X116155842Y-126471775D01*
X116080635Y-126764642D01*
X116064009Y-127066553D01*
X116038660Y-127066553D01*
X116045991Y-126933447D01*
X116003397Y-126634093D01*
X115903222Y-126348801D01*
X115823261Y-126199208D01*
X115569080Y-126115525D01*
X114684605Y-127000000D01*
X114325395Y-127000000D01*
X113440920Y-126115525D01*
X113186739Y-126199208D01*
X113055842Y-126471775D01*
X112980635Y-126764642D01*
X112980302Y-126770696D01*
X112145526Y-125935920D01*
X113620525Y-125935920D01*
X114505000Y-126820395D01*
X115389475Y-125935920D01*
X116720525Y-125935920D01*
X117605000Y-126820395D01*
X118489475Y-125935920D01*
X118405792Y-125681739D01*
X118133225Y-125550842D01*
X117840358Y-125475635D01*
X117538447Y-125459009D01*
X117239093Y-125501603D01*
X116953801Y-125601778D01*
X116804208Y-125681739D01*
X116720525Y-125935920D01*
X115389475Y-125935920D01*
X115305792Y-125681739D01*
X115033225Y-125550842D01*
X114740358Y-125475635D01*
X114438447Y-125459009D01*
X114139093Y-125501603D01*
X113853801Y-125601778D01*
X113704208Y-125681739D01*
X113620525Y-125935920D01*
X112145526Y-125935920D01*
X111214803Y-125005197D01*
X111195557Y-124989403D01*
X111173601Y-124977667D01*
X111149776Y-124970440D01*
X111125000Y-124968000D01*
X111100224Y-124970440D01*
X111076399Y-124977667D01*
X111054443Y-124989403D01*
X111035197Y-125005197D01*
X109235197Y-126805197D01*
X109219403Y-126824443D01*
X109207667Y-126846399D01*
X109200440Y-126870224D01*
X109198000Y-126895000D01*
X107740000Y-126895000D01*
X107740000Y-126848816D01*
X107681011Y-126552257D01*
X107565299Y-126272905D01*
X107397312Y-126021495D01*
X107183505Y-125807688D01*
X106932095Y-125639701D01*
X106652743Y-125523989D01*
X106356184Y-125465000D01*
X106053816Y-125465000D01*
X105757257Y-125523989D01*
X105477905Y-125639701D01*
X105226495Y-125807688D01*
X105012688Y-126021495D01*
X104844701Y-126272905D01*
X104728989Y-126552257D01*
X104670000Y-126848816D01*
X103530000Y-126848816D01*
X103530000Y-106533740D01*
X103925000Y-106533740D01*
X103925000Y-106826260D01*
X103982068Y-107113158D01*
X104094010Y-107383411D01*
X104256525Y-107626632D01*
X104275000Y-107645107D01*
X104275001Y-108254892D01*
X104256525Y-108273368D01*
X104094010Y-108516589D01*
X103982068Y-108786842D01*
X103925000Y-109073740D01*
X103925000Y-109366260D01*
X103982068Y-109653158D01*
X104094010Y-109923411D01*
X104256525Y-110166632D01*
X104463368Y-110373475D01*
X104637760Y-110490000D01*
X104463368Y-110606525D01*
X104256525Y-110813368D01*
X104094010Y-111056589D01*
X103982068Y-111326842D01*
X103925000Y-111613740D01*
X103925000Y-111906260D01*
X103982068Y-112193158D01*
X104094010Y-112463411D01*
X104256525Y-112706632D01*
X104463368Y-112913475D01*
X104637760Y-113030000D01*
X104463368Y-113146525D01*
X104256525Y-113353368D01*
X104094010Y-113596589D01*
X103982068Y-113866842D01*
X103925000Y-114153740D01*
X103925000Y-114446260D01*
X103982068Y-114733158D01*
X104094010Y-115003411D01*
X104256525Y-115246632D01*
X104463368Y-115453475D01*
X104637760Y-115570000D01*
X104463368Y-115686525D01*
X104256525Y-115893368D01*
X104094010Y-116136589D01*
X103982068Y-116406842D01*
X103925000Y-116693740D01*
X103925000Y-116986260D01*
X103982068Y-117273158D01*
X104094010Y-117543411D01*
X104256525Y-117786632D01*
X104463368Y-117993475D01*
X104637760Y-118110000D01*
X104463368Y-118226525D01*
X104256525Y-118433368D01*
X104094010Y-118676589D01*
X103982068Y-118946842D01*
X103925000Y-119233740D01*
X103925000Y-119526260D01*
X103982068Y-119813158D01*
X104094010Y-120083411D01*
X104256525Y-120326632D01*
X104463368Y-120533475D01*
X104706589Y-120695990D01*
X104976842Y-120807932D01*
X105263740Y-120865000D01*
X105556260Y-120865000D01*
X105843158Y-120807932D01*
X106113411Y-120695990D01*
X106356632Y-120533475D01*
X106563475Y-120326632D01*
X106725990Y-120083411D01*
X106837932Y-119813158D01*
X106895000Y-119526260D01*
X106895000Y-119233740D01*
X106837932Y-118946842D01*
X106725990Y-118676589D01*
X106563475Y-118433368D01*
X106356632Y-118226525D01*
X106182240Y-118110000D01*
X106356632Y-117993475D01*
X106375107Y-117975000D01*
X133004588Y-117975000D01*
X133059547Y-117964068D01*
X133115299Y-117958577D01*
X133168906Y-117942315D01*
X133223867Y-117931383D01*
X133275642Y-117909937D01*
X133329247Y-117893676D01*
X133378651Y-117867269D01*
X133430424Y-117845824D01*
X133477014Y-117814693D01*
X133526423Y-117788284D01*
X133569732Y-117752741D01*
X133616320Y-117721612D01*
X133655941Y-117681991D01*
X133699249Y-117646449D01*
X133734791Y-117603141D01*
X133774412Y-117563520D01*
X133805541Y-117516932D01*
X133841084Y-117473623D01*
X133867493Y-117424214D01*
X133898624Y-117377624D01*
X133920069Y-117325851D01*
X133946476Y-117276447D01*
X133962737Y-117222842D01*
X133984183Y-117171067D01*
X133995115Y-117116106D01*
X134011377Y-117062499D01*
X134016868Y-117006747D01*
X134027800Y-116951788D01*
X134027800Y-116895752D01*
X134033291Y-116840000D01*
X142445709Y-116840000D01*
X142451200Y-116895752D01*
X142451200Y-116951788D01*
X142462132Y-117006747D01*
X142467623Y-117062499D01*
X142483885Y-117116106D01*
X142494817Y-117171067D01*
X142516263Y-117222842D01*
X142532524Y-117276447D01*
X142558931Y-117325851D01*
X142580376Y-117377624D01*
X142611507Y-117424214D01*
X142637916Y-117473623D01*
X142673459Y-117516932D01*
X142704588Y-117563520D01*
X142744209Y-117603141D01*
X142779751Y-117646449D01*
X142823059Y-117681991D01*
X142862680Y-117721612D01*
X142909268Y-117752741D01*
X142952577Y-117788284D01*
X143001986Y-117814693D01*
X143048576Y-117845824D01*
X143100349Y-117867269D01*
X143149753Y-117893676D01*
X143203358Y-117909937D01*
X143255133Y-117931383D01*
X143310094Y-117942315D01*
X143363701Y-117958577D01*
X143419453Y-117964068D01*
X143474412Y-117975000D01*
X157784893Y-117975000D01*
X157803368Y-117993475D01*
X157977760Y-118110000D01*
X157803368Y-118226525D01*
X157596525Y-118433368D01*
X157434010Y-118676589D01*
X157322068Y-118946842D01*
X157265000Y-119233740D01*
X157265000Y-119526260D01*
X157322068Y-119813158D01*
X157434010Y-120083411D01*
X157596525Y-120326632D01*
X157803368Y-120533475D01*
X158046589Y-120695990D01*
X158316842Y-120807932D01*
X158603740Y-120865000D01*
X158896260Y-120865000D01*
X159183158Y-120807932D01*
X159453411Y-120695990D01*
X159696632Y-120533475D01*
X159903475Y-120326632D01*
X160065990Y-120083411D01*
X160177932Y-119813158D01*
X160235000Y-119526260D01*
X160235000Y-119233740D01*
X160177932Y-118946842D01*
X160065990Y-118676589D01*
X159903475Y-118433368D01*
X159696632Y-118226525D01*
X159522240Y-118110000D01*
X159696632Y-117993475D01*
X159903475Y-117786632D01*
X160065990Y-117543411D01*
X160177932Y-117273158D01*
X160235000Y-116986260D01*
X160235000Y-116693740D01*
X160177932Y-116406842D01*
X160065990Y-116136589D01*
X159903475Y-115893368D01*
X159696632Y-115686525D01*
X159514466Y-115564805D01*
X159631355Y-115495178D01*
X159847588Y-115300269D01*
X160021641Y-115066920D01*
X160146825Y-114804099D01*
X160191476Y-114656890D01*
X160070155Y-114427000D01*
X158877000Y-114427000D01*
X158877000Y-114447000D01*
X158623000Y-114447000D01*
X158623000Y-114427000D01*
X157429845Y-114427000D01*
X157308524Y-114656890D01*
X157353175Y-114804099D01*
X157478359Y-115066920D01*
X157652412Y-115300269D01*
X157868645Y-115495178D01*
X157985534Y-115564805D01*
X157803368Y-115686525D01*
X157784893Y-115705000D01*
X143474412Y-115705000D01*
X143419453Y-115715932D01*
X143363701Y-115721423D01*
X143310094Y-115737685D01*
X143255133Y-115748617D01*
X143203358Y-115770063D01*
X143149753Y-115786324D01*
X143100349Y-115812731D01*
X143048576Y-115834176D01*
X143001986Y-115865307D01*
X142952577Y-115891716D01*
X142909268Y-115927259D01*
X142862680Y-115958388D01*
X142823059Y-115998009D01*
X142779751Y-116033551D01*
X142744209Y-116076859D01*
X142704588Y-116116480D01*
X142673459Y-116163068D01*
X142637916Y-116206377D01*
X142611507Y-116255786D01*
X142580376Y-116302376D01*
X142558931Y-116354149D01*
X142532524Y-116403553D01*
X142516263Y-116457158D01*
X142494817Y-116508933D01*
X142483885Y-116563894D01*
X142467623Y-116617501D01*
X142462132Y-116673253D01*
X142451200Y-116728212D01*
X142451200Y-116784248D01*
X142445709Y-116840000D01*
X134033291Y-116840000D01*
X134027800Y-116784248D01*
X134027800Y-116728212D01*
X134016868Y-116673253D01*
X134011377Y-116617501D01*
X133995115Y-116563894D01*
X133984183Y-116508933D01*
X133962737Y-116457158D01*
X133946476Y-116403553D01*
X133920069Y-116354149D01*
X133898624Y-116302376D01*
X133867493Y-116255786D01*
X133841084Y-116206377D01*
X133805541Y-116163068D01*
X133774412Y-116116480D01*
X133734791Y-116076859D01*
X133699249Y-116033551D01*
X133655941Y-115998009D01*
X133616320Y-115958388D01*
X133569732Y-115927259D01*
X133526423Y-115891716D01*
X133477014Y-115865307D01*
X133430424Y-115834176D01*
X133378651Y-115812731D01*
X133329247Y-115786324D01*
X133275642Y-115770063D01*
X133223867Y-115748617D01*
X133168906Y-115737685D01*
X133115299Y-115721423D01*
X133059547Y-115715932D01*
X133004588Y-115705000D01*
X106375107Y-115705000D01*
X106356632Y-115686525D01*
X106182240Y-115570000D01*
X106356632Y-115453475D01*
X106563475Y-115246632D01*
X106725990Y-115003411D01*
X106837932Y-114733158D01*
X106895000Y-114446260D01*
X106895000Y-114153740D01*
X106837932Y-113866842D01*
X106725990Y-113596589D01*
X106563475Y-113353368D01*
X106356632Y-113146525D01*
X106182240Y-113030000D01*
X106356632Y-112913475D01*
X106375107Y-112895000D01*
X131239288Y-112895000D01*
X131294247Y-112884068D01*
X131349999Y-112878577D01*
X131403606Y-112862315D01*
X131458567Y-112851383D01*
X131510342Y-112829937D01*
X131563947Y-112813676D01*
X131613351Y-112787269D01*
X131665124Y-112765824D01*
X131711714Y-112734693D01*
X131761123Y-112708284D01*
X131804432Y-112672741D01*
X131851020Y-112641612D01*
X131882632Y-112610000D01*
X157261928Y-112610000D01*
X157274188Y-112734482D01*
X157310498Y-112854180D01*
X157369463Y-112964494D01*
X157448815Y-113061185D01*
X157545506Y-113140537D01*
X157655820Y-113199502D01*
X157736466Y-113223966D01*
X157652412Y-113299731D01*
X157478359Y-113533080D01*
X157353175Y-113795901D01*
X157308524Y-113943110D01*
X157429845Y-114173000D01*
X158623000Y-114173000D01*
X158623000Y-111887000D01*
X158877000Y-111887000D01*
X158877000Y-114173000D01*
X160070155Y-114173000D01*
X160191476Y-113943110D01*
X160146825Y-113795901D01*
X160021641Y-113533080D01*
X159847588Y-113299731D01*
X159763534Y-113223966D01*
X159844180Y-113199502D01*
X159954494Y-113140537D01*
X160051185Y-113061185D01*
X160130537Y-112964494D01*
X160189502Y-112854180D01*
X160225812Y-112734482D01*
X160238072Y-112610000D01*
X160235000Y-112045750D01*
X160076250Y-111887000D01*
X158877000Y-111887000D01*
X158623000Y-111887000D01*
X157423750Y-111887000D01*
X157265000Y-112045750D01*
X157261928Y-112610000D01*
X131882632Y-112610000D01*
X131890641Y-112601991D01*
X131933949Y-112566449D01*
X131969491Y-112523141D01*
X132009112Y-112483520D01*
X132040241Y-112436932D01*
X132075784Y-112393623D01*
X132102193Y-112344214D01*
X132133324Y-112297624D01*
X132154769Y-112245851D01*
X132181176Y-112196447D01*
X132197437Y-112142842D01*
X132218883Y-112091067D01*
X132229815Y-112036106D01*
X132246077Y-111982499D01*
X132251568Y-111926747D01*
X132262500Y-111871788D01*
X132262500Y-111815752D01*
X132267991Y-111760000D01*
X132262500Y-111704248D01*
X132262500Y-111648212D01*
X132251568Y-111593253D01*
X132246077Y-111537501D01*
X132229815Y-111483894D01*
X132218883Y-111428933D01*
X132197437Y-111377158D01*
X132181176Y-111323553D01*
X132154769Y-111274149D01*
X132133324Y-111222376D01*
X132102193Y-111175786D01*
X132075784Y-111126377D01*
X132040241Y-111083068D01*
X132009112Y-111036480D01*
X131969491Y-110996859D01*
X131933949Y-110953551D01*
X131890641Y-110918009D01*
X131882632Y-110910000D01*
X157261928Y-110910000D01*
X157265000Y-111474250D01*
X157423750Y-111633000D01*
X158623000Y-111633000D01*
X158623000Y-110433750D01*
X158877000Y-110433750D01*
X158877000Y-111633000D01*
X160076250Y-111633000D01*
X160235000Y-111474250D01*
X160238072Y-110910000D01*
X160225812Y-110785518D01*
X160189502Y-110665820D01*
X160130537Y-110555506D01*
X160051185Y-110458815D01*
X159954494Y-110379463D01*
X159844180Y-110320498D01*
X159724482Y-110284188D01*
X159600000Y-110271928D01*
X159035750Y-110275000D01*
X158877000Y-110433750D01*
X158623000Y-110433750D01*
X158464250Y-110275000D01*
X157900000Y-110271928D01*
X157775518Y-110284188D01*
X157655820Y-110320498D01*
X157545506Y-110379463D01*
X157448815Y-110458815D01*
X157369463Y-110555506D01*
X157310498Y-110665820D01*
X157274188Y-110785518D01*
X157261928Y-110910000D01*
X131882632Y-110910000D01*
X131851020Y-110878388D01*
X131804432Y-110847259D01*
X131761123Y-110811716D01*
X131711714Y-110785307D01*
X131665124Y-110754176D01*
X131613351Y-110732731D01*
X131563947Y-110706324D01*
X131510342Y-110690063D01*
X131458567Y-110668617D01*
X131403606Y-110657685D01*
X131349999Y-110641423D01*
X131294247Y-110635932D01*
X131239288Y-110625000D01*
X106375107Y-110625000D01*
X106356632Y-110606525D01*
X106182240Y-110490000D01*
X106356632Y-110373475D01*
X106563475Y-110166632D01*
X106725990Y-109923411D01*
X106783943Y-109783500D01*
X135904247Y-109783500D01*
X135959999Y-109788991D01*
X136015750Y-109783500D01*
X136015751Y-109783500D01*
X136182498Y-109767077D01*
X136396446Y-109702176D01*
X136593622Y-109596784D01*
X136766448Y-109454949D01*
X136822594Y-109386536D01*
X137463302Y-108745828D01*
X137659947Y-108686176D01*
X137857123Y-108580784D01*
X138029949Y-108438949D01*
X138171784Y-108266123D01*
X138277176Y-108068947D01*
X138342077Y-107854999D01*
X138363991Y-107632500D01*
X138342077Y-107410001D01*
X138277176Y-107196053D01*
X138171784Y-106998877D01*
X138029949Y-106826051D01*
X137857123Y-106684216D01*
X137659947Y-106578824D01*
X137445999Y-106513923D01*
X137279252Y-106497500D01*
X137027250Y-106497500D01*
X136971498Y-106492009D01*
X136748999Y-106513923D01*
X136535051Y-106578824D01*
X136337875Y-106684216D01*
X136208354Y-106790511D01*
X136208352Y-106790513D01*
X136165049Y-106826051D01*
X136129511Y-106869355D01*
X135485366Y-107513500D01*
X106639067Y-107513500D01*
X106725990Y-107383411D01*
X106837932Y-107113158D01*
X106895000Y-106826260D01*
X106895000Y-106533740D01*
X106837932Y-106246842D01*
X106725990Y-105976589D01*
X106563475Y-105733368D01*
X106356632Y-105526525D01*
X106174466Y-105404805D01*
X106291355Y-105335178D01*
X106507588Y-105140269D01*
X106582377Y-105040000D01*
X110261928Y-105040000D01*
X110274188Y-105164482D01*
X110310498Y-105284180D01*
X110369463Y-105394494D01*
X110448815Y-105491185D01*
X110545506Y-105570537D01*
X110655820Y-105629502D01*
X110775518Y-105665812D01*
X110900000Y-105678072D01*
X111514250Y-105675000D01*
X111673000Y-105516250D01*
X111673000Y-104267000D01*
X110423750Y-104267000D01*
X110265000Y-104425750D01*
X110261928Y-105040000D01*
X106582377Y-105040000D01*
X106681641Y-104906920D01*
X106806825Y-104644099D01*
X106851476Y-104496890D01*
X106730155Y-104267000D01*
X105537000Y-104267000D01*
X105537000Y-104287000D01*
X105283000Y-104287000D01*
X105283000Y-104267000D01*
X104089845Y-104267000D01*
X103968524Y-104496890D01*
X104013175Y-104644099D01*
X104138359Y-104906920D01*
X104312412Y-105140269D01*
X104528645Y-105335178D01*
X104645534Y-105404805D01*
X104463368Y-105526525D01*
X104256525Y-105733368D01*
X104094010Y-105976589D01*
X103982068Y-106246842D01*
X103925000Y-106533740D01*
X103530000Y-106533740D01*
X103530000Y-102450000D01*
X103921928Y-102450000D01*
X103934188Y-102574482D01*
X103970498Y-102694180D01*
X104029463Y-102804494D01*
X104108815Y-102901185D01*
X104205506Y-102980537D01*
X104315820Y-103039502D01*
X104396466Y-103063966D01*
X104312412Y-103139731D01*
X104138359Y-103373080D01*
X104013175Y-103635901D01*
X103968524Y-103783110D01*
X104089845Y-104013000D01*
X105283000Y-104013000D01*
X105283000Y-101727000D01*
X105537000Y-101727000D01*
X105537000Y-104013000D01*
X106730155Y-104013000D01*
X106851476Y-103783110D01*
X106806825Y-103635901D01*
X106681641Y-103373080D01*
X106582378Y-103240000D01*
X110261928Y-103240000D01*
X110265000Y-103854250D01*
X110423750Y-104013000D01*
X111673000Y-104013000D01*
X111673000Y-102763750D01*
X111927000Y-102763750D01*
X111927000Y-104013000D01*
X111947000Y-104013000D01*
X111947000Y-104267000D01*
X111927000Y-104267000D01*
X111927000Y-105516250D01*
X112085750Y-105675000D01*
X112700000Y-105678072D01*
X112824482Y-105665812D01*
X112944180Y-105629502D01*
X113054494Y-105570537D01*
X113151185Y-105491185D01*
X113230537Y-105394494D01*
X113283880Y-105294697D01*
X113321495Y-105332312D01*
X113572905Y-105500299D01*
X113852257Y-105616011D01*
X114148816Y-105675000D01*
X114451184Y-105675000D01*
X114747743Y-105616011D01*
X115027095Y-105500299D01*
X115278505Y-105332312D01*
X115492312Y-105118505D01*
X115550000Y-105032169D01*
X115607688Y-105118505D01*
X115821495Y-105332312D01*
X116072905Y-105500299D01*
X116352257Y-105616011D01*
X116648816Y-105675000D01*
X116951184Y-105675000D01*
X117247743Y-105616011D01*
X117527095Y-105500299D01*
X117778505Y-105332312D01*
X117992312Y-105118505D01*
X118160299Y-104867095D01*
X118276011Y-104587743D01*
X118335000Y-104291184D01*
X118335000Y-103988816D01*
X118276011Y-103692257D01*
X118160299Y-103412905D01*
X117992312Y-103161495D01*
X117778505Y-102947688D01*
X117572526Y-102810057D01*
X122560249Y-102810057D01*
X122582163Y-103032555D01*
X122647064Y-103246503D01*
X122752457Y-103443679D01*
X122894292Y-103616505D01*
X123067118Y-103758340D01*
X123264294Y-103863733D01*
X123478242Y-103928634D01*
X123700740Y-103950548D01*
X123923238Y-103928634D01*
X124137186Y-103863733D01*
X124334362Y-103758340D01*
X124463883Y-103652045D01*
X126015930Y-102100000D01*
X139864869Y-102100000D01*
X140769869Y-103005000D01*
X131500752Y-103005000D01*
X131445000Y-102999509D01*
X131389248Y-103005000D01*
X131222501Y-103021423D01*
X131008553Y-103086324D01*
X130811377Y-103191716D01*
X130638551Y-103333551D01*
X130603009Y-103376859D01*
X128698012Y-105281857D01*
X128591717Y-105411378D01*
X128486324Y-105608554D01*
X128421423Y-105822502D01*
X128399509Y-106045000D01*
X128421423Y-106267498D01*
X128486324Y-106481446D01*
X128591717Y-106678622D01*
X128733552Y-106851448D01*
X128906378Y-106993283D01*
X129103554Y-107098676D01*
X129317502Y-107163577D01*
X129540000Y-107185491D01*
X129762498Y-107163577D01*
X129976446Y-107098676D01*
X130173622Y-106993283D01*
X130303143Y-106886988D01*
X131915132Y-105275000D01*
X141660752Y-105275000D01*
X141827499Y-105258577D01*
X142041447Y-105193676D01*
X142238623Y-105088284D01*
X142411449Y-104946449D01*
X142546616Y-104781748D01*
X144268010Y-106503142D01*
X144303552Y-106546450D01*
X144476378Y-106688285D01*
X144673554Y-106793677D01*
X144837706Y-106843472D01*
X144887501Y-106858578D01*
X144908494Y-106860645D01*
X145054249Y-106875001D01*
X145054256Y-106875001D01*
X145110000Y-106880491D01*
X145165744Y-106875001D01*
X149437040Y-106875001D01*
X149492791Y-106880492D01*
X149548542Y-106875001D01*
X149548543Y-106875001D01*
X149715290Y-106858578D01*
X149929238Y-106793677D01*
X150126414Y-106688285D01*
X150299240Y-106546450D01*
X150334787Y-106503136D01*
X150583135Y-106254788D01*
X150626449Y-106219241D01*
X150768284Y-106046415D01*
X150873676Y-105849239D01*
X150938577Y-105635291D01*
X150955000Y-105468544D01*
X150955000Y-105468535D01*
X150960490Y-105412793D01*
X150955000Y-105357051D01*
X150955000Y-105175817D01*
X151012312Y-105118505D01*
X151070000Y-105032169D01*
X151127688Y-105118505D01*
X151341495Y-105332312D01*
X151592905Y-105500299D01*
X151872257Y-105616011D01*
X152168816Y-105675000D01*
X152471184Y-105675000D01*
X152767743Y-105616011D01*
X153047095Y-105500299D01*
X153298505Y-105332312D01*
X153512312Y-105118505D01*
X153680299Y-104867095D01*
X153796011Y-104587743D01*
X153855000Y-104291184D01*
X153855000Y-103988816D01*
X153796011Y-103692257D01*
X153680299Y-103412905D01*
X153512312Y-103161495D01*
X153298505Y-102947688D01*
X153047095Y-102779701D01*
X152767743Y-102663989D01*
X152471184Y-102605000D01*
X152168816Y-102605000D01*
X151872257Y-102663989D01*
X151592905Y-102779701D01*
X151341495Y-102947688D01*
X151127688Y-103161495D01*
X151070000Y-103247831D01*
X151012312Y-103161495D01*
X150798505Y-102947688D01*
X150547095Y-102779701D01*
X150267743Y-102663989D01*
X149971184Y-102605000D01*
X149668816Y-102605000D01*
X149372257Y-102663989D01*
X149092905Y-102779701D01*
X148841495Y-102947688D01*
X148803880Y-102985303D01*
X148750537Y-102885506D01*
X148671185Y-102788815D01*
X148574494Y-102709463D01*
X148464180Y-102650498D01*
X148344482Y-102614188D01*
X148220000Y-102601928D01*
X147605750Y-102605000D01*
X147447000Y-102763750D01*
X147447000Y-104013000D01*
X147467000Y-104013000D01*
X147467000Y-104267000D01*
X147447000Y-104267000D01*
X147447000Y-104287000D01*
X147193000Y-104287000D01*
X147193000Y-104267000D01*
X145943750Y-104267000D01*
X145785000Y-104425750D01*
X145784104Y-104605001D01*
X145580133Y-104605001D01*
X144215132Y-103240000D01*
X145781928Y-103240000D01*
X145785000Y-103854250D01*
X145943750Y-104013000D01*
X147193000Y-104013000D01*
X147193000Y-102763750D01*
X147034250Y-102605000D01*
X146420000Y-102601928D01*
X146295518Y-102614188D01*
X146175820Y-102650498D01*
X146065506Y-102709463D01*
X145968815Y-102788815D01*
X145889463Y-102885506D01*
X145830498Y-102995820D01*
X145794188Y-103115518D01*
X145781928Y-103240000D01*
X144215132Y-103240000D01*
X141176996Y-100201865D01*
X141141449Y-100158551D01*
X140968623Y-100016716D01*
X140771447Y-99911324D01*
X140557499Y-99846423D01*
X140390752Y-99830000D01*
X140390751Y-99830000D01*
X140335000Y-99824509D01*
X140279249Y-99830000D01*
X125601549Y-99830000D01*
X125545797Y-99824509D01*
X125323298Y-99846423D01*
X125109350Y-99911324D01*
X124912174Y-100016716D01*
X124782653Y-100123011D01*
X124782652Y-100123012D01*
X124739348Y-100158551D01*
X124703810Y-100201854D01*
X122858752Y-102046914D01*
X122752457Y-102176435D01*
X122647064Y-102373611D01*
X122582163Y-102587559D01*
X122560249Y-102810057D01*
X117572526Y-102810057D01*
X117527095Y-102779701D01*
X117247743Y-102663989D01*
X116951184Y-102605000D01*
X116648816Y-102605000D01*
X116352257Y-102663989D01*
X116072905Y-102779701D01*
X115821495Y-102947688D01*
X115607688Y-103161495D01*
X115550000Y-103247831D01*
X115492312Y-103161495D01*
X115278505Y-102947688D01*
X115027095Y-102779701D01*
X114747743Y-102663989D01*
X114451184Y-102605000D01*
X114148816Y-102605000D01*
X113852257Y-102663989D01*
X113572905Y-102779701D01*
X113321495Y-102947688D01*
X113283880Y-102985303D01*
X113230537Y-102885506D01*
X113151185Y-102788815D01*
X113054494Y-102709463D01*
X112944180Y-102650498D01*
X112824482Y-102614188D01*
X112700000Y-102601928D01*
X112085750Y-102605000D01*
X111927000Y-102763750D01*
X111673000Y-102763750D01*
X111514250Y-102605000D01*
X110900000Y-102601928D01*
X110775518Y-102614188D01*
X110655820Y-102650498D01*
X110545506Y-102709463D01*
X110448815Y-102788815D01*
X110369463Y-102885506D01*
X110310498Y-102995820D01*
X110274188Y-103115518D01*
X110261928Y-103240000D01*
X106582378Y-103240000D01*
X106507588Y-103139731D01*
X106423534Y-103063966D01*
X106504180Y-103039502D01*
X106614494Y-102980537D01*
X106711185Y-102901185D01*
X106790537Y-102804494D01*
X106849502Y-102694180D01*
X106885812Y-102574482D01*
X106898072Y-102450000D01*
X106895000Y-101885750D01*
X106736250Y-101727000D01*
X105537000Y-101727000D01*
X105283000Y-101727000D01*
X104083750Y-101727000D01*
X103925000Y-101885750D01*
X103921928Y-102450000D01*
X103530000Y-102450000D01*
X103530000Y-100750000D01*
X103921928Y-100750000D01*
X103925000Y-101314250D01*
X104083750Y-101473000D01*
X105283000Y-101473000D01*
X105283000Y-100273750D01*
X105537000Y-100273750D01*
X105537000Y-101473000D01*
X106736250Y-101473000D01*
X106895000Y-101314250D01*
X106898072Y-100750000D01*
X106885812Y-100625518D01*
X106849502Y-100505820D01*
X106790537Y-100395506D01*
X106711185Y-100298815D01*
X106614494Y-100219463D01*
X106504180Y-100160498D01*
X106384482Y-100124188D01*
X106260000Y-100111928D01*
X105695750Y-100115000D01*
X105537000Y-100273750D01*
X105283000Y-100273750D01*
X105124250Y-100115000D01*
X104560000Y-100111928D01*
X104435518Y-100124188D01*
X104315820Y-100160498D01*
X104205506Y-100219463D01*
X104108815Y-100298815D01*
X104029463Y-100395506D01*
X103970498Y-100505820D01*
X103934188Y-100625518D01*
X103921928Y-100750000D01*
X103530000Y-100750000D01*
X103530000Y-96417902D01*
X107245000Y-96417902D01*
X107245000Y-96862098D01*
X107331658Y-97297759D01*
X107501645Y-97708143D01*
X107748427Y-98077479D01*
X108062521Y-98391573D01*
X108431857Y-98638355D01*
X108842241Y-98808342D01*
X109277902Y-98895000D01*
X109722098Y-98895000D01*
X110157759Y-98808342D01*
X110568143Y-98638355D01*
X110937479Y-98391573D01*
X111251573Y-98077479D01*
X111498355Y-97708143D01*
X111668342Y-97297759D01*
X111755000Y-96862098D01*
X111755000Y-96417902D01*
X116845000Y-96417902D01*
X116845000Y-96862098D01*
X116931658Y-97297759D01*
X117101645Y-97708143D01*
X117348427Y-98077479D01*
X117662521Y-98391573D01*
X118031857Y-98638355D01*
X118442241Y-98808342D01*
X118877902Y-98895000D01*
X119322098Y-98895000D01*
X119757759Y-98808342D01*
X120168143Y-98638355D01*
X120537479Y-98391573D01*
X120851573Y-98077479D01*
X121098355Y-97708143D01*
X121268342Y-97297759D01*
X121355000Y-96862098D01*
X121355000Y-96417902D01*
X142765000Y-96417902D01*
X142765000Y-96862098D01*
X142851658Y-97297759D01*
X143021645Y-97708143D01*
X143268427Y-98077479D01*
X143582521Y-98391573D01*
X143951857Y-98638355D01*
X144362241Y-98808342D01*
X144797902Y-98895000D01*
X145242098Y-98895000D01*
X145677759Y-98808342D01*
X146088143Y-98638355D01*
X146457479Y-98391573D01*
X146771573Y-98077479D01*
X147018355Y-97708143D01*
X147188342Y-97297759D01*
X147275000Y-96862098D01*
X147275000Y-96417902D01*
X152365000Y-96417902D01*
X152365000Y-96862098D01*
X152451658Y-97297759D01*
X152621645Y-97708143D01*
X152868427Y-98077479D01*
X153182521Y-98391573D01*
X153551857Y-98638355D01*
X153962241Y-98808342D01*
X154397902Y-98895000D01*
X154842098Y-98895000D01*
X155277759Y-98808342D01*
X155688143Y-98638355D01*
X156057479Y-98391573D01*
X156371573Y-98077479D01*
X156618355Y-97708143D01*
X156788342Y-97297759D01*
X156875000Y-96862098D01*
X156875000Y-96417902D01*
X156788342Y-95982241D01*
X156618355Y-95571857D01*
X156371573Y-95202521D01*
X156057479Y-94888427D01*
X155688143Y-94641645D01*
X155277759Y-94471658D01*
X154842098Y-94385000D01*
X154397902Y-94385000D01*
X153962241Y-94471658D01*
X153551857Y-94641645D01*
X153182521Y-94888427D01*
X152868427Y-95202521D01*
X152621645Y-95571857D01*
X152451658Y-95982241D01*
X152365000Y-96417902D01*
X147275000Y-96417902D01*
X147188342Y-95982241D01*
X147018355Y-95571857D01*
X146771573Y-95202521D01*
X146457479Y-94888427D01*
X146088143Y-94641645D01*
X145677759Y-94471658D01*
X145242098Y-94385000D01*
X144797902Y-94385000D01*
X144362241Y-94471658D01*
X143951857Y-94641645D01*
X143582521Y-94888427D01*
X143268427Y-95202521D01*
X143021645Y-95571857D01*
X142851658Y-95982241D01*
X142765000Y-96417902D01*
X121355000Y-96417902D01*
X121268342Y-95982241D01*
X121098355Y-95571857D01*
X120851573Y-95202521D01*
X120537479Y-94888427D01*
X120168143Y-94641645D01*
X119757759Y-94471658D01*
X119322098Y-94385000D01*
X118877902Y-94385000D01*
X118442241Y-94471658D01*
X118031857Y-94641645D01*
X117662521Y-94888427D01*
X117348427Y-95202521D01*
X117101645Y-95571857D01*
X116931658Y-95982241D01*
X116845000Y-96417902D01*
X111755000Y-96417902D01*
X111668342Y-95982241D01*
X111498355Y-95571857D01*
X111251573Y-95202521D01*
X110937479Y-94888427D01*
X110568143Y-94641645D01*
X110157759Y-94471658D01*
X109722098Y-94385000D01*
X109277902Y-94385000D01*
X108842241Y-94471658D01*
X108431857Y-94641645D01*
X108062521Y-94888427D01*
X107748427Y-95202521D01*
X107501645Y-95571857D01*
X107331658Y-95982241D01*
X107245000Y-96417902D01*
X103530000Y-96417902D01*
X103530000Y-93980000D01*
X122684509Y-93980000D01*
X122706423Y-94202499D01*
X122771324Y-94416447D01*
X122876716Y-94613623D01*
X123018551Y-94786449D01*
X123191377Y-94928284D01*
X123388553Y-95033676D01*
X123602501Y-95098577D01*
X123769248Y-95115000D01*
X140660249Y-95115000D01*
X140716000Y-95120491D01*
X140771751Y-95115000D01*
X140771752Y-95115000D01*
X140938499Y-95098577D01*
X141152447Y-95033676D01*
X141349623Y-94928284D01*
X141522449Y-94786449D01*
X141557996Y-94743135D01*
X144742132Y-91559000D01*
X149915752Y-91559000D01*
X150082499Y-91542577D01*
X150296447Y-91477676D01*
X150493623Y-91372284D01*
X150666449Y-91230449D01*
X150808284Y-91057623D01*
X150913676Y-90860447D01*
X150978577Y-90646499D01*
X151000491Y-90424000D01*
X150978577Y-90201501D01*
X150913676Y-89987553D01*
X150808284Y-89790377D01*
X150666449Y-89617551D01*
X150493623Y-89475716D01*
X150296447Y-89370324D01*
X150082499Y-89305423D01*
X149915752Y-89289000D01*
X144327741Y-89289000D01*
X144271999Y-89283510D01*
X144216257Y-89289000D01*
X144216248Y-89289000D01*
X144049501Y-89305423D01*
X143835553Y-89370324D01*
X143638377Y-89475716D01*
X143465551Y-89617551D01*
X143430009Y-89660859D01*
X140245869Y-92845000D01*
X123769248Y-92845000D01*
X123602501Y-92861423D01*
X123388553Y-92926324D01*
X123191377Y-93031716D01*
X123018551Y-93173551D01*
X122876716Y-93346377D01*
X122771324Y-93543553D01*
X122706423Y-93757501D01*
X122684509Y-93980000D01*
X103530000Y-93980000D01*
X103530000Y-82550000D01*
X126494509Y-82550000D01*
X126516423Y-82772499D01*
X126581324Y-82986447D01*
X126686716Y-83183623D01*
X126828551Y-83356449D01*
X127001377Y-83498284D01*
X127198553Y-83603676D01*
X127412501Y-83668577D01*
X127579248Y-83685000D01*
X141327552Y-83685000D01*
X141598843Y-83699800D01*
X141766237Y-83692485D01*
X141983402Y-83639335D01*
X142186027Y-83544840D01*
X142366322Y-83412630D01*
X142517361Y-83247786D01*
X142633337Y-83056644D01*
X142709796Y-82846549D01*
X142743798Y-82625574D01*
X142734036Y-82402213D01*
X142680886Y-82185047D01*
X142586391Y-81982423D01*
X142454181Y-81802127D01*
X142289338Y-81651089D01*
X142098195Y-81535112D01*
X141888100Y-81458653D01*
X141722496Y-81433172D01*
X141445055Y-81418037D01*
X141414224Y-81415000D01*
X141389394Y-81415000D01*
X141364629Y-81413649D01*
X141333713Y-81415000D01*
X127579248Y-81415000D01*
X127412501Y-81431423D01*
X127198553Y-81496324D01*
X127001377Y-81601716D01*
X126828551Y-81743551D01*
X126686716Y-81916377D01*
X126581324Y-82113553D01*
X126516423Y-82327501D01*
X126494509Y-82550000D01*
X103530000Y-82550000D01*
X103530000Y-80645000D01*
X106809509Y-80645000D01*
X106831423Y-80867499D01*
X106896324Y-81081447D01*
X107001716Y-81278623D01*
X107143551Y-81451449D01*
X107316377Y-81593284D01*
X107513553Y-81698676D01*
X107727501Y-81763577D01*
X107894248Y-81780000D01*
X122610752Y-81780000D01*
X122777499Y-81763577D01*
X122991447Y-81698676D01*
X123188623Y-81593284D01*
X123361449Y-81451449D01*
X123503284Y-81278623D01*
X123608676Y-81081447D01*
X123673577Y-80867499D01*
X123695491Y-80645000D01*
X123673577Y-80422501D01*
X123608676Y-80208553D01*
X123503284Y-80011377D01*
X123361449Y-79838551D01*
X123188623Y-79696716D01*
X122991447Y-79591324D01*
X122777499Y-79526423D01*
X122610752Y-79510000D01*
X107894248Y-79510000D01*
X107727501Y-79526423D01*
X107513553Y-79591324D01*
X107316377Y-79696716D01*
X107143551Y-79838551D01*
X107001716Y-80011377D01*
X106896324Y-80208553D01*
X106831423Y-80422501D01*
X106809509Y-80645000D01*
X103530000Y-80645000D01*
X103530000Y-76053740D01*
X103925000Y-76053740D01*
X103925000Y-76346260D01*
X103982068Y-76633158D01*
X104094010Y-76903411D01*
X104256525Y-77146632D01*
X104463368Y-77353475D01*
X104637760Y-77470000D01*
X104463368Y-77586525D01*
X104256525Y-77793368D01*
X104094010Y-78036589D01*
X103982068Y-78306842D01*
X103925000Y-78593740D01*
X103925000Y-78886260D01*
X103982068Y-79173158D01*
X104094010Y-79443411D01*
X104256525Y-79686632D01*
X104463368Y-79893475D01*
X104706589Y-80055990D01*
X104976842Y-80167932D01*
X105263740Y-80225000D01*
X105556260Y-80225000D01*
X105843158Y-80167932D01*
X106113411Y-80055990D01*
X106356632Y-79893475D01*
X106563475Y-79686632D01*
X106725990Y-79443411D01*
X106837932Y-79173158D01*
X106895000Y-78886260D01*
X106895000Y-78593740D01*
X106837932Y-78306842D01*
X106754327Y-78105000D01*
X113159509Y-78105000D01*
X113181423Y-78327499D01*
X113246324Y-78541447D01*
X113351716Y-78738623D01*
X113493551Y-78911449D01*
X113666377Y-79053284D01*
X113863553Y-79158676D01*
X114077501Y-79223577D01*
X114244248Y-79240000D01*
X122610752Y-79240000D01*
X122777499Y-79223577D01*
X122991447Y-79158676D01*
X123188623Y-79053284D01*
X123361449Y-78911449D01*
X123503284Y-78738623D01*
X123608676Y-78541447D01*
X123673577Y-78327499D01*
X123695491Y-78105000D01*
X123673577Y-77882501D01*
X123608676Y-77668553D01*
X123503284Y-77471377D01*
X123361449Y-77298551D01*
X123188623Y-77156716D01*
X122991447Y-77051324D01*
X122777499Y-76986423D01*
X122610752Y-76970000D01*
X114244248Y-76970000D01*
X114077501Y-76986423D01*
X113863553Y-77051324D01*
X113666377Y-77156716D01*
X113493551Y-77298551D01*
X113351716Y-77471377D01*
X113246324Y-77668553D01*
X113181423Y-77882501D01*
X113159509Y-78105000D01*
X106754327Y-78105000D01*
X106725990Y-78036589D01*
X106563475Y-77793368D01*
X106356632Y-77586525D01*
X106182240Y-77470000D01*
X106356632Y-77353475D01*
X106563475Y-77146632D01*
X106725990Y-76903411D01*
X106837932Y-76633158D01*
X106895000Y-76346260D01*
X106895000Y-76053740D01*
X157265000Y-76053740D01*
X157265000Y-76346260D01*
X157322068Y-76633158D01*
X157434010Y-76903411D01*
X157596525Y-77146632D01*
X157803368Y-77353475D01*
X157977760Y-77470000D01*
X157803368Y-77586525D01*
X157596525Y-77793368D01*
X157434010Y-78036589D01*
X157322068Y-78306842D01*
X157265000Y-78593740D01*
X157265000Y-78886260D01*
X157322068Y-79173158D01*
X157434010Y-79443411D01*
X157596525Y-79686632D01*
X157803368Y-79893475D01*
X158046589Y-80055990D01*
X158316842Y-80167932D01*
X158603740Y-80225000D01*
X158896260Y-80225000D01*
X159183158Y-80167932D01*
X159453411Y-80055990D01*
X159696632Y-79893475D01*
X159903475Y-79686632D01*
X160065990Y-79443411D01*
X160177932Y-79173158D01*
X160235000Y-78886260D01*
X160235000Y-78593740D01*
X160177932Y-78306842D01*
X160065990Y-78036589D01*
X159903475Y-77793368D01*
X159696632Y-77586525D01*
X159522240Y-77470000D01*
X159696632Y-77353475D01*
X159903475Y-77146632D01*
X160065990Y-76903411D01*
X160177932Y-76633158D01*
X160235000Y-76346260D01*
X160235000Y-76053740D01*
X160177932Y-75766842D01*
X160065990Y-75496589D01*
X159903475Y-75253368D01*
X159696632Y-75046525D01*
X159514466Y-74924805D01*
X159631355Y-74855178D01*
X159847588Y-74660269D01*
X160021641Y-74426920D01*
X160146825Y-74164099D01*
X160191476Y-74016890D01*
X160070155Y-73787000D01*
X158877000Y-73787000D01*
X158877000Y-73807000D01*
X158623000Y-73807000D01*
X158623000Y-73787000D01*
X157429845Y-73787000D01*
X157308524Y-74016890D01*
X157353175Y-74164099D01*
X157478359Y-74426920D01*
X157652412Y-74660269D01*
X157868645Y-74855178D01*
X157985534Y-74924805D01*
X157803368Y-75046525D01*
X157596525Y-75253368D01*
X157434010Y-75496589D01*
X157322068Y-75766842D01*
X157265000Y-76053740D01*
X106895000Y-76053740D01*
X106837932Y-75766842D01*
X106725990Y-75496589D01*
X106563475Y-75253368D01*
X106356632Y-75046525D01*
X106174466Y-74924805D01*
X106291355Y-74855178D01*
X106507588Y-74660269D01*
X106681641Y-74426920D01*
X106806825Y-74164099D01*
X106851476Y-74016890D01*
X106730155Y-73787000D01*
X105537000Y-73787000D01*
X105537000Y-73807000D01*
X105283000Y-73807000D01*
X105283000Y-73787000D01*
X104089845Y-73787000D01*
X103968524Y-74016890D01*
X104013175Y-74164099D01*
X104138359Y-74426920D01*
X104312412Y-74660269D01*
X104528645Y-74855178D01*
X104645534Y-74924805D01*
X104463368Y-75046525D01*
X104256525Y-75253368D01*
X104094010Y-75496589D01*
X103982068Y-75766842D01*
X103925000Y-76053740D01*
X103530000Y-76053740D01*
X103530000Y-71970000D01*
X103921928Y-71970000D01*
X103934188Y-72094482D01*
X103970498Y-72214180D01*
X104029463Y-72324494D01*
X104108815Y-72421185D01*
X104205506Y-72500537D01*
X104315820Y-72559502D01*
X104396466Y-72583966D01*
X104312412Y-72659731D01*
X104138359Y-72893080D01*
X104013175Y-73155901D01*
X103968524Y-73303110D01*
X104089845Y-73533000D01*
X105283000Y-73533000D01*
X105283000Y-71247000D01*
X105537000Y-71247000D01*
X105537000Y-73533000D01*
X106730155Y-73533000D01*
X106851476Y-73303110D01*
X106806825Y-73155901D01*
X106681641Y-72893080D01*
X106507588Y-72659731D01*
X106423534Y-72583966D01*
X106504180Y-72559502D01*
X106614494Y-72500537D01*
X106711185Y-72421185D01*
X106790537Y-72324494D01*
X106849502Y-72214180D01*
X106885812Y-72094482D01*
X106898072Y-71970000D01*
X157261928Y-71970000D01*
X157274188Y-72094482D01*
X157310498Y-72214180D01*
X157369463Y-72324494D01*
X157448815Y-72421185D01*
X157545506Y-72500537D01*
X157655820Y-72559502D01*
X157736466Y-72583966D01*
X157652412Y-72659731D01*
X157478359Y-72893080D01*
X157353175Y-73155901D01*
X157308524Y-73303110D01*
X157429845Y-73533000D01*
X158623000Y-73533000D01*
X158623000Y-71247000D01*
X158877000Y-71247000D01*
X158877000Y-73533000D01*
X160070155Y-73533000D01*
X160191476Y-73303110D01*
X160146825Y-73155901D01*
X160021641Y-72893080D01*
X159847588Y-72659731D01*
X159763534Y-72583966D01*
X159844180Y-72559502D01*
X159954494Y-72500537D01*
X160051185Y-72421185D01*
X160130537Y-72324494D01*
X160189502Y-72214180D01*
X160225812Y-72094482D01*
X160238072Y-71970000D01*
X160235000Y-71405750D01*
X160076250Y-71247000D01*
X158877000Y-71247000D01*
X158623000Y-71247000D01*
X157423750Y-71247000D01*
X157265000Y-71405750D01*
X157261928Y-71970000D01*
X106898072Y-71970000D01*
X106895000Y-71405750D01*
X106736250Y-71247000D01*
X105537000Y-71247000D01*
X105283000Y-71247000D01*
X104083750Y-71247000D01*
X103925000Y-71405750D01*
X103921928Y-71970000D01*
X103530000Y-71970000D01*
X103530000Y-70270000D01*
X103921928Y-70270000D01*
X103925000Y-70834250D01*
X104083750Y-70993000D01*
X105283000Y-70993000D01*
X105283000Y-69793750D01*
X105537000Y-69793750D01*
X105537000Y-70993000D01*
X106736250Y-70993000D01*
X106895000Y-70834250D01*
X106898072Y-70270000D01*
X157261928Y-70270000D01*
X157265000Y-70834250D01*
X157423750Y-70993000D01*
X158623000Y-70993000D01*
X158623000Y-69793750D01*
X158877000Y-69793750D01*
X158877000Y-70993000D01*
X160076250Y-70993000D01*
X160235000Y-70834250D01*
X160238072Y-70270000D01*
X160225812Y-70145518D01*
X160189502Y-70025820D01*
X160130537Y-69915506D01*
X160051185Y-69818815D01*
X159954494Y-69739463D01*
X159844180Y-69680498D01*
X159724482Y-69644188D01*
X159600000Y-69631928D01*
X159035750Y-69635000D01*
X158877000Y-69793750D01*
X158623000Y-69793750D01*
X158464250Y-69635000D01*
X157900000Y-69631928D01*
X157775518Y-69644188D01*
X157655820Y-69680498D01*
X157545506Y-69739463D01*
X157448815Y-69818815D01*
X157369463Y-69915506D01*
X157310498Y-70025820D01*
X157274188Y-70145518D01*
X157261928Y-70270000D01*
X106898072Y-70270000D01*
X106885812Y-70145518D01*
X106849502Y-70025820D01*
X106790537Y-69915506D01*
X106711185Y-69818815D01*
X106614494Y-69739463D01*
X106504180Y-69680498D01*
X106384482Y-69644188D01*
X106260000Y-69631928D01*
X105695750Y-69635000D01*
X105537000Y-69793750D01*
X105283000Y-69793750D01*
X105124250Y-69635000D01*
X104560000Y-69631928D01*
X104435518Y-69644188D01*
X104315820Y-69680498D01*
X104205506Y-69739463D01*
X104108815Y-69818815D01*
X104029463Y-69915506D01*
X103970498Y-70025820D01*
X103934188Y-70145518D01*
X103921928Y-70270000D01*
X103530000Y-70270000D01*
X103530000Y-66940000D01*
X110261928Y-66940000D01*
X110274188Y-67064482D01*
X110310498Y-67184180D01*
X110369463Y-67294494D01*
X110448815Y-67391185D01*
X110545506Y-67470537D01*
X110655820Y-67529502D01*
X110775518Y-67565812D01*
X110900000Y-67578072D01*
X111514250Y-67575000D01*
X111673000Y-67416250D01*
X111673000Y-66167000D01*
X110423750Y-66167000D01*
X110265000Y-66325750D01*
X110261928Y-66940000D01*
X103530000Y-66940000D01*
X103530000Y-65140000D01*
X110261928Y-65140000D01*
X110265000Y-65754250D01*
X110423750Y-65913000D01*
X111673000Y-65913000D01*
X111673000Y-64663750D01*
X111927000Y-64663750D01*
X111927000Y-65913000D01*
X111947000Y-65913000D01*
X111947000Y-66167000D01*
X111927000Y-66167000D01*
X111927000Y-67416250D01*
X112085750Y-67575000D01*
X112700000Y-67578072D01*
X112824482Y-67565812D01*
X112944180Y-67529502D01*
X113054494Y-67470537D01*
X113151185Y-67391185D01*
X113230537Y-67294494D01*
X113283880Y-67194697D01*
X113321495Y-67232312D01*
X113572905Y-67400299D01*
X113852257Y-67516011D01*
X114148816Y-67575000D01*
X114451184Y-67575000D01*
X114747743Y-67516011D01*
X115027095Y-67400299D01*
X115278505Y-67232312D01*
X115492312Y-67018505D01*
X115550000Y-66932169D01*
X115607688Y-67018505D01*
X115821495Y-67232312D01*
X116072905Y-67400299D01*
X116352257Y-67516011D01*
X116648816Y-67575000D01*
X116729869Y-67575000D01*
X117558010Y-68403141D01*
X117593552Y-68446450D01*
X117766378Y-68588285D01*
X117963554Y-68693677D01*
X118127706Y-68743472D01*
X118177501Y-68758578D01*
X118400000Y-68780492D01*
X118455752Y-68775001D01*
X150704248Y-68775001D01*
X150759999Y-68780492D01*
X150815750Y-68775001D01*
X150815751Y-68775001D01*
X150982498Y-68758578D01*
X151196446Y-68693677D01*
X151393622Y-68588285D01*
X151566448Y-68446450D01*
X151601995Y-68403136D01*
X152430132Y-67575000D01*
X152511184Y-67575000D01*
X152807743Y-67516011D01*
X153087095Y-67400299D01*
X153338505Y-67232312D01*
X153552312Y-67018505D01*
X153720299Y-66767095D01*
X153836011Y-66487743D01*
X153895000Y-66191184D01*
X153895000Y-65888816D01*
X153836011Y-65592257D01*
X153720299Y-65312905D01*
X153552312Y-65061495D01*
X153338505Y-64847688D01*
X153087095Y-64679701D01*
X152807743Y-64563989D01*
X152511184Y-64505000D01*
X152208816Y-64505000D01*
X151912257Y-64563989D01*
X151632905Y-64679701D01*
X151381495Y-64847688D01*
X151167688Y-65061495D01*
X151110000Y-65147831D01*
X151052312Y-65061495D01*
X150838505Y-64847688D01*
X150587095Y-64679701D01*
X150307743Y-64563989D01*
X150011184Y-64505000D01*
X149708816Y-64505000D01*
X149412257Y-64563989D01*
X149132905Y-64679701D01*
X148881495Y-64847688D01*
X148843880Y-64885303D01*
X148790537Y-64785506D01*
X148711185Y-64688815D01*
X148614494Y-64609463D01*
X148504180Y-64550498D01*
X148384482Y-64514188D01*
X148260000Y-64501928D01*
X147645750Y-64505000D01*
X147487000Y-64663750D01*
X147487000Y-65913000D01*
X147507000Y-65913000D01*
X147507000Y-66167000D01*
X147487000Y-66167000D01*
X147487000Y-66187000D01*
X147233000Y-66187000D01*
X147233000Y-66167000D01*
X145983750Y-66167000D01*
X145825000Y-66325750D01*
X145824104Y-66505001D01*
X118870133Y-66505001D01*
X118335000Y-65969869D01*
X118335000Y-65888816D01*
X118276011Y-65592257D01*
X118160299Y-65312905D01*
X117992312Y-65061495D01*
X117778505Y-64847688D01*
X117527095Y-64679701D01*
X117247743Y-64563989D01*
X116951184Y-64505000D01*
X116648816Y-64505000D01*
X116352257Y-64563989D01*
X116072905Y-64679701D01*
X115821495Y-64847688D01*
X115607688Y-65061495D01*
X115550000Y-65147831D01*
X115492312Y-65061495D01*
X115278505Y-64847688D01*
X115027095Y-64679701D01*
X114747743Y-64563989D01*
X114451184Y-64505000D01*
X114148816Y-64505000D01*
X113852257Y-64563989D01*
X113572905Y-64679701D01*
X113321495Y-64847688D01*
X113283880Y-64885303D01*
X113230537Y-64785506D01*
X113151185Y-64688815D01*
X113054494Y-64609463D01*
X112944180Y-64550498D01*
X112824482Y-64514188D01*
X112700000Y-64501928D01*
X112085750Y-64505000D01*
X111927000Y-64663750D01*
X111673000Y-64663750D01*
X111514250Y-64505000D01*
X110900000Y-64501928D01*
X110775518Y-64514188D01*
X110655820Y-64550498D01*
X110545506Y-64609463D01*
X110448815Y-64688815D01*
X110369463Y-64785506D01*
X110310498Y-64895820D01*
X110274188Y-65015518D01*
X110261928Y-65140000D01*
X103530000Y-65140000D01*
X103530000Y-63920000D01*
X129321928Y-63920000D01*
X129321928Y-65620000D01*
X129334188Y-65744482D01*
X129370498Y-65864180D01*
X129429463Y-65974494D01*
X129508815Y-66071185D01*
X129605506Y-66150537D01*
X129715820Y-66209502D01*
X129835518Y-66245812D01*
X129960000Y-66258072D01*
X131660000Y-66258072D01*
X131784482Y-66245812D01*
X131904180Y-66209502D01*
X132014494Y-66150537D01*
X132111185Y-66071185D01*
X132190537Y-65974494D01*
X132249502Y-65864180D01*
X132271513Y-65791620D01*
X132403368Y-65923475D01*
X132646589Y-66085990D01*
X132916842Y-66197932D01*
X133203740Y-66255000D01*
X133496260Y-66255000D01*
X133783158Y-66197932D01*
X134053411Y-66085990D01*
X134296632Y-65923475D01*
X134503475Y-65716632D01*
X134665990Y-65473411D01*
X134777932Y-65203158D01*
X134790495Y-65140000D01*
X145821928Y-65140000D01*
X145825000Y-65754250D01*
X145983750Y-65913000D01*
X147233000Y-65913000D01*
X147233000Y-64663750D01*
X147074250Y-64505000D01*
X146460000Y-64501928D01*
X146335518Y-64514188D01*
X146215820Y-64550498D01*
X146105506Y-64609463D01*
X146008815Y-64688815D01*
X145929463Y-64785506D01*
X145870498Y-64895820D01*
X145834188Y-65015518D01*
X145821928Y-65140000D01*
X134790495Y-65140000D01*
X134835000Y-64916260D01*
X134835000Y-64623740D01*
X134777932Y-64336842D01*
X134665990Y-64066589D01*
X134503475Y-63823368D01*
X134296632Y-63616525D01*
X134114466Y-63494805D01*
X134231355Y-63425178D01*
X134447588Y-63230269D01*
X134621641Y-62996920D01*
X134746825Y-62734099D01*
X134791476Y-62586890D01*
X134670155Y-62357000D01*
X133477000Y-62357000D01*
X133477000Y-62377000D01*
X133223000Y-62377000D01*
X133223000Y-62357000D01*
X130937000Y-62357000D01*
X130937000Y-62377000D01*
X130683000Y-62377000D01*
X130683000Y-62357000D01*
X129489845Y-62357000D01*
X129368524Y-62586890D01*
X129413175Y-62734099D01*
X129538359Y-62996920D01*
X129712412Y-63230269D01*
X129796466Y-63306034D01*
X129715820Y-63330498D01*
X129605506Y-63389463D01*
X129508815Y-63468815D01*
X129429463Y-63565506D01*
X129370498Y-63675820D01*
X129334188Y-63795518D01*
X129321928Y-63920000D01*
X103530000Y-63920000D01*
X103530000Y-58317902D01*
X107245000Y-58317902D01*
X107245000Y-58762098D01*
X107331658Y-59197759D01*
X107501645Y-59608143D01*
X107748427Y-59977479D01*
X108062521Y-60291573D01*
X108431857Y-60538355D01*
X108842241Y-60708342D01*
X109277902Y-60795000D01*
X109722098Y-60795000D01*
X110157759Y-60708342D01*
X110568143Y-60538355D01*
X110937479Y-60291573D01*
X111251573Y-59977479D01*
X111498355Y-59608143D01*
X111668342Y-59197759D01*
X111755000Y-58762098D01*
X111755000Y-58317902D01*
X116845000Y-58317902D01*
X116845000Y-58762098D01*
X116931658Y-59197759D01*
X117101645Y-59608143D01*
X117348427Y-59977479D01*
X117662521Y-60291573D01*
X118031857Y-60538355D01*
X118442241Y-60708342D01*
X118877902Y-60795000D01*
X119322098Y-60795000D01*
X119757759Y-60708342D01*
X120168143Y-60538355D01*
X120537479Y-60291573D01*
X120782162Y-60046890D01*
X129368524Y-60046890D01*
X129413175Y-60194099D01*
X129538359Y-60456920D01*
X129712412Y-60690269D01*
X129928645Y-60885178D01*
X130054255Y-60960000D01*
X129928645Y-61034822D01*
X129712412Y-61229731D01*
X129538359Y-61463080D01*
X129413175Y-61725901D01*
X129368524Y-61873110D01*
X129489845Y-62103000D01*
X130683000Y-62103000D01*
X130683000Y-59817000D01*
X130937000Y-59817000D01*
X130937000Y-62103000D01*
X133223000Y-62103000D01*
X133223000Y-59817000D01*
X133477000Y-59817000D01*
X133477000Y-62103000D01*
X134670155Y-62103000D01*
X134791476Y-61873110D01*
X134746825Y-61725901D01*
X134621641Y-61463080D01*
X134447588Y-61229731D01*
X134231355Y-61034822D01*
X134105745Y-60960000D01*
X134231355Y-60885178D01*
X134447588Y-60690269D01*
X134621641Y-60456920D01*
X134746825Y-60194099D01*
X134791476Y-60046890D01*
X134670155Y-59817000D01*
X133477000Y-59817000D01*
X133223000Y-59817000D01*
X130937000Y-59817000D01*
X130683000Y-59817000D01*
X129489845Y-59817000D01*
X129368524Y-60046890D01*
X120782162Y-60046890D01*
X120851573Y-59977479D01*
X121098355Y-59608143D01*
X121268342Y-59197759D01*
X121355000Y-58762098D01*
X121355000Y-58317902D01*
X121268342Y-57882241D01*
X121112867Y-57506890D01*
X129368524Y-57506890D01*
X129413175Y-57654099D01*
X129538359Y-57916920D01*
X129712412Y-58150269D01*
X129928645Y-58345178D01*
X130054255Y-58420000D01*
X129928645Y-58494822D01*
X129712412Y-58689731D01*
X129538359Y-58923080D01*
X129413175Y-59185901D01*
X129368524Y-59333110D01*
X129489845Y-59563000D01*
X130683000Y-59563000D01*
X130683000Y-57277000D01*
X130937000Y-57277000D01*
X130937000Y-59563000D01*
X133223000Y-59563000D01*
X133223000Y-57277000D01*
X133477000Y-57277000D01*
X133477000Y-59563000D01*
X134670155Y-59563000D01*
X134791476Y-59333110D01*
X134746825Y-59185901D01*
X134621641Y-58923080D01*
X134447588Y-58689731D01*
X134231355Y-58494822D01*
X134105745Y-58420000D01*
X134231355Y-58345178D01*
X134261615Y-58317902D01*
X142805000Y-58317902D01*
X142805000Y-58762098D01*
X142891658Y-59197759D01*
X143061645Y-59608143D01*
X143308427Y-59977479D01*
X143622521Y-60291573D01*
X143991857Y-60538355D01*
X144402241Y-60708342D01*
X144837902Y-60795000D01*
X145282098Y-60795000D01*
X145717759Y-60708342D01*
X146128143Y-60538355D01*
X146497479Y-60291573D01*
X146811573Y-59977479D01*
X147058355Y-59608143D01*
X147228342Y-59197759D01*
X147315000Y-58762098D01*
X147315000Y-58317902D01*
X152405000Y-58317902D01*
X152405000Y-58762098D01*
X152491658Y-59197759D01*
X152661645Y-59608143D01*
X152908427Y-59977479D01*
X153222521Y-60291573D01*
X153591857Y-60538355D01*
X154002241Y-60708342D01*
X154437902Y-60795000D01*
X154882098Y-60795000D01*
X155317759Y-60708342D01*
X155728143Y-60538355D01*
X156097479Y-60291573D01*
X156411573Y-59977479D01*
X156658355Y-59608143D01*
X156828342Y-59197759D01*
X156915000Y-58762098D01*
X156915000Y-58317902D01*
X156828342Y-57882241D01*
X156658355Y-57471857D01*
X156411573Y-57102521D01*
X156097479Y-56788427D01*
X155728143Y-56541645D01*
X155317759Y-56371658D01*
X154882098Y-56285000D01*
X154437902Y-56285000D01*
X154002241Y-56371658D01*
X153591857Y-56541645D01*
X153222521Y-56788427D01*
X152908427Y-57102521D01*
X152661645Y-57471857D01*
X152491658Y-57882241D01*
X152405000Y-58317902D01*
X147315000Y-58317902D01*
X147228342Y-57882241D01*
X147058355Y-57471857D01*
X146811573Y-57102521D01*
X146497479Y-56788427D01*
X146128143Y-56541645D01*
X145717759Y-56371658D01*
X145282098Y-56285000D01*
X144837902Y-56285000D01*
X144402241Y-56371658D01*
X143991857Y-56541645D01*
X143622521Y-56788427D01*
X143308427Y-57102521D01*
X143061645Y-57471857D01*
X142891658Y-57882241D01*
X142805000Y-58317902D01*
X134261615Y-58317902D01*
X134447588Y-58150269D01*
X134621641Y-57916920D01*
X134746825Y-57654099D01*
X134791476Y-57506890D01*
X134670155Y-57277000D01*
X133477000Y-57277000D01*
X133223000Y-57277000D01*
X130937000Y-57277000D01*
X130683000Y-57277000D01*
X129489845Y-57277000D01*
X129368524Y-57506890D01*
X121112867Y-57506890D01*
X121098355Y-57471857D01*
X120851573Y-57102521D01*
X120537479Y-56788427D01*
X120168143Y-56541645D01*
X119757759Y-56371658D01*
X119322098Y-56285000D01*
X118877902Y-56285000D01*
X118442241Y-56371658D01*
X118031857Y-56541645D01*
X117662521Y-56788427D01*
X117348427Y-57102521D01*
X117101645Y-57471857D01*
X116931658Y-57882241D01*
X116845000Y-58317902D01*
X111755000Y-58317902D01*
X111668342Y-57882241D01*
X111498355Y-57471857D01*
X111251573Y-57102521D01*
X110937479Y-56788427D01*
X110568143Y-56541645D01*
X110157759Y-56371658D01*
X109722098Y-56285000D01*
X109277902Y-56285000D01*
X108842241Y-56371658D01*
X108431857Y-56541645D01*
X108062521Y-56788427D01*
X107748427Y-57102521D01*
X107501645Y-57471857D01*
X107331658Y-57882241D01*
X107245000Y-58317902D01*
X103530000Y-58317902D01*
X103530000Y-54463740D01*
X129325000Y-54463740D01*
X129325000Y-54756260D01*
X129382068Y-55043158D01*
X129494010Y-55313411D01*
X129656525Y-55556632D01*
X129863368Y-55763475D01*
X130045534Y-55885195D01*
X129928645Y-55954822D01*
X129712412Y-56149731D01*
X129538359Y-56383080D01*
X129413175Y-56645901D01*
X129368524Y-56793110D01*
X129489845Y-57023000D01*
X130683000Y-57023000D01*
X130683000Y-57003000D01*
X130937000Y-57003000D01*
X130937000Y-57023000D01*
X133223000Y-57023000D01*
X133223000Y-57003000D01*
X133477000Y-57003000D01*
X133477000Y-57023000D01*
X134670155Y-57023000D01*
X134791476Y-56793110D01*
X134746825Y-56645901D01*
X134621641Y-56383080D01*
X134447588Y-56149731D01*
X134231355Y-55954822D01*
X134114466Y-55885195D01*
X134296632Y-55763475D01*
X134503475Y-55556632D01*
X134665990Y-55313411D01*
X134777932Y-55043158D01*
X134835000Y-54756260D01*
X134835000Y-54463740D01*
X134777932Y-54176842D01*
X134665990Y-53906589D01*
X134503475Y-53663368D01*
X134296632Y-53456525D01*
X134053411Y-53294010D01*
X133783158Y-53182068D01*
X133496260Y-53125000D01*
X133203740Y-53125000D01*
X132916842Y-53182068D01*
X132646589Y-53294010D01*
X132403368Y-53456525D01*
X132196525Y-53663368D01*
X132080000Y-53837760D01*
X131963475Y-53663368D01*
X131756632Y-53456525D01*
X131513411Y-53294010D01*
X131243158Y-53182068D01*
X130956260Y-53125000D01*
X130663740Y-53125000D01*
X130376842Y-53182068D01*
X130106589Y-53294010D01*
X129863368Y-53456525D01*
X129656525Y-53663368D01*
X129494010Y-53906589D01*
X129382068Y-54176842D01*
X129325000Y-54463740D01*
X103530000Y-54463740D01*
X103530000Y-47650000D01*
X160630001Y-47650000D01*
X160630000Y-126132289D01*
M02*
