G04 #@! TF.GenerationSoftware,KiCad,Pcbnew,5.1.6-c6e7f7d~87~ubuntu18.04.1*
G04 #@! TF.CreationDate,2020-07-29T19:07:16-04:00*
G04 #@! TF.ProjectId,filter_carrier_board,66696c74-6572-45f6-9361-72726965725f,1*
G04 #@! TF.SameCoordinates,Original*
G04 #@! TF.FileFunction,Legend,Bot*
G04 #@! TF.FilePolarity,Positive*
%FSLAX46Y46*%
G04 Gerber Fmt 4.6, Leading zero omitted, Abs format (unit mm)*
G04 Created by KiCad (PCBNEW 5.1.6-c6e7f7d~87~ubuntu18.04.1) date 2020-07-29 19:07:16*
%MOMM*%
%LPD*%
G01*
G04 APERTURE LIST*
%ADD10C,0.150000*%
%ADD11C,0.120000*%
G04 APERTURE END LIST*
D10*
X150169285Y-129802380D02*
X150169285Y-129135714D01*
X150169285Y-129326190D02*
X150121666Y-129230952D01*
X150074047Y-129183333D01*
X149978809Y-129135714D01*
X149883571Y-129135714D01*
X149169285Y-129754761D02*
X149264523Y-129802380D01*
X149455000Y-129802380D01*
X149550238Y-129754761D01*
X149597857Y-129659523D01*
X149597857Y-129278571D01*
X149550238Y-129183333D01*
X149455000Y-129135714D01*
X149264523Y-129135714D01*
X149169285Y-129183333D01*
X149121666Y-129278571D01*
X149121666Y-129373809D01*
X149597857Y-129469047D01*
X148788333Y-129135714D02*
X148264523Y-129135714D01*
X148788333Y-129802380D01*
X148264523Y-129802380D01*
X146550238Y-129707142D02*
X146597857Y-129754761D01*
X146740714Y-129802380D01*
X146835952Y-129802380D01*
X146978809Y-129754761D01*
X147074047Y-129659523D01*
X147121666Y-129564285D01*
X147169285Y-129373809D01*
X147169285Y-129230952D01*
X147121666Y-129040476D01*
X147074047Y-128945238D01*
X146978809Y-128850000D01*
X146835952Y-128802380D01*
X146740714Y-128802380D01*
X146597857Y-128850000D01*
X146550238Y-128897619D01*
X146264523Y-128802380D02*
X145931190Y-129802380D01*
X145597857Y-128802380D01*
X148407380Y-131452380D02*
X148407380Y-130785714D01*
X148407380Y-130452380D02*
X148455000Y-130500000D01*
X148407380Y-130547619D01*
X148359761Y-130500000D01*
X148407380Y-130452380D01*
X148407380Y-130547619D01*
X147931190Y-130785714D02*
X147931190Y-131452380D01*
X147931190Y-130880952D02*
X147883571Y-130833333D01*
X147788333Y-130785714D01*
X147645476Y-130785714D01*
X147550238Y-130833333D01*
X147502619Y-130928571D01*
X147502619Y-131452380D01*
X128738095Y-129278571D02*
X129071428Y-129278571D01*
X129071428Y-129802380D02*
X129071428Y-128802380D01*
X128595238Y-128802380D01*
X128214285Y-129802380D02*
X128214285Y-128802380D01*
X127880952Y-129516666D01*
X127547619Y-128802380D01*
X127547619Y-129802380D01*
X125738095Y-129707142D02*
X125785714Y-129754761D01*
X125928571Y-129802380D01*
X126023809Y-129802380D01*
X126166666Y-129754761D01*
X126261904Y-129659523D01*
X126309523Y-129564285D01*
X126357142Y-129373809D01*
X126357142Y-129230952D01*
X126309523Y-129040476D01*
X126261904Y-128945238D01*
X126166666Y-128850000D01*
X126023809Y-128802380D01*
X125928571Y-128802380D01*
X125785714Y-128850000D01*
X125738095Y-128897619D01*
X125452380Y-128802380D02*
X125119047Y-129802380D01*
X124785714Y-128802380D01*
X127452380Y-131452380D02*
X127452380Y-130785714D01*
X127452380Y-130452380D02*
X127500000Y-130500000D01*
X127452380Y-130547619D01*
X127404761Y-130500000D01*
X127452380Y-130452380D01*
X127452380Y-130547619D01*
X126976190Y-130785714D02*
X126976190Y-131452380D01*
X126976190Y-130880952D02*
X126928571Y-130833333D01*
X126833333Y-130785714D01*
X126690476Y-130785714D01*
X126595238Y-130833333D01*
X126547619Y-130928571D01*
X126547619Y-131452380D01*
X107830714Y-129802380D02*
X108402142Y-129802380D01*
X108116428Y-129802380D02*
X108116428Y-128802380D01*
X108211666Y-128945238D01*
X108306904Y-129040476D01*
X108402142Y-129088095D01*
X107497380Y-129135714D02*
X107259285Y-129802380D01*
X107021190Y-129135714D01*
X105925952Y-128754761D02*
X106783095Y-130040476D01*
X105449761Y-129802380D02*
X105545000Y-129754761D01*
X105592619Y-129707142D01*
X105640238Y-129611904D01*
X105640238Y-129326190D01*
X105592619Y-129230952D01*
X105545000Y-129183333D01*
X105449761Y-129135714D01*
X105306904Y-129135714D01*
X105211666Y-129183333D01*
X105164047Y-129230952D01*
X105116428Y-129326190D01*
X105116428Y-129611904D01*
X105164047Y-129707142D01*
X105211666Y-129754761D01*
X105306904Y-129802380D01*
X105449761Y-129802380D01*
X104259285Y-129754761D02*
X104354523Y-129802380D01*
X104545000Y-129802380D01*
X104640238Y-129754761D01*
X104687857Y-129707142D01*
X104735476Y-129611904D01*
X104735476Y-129326190D01*
X104687857Y-129230952D01*
X104640238Y-129183333D01*
X104545000Y-129135714D01*
X104354523Y-129135714D01*
X104259285Y-129183333D01*
X103973571Y-129135714D02*
X103592619Y-129135714D01*
X103830714Y-128802380D02*
X103830714Y-129659523D01*
X103783095Y-129754761D01*
X103687857Y-129802380D01*
X103592619Y-129802380D01*
X106497380Y-131452380D02*
X106497380Y-130785714D01*
X106497380Y-130452380D02*
X106545000Y-130500000D01*
X106497380Y-130547619D01*
X106449761Y-130500000D01*
X106497380Y-130452380D01*
X106497380Y-130547619D01*
X106021190Y-130785714D02*
X106021190Y-131452380D01*
X106021190Y-130880952D02*
X105973571Y-130833333D01*
X105878333Y-130785714D01*
X105735476Y-130785714D01*
X105640238Y-130833333D01*
X105592619Y-130928571D01*
X105592619Y-131452380D01*
X150026428Y-138009761D02*
X149931190Y-138057380D01*
X149740714Y-138057380D01*
X149645476Y-138009761D01*
X149597857Y-137914523D01*
X149597857Y-137866904D01*
X149645476Y-137771666D01*
X149740714Y-137724047D01*
X149883571Y-137724047D01*
X149978809Y-137676428D01*
X150026428Y-137581190D01*
X150026428Y-137533571D01*
X149978809Y-137438333D01*
X149883571Y-137390714D01*
X149740714Y-137390714D01*
X149645476Y-137438333D01*
X149169285Y-138057380D02*
X149169285Y-137390714D01*
X149169285Y-137057380D02*
X149216904Y-137105000D01*
X149169285Y-137152619D01*
X149121666Y-137105000D01*
X149169285Y-137057380D01*
X149169285Y-137152619D01*
X148264523Y-137390714D02*
X148264523Y-138200238D01*
X148312142Y-138295476D01*
X148359761Y-138343095D01*
X148455000Y-138390714D01*
X148597857Y-138390714D01*
X148693095Y-138343095D01*
X148264523Y-138009761D02*
X148359761Y-138057380D01*
X148550238Y-138057380D01*
X148645476Y-138009761D01*
X148693095Y-137962142D01*
X148740714Y-137866904D01*
X148740714Y-137581190D01*
X148693095Y-137485952D01*
X148645476Y-137438333D01*
X148550238Y-137390714D01*
X148359761Y-137390714D01*
X148264523Y-137438333D01*
X147788333Y-137390714D02*
X147788333Y-138057380D01*
X147788333Y-137485952D02*
X147740714Y-137438333D01*
X147645476Y-137390714D01*
X147502619Y-137390714D01*
X147407380Y-137438333D01*
X147359761Y-137533571D01*
X147359761Y-138057380D01*
X146455000Y-138057380D02*
X146455000Y-137533571D01*
X146502619Y-137438333D01*
X146597857Y-137390714D01*
X146788333Y-137390714D01*
X146883571Y-137438333D01*
X146455000Y-138009761D02*
X146550238Y-138057380D01*
X146788333Y-138057380D01*
X146883571Y-138009761D01*
X146931190Y-137914523D01*
X146931190Y-137819285D01*
X146883571Y-137724047D01*
X146788333Y-137676428D01*
X146550238Y-137676428D01*
X146455000Y-137628809D01*
X145835952Y-138057380D02*
X145931190Y-138009761D01*
X145978809Y-137914523D01*
X145978809Y-137057380D01*
X148764523Y-139707380D02*
X148859761Y-139659761D01*
X148907380Y-139612142D01*
X148955000Y-139516904D01*
X148955000Y-139231190D01*
X148907380Y-139135952D01*
X148859761Y-139088333D01*
X148764523Y-139040714D01*
X148621666Y-139040714D01*
X148526428Y-139088333D01*
X148478809Y-139135952D01*
X148431190Y-139231190D01*
X148431190Y-139516904D01*
X148478809Y-139612142D01*
X148526428Y-139659761D01*
X148621666Y-139707380D01*
X148764523Y-139707380D01*
X147574047Y-139040714D02*
X147574047Y-139707380D01*
X148002619Y-139040714D02*
X148002619Y-139564523D01*
X147955000Y-139659761D01*
X147859761Y-139707380D01*
X147716904Y-139707380D01*
X147621666Y-139659761D01*
X147574047Y-139612142D01*
X147240714Y-139040714D02*
X146859761Y-139040714D01*
X147097857Y-138707380D02*
X147097857Y-139564523D01*
X147050238Y-139659761D01*
X146955000Y-139707380D01*
X146859761Y-139707380D01*
X108116428Y-137374761D02*
X108021190Y-137422380D01*
X107830714Y-137422380D01*
X107735476Y-137374761D01*
X107687857Y-137279523D01*
X107687857Y-137231904D01*
X107735476Y-137136666D01*
X107830714Y-137089047D01*
X107973571Y-137089047D01*
X108068809Y-137041428D01*
X108116428Y-136946190D01*
X108116428Y-136898571D01*
X108068809Y-136803333D01*
X107973571Y-136755714D01*
X107830714Y-136755714D01*
X107735476Y-136803333D01*
X107259285Y-137422380D02*
X107259285Y-136755714D01*
X107259285Y-136422380D02*
X107306904Y-136470000D01*
X107259285Y-136517619D01*
X107211666Y-136470000D01*
X107259285Y-136422380D01*
X107259285Y-136517619D01*
X106354523Y-136755714D02*
X106354523Y-137565238D01*
X106402142Y-137660476D01*
X106449761Y-137708095D01*
X106545000Y-137755714D01*
X106687857Y-137755714D01*
X106783095Y-137708095D01*
X106354523Y-137374761D02*
X106449761Y-137422380D01*
X106640238Y-137422380D01*
X106735476Y-137374761D01*
X106783095Y-137327142D01*
X106830714Y-137231904D01*
X106830714Y-136946190D01*
X106783095Y-136850952D01*
X106735476Y-136803333D01*
X106640238Y-136755714D01*
X106449761Y-136755714D01*
X106354523Y-136803333D01*
X105878333Y-136755714D02*
X105878333Y-137422380D01*
X105878333Y-136850952D02*
X105830714Y-136803333D01*
X105735476Y-136755714D01*
X105592619Y-136755714D01*
X105497380Y-136803333D01*
X105449761Y-136898571D01*
X105449761Y-137422380D01*
X104545000Y-137422380D02*
X104545000Y-136898571D01*
X104592619Y-136803333D01*
X104687857Y-136755714D01*
X104878333Y-136755714D01*
X104973571Y-136803333D01*
X104545000Y-137374761D02*
X104640238Y-137422380D01*
X104878333Y-137422380D01*
X104973571Y-137374761D01*
X105021190Y-137279523D01*
X105021190Y-137184285D01*
X104973571Y-137089047D01*
X104878333Y-137041428D01*
X104640238Y-137041428D01*
X104545000Y-136993809D01*
X103925952Y-137422380D02*
X104021190Y-137374761D01*
X104068809Y-137279523D01*
X104068809Y-136422380D01*
X106497380Y-139072380D02*
X106497380Y-138405714D01*
X106497380Y-138072380D02*
X106545000Y-138120000D01*
X106497380Y-138167619D01*
X106449761Y-138120000D01*
X106497380Y-138072380D01*
X106497380Y-138167619D01*
X106021190Y-138405714D02*
X106021190Y-139072380D01*
X106021190Y-138500952D02*
X105973571Y-138453333D01*
X105878333Y-138405714D01*
X105735476Y-138405714D01*
X105640238Y-138453333D01*
X105592619Y-138548571D01*
X105592619Y-139072380D01*
X139459642Y-64555714D02*
X139221547Y-65222380D01*
X138983452Y-64555714D01*
X138602500Y-64841428D02*
X137840595Y-64841428D01*
X136602500Y-65222380D02*
X136602500Y-64555714D01*
X136602500Y-64222380D02*
X136650119Y-64270000D01*
X136602500Y-64317619D01*
X136554880Y-64270000D01*
X136602500Y-64222380D01*
X136602500Y-64317619D01*
X136126309Y-64555714D02*
X136126309Y-65222380D01*
X136126309Y-64650952D02*
X136078690Y-64603333D01*
X135983452Y-64555714D01*
X135840595Y-64555714D01*
X135745357Y-64603333D01*
X135697738Y-64698571D01*
X135697738Y-65222380D01*
X138935833Y-62015714D02*
X138935833Y-62825238D01*
X138983452Y-62920476D01*
X139031071Y-62968095D01*
X139126309Y-63015714D01*
X139269166Y-63015714D01*
X139364404Y-62968095D01*
X138935833Y-62634761D02*
X139031071Y-62682380D01*
X139221547Y-62682380D01*
X139316785Y-62634761D01*
X139364404Y-62587142D01*
X139412023Y-62491904D01*
X139412023Y-62206190D01*
X139364404Y-62110952D01*
X139316785Y-62063333D01*
X139221547Y-62015714D01*
X139031071Y-62015714D01*
X138935833Y-62063333D01*
X138459642Y-62015714D02*
X138459642Y-62682380D01*
X138459642Y-62110952D02*
X138412023Y-62063333D01*
X138316785Y-62015714D01*
X138173928Y-62015714D01*
X138078690Y-62063333D01*
X138031071Y-62158571D01*
X138031071Y-62682380D01*
X137126309Y-62682380D02*
X137126309Y-61682380D01*
X137126309Y-62634761D02*
X137221547Y-62682380D01*
X137412023Y-62682380D01*
X137507261Y-62634761D01*
X137554880Y-62587142D01*
X137602500Y-62491904D01*
X137602500Y-62206190D01*
X137554880Y-62110952D01*
X137507261Y-62063333D01*
X137412023Y-62015714D01*
X137221547Y-62015714D01*
X137126309Y-62063333D01*
X138935833Y-59475714D02*
X138935833Y-60285238D01*
X138983452Y-60380476D01*
X139031071Y-60428095D01*
X139126309Y-60475714D01*
X139269166Y-60475714D01*
X139364404Y-60428095D01*
X138935833Y-60094761D02*
X139031071Y-60142380D01*
X139221547Y-60142380D01*
X139316785Y-60094761D01*
X139364404Y-60047142D01*
X139412023Y-59951904D01*
X139412023Y-59666190D01*
X139364404Y-59570952D01*
X139316785Y-59523333D01*
X139221547Y-59475714D01*
X139031071Y-59475714D01*
X138935833Y-59523333D01*
X138459642Y-59475714D02*
X138459642Y-60142380D01*
X138459642Y-59570952D02*
X138412023Y-59523333D01*
X138316785Y-59475714D01*
X138173928Y-59475714D01*
X138078690Y-59523333D01*
X138031071Y-59618571D01*
X138031071Y-60142380D01*
X137126309Y-60142380D02*
X137126309Y-59142380D01*
X137126309Y-60094761D02*
X137221547Y-60142380D01*
X137412023Y-60142380D01*
X137507261Y-60094761D01*
X137554880Y-60047142D01*
X137602500Y-59951904D01*
X137602500Y-59666190D01*
X137554880Y-59570952D01*
X137507261Y-59523333D01*
X137412023Y-59475714D01*
X137221547Y-59475714D01*
X137126309Y-59523333D01*
X138935833Y-56935714D02*
X138935833Y-57745238D01*
X138983452Y-57840476D01*
X139031071Y-57888095D01*
X139126309Y-57935714D01*
X139269166Y-57935714D01*
X139364404Y-57888095D01*
X138935833Y-57554761D02*
X139031071Y-57602380D01*
X139221547Y-57602380D01*
X139316785Y-57554761D01*
X139364404Y-57507142D01*
X139412023Y-57411904D01*
X139412023Y-57126190D01*
X139364404Y-57030952D01*
X139316785Y-56983333D01*
X139221547Y-56935714D01*
X139031071Y-56935714D01*
X138935833Y-56983333D01*
X138459642Y-56935714D02*
X138459642Y-57602380D01*
X138459642Y-57030952D02*
X138412023Y-56983333D01*
X138316785Y-56935714D01*
X138173928Y-56935714D01*
X138078690Y-56983333D01*
X138031071Y-57078571D01*
X138031071Y-57602380D01*
X137126309Y-57602380D02*
X137126309Y-56602380D01*
X137126309Y-57554761D02*
X137221547Y-57602380D01*
X137412023Y-57602380D01*
X137507261Y-57554761D01*
X137554880Y-57507142D01*
X137602500Y-57411904D01*
X137602500Y-57126190D01*
X137554880Y-57030952D01*
X137507261Y-56983333D01*
X137412023Y-56935714D01*
X137221547Y-56935714D01*
X137126309Y-56983333D01*
X139459642Y-54395714D02*
X139221547Y-55062380D01*
X138983452Y-54395714D01*
X138602500Y-54681428D02*
X137840595Y-54681428D01*
X138221547Y-55062380D02*
X138221547Y-54300476D01*
X136602500Y-55062380D02*
X136602500Y-54395714D01*
X136602500Y-54062380D02*
X136650119Y-54110000D01*
X136602500Y-54157619D01*
X136554880Y-54110000D01*
X136602500Y-54062380D01*
X136602500Y-54157619D01*
X136126309Y-54395714D02*
X136126309Y-55062380D01*
X136126309Y-54490952D02*
X136078690Y-54443333D01*
X135983452Y-54395714D01*
X135840595Y-54395714D01*
X135745357Y-54443333D01*
X135697738Y-54538571D01*
X135697738Y-55062380D01*
X155541071Y-119308571D02*
X155874404Y-119308571D01*
X155874404Y-119832380D02*
X155874404Y-118832380D01*
X155398214Y-118832380D01*
X155017261Y-119832380D02*
X155017261Y-118832380D01*
X154683928Y-119546666D01*
X154350595Y-118832380D01*
X154350595Y-119832380D01*
X153112500Y-119832380D02*
X153112500Y-119165714D01*
X153112500Y-118832380D02*
X153160119Y-118880000D01*
X153112500Y-118927619D01*
X153064880Y-118880000D01*
X153112500Y-118832380D01*
X153112500Y-118927619D01*
X152636309Y-119165714D02*
X152636309Y-119832380D01*
X152636309Y-119260952D02*
X152588690Y-119213333D01*
X152493452Y-119165714D01*
X152350595Y-119165714D01*
X152255357Y-119213333D01*
X152207738Y-119308571D01*
X152207738Y-119832380D01*
X159353928Y-48935714D02*
X159353928Y-49745238D01*
X159401547Y-49840476D01*
X159449166Y-49888095D01*
X159544404Y-49935714D01*
X159687261Y-49935714D01*
X159782499Y-49888095D01*
X159353928Y-49554761D02*
X159449166Y-49602380D01*
X159639642Y-49602380D01*
X159734880Y-49554761D01*
X159782499Y-49507142D01*
X159830118Y-49411904D01*
X159830118Y-49126190D01*
X159782499Y-49030952D01*
X159734880Y-48983333D01*
X159639642Y-48935714D01*
X159449166Y-48935714D01*
X159353928Y-48983333D01*
X158877737Y-49602380D02*
X158877737Y-48935714D01*
X158877737Y-48602380D02*
X158925356Y-48650000D01*
X158877737Y-48697619D01*
X158830118Y-48650000D01*
X158877737Y-48602380D01*
X158877737Y-48697619D01*
X158544404Y-48935714D02*
X158163452Y-48935714D01*
X158401547Y-48602380D02*
X158401547Y-49459523D01*
X158353928Y-49554761D01*
X158258690Y-49602380D01*
X158163452Y-49602380D01*
X157830118Y-49602380D02*
X157830118Y-48602380D01*
X157401547Y-49602380D02*
X157401547Y-49078571D01*
X157449166Y-48983333D01*
X157544404Y-48935714D01*
X157687261Y-48935714D01*
X157782499Y-48983333D01*
X157830118Y-49030952D01*
X156496785Y-48935714D02*
X156496785Y-49602380D01*
X156925356Y-48935714D02*
X156925356Y-49459523D01*
X156877737Y-49554761D01*
X156782499Y-49602380D01*
X156639642Y-49602380D01*
X156544404Y-49554761D01*
X156496785Y-49507142D01*
X156020595Y-49602380D02*
X156020595Y-48602380D01*
X156020595Y-48983333D02*
X155925356Y-48935714D01*
X155734880Y-48935714D01*
X155639642Y-48983333D01*
X155592023Y-49030952D01*
X155544404Y-49126190D01*
X155544404Y-49411904D01*
X155592023Y-49507142D01*
X155639642Y-49554761D01*
X155734880Y-49602380D01*
X155925356Y-49602380D01*
X156020595Y-49554761D01*
X155115833Y-49507142D02*
X155068214Y-49554761D01*
X155115833Y-49602380D01*
X155163452Y-49554761D01*
X155115833Y-49507142D01*
X155115833Y-49602380D01*
X154211071Y-49554761D02*
X154306309Y-49602380D01*
X154496785Y-49602380D01*
X154592023Y-49554761D01*
X154639642Y-49507142D01*
X154687261Y-49411904D01*
X154687261Y-49126190D01*
X154639642Y-49030952D01*
X154592023Y-48983333D01*
X154496785Y-48935714D01*
X154306309Y-48935714D01*
X154211071Y-48983333D01*
X153639642Y-49602380D02*
X153734880Y-49554761D01*
X153782499Y-49507142D01*
X153830118Y-49411904D01*
X153830118Y-49126190D01*
X153782499Y-49030952D01*
X153734880Y-48983333D01*
X153639642Y-48935714D01*
X153496785Y-48935714D01*
X153401547Y-48983333D01*
X153353928Y-49030952D01*
X153306309Y-49126190D01*
X153306309Y-49411904D01*
X153353928Y-49507142D01*
X153401547Y-49554761D01*
X153496785Y-49602380D01*
X153639642Y-49602380D01*
X152877737Y-49602380D02*
X152877737Y-48935714D01*
X152877737Y-49030952D02*
X152830118Y-48983333D01*
X152734880Y-48935714D01*
X152592023Y-48935714D01*
X152496785Y-48983333D01*
X152449166Y-49078571D01*
X152449166Y-49602380D01*
X152449166Y-49078571D02*
X152401547Y-48983333D01*
X152306309Y-48935714D01*
X152163452Y-48935714D01*
X152068214Y-48983333D01*
X152020595Y-49078571D01*
X152020595Y-49602380D01*
X150830118Y-48554761D02*
X151687261Y-49840476D01*
X150211071Y-48602380D02*
X150211071Y-49316666D01*
X150258690Y-49459523D01*
X150353928Y-49554761D01*
X150496785Y-49602380D01*
X150592023Y-49602380D01*
X149592023Y-49602380D02*
X149687261Y-49554761D01*
X149734880Y-49507142D01*
X149782499Y-49411904D01*
X149782499Y-49126190D01*
X149734880Y-49030952D01*
X149687261Y-48983333D01*
X149592023Y-48935714D01*
X149449166Y-48935714D01*
X149353928Y-48983333D01*
X149306309Y-49030952D01*
X149258690Y-49126190D01*
X149258690Y-49411904D01*
X149306309Y-49507142D01*
X149353928Y-49554761D01*
X149449166Y-49602380D01*
X149592023Y-49602380D01*
X148830118Y-49602380D02*
X148830118Y-48935714D01*
X148830118Y-49126190D02*
X148782499Y-49030952D01*
X148734880Y-48983333D01*
X148639642Y-48935714D01*
X148544404Y-48935714D01*
X147782499Y-49602380D02*
X147782499Y-48602380D01*
X147782499Y-49554761D02*
X147877737Y-49602380D01*
X148068214Y-49602380D01*
X148163452Y-49554761D01*
X148211071Y-49507142D01*
X148258690Y-49411904D01*
X148258690Y-49126190D01*
X148211071Y-49030952D01*
X148163452Y-48983333D01*
X148068214Y-48935714D01*
X147877737Y-48935714D01*
X147782499Y-48983333D01*
X146877737Y-49602380D02*
X146877737Y-49078571D01*
X146925356Y-48983333D01*
X147020595Y-48935714D01*
X147211071Y-48935714D01*
X147306309Y-48983333D01*
X146877737Y-49554761D02*
X146972975Y-49602380D01*
X147211071Y-49602380D01*
X147306309Y-49554761D01*
X147353928Y-49459523D01*
X147353928Y-49364285D01*
X147306309Y-49269047D01*
X147211071Y-49221428D01*
X146972975Y-49221428D01*
X146877737Y-49173809D01*
X146401547Y-48935714D02*
X146401547Y-49602380D01*
X146401547Y-49030952D02*
X146353928Y-48983333D01*
X146258690Y-48935714D01*
X146115833Y-48935714D01*
X146020595Y-48983333D01*
X145972975Y-49078571D01*
X145972975Y-49602380D01*
X145544404Y-49316666D02*
X145068214Y-49316666D01*
X145639642Y-49602380D02*
X145306309Y-48602380D01*
X144972975Y-49602380D01*
X144211071Y-49554761D02*
X144306309Y-49602380D01*
X144496785Y-49602380D01*
X144592023Y-49554761D01*
X144639642Y-49507142D01*
X144687261Y-49411904D01*
X144687261Y-49126190D01*
X144639642Y-49030952D01*
X144592023Y-48983333D01*
X144496785Y-48935714D01*
X144306309Y-48935714D01*
X144211071Y-48983333D01*
X143401547Y-49554761D02*
X143496785Y-49602380D01*
X143687261Y-49602380D01*
X143782499Y-49554761D01*
X143830118Y-49459523D01*
X143830118Y-49078571D01*
X143782499Y-48983333D01*
X143687261Y-48935714D01*
X143496785Y-48935714D01*
X143401547Y-48983333D01*
X143353928Y-49078571D01*
X143353928Y-49173809D01*
X143830118Y-49269047D01*
X143068214Y-48935714D02*
X142687261Y-48935714D01*
X142925356Y-48602380D02*
X142925356Y-49459523D01*
X142877737Y-49554761D01*
X142782499Y-49602380D01*
X142687261Y-49602380D01*
X142211071Y-49602380D02*
X142306309Y-49554761D01*
X142353928Y-49507142D01*
X142401547Y-49411904D01*
X142401547Y-49126190D01*
X142353928Y-49030952D01*
X142306309Y-48983333D01*
X142211071Y-48935714D01*
X142068214Y-48935714D01*
X141972975Y-48983333D01*
X141925356Y-49030952D01*
X141877737Y-49126190D01*
X141877737Y-49411904D01*
X141925356Y-49507142D01*
X141972975Y-49554761D01*
X142068214Y-49602380D01*
X142211071Y-49602380D01*
X140734880Y-48554761D02*
X141592023Y-49840476D01*
X140068214Y-49078571D02*
X140401547Y-49078571D01*
X140401547Y-49602380D02*
X140401547Y-48602380D01*
X139925356Y-48602380D01*
X139544404Y-49602380D02*
X139544404Y-48935714D01*
X139544404Y-48602380D02*
X139592023Y-48650000D01*
X139544404Y-48697619D01*
X139496785Y-48650000D01*
X139544404Y-48602380D01*
X139544404Y-48697619D01*
X138925356Y-49602380D02*
X139020595Y-49554761D01*
X139068214Y-49459523D01*
X139068214Y-48602380D01*
X138687261Y-48935714D02*
X138306309Y-48935714D01*
X138544404Y-48602380D02*
X138544404Y-49459523D01*
X138496785Y-49554761D01*
X138401547Y-49602380D01*
X138306309Y-49602380D01*
X137592023Y-49554761D02*
X137687261Y-49602380D01*
X137877737Y-49602380D01*
X137972975Y-49554761D01*
X138020595Y-49459523D01*
X138020595Y-49078571D01*
X137972975Y-48983333D01*
X137877737Y-48935714D01*
X137687261Y-48935714D01*
X137592023Y-48983333D01*
X137544404Y-49078571D01*
X137544404Y-49173809D01*
X138020595Y-49269047D01*
X137115833Y-49602380D02*
X137115833Y-48935714D01*
X137115833Y-49126190D02*
X137068214Y-49030952D01*
X137020595Y-48983333D01*
X136925356Y-48935714D01*
X136830118Y-48935714D01*
X136734880Y-49697619D02*
X135972975Y-49697619D01*
X135163452Y-49507142D02*
X135211071Y-49554761D01*
X135353928Y-49602380D01*
X135449166Y-49602380D01*
X135592023Y-49554761D01*
X135687261Y-49459523D01*
X135734880Y-49364285D01*
X135782499Y-49173809D01*
X135782499Y-49030952D01*
X135734880Y-48840476D01*
X135687261Y-48745238D01*
X135592023Y-48650000D01*
X135449166Y-48602380D01*
X135353928Y-48602380D01*
X135211071Y-48650000D01*
X135163452Y-48697619D01*
X134306309Y-49602380D02*
X134306309Y-49078571D01*
X134353928Y-48983333D01*
X134449166Y-48935714D01*
X134639642Y-48935714D01*
X134734880Y-48983333D01*
X134306309Y-49554761D02*
X134401547Y-49602380D01*
X134639642Y-49602380D01*
X134734880Y-49554761D01*
X134782499Y-49459523D01*
X134782499Y-49364285D01*
X134734880Y-49269047D01*
X134639642Y-49221428D01*
X134401547Y-49221428D01*
X134306309Y-49173809D01*
X133830118Y-49602380D02*
X133830118Y-48935714D01*
X133830118Y-49126190D02*
X133782499Y-49030952D01*
X133734880Y-48983333D01*
X133639642Y-48935714D01*
X133544404Y-48935714D01*
X133211071Y-49602380D02*
X133211071Y-48935714D01*
X133211071Y-49126190D02*
X133163452Y-49030952D01*
X133115833Y-48983333D01*
X133020595Y-48935714D01*
X132925356Y-48935714D01*
X132592023Y-49602380D02*
X132592023Y-48935714D01*
X132592023Y-48602380D02*
X132639642Y-48650000D01*
X132592023Y-48697619D01*
X132544404Y-48650000D01*
X132592023Y-48602380D01*
X132592023Y-48697619D01*
X131734880Y-49554761D02*
X131830118Y-49602380D01*
X132020595Y-49602380D01*
X132115833Y-49554761D01*
X132163452Y-49459523D01*
X132163452Y-49078571D01*
X132115833Y-48983333D01*
X132020595Y-48935714D01*
X131830118Y-48935714D01*
X131734880Y-48983333D01*
X131687261Y-49078571D01*
X131687261Y-49173809D01*
X132163452Y-49269047D01*
X131258690Y-49602380D02*
X131258690Y-48935714D01*
X131258690Y-49126190D02*
X131211071Y-49030952D01*
X131163452Y-48983333D01*
X131068214Y-48935714D01*
X130972975Y-48935714D01*
X130877737Y-49697619D02*
X130115833Y-49697619D01*
X129544404Y-49078571D02*
X129401547Y-49126190D01*
X129353928Y-49173809D01*
X129306309Y-49269047D01*
X129306309Y-49411904D01*
X129353928Y-49507142D01*
X129401547Y-49554761D01*
X129496785Y-49602380D01*
X129877737Y-49602380D01*
X129877737Y-48602380D01*
X129544404Y-48602380D01*
X129449166Y-48650000D01*
X129401547Y-48697619D01*
X129353928Y-48792857D01*
X129353928Y-48888095D01*
X129401547Y-48983333D01*
X129449166Y-49030952D01*
X129544404Y-49078571D01*
X129877737Y-49078571D01*
X128734880Y-49602380D02*
X128830118Y-49554761D01*
X128877737Y-49507142D01*
X128925356Y-49411904D01*
X128925356Y-49126190D01*
X128877737Y-49030952D01*
X128830118Y-48983333D01*
X128734880Y-48935714D01*
X128592023Y-48935714D01*
X128496785Y-48983333D01*
X128449166Y-49030952D01*
X128401547Y-49126190D01*
X128401547Y-49411904D01*
X128449166Y-49507142D01*
X128496785Y-49554761D01*
X128592023Y-49602380D01*
X128734880Y-49602380D01*
X127544404Y-49602380D02*
X127544404Y-49078571D01*
X127592023Y-48983333D01*
X127687261Y-48935714D01*
X127877737Y-48935714D01*
X127972975Y-48983333D01*
X127544404Y-49554761D02*
X127639642Y-49602380D01*
X127877737Y-49602380D01*
X127972975Y-49554761D01*
X128020595Y-49459523D01*
X128020595Y-49364285D01*
X127972975Y-49269047D01*
X127877737Y-49221428D01*
X127639642Y-49221428D01*
X127544404Y-49173809D01*
X127068214Y-49602380D02*
X127068214Y-48935714D01*
X127068214Y-49126190D02*
X127020595Y-49030952D01*
X126972975Y-48983333D01*
X126877737Y-48935714D01*
X126782499Y-48935714D01*
X126020595Y-49602380D02*
X126020595Y-48602380D01*
X126020595Y-49554761D02*
X126115833Y-49602380D01*
X126306309Y-49602380D01*
X126401547Y-49554761D01*
X126449166Y-49507142D01*
X126496785Y-49411904D01*
X126496785Y-49126190D01*
X126449166Y-49030952D01*
X126401547Y-48983333D01*
X126306309Y-48935714D01*
X126115833Y-48935714D01*
X126020595Y-48983333D01*
X159782499Y-51252380D02*
X159782499Y-50585714D01*
X159782499Y-50776190D02*
X159734880Y-50680952D01*
X159687261Y-50633333D01*
X159592023Y-50585714D01*
X159496785Y-50585714D01*
X158782499Y-51204761D02*
X158877737Y-51252380D01*
X159068214Y-51252380D01*
X159163452Y-51204761D01*
X159211071Y-51109523D01*
X159211071Y-50728571D01*
X159163452Y-50633333D01*
X159068214Y-50585714D01*
X158877737Y-50585714D01*
X158782499Y-50633333D01*
X158734880Y-50728571D01*
X158734880Y-50823809D01*
X159211071Y-50919047D01*
X158401547Y-50585714D02*
X158163452Y-51252380D01*
X157925356Y-50585714D01*
X156258690Y-51252380D02*
X156830118Y-51252380D01*
X156544404Y-51252380D02*
X156544404Y-50252380D01*
X156639642Y-50395238D01*
X156734880Y-50490476D01*
X156830118Y-50538095D01*
X155830118Y-51157142D02*
X155782499Y-51204761D01*
X155830118Y-51252380D01*
X155877737Y-51204761D01*
X155830118Y-51157142D01*
X155830118Y-51252380D01*
X154830118Y-51252380D02*
X155401547Y-51252380D01*
X155115833Y-51252380D02*
X155115833Y-50252380D01*
X155211071Y-50395238D01*
X155306309Y-50490476D01*
X155401547Y-50538095D01*
X159830118Y-51997619D02*
X159782499Y-51950000D01*
X159687261Y-51902380D01*
X159449166Y-51902380D01*
X159353928Y-51950000D01*
X159306309Y-51997619D01*
X159258690Y-52092857D01*
X159258690Y-52188095D01*
X159306309Y-52330952D01*
X159877737Y-52902380D01*
X159258690Y-52902380D01*
X158639642Y-51902380D02*
X158544404Y-51902380D01*
X158449166Y-51950000D01*
X158401547Y-51997619D01*
X158353928Y-52092857D01*
X158306309Y-52283333D01*
X158306309Y-52521428D01*
X158353928Y-52711904D01*
X158401547Y-52807142D01*
X158449166Y-52854761D01*
X158544404Y-52902380D01*
X158639642Y-52902380D01*
X158734880Y-52854761D01*
X158782499Y-52807142D01*
X158830118Y-52711904D01*
X158877737Y-52521428D01*
X158877737Y-52283333D01*
X158830118Y-52092857D01*
X158782499Y-51997619D01*
X158734880Y-51950000D01*
X158639642Y-51902380D01*
X157925356Y-51997619D02*
X157877737Y-51950000D01*
X157782499Y-51902380D01*
X157544404Y-51902380D01*
X157449166Y-51950000D01*
X157401547Y-51997619D01*
X157353928Y-52092857D01*
X157353928Y-52188095D01*
X157401547Y-52330952D01*
X157972975Y-52902380D01*
X157353928Y-52902380D01*
X156734880Y-51902380D02*
X156639642Y-51902380D01*
X156544404Y-51950000D01*
X156496785Y-51997619D01*
X156449166Y-52092857D01*
X156401547Y-52283333D01*
X156401547Y-52521428D01*
X156449166Y-52711904D01*
X156496785Y-52807142D01*
X156544404Y-52854761D01*
X156639642Y-52902380D01*
X156734880Y-52902380D01*
X156830118Y-52854761D01*
X156877737Y-52807142D01*
X156925356Y-52711904D01*
X156972975Y-52521428D01*
X156972975Y-52283333D01*
X156925356Y-52092857D01*
X156877737Y-51997619D01*
X156830118Y-51950000D01*
X156734880Y-51902380D01*
X155972975Y-52521428D02*
X155211071Y-52521428D01*
X154544404Y-51902380D02*
X154449166Y-51902380D01*
X154353928Y-51950000D01*
X154306309Y-51997619D01*
X154258690Y-52092857D01*
X154211071Y-52283333D01*
X154211071Y-52521428D01*
X154258690Y-52711904D01*
X154306309Y-52807142D01*
X154353928Y-52854761D01*
X154449166Y-52902380D01*
X154544404Y-52902380D01*
X154639642Y-52854761D01*
X154687261Y-52807142D01*
X154734880Y-52711904D01*
X154782499Y-52521428D01*
X154782499Y-52283333D01*
X154734880Y-52092857D01*
X154687261Y-51997619D01*
X154639642Y-51950000D01*
X154544404Y-51902380D01*
X153877737Y-51902380D02*
X153211071Y-51902380D01*
X153639642Y-52902380D01*
X152830118Y-52521428D02*
X152068214Y-52521428D01*
X151068214Y-52902380D02*
X151639642Y-52902380D01*
X151353928Y-52902380D02*
X151353928Y-51902380D01*
X151449166Y-52045238D01*
X151544404Y-52140476D01*
X151639642Y-52188095D01*
X150734880Y-51902380D02*
X150115833Y-51902380D01*
X150449166Y-52283333D01*
X150306309Y-52283333D01*
X150211071Y-52330952D01*
X150163452Y-52378571D01*
X150115833Y-52473809D01*
X150115833Y-52711904D01*
X150163452Y-52807142D01*
X150211071Y-52854761D01*
X150306309Y-52902380D01*
X150592023Y-52902380D01*
X150687261Y-52854761D01*
X150734880Y-52807142D01*
X111809404Y-119451428D02*
X111047500Y-119451428D01*
X111428452Y-119832380D02*
X111428452Y-119070476D01*
X110047500Y-119832380D02*
X110618928Y-119832380D01*
X110333214Y-119832380D02*
X110333214Y-118832380D01*
X110428452Y-118975238D01*
X110523690Y-119070476D01*
X110618928Y-119118095D01*
X109666547Y-118927619D02*
X109618928Y-118880000D01*
X109523690Y-118832380D01*
X109285595Y-118832380D01*
X109190357Y-118880000D01*
X109142738Y-118927619D01*
X109095119Y-119022857D01*
X109095119Y-119118095D01*
X109142738Y-119260952D01*
X109714166Y-119832380D01*
X109095119Y-119832380D01*
X108809404Y-118832380D02*
X108476071Y-119832380D01*
X108142738Y-118832380D01*
X111809404Y-116911428D02*
X111047500Y-116911428D01*
X111428452Y-117292380D02*
X111428452Y-116530476D01*
X110047500Y-117292380D02*
X110618928Y-117292380D01*
X110333214Y-117292380D02*
X110333214Y-116292380D01*
X110428452Y-116435238D01*
X110523690Y-116530476D01*
X110618928Y-116578095D01*
X109666547Y-116387619D02*
X109618928Y-116340000D01*
X109523690Y-116292380D01*
X109285595Y-116292380D01*
X109190357Y-116340000D01*
X109142738Y-116387619D01*
X109095119Y-116482857D01*
X109095119Y-116578095D01*
X109142738Y-116720952D01*
X109714166Y-117292380D01*
X109095119Y-117292380D01*
X108809404Y-116292380D02*
X108476071Y-117292380D01*
X108142738Y-116292380D01*
X111809404Y-114371428D02*
X111047500Y-114371428D01*
X110047500Y-114752380D02*
X110618928Y-114752380D01*
X110333214Y-114752380D02*
X110333214Y-113752380D01*
X110428452Y-113895238D01*
X110523690Y-113990476D01*
X110618928Y-114038095D01*
X109666547Y-113847619D02*
X109618928Y-113800000D01*
X109523690Y-113752380D01*
X109285595Y-113752380D01*
X109190357Y-113800000D01*
X109142738Y-113847619D01*
X109095119Y-113942857D01*
X109095119Y-114038095D01*
X109142738Y-114180952D01*
X109714166Y-114752380D01*
X109095119Y-114752380D01*
X108809404Y-113752380D02*
X108476071Y-114752380D01*
X108142738Y-113752380D01*
X111809404Y-111831428D02*
X111047500Y-111831428D01*
X110047500Y-112212380D02*
X110618928Y-112212380D01*
X110333214Y-112212380D02*
X110333214Y-111212380D01*
X110428452Y-111355238D01*
X110523690Y-111450476D01*
X110618928Y-111498095D01*
X109666547Y-111307619D02*
X109618928Y-111260000D01*
X109523690Y-111212380D01*
X109285595Y-111212380D01*
X109190357Y-111260000D01*
X109142738Y-111307619D01*
X109095119Y-111402857D01*
X109095119Y-111498095D01*
X109142738Y-111640952D01*
X109714166Y-112212380D01*
X109095119Y-112212380D01*
X108809404Y-111212380D02*
X108476071Y-112212380D01*
X108142738Y-111212380D01*
X114095119Y-109148571D02*
X114428452Y-109148571D01*
X114428452Y-109672380D02*
X114428452Y-108672380D01*
X113952261Y-108672380D01*
X113237976Y-109148571D02*
X113095119Y-109196190D01*
X113047500Y-109243809D01*
X112999880Y-109339047D01*
X112999880Y-109481904D01*
X113047500Y-109577142D01*
X113095119Y-109624761D01*
X113190357Y-109672380D01*
X113571309Y-109672380D01*
X113571309Y-108672380D01*
X113237976Y-108672380D01*
X113142738Y-108720000D01*
X113095119Y-108767619D01*
X113047500Y-108862857D01*
X113047500Y-108958095D01*
X113095119Y-109053333D01*
X113142738Y-109100952D01*
X113237976Y-109148571D01*
X113571309Y-109148571D01*
X111237976Y-109577142D02*
X111285595Y-109624761D01*
X111428452Y-109672380D01*
X111523690Y-109672380D01*
X111666547Y-109624761D01*
X111761785Y-109529523D01*
X111809404Y-109434285D01*
X111857023Y-109243809D01*
X111857023Y-109100952D01*
X111809404Y-108910476D01*
X111761785Y-108815238D01*
X111666547Y-108720000D01*
X111523690Y-108672380D01*
X111428452Y-108672380D01*
X111285595Y-108720000D01*
X111237976Y-108767619D01*
X110952261Y-108672380D02*
X110618928Y-109672380D01*
X110285595Y-108672380D01*
X109190357Y-109672380D02*
X109190357Y-109005714D01*
X109190357Y-108672380D02*
X109237976Y-108720000D01*
X109190357Y-108767619D01*
X109142738Y-108720000D01*
X109190357Y-108672380D01*
X109190357Y-108767619D01*
X108714166Y-109005714D02*
X108714166Y-109672380D01*
X108714166Y-109100952D02*
X108666547Y-109053333D01*
X108571309Y-109005714D01*
X108428452Y-109005714D01*
X108333214Y-109053333D01*
X108285595Y-109148571D01*
X108285595Y-109672380D01*
X114095119Y-106608571D02*
X114428452Y-106608571D01*
X114428452Y-107132380D02*
X114428452Y-106132380D01*
X113952261Y-106132380D01*
X113237976Y-106608571D02*
X113095119Y-106656190D01*
X113047500Y-106703809D01*
X112999880Y-106799047D01*
X112999880Y-106941904D01*
X113047500Y-107037142D01*
X113095119Y-107084761D01*
X113190357Y-107132380D01*
X113571309Y-107132380D01*
X113571309Y-106132380D01*
X113237976Y-106132380D01*
X113142738Y-106180000D01*
X113095119Y-106227619D01*
X113047500Y-106322857D01*
X113047500Y-106418095D01*
X113095119Y-106513333D01*
X113142738Y-106560952D01*
X113237976Y-106608571D01*
X113571309Y-106608571D01*
X111237976Y-107037142D02*
X111285595Y-107084761D01*
X111428452Y-107132380D01*
X111523690Y-107132380D01*
X111666547Y-107084761D01*
X111761785Y-106989523D01*
X111809404Y-106894285D01*
X111857023Y-106703809D01*
X111857023Y-106560952D01*
X111809404Y-106370476D01*
X111761785Y-106275238D01*
X111666547Y-106180000D01*
X111523690Y-106132380D01*
X111428452Y-106132380D01*
X111285595Y-106180000D01*
X111237976Y-106227619D01*
X110952261Y-106132380D02*
X110618928Y-107132380D01*
X110285595Y-106132380D01*
X109190357Y-107132380D02*
X109190357Y-106465714D01*
X109190357Y-106132380D02*
X109237976Y-106180000D01*
X109190357Y-106227619D01*
X109142738Y-106180000D01*
X109190357Y-106132380D01*
X109190357Y-106227619D01*
X108714166Y-106465714D02*
X108714166Y-107132380D01*
X108714166Y-106560952D02*
X108666547Y-106513333D01*
X108571309Y-106465714D01*
X108428452Y-106465714D01*
X108333214Y-106513333D01*
X108285595Y-106608571D01*
X108285595Y-107132380D01*
X155445833Y-114085714D02*
X155445833Y-114895238D01*
X155493452Y-114990476D01*
X155541071Y-115038095D01*
X155636309Y-115085714D01*
X155779166Y-115085714D01*
X155874404Y-115038095D01*
X155445833Y-114704761D02*
X155541071Y-114752380D01*
X155731547Y-114752380D01*
X155826785Y-114704761D01*
X155874404Y-114657142D01*
X155922023Y-114561904D01*
X155922023Y-114276190D01*
X155874404Y-114180952D01*
X155826785Y-114133333D01*
X155731547Y-114085714D01*
X155541071Y-114085714D01*
X155445833Y-114133333D01*
X154969642Y-114085714D02*
X154969642Y-114752380D01*
X154969642Y-114180952D02*
X154922023Y-114133333D01*
X154826785Y-114085714D01*
X154683928Y-114085714D01*
X154588690Y-114133333D01*
X154541071Y-114228571D01*
X154541071Y-114752380D01*
X153636309Y-114752380D02*
X153636309Y-113752380D01*
X153636309Y-114704761D02*
X153731547Y-114752380D01*
X153922023Y-114752380D01*
X154017261Y-114704761D01*
X154064880Y-114657142D01*
X154112500Y-114561904D01*
X154112500Y-114276190D01*
X154064880Y-114180952D01*
X154017261Y-114133333D01*
X153922023Y-114085714D01*
X153731547Y-114085714D01*
X153636309Y-114133333D01*
X155445833Y-111545714D02*
X155445833Y-112355238D01*
X155493452Y-112450476D01*
X155541071Y-112498095D01*
X155636309Y-112545714D01*
X155779166Y-112545714D01*
X155874404Y-112498095D01*
X155445833Y-112164761D02*
X155541071Y-112212380D01*
X155731547Y-112212380D01*
X155826785Y-112164761D01*
X155874404Y-112117142D01*
X155922023Y-112021904D01*
X155922023Y-111736190D01*
X155874404Y-111640952D01*
X155826785Y-111593333D01*
X155731547Y-111545714D01*
X155541071Y-111545714D01*
X155445833Y-111593333D01*
X154969642Y-111545714D02*
X154969642Y-112212380D01*
X154969642Y-111640952D02*
X154922023Y-111593333D01*
X154826785Y-111545714D01*
X154683928Y-111545714D01*
X154588690Y-111593333D01*
X154541071Y-111688571D01*
X154541071Y-112212380D01*
X153636309Y-112212380D02*
X153636309Y-111212380D01*
X153636309Y-112164761D02*
X153731547Y-112212380D01*
X153922023Y-112212380D01*
X154017261Y-112164761D01*
X154064880Y-112117142D01*
X154112500Y-112021904D01*
X154112500Y-111736190D01*
X154064880Y-111640952D01*
X154017261Y-111593333D01*
X153922023Y-111545714D01*
X153731547Y-111545714D01*
X153636309Y-111593333D01*
X156602023Y-79144761D02*
X156506785Y-79192380D01*
X156316309Y-79192380D01*
X156221071Y-79144761D01*
X156173452Y-79049523D01*
X156173452Y-79001904D01*
X156221071Y-78906666D01*
X156316309Y-78859047D01*
X156459166Y-78859047D01*
X156554404Y-78811428D01*
X156602023Y-78716190D01*
X156602023Y-78668571D01*
X156554404Y-78573333D01*
X156459166Y-78525714D01*
X156316309Y-78525714D01*
X156221071Y-78573333D01*
X155744880Y-79192380D02*
X155744880Y-78525714D01*
X155744880Y-78192380D02*
X155792499Y-78240000D01*
X155744880Y-78287619D01*
X155697261Y-78240000D01*
X155744880Y-78192380D01*
X155744880Y-78287619D01*
X154840118Y-78525714D02*
X154840118Y-79335238D01*
X154887737Y-79430476D01*
X154935356Y-79478095D01*
X155030594Y-79525714D01*
X155173452Y-79525714D01*
X155268690Y-79478095D01*
X154840118Y-79144761D02*
X154935356Y-79192380D01*
X155125833Y-79192380D01*
X155221071Y-79144761D01*
X155268690Y-79097142D01*
X155316309Y-79001904D01*
X155316309Y-78716190D01*
X155268690Y-78620952D01*
X155221071Y-78573333D01*
X155125833Y-78525714D01*
X154935356Y-78525714D01*
X154840118Y-78573333D01*
X154363928Y-78525714D02*
X154363928Y-79192380D01*
X154363928Y-78620952D02*
X154316309Y-78573333D01*
X154221071Y-78525714D01*
X154078213Y-78525714D01*
X153982975Y-78573333D01*
X153935356Y-78668571D01*
X153935356Y-79192380D01*
X153030594Y-79192380D02*
X153030594Y-78668571D01*
X153078213Y-78573333D01*
X153173452Y-78525714D01*
X153363928Y-78525714D01*
X153459166Y-78573333D01*
X153030594Y-79144761D02*
X153125833Y-79192380D01*
X153363928Y-79192380D01*
X153459166Y-79144761D01*
X153506785Y-79049523D01*
X153506785Y-78954285D01*
X153459166Y-78859047D01*
X153363928Y-78811428D01*
X153125833Y-78811428D01*
X153030594Y-78763809D01*
X152411547Y-79192380D02*
X152506785Y-79144761D01*
X152554404Y-79049523D01*
X152554404Y-78192380D01*
X151268690Y-79192380D02*
X151268690Y-78525714D01*
X151268690Y-78192380D02*
X151316309Y-78240000D01*
X151268690Y-78287619D01*
X151221071Y-78240000D01*
X151268690Y-78192380D01*
X151268690Y-78287619D01*
X150792499Y-78525714D02*
X150792499Y-79192380D01*
X150792499Y-78620952D02*
X150744880Y-78573333D01*
X150649642Y-78525714D01*
X150506785Y-78525714D01*
X150411547Y-78573333D01*
X150363928Y-78668571D01*
X150363928Y-79192380D01*
X156602023Y-76604761D02*
X156506785Y-76652380D01*
X156316309Y-76652380D01*
X156221071Y-76604761D01*
X156173452Y-76509523D01*
X156173452Y-76461904D01*
X156221071Y-76366666D01*
X156316309Y-76319047D01*
X156459166Y-76319047D01*
X156554404Y-76271428D01*
X156602023Y-76176190D01*
X156602023Y-76128571D01*
X156554404Y-76033333D01*
X156459166Y-75985714D01*
X156316309Y-75985714D01*
X156221071Y-76033333D01*
X155744880Y-76652380D02*
X155744880Y-75985714D01*
X155744880Y-75652380D02*
X155792499Y-75700000D01*
X155744880Y-75747619D01*
X155697261Y-75700000D01*
X155744880Y-75652380D01*
X155744880Y-75747619D01*
X154840118Y-75985714D02*
X154840118Y-76795238D01*
X154887737Y-76890476D01*
X154935356Y-76938095D01*
X155030594Y-76985714D01*
X155173452Y-76985714D01*
X155268690Y-76938095D01*
X154840118Y-76604761D02*
X154935356Y-76652380D01*
X155125833Y-76652380D01*
X155221071Y-76604761D01*
X155268690Y-76557142D01*
X155316309Y-76461904D01*
X155316309Y-76176190D01*
X155268690Y-76080952D01*
X155221071Y-76033333D01*
X155125833Y-75985714D01*
X154935356Y-75985714D01*
X154840118Y-76033333D01*
X154363928Y-75985714D02*
X154363928Y-76652380D01*
X154363928Y-76080952D02*
X154316309Y-76033333D01*
X154221071Y-75985714D01*
X154078213Y-75985714D01*
X153982975Y-76033333D01*
X153935356Y-76128571D01*
X153935356Y-76652380D01*
X153030594Y-76652380D02*
X153030594Y-76128571D01*
X153078213Y-76033333D01*
X153173452Y-75985714D01*
X153363928Y-75985714D01*
X153459166Y-76033333D01*
X153030594Y-76604761D02*
X153125833Y-76652380D01*
X153363928Y-76652380D01*
X153459166Y-76604761D01*
X153506785Y-76509523D01*
X153506785Y-76414285D01*
X153459166Y-76319047D01*
X153363928Y-76271428D01*
X153125833Y-76271428D01*
X153030594Y-76223809D01*
X152411547Y-76652380D02*
X152506785Y-76604761D01*
X152554404Y-76509523D01*
X152554404Y-75652380D01*
X151268690Y-76652380D02*
X151268690Y-75985714D01*
X151268690Y-75652380D02*
X151316309Y-75700000D01*
X151268690Y-75747619D01*
X151221071Y-75700000D01*
X151268690Y-75652380D01*
X151268690Y-75747619D01*
X150792499Y-75985714D02*
X150792499Y-76652380D01*
X150792499Y-76080952D02*
X150744880Y-76033333D01*
X150649642Y-75985714D01*
X150506785Y-75985714D01*
X150411547Y-76033333D01*
X150363928Y-76128571D01*
X150363928Y-76652380D01*
X156125833Y-73445714D02*
X156125833Y-74255238D01*
X156173452Y-74350476D01*
X156221071Y-74398095D01*
X156316309Y-74445714D01*
X156459166Y-74445714D01*
X156554404Y-74398095D01*
X156125833Y-74064761D02*
X156221071Y-74112380D01*
X156411547Y-74112380D01*
X156506785Y-74064761D01*
X156554404Y-74017142D01*
X156602023Y-73921904D01*
X156602023Y-73636190D01*
X156554404Y-73540952D01*
X156506785Y-73493333D01*
X156411547Y-73445714D01*
X156221071Y-73445714D01*
X156125833Y-73493333D01*
X155649642Y-73445714D02*
X155649642Y-74112380D01*
X155649642Y-73540952D02*
X155602023Y-73493333D01*
X155506785Y-73445714D01*
X155363928Y-73445714D01*
X155268690Y-73493333D01*
X155221071Y-73588571D01*
X155221071Y-74112380D01*
X154316309Y-74112380D02*
X154316309Y-73112380D01*
X154316309Y-74064761D02*
X154411547Y-74112380D01*
X154602023Y-74112380D01*
X154697261Y-74064761D01*
X154744880Y-74017142D01*
X154792499Y-73921904D01*
X154792499Y-73636190D01*
X154744880Y-73540952D01*
X154697261Y-73493333D01*
X154602023Y-73445714D01*
X154411547Y-73445714D01*
X154316309Y-73493333D01*
X156125833Y-70905714D02*
X156125833Y-71715238D01*
X156173452Y-71810476D01*
X156221071Y-71858095D01*
X156316309Y-71905714D01*
X156459166Y-71905714D01*
X156554404Y-71858095D01*
X156125833Y-71524761D02*
X156221071Y-71572380D01*
X156411547Y-71572380D01*
X156506785Y-71524761D01*
X156554404Y-71477142D01*
X156602023Y-71381904D01*
X156602023Y-71096190D01*
X156554404Y-71000952D01*
X156506785Y-70953333D01*
X156411547Y-70905714D01*
X156221071Y-70905714D01*
X156125833Y-70953333D01*
X155649642Y-70905714D02*
X155649642Y-71572380D01*
X155649642Y-71000952D02*
X155602023Y-70953333D01*
X155506785Y-70905714D01*
X155363928Y-70905714D01*
X155268690Y-70953333D01*
X155221071Y-71048571D01*
X155221071Y-71572380D01*
X154316309Y-71572380D02*
X154316309Y-70572380D01*
X154316309Y-71524761D02*
X154411547Y-71572380D01*
X154602023Y-71572380D01*
X154697261Y-71524761D01*
X154744880Y-71477142D01*
X154792499Y-71381904D01*
X154792499Y-71096190D01*
X154744880Y-71000952D01*
X154697261Y-70953333D01*
X154602023Y-70905714D01*
X154411547Y-70905714D01*
X154316309Y-70953333D01*
X114843690Y-79144761D02*
X114748452Y-79192380D01*
X114557976Y-79192380D01*
X114462738Y-79144761D01*
X114415119Y-79049523D01*
X114415119Y-79001904D01*
X114462738Y-78906666D01*
X114557976Y-78859047D01*
X114700833Y-78859047D01*
X114796071Y-78811428D01*
X114843690Y-78716190D01*
X114843690Y-78668571D01*
X114796071Y-78573333D01*
X114700833Y-78525714D01*
X114557976Y-78525714D01*
X114462738Y-78573333D01*
X113986547Y-79192380D02*
X113986547Y-78525714D01*
X113986547Y-78192380D02*
X114034167Y-78240000D01*
X113986547Y-78287619D01*
X113938928Y-78240000D01*
X113986547Y-78192380D01*
X113986547Y-78287619D01*
X113081786Y-78525714D02*
X113081786Y-79335238D01*
X113129405Y-79430476D01*
X113177024Y-79478095D01*
X113272262Y-79525714D01*
X113415119Y-79525714D01*
X113510357Y-79478095D01*
X113081786Y-79144761D02*
X113177024Y-79192380D01*
X113367500Y-79192380D01*
X113462738Y-79144761D01*
X113510357Y-79097142D01*
X113557976Y-79001904D01*
X113557976Y-78716190D01*
X113510357Y-78620952D01*
X113462738Y-78573333D01*
X113367500Y-78525714D01*
X113177024Y-78525714D01*
X113081786Y-78573333D01*
X112605595Y-78525714D02*
X112605595Y-79192380D01*
X112605595Y-78620952D02*
X112557976Y-78573333D01*
X112462738Y-78525714D01*
X112319881Y-78525714D01*
X112224643Y-78573333D01*
X112177024Y-78668571D01*
X112177024Y-79192380D01*
X111272262Y-79192380D02*
X111272262Y-78668571D01*
X111319881Y-78573333D01*
X111415119Y-78525714D01*
X111605595Y-78525714D01*
X111700833Y-78573333D01*
X111272262Y-79144761D02*
X111367500Y-79192380D01*
X111605595Y-79192380D01*
X111700833Y-79144761D01*
X111748452Y-79049523D01*
X111748452Y-78954285D01*
X111700833Y-78859047D01*
X111605595Y-78811428D01*
X111367500Y-78811428D01*
X111272262Y-78763809D01*
X110653214Y-79192380D02*
X110748452Y-79144761D01*
X110796071Y-79049523D01*
X110796071Y-78192380D01*
X109367500Y-79192380D02*
X109462738Y-79144761D01*
X109510357Y-79097142D01*
X109557976Y-79001904D01*
X109557976Y-78716190D01*
X109510357Y-78620952D01*
X109462738Y-78573333D01*
X109367500Y-78525714D01*
X109224643Y-78525714D01*
X109129405Y-78573333D01*
X109081786Y-78620952D01*
X109034167Y-78716190D01*
X109034167Y-79001904D01*
X109081786Y-79097142D01*
X109129405Y-79144761D01*
X109224643Y-79192380D01*
X109367500Y-79192380D01*
X108177024Y-78525714D02*
X108177024Y-79192380D01*
X108605595Y-78525714D02*
X108605595Y-79049523D01*
X108557976Y-79144761D01*
X108462738Y-79192380D01*
X108319881Y-79192380D01*
X108224643Y-79144761D01*
X108177024Y-79097142D01*
X107843690Y-78525714D02*
X107462738Y-78525714D01*
X107700833Y-78192380D02*
X107700833Y-79049523D01*
X107653214Y-79144761D01*
X107557976Y-79192380D01*
X107462738Y-79192380D01*
X114843690Y-76604761D02*
X114748452Y-76652380D01*
X114557976Y-76652380D01*
X114462738Y-76604761D01*
X114415119Y-76509523D01*
X114415119Y-76461904D01*
X114462738Y-76366666D01*
X114557976Y-76319047D01*
X114700833Y-76319047D01*
X114796071Y-76271428D01*
X114843690Y-76176190D01*
X114843690Y-76128571D01*
X114796071Y-76033333D01*
X114700833Y-75985714D01*
X114557976Y-75985714D01*
X114462738Y-76033333D01*
X113986547Y-76652380D02*
X113986547Y-75985714D01*
X113986547Y-75652380D02*
X114034167Y-75700000D01*
X113986547Y-75747619D01*
X113938928Y-75700000D01*
X113986547Y-75652380D01*
X113986547Y-75747619D01*
X113081786Y-75985714D02*
X113081786Y-76795238D01*
X113129405Y-76890476D01*
X113177024Y-76938095D01*
X113272262Y-76985714D01*
X113415119Y-76985714D01*
X113510357Y-76938095D01*
X113081786Y-76604761D02*
X113177024Y-76652380D01*
X113367500Y-76652380D01*
X113462738Y-76604761D01*
X113510357Y-76557142D01*
X113557976Y-76461904D01*
X113557976Y-76176190D01*
X113510357Y-76080952D01*
X113462738Y-76033333D01*
X113367500Y-75985714D01*
X113177024Y-75985714D01*
X113081786Y-76033333D01*
X112605595Y-75985714D02*
X112605595Y-76652380D01*
X112605595Y-76080952D02*
X112557976Y-76033333D01*
X112462738Y-75985714D01*
X112319881Y-75985714D01*
X112224643Y-76033333D01*
X112177024Y-76128571D01*
X112177024Y-76652380D01*
X111272262Y-76652380D02*
X111272262Y-76128571D01*
X111319881Y-76033333D01*
X111415119Y-75985714D01*
X111605595Y-75985714D01*
X111700833Y-76033333D01*
X111272262Y-76604761D02*
X111367500Y-76652380D01*
X111605595Y-76652380D01*
X111700833Y-76604761D01*
X111748452Y-76509523D01*
X111748452Y-76414285D01*
X111700833Y-76319047D01*
X111605595Y-76271428D01*
X111367500Y-76271428D01*
X111272262Y-76223809D01*
X110653214Y-76652380D02*
X110748452Y-76604761D01*
X110796071Y-76509523D01*
X110796071Y-75652380D01*
X109367500Y-76652380D02*
X109462738Y-76604761D01*
X109510357Y-76557142D01*
X109557976Y-76461904D01*
X109557976Y-76176190D01*
X109510357Y-76080952D01*
X109462738Y-76033333D01*
X109367500Y-75985714D01*
X109224643Y-75985714D01*
X109129405Y-76033333D01*
X109081786Y-76080952D01*
X109034167Y-76176190D01*
X109034167Y-76461904D01*
X109081786Y-76557142D01*
X109129405Y-76604761D01*
X109224643Y-76652380D01*
X109367500Y-76652380D01*
X108177024Y-75985714D02*
X108177024Y-76652380D01*
X108605595Y-75985714D02*
X108605595Y-76509523D01*
X108557976Y-76604761D01*
X108462738Y-76652380D01*
X108319881Y-76652380D01*
X108224643Y-76604761D01*
X108177024Y-76557142D01*
X107843690Y-75985714D02*
X107462738Y-75985714D01*
X107700833Y-75652380D02*
X107700833Y-76509523D01*
X107653214Y-76604761D01*
X107557976Y-76652380D01*
X107462738Y-76652380D01*
X155541071Y-116768571D02*
X155874404Y-116768571D01*
X155874404Y-117292380D02*
X155874404Y-116292380D01*
X155398214Y-116292380D01*
X155017261Y-117292380D02*
X155017261Y-116292380D01*
X154683928Y-117006666D01*
X154350595Y-116292380D01*
X154350595Y-117292380D01*
X153112500Y-117292380D02*
X153112500Y-116625714D01*
X153112500Y-116292380D02*
X153160119Y-116340000D01*
X153112500Y-116387619D01*
X153064880Y-116340000D01*
X153112500Y-116292380D01*
X153112500Y-116387619D01*
X152636309Y-116625714D02*
X152636309Y-117292380D01*
X152636309Y-116720952D02*
X152588690Y-116673333D01*
X152493452Y-116625714D01*
X152350595Y-116625714D01*
X152255357Y-116673333D01*
X152207738Y-116768571D01*
X152207738Y-117292380D01*
X110095119Y-103925714D02*
X110095119Y-104735238D01*
X110142738Y-104830476D01*
X110190357Y-104878095D01*
X110285595Y-104925714D01*
X110428452Y-104925714D01*
X110523690Y-104878095D01*
X110095119Y-104544761D02*
X110190357Y-104592380D01*
X110380833Y-104592380D01*
X110476071Y-104544761D01*
X110523690Y-104497142D01*
X110571309Y-104401904D01*
X110571309Y-104116190D01*
X110523690Y-104020952D01*
X110476071Y-103973333D01*
X110380833Y-103925714D01*
X110190357Y-103925714D01*
X110095119Y-103973333D01*
X109618928Y-103925714D02*
X109618928Y-104592380D01*
X109618928Y-104020952D02*
X109571309Y-103973333D01*
X109476071Y-103925714D01*
X109333214Y-103925714D01*
X109237976Y-103973333D01*
X109190357Y-104068571D01*
X109190357Y-104592380D01*
X108285595Y-104592380D02*
X108285595Y-103592380D01*
X108285595Y-104544761D02*
X108380833Y-104592380D01*
X108571309Y-104592380D01*
X108666547Y-104544761D01*
X108714166Y-104497142D01*
X108761785Y-104401904D01*
X108761785Y-104116190D01*
X108714166Y-104020952D01*
X108666547Y-103973333D01*
X108571309Y-103925714D01*
X108380833Y-103925714D01*
X108285595Y-103973333D01*
X110095119Y-101385714D02*
X110095119Y-102195238D01*
X110142738Y-102290476D01*
X110190357Y-102338095D01*
X110285595Y-102385714D01*
X110428452Y-102385714D01*
X110523690Y-102338095D01*
X110095119Y-102004761D02*
X110190357Y-102052380D01*
X110380833Y-102052380D01*
X110476071Y-102004761D01*
X110523690Y-101957142D01*
X110571309Y-101861904D01*
X110571309Y-101576190D01*
X110523690Y-101480952D01*
X110476071Y-101433333D01*
X110380833Y-101385714D01*
X110190357Y-101385714D01*
X110095119Y-101433333D01*
X109618928Y-101385714D02*
X109618928Y-102052380D01*
X109618928Y-101480952D02*
X109571309Y-101433333D01*
X109476071Y-101385714D01*
X109333214Y-101385714D01*
X109237976Y-101433333D01*
X109190357Y-101528571D01*
X109190357Y-102052380D01*
X108285595Y-102052380D02*
X108285595Y-101052380D01*
X108285595Y-102004761D02*
X108380833Y-102052380D01*
X108571309Y-102052380D01*
X108666547Y-102004761D01*
X108714166Y-101957142D01*
X108761785Y-101861904D01*
X108761785Y-101576190D01*
X108714166Y-101480952D01*
X108666547Y-101433333D01*
X108571309Y-101385714D01*
X108380833Y-101385714D01*
X108285595Y-101433333D01*
X109415119Y-73445714D02*
X109415119Y-74255238D01*
X109462738Y-74350476D01*
X109510357Y-74398095D01*
X109605595Y-74445714D01*
X109748452Y-74445714D01*
X109843690Y-74398095D01*
X109415119Y-74064761D02*
X109510357Y-74112380D01*
X109700833Y-74112380D01*
X109796071Y-74064761D01*
X109843690Y-74017142D01*
X109891309Y-73921904D01*
X109891309Y-73636190D01*
X109843690Y-73540952D01*
X109796071Y-73493333D01*
X109700833Y-73445714D01*
X109510357Y-73445714D01*
X109415119Y-73493333D01*
X108938928Y-73445714D02*
X108938928Y-74112380D01*
X108938928Y-73540952D02*
X108891309Y-73493333D01*
X108796071Y-73445714D01*
X108653214Y-73445714D01*
X108557976Y-73493333D01*
X108510357Y-73588571D01*
X108510357Y-74112380D01*
X107605595Y-74112380D02*
X107605595Y-73112380D01*
X107605595Y-74064761D02*
X107700833Y-74112380D01*
X107891309Y-74112380D01*
X107986547Y-74064761D01*
X108034166Y-74017142D01*
X108081786Y-73921904D01*
X108081786Y-73636190D01*
X108034166Y-73540952D01*
X107986547Y-73493333D01*
X107891309Y-73445714D01*
X107700833Y-73445714D01*
X107605595Y-73493333D01*
X109415119Y-70905714D02*
X109415119Y-71715238D01*
X109462738Y-71810476D01*
X109510357Y-71858095D01*
X109605595Y-71905714D01*
X109748452Y-71905714D01*
X109843690Y-71858095D01*
X109415119Y-71524761D02*
X109510357Y-71572380D01*
X109700833Y-71572380D01*
X109796071Y-71524761D01*
X109843690Y-71477142D01*
X109891309Y-71381904D01*
X109891309Y-71096190D01*
X109843690Y-71000952D01*
X109796071Y-70953333D01*
X109700833Y-70905714D01*
X109510357Y-70905714D01*
X109415119Y-70953333D01*
X108938928Y-70905714D02*
X108938928Y-71572380D01*
X108938928Y-71000952D02*
X108891309Y-70953333D01*
X108796071Y-70905714D01*
X108653214Y-70905714D01*
X108557976Y-70953333D01*
X108510357Y-71048571D01*
X108510357Y-71572380D01*
X107605595Y-71572380D02*
X107605595Y-70572380D01*
X107605595Y-71524761D02*
X107700833Y-71572380D01*
X107891309Y-71572380D01*
X107986547Y-71524761D01*
X108034166Y-71477142D01*
X108081786Y-71381904D01*
X108081786Y-71096190D01*
X108034166Y-71000952D01*
X107986547Y-70953333D01*
X107891309Y-70905714D01*
X107700833Y-70905714D01*
X107605595Y-70953333D01*
D11*
X107875000Y-52576252D02*
X107875000Y-52053748D01*
X109295000Y-52576252D02*
X109295000Y-52053748D01*
X114860000Y-52331252D02*
X114860000Y-51808748D01*
X116280000Y-52331252D02*
X116280000Y-51808748D01*
X110495000Y-51715000D02*
X110495000Y-53175000D01*
X113655000Y-51715000D02*
X113655000Y-54875000D01*
X113655000Y-51715000D02*
X112725000Y-51715000D01*
X110495000Y-51715000D02*
X111425000Y-51715000D01*
X132080000Y-105430000D02*
X128630000Y-105430000D01*
X132080000Y-105430000D02*
X134030000Y-105430000D01*
X132080000Y-100310000D02*
X130130000Y-100310000D01*
X132080000Y-100310000D02*
X134030000Y-100310000D01*
X132080000Y-83205000D02*
X128630000Y-83205000D01*
X132080000Y-83205000D02*
X134030000Y-83205000D01*
X132080000Y-78085000D02*
X130130000Y-78085000D01*
X132080000Y-78085000D02*
X134030000Y-78085000D01*
X151258748Y-140260000D02*
X151781252Y-140260000D01*
X151258748Y-141680000D02*
X151781252Y-141680000D01*
X139326252Y-104215000D02*
X138803748Y-104215000D01*
X139326252Y-102795000D02*
X138803748Y-102795000D01*
X138803748Y-100255000D02*
X139326252Y-100255000D01*
X138803748Y-101675000D02*
X139326252Y-101675000D01*
X124588748Y-103430000D02*
X125111252Y-103430000D01*
X124588748Y-104850000D02*
X125111252Y-104850000D01*
X125111252Y-102310000D02*
X124588748Y-102310000D01*
X125111252Y-100890000D02*
X124588748Y-100890000D01*
X125111252Y-99770000D02*
X124588748Y-99770000D01*
X125111252Y-98350000D02*
X124588748Y-98350000D01*
X139716252Y-81990000D02*
X139193748Y-81990000D01*
X139716252Y-80570000D02*
X139193748Y-80570000D01*
X139193748Y-78030000D02*
X139716252Y-78030000D01*
X139193748Y-79450000D02*
X139716252Y-79450000D01*
X124588748Y-82475000D02*
X125111252Y-82475000D01*
X124588748Y-83895000D02*
X125111252Y-83895000D01*
X125111252Y-76275000D02*
X124588748Y-76275000D01*
X125111252Y-74855000D02*
X124588748Y-74855000D01*
X125111252Y-78815000D02*
X124588748Y-78815000D01*
X125111252Y-77395000D02*
X124588748Y-77395000D01*
X125111252Y-81355000D02*
X124588748Y-81355000D01*
X125111252Y-79935000D02*
X124588748Y-79935000D01*
X128888748Y-97715000D02*
X129411252Y-97715000D01*
X128888748Y-99135000D02*
X129411252Y-99135000D01*
X134748748Y-97715000D02*
X135271252Y-97715000D01*
X134748748Y-99135000D02*
X135271252Y-99135000D01*
X128888748Y-74855000D02*
X129411252Y-74855000D01*
X128888748Y-76275000D02*
X129411252Y-76275000D01*
X134748748Y-74855000D02*
X135271252Y-74855000D01*
X134748748Y-76275000D02*
X135271252Y-76275000D01*
X126348748Y-61520000D02*
X126871252Y-61520000D01*
X126348748Y-62940000D02*
X126871252Y-62940000D01*
X132586252Y-52145000D02*
X132063748Y-52145000D01*
X132586252Y-50725000D02*
X132063748Y-50725000D01*
X119537500Y-68672500D02*
X119537500Y-68047500D01*
X119225000Y-68360000D02*
X119850000Y-68360000D01*
X120090000Y-64979437D02*
X121154437Y-63915000D01*
X120090000Y-68370563D02*
X121154437Y-69435000D01*
X120090000Y-68370563D02*
X120090000Y-67735000D01*
X120090000Y-64979437D02*
X120090000Y-65615000D01*
X121154437Y-63915000D02*
X125610000Y-63915000D01*
X121154437Y-69435000D02*
X125610000Y-69435000D01*
X125610000Y-69435000D02*
X125610000Y-67735000D01*
X125610000Y-63915000D02*
X125610000Y-65615000D01*
X125572500Y-50707500D02*
X125572500Y-51332500D01*
X125885000Y-51020000D02*
X125260000Y-51020000D01*
X125020000Y-54400563D02*
X123955563Y-55465000D01*
X125020000Y-51009437D02*
X123955563Y-49945000D01*
X125020000Y-51009437D02*
X125020000Y-51645000D01*
X125020000Y-54400563D02*
X125020000Y-53765000D01*
X123955563Y-55465000D02*
X119500000Y-55465000D01*
X123955563Y-49945000D02*
X119500000Y-49945000D01*
X119500000Y-49945000D02*
X119500000Y-51645000D01*
X119500000Y-55465000D02*
X119500000Y-53765000D01*
X139326252Y-106755000D02*
X138803748Y-106755000D01*
X139326252Y-105335000D02*
X138803748Y-105335000D01*
X124588748Y-105970000D02*
X125111252Y-105970000D01*
X124588748Y-107390000D02*
X125111252Y-107390000D01*
X139716252Y-84530000D02*
X139193748Y-84530000D01*
X139716252Y-83110000D02*
X139193748Y-83110000D01*
X124588748Y-85015000D02*
X125111252Y-85015000D01*
X124588748Y-86435000D02*
X125111252Y-86435000D01*
X129480000Y-53280000D02*
X134680000Y-53280000D01*
X129480000Y-63500000D02*
X129480000Y-53280000D01*
X134680000Y-66100000D02*
X134680000Y-53280000D01*
X129480000Y-63500000D02*
X132080000Y-63500000D01*
X132080000Y-63500000D02*
X132080000Y-66100000D01*
X132080000Y-66100000D02*
X134680000Y-66100000D01*
X129480000Y-64770000D02*
X129480000Y-66100000D01*
X129480000Y-66100000D02*
X130810000Y-66100000D01*
X158750000Y-110430000D02*
X157420000Y-110430000D01*
X157420000Y-110430000D02*
X157420000Y-111760000D01*
X157420000Y-113030000D02*
X157420000Y-120710000D01*
X160080000Y-120710000D02*
X157420000Y-120710000D01*
X160080000Y-113030000D02*
X160080000Y-120710000D01*
X160080000Y-113030000D02*
X157420000Y-113030000D01*
X106740000Y-72390000D02*
X104080000Y-72390000D01*
X106740000Y-72390000D02*
X106740000Y-80070000D01*
X106740000Y-80070000D02*
X104080000Y-80070000D01*
X104080000Y-72390000D02*
X104080000Y-80070000D01*
X104080000Y-69790000D02*
X104080000Y-71120000D01*
X105410000Y-69790000D02*
X104080000Y-69790000D01*
X160080000Y-72390000D02*
X157420000Y-72390000D01*
X160080000Y-72390000D02*
X160080000Y-80070000D01*
X160080000Y-80070000D02*
X157420000Y-80070000D01*
X157420000Y-72390000D02*
X157420000Y-80070000D01*
X157420000Y-69790000D02*
X157420000Y-71120000D01*
X158750000Y-69790000D02*
X157420000Y-69790000D01*
X106740000Y-102870000D02*
X104080000Y-102870000D01*
X106740000Y-102870000D02*
X106740000Y-120710000D01*
X106740000Y-120710000D02*
X104080000Y-120710000D01*
X104080000Y-102870000D02*
X104080000Y-120710000D01*
X104080000Y-100270000D02*
X104080000Y-101600000D01*
X105410000Y-100270000D02*
X104080000Y-100270000D01*
D10*
X109227857Y-49887142D02*
X109275476Y-49934761D01*
X109418333Y-49982380D01*
X109513571Y-49982380D01*
X109656428Y-49934761D01*
X109751666Y-49839523D01*
X109799285Y-49744285D01*
X109846904Y-49553809D01*
X109846904Y-49410952D01*
X109799285Y-49220476D01*
X109751666Y-49125238D01*
X109656428Y-49030000D01*
X109513571Y-48982380D01*
X109418333Y-48982380D01*
X109275476Y-49030000D01*
X109227857Y-49077619D01*
X108275476Y-49982380D02*
X108846904Y-49982380D01*
X108561190Y-49982380D02*
X108561190Y-48982380D01*
X108656428Y-49125238D01*
X108751666Y-49220476D01*
X108846904Y-49268095D01*
X107418333Y-49315714D02*
X107418333Y-49982380D01*
X107656428Y-48934761D02*
X107894523Y-49649047D01*
X107275476Y-49649047D01*
X116212857Y-49887142D02*
X116260476Y-49934761D01*
X116403333Y-49982380D01*
X116498571Y-49982380D01*
X116641428Y-49934761D01*
X116736666Y-49839523D01*
X116784285Y-49744285D01*
X116831904Y-49553809D01*
X116831904Y-49410952D01*
X116784285Y-49220476D01*
X116736666Y-49125238D01*
X116641428Y-49030000D01*
X116498571Y-48982380D01*
X116403333Y-48982380D01*
X116260476Y-49030000D01*
X116212857Y-49077619D01*
X115260476Y-49982380D02*
X115831904Y-49982380D01*
X115546190Y-49982380D02*
X115546190Y-48982380D01*
X115641428Y-49125238D01*
X115736666Y-49220476D01*
X115831904Y-49268095D01*
X114927142Y-48982380D02*
X114308095Y-48982380D01*
X114641428Y-49363333D01*
X114498571Y-49363333D01*
X114403333Y-49410952D01*
X114355714Y-49458571D01*
X114308095Y-49553809D01*
X114308095Y-49791904D01*
X114355714Y-49887142D01*
X114403333Y-49934761D01*
X114498571Y-49982380D01*
X114784285Y-49982380D01*
X114879523Y-49934761D01*
X114927142Y-49887142D01*
X112836904Y-47887380D02*
X112836904Y-48696904D01*
X112789285Y-48792142D01*
X112741666Y-48839761D01*
X112646428Y-48887380D01*
X112455952Y-48887380D01*
X112360714Y-48839761D01*
X112313095Y-48792142D01*
X112265476Y-48696904D01*
X112265476Y-47887380D01*
X111884523Y-47887380D02*
X111265476Y-47887380D01*
X111598809Y-48268333D01*
X111455952Y-48268333D01*
X111360714Y-48315952D01*
X111313095Y-48363571D01*
X111265476Y-48458809D01*
X111265476Y-48696904D01*
X111313095Y-48792142D01*
X111360714Y-48839761D01*
X111455952Y-48887380D01*
X111741666Y-48887380D01*
X111836904Y-48839761D01*
X111884523Y-48792142D01*
X132841904Y-105722380D02*
X132841904Y-106531904D01*
X132794285Y-106627142D01*
X132746666Y-106674761D01*
X132651428Y-106722380D01*
X132460952Y-106722380D01*
X132365714Y-106674761D01*
X132318095Y-106627142D01*
X132270476Y-106531904D01*
X132270476Y-105722380D01*
X131841904Y-105817619D02*
X131794285Y-105770000D01*
X131699047Y-105722380D01*
X131460952Y-105722380D01*
X131365714Y-105770000D01*
X131318095Y-105817619D01*
X131270476Y-105912857D01*
X131270476Y-106008095D01*
X131318095Y-106150952D01*
X131889523Y-106722380D01*
X131270476Y-106722380D01*
X132841904Y-83497380D02*
X132841904Y-84306904D01*
X132794285Y-84402142D01*
X132746666Y-84449761D01*
X132651428Y-84497380D01*
X132460952Y-84497380D01*
X132365714Y-84449761D01*
X132318095Y-84402142D01*
X132270476Y-84306904D01*
X132270476Y-83497380D01*
X131270476Y-84497380D02*
X131841904Y-84497380D01*
X131556190Y-84497380D02*
X131556190Y-83497380D01*
X131651428Y-83640238D01*
X131746666Y-83735476D01*
X131841904Y-83783095D01*
X152162857Y-143072380D02*
X152496190Y-142596190D01*
X152734285Y-143072380D02*
X152734285Y-142072380D01*
X152353333Y-142072380D01*
X152258095Y-142120000D01*
X152210476Y-142167619D01*
X152162857Y-142262857D01*
X152162857Y-142405714D01*
X152210476Y-142500952D01*
X152258095Y-142548571D01*
X152353333Y-142596190D01*
X152734285Y-142596190D01*
X151210476Y-143072380D02*
X151781904Y-143072380D01*
X151496190Y-143072380D02*
X151496190Y-142072380D01*
X151591428Y-142215238D01*
X151686666Y-142310476D01*
X151781904Y-142358095D01*
X150353333Y-142405714D02*
X150353333Y-143072380D01*
X150591428Y-142024761D02*
X150829523Y-142739047D01*
X150210476Y-142739047D01*
X143272857Y-103957380D02*
X143606190Y-103481190D01*
X143844285Y-103957380D02*
X143844285Y-102957380D01*
X143463333Y-102957380D01*
X143368095Y-103005000D01*
X143320476Y-103052619D01*
X143272857Y-103147857D01*
X143272857Y-103290714D01*
X143320476Y-103385952D01*
X143368095Y-103433571D01*
X143463333Y-103481190D01*
X143844285Y-103481190D01*
X142320476Y-103957380D02*
X142891904Y-103957380D01*
X142606190Y-103957380D02*
X142606190Y-102957380D01*
X142701428Y-103100238D01*
X142796666Y-103195476D01*
X142891904Y-103243095D01*
X141368095Y-103957380D02*
X141939523Y-103957380D01*
X141653809Y-103957380D02*
X141653809Y-102957380D01*
X141749047Y-103100238D01*
X141844285Y-103195476D01*
X141939523Y-103243095D01*
X143127857Y-101417380D02*
X143461190Y-100941190D01*
X143699285Y-101417380D02*
X143699285Y-100417380D01*
X143318333Y-100417380D01*
X143223095Y-100465000D01*
X143175476Y-100512619D01*
X143127857Y-100607857D01*
X143127857Y-100750714D01*
X143175476Y-100845952D01*
X143223095Y-100893571D01*
X143318333Y-100941190D01*
X143699285Y-100941190D01*
X142175476Y-101417380D02*
X142746904Y-101417380D01*
X142461190Y-101417380D02*
X142461190Y-100417380D01*
X142556428Y-100560238D01*
X142651666Y-100655476D01*
X142746904Y-100703095D01*
X141556428Y-100417380D02*
X141461190Y-100417380D01*
X141365952Y-100465000D01*
X141318333Y-100512619D01*
X141270714Y-100607857D01*
X141223095Y-100798333D01*
X141223095Y-101036428D01*
X141270714Y-101226904D01*
X141318333Y-101322142D01*
X141365952Y-101369761D01*
X141461190Y-101417380D01*
X141556428Y-101417380D01*
X141651666Y-101369761D01*
X141699285Y-101322142D01*
X141746904Y-101226904D01*
X141794523Y-101036428D01*
X141794523Y-100798333D01*
X141746904Y-100607857D01*
X141699285Y-100512619D01*
X141651666Y-100465000D01*
X141556428Y-100417380D01*
X122086666Y-104592380D02*
X122420000Y-104116190D01*
X122658095Y-104592380D02*
X122658095Y-103592380D01*
X122277142Y-103592380D01*
X122181904Y-103640000D01*
X122134285Y-103687619D01*
X122086666Y-103782857D01*
X122086666Y-103925714D01*
X122134285Y-104020952D01*
X122181904Y-104068571D01*
X122277142Y-104116190D01*
X122658095Y-104116190D01*
X121610476Y-104592380D02*
X121420000Y-104592380D01*
X121324761Y-104544761D01*
X121277142Y-104497142D01*
X121181904Y-104354285D01*
X121134285Y-104163809D01*
X121134285Y-103782857D01*
X121181904Y-103687619D01*
X121229523Y-103640000D01*
X121324761Y-103592380D01*
X121515238Y-103592380D01*
X121610476Y-103640000D01*
X121658095Y-103687619D01*
X121705714Y-103782857D01*
X121705714Y-104020952D01*
X121658095Y-104116190D01*
X121610476Y-104163809D01*
X121515238Y-104211428D01*
X121324761Y-104211428D01*
X121229523Y-104163809D01*
X121181904Y-104116190D01*
X121134285Y-104020952D01*
X122086666Y-102052380D02*
X122420000Y-101576190D01*
X122658095Y-102052380D02*
X122658095Y-101052380D01*
X122277142Y-101052380D01*
X122181904Y-101100000D01*
X122134285Y-101147619D01*
X122086666Y-101242857D01*
X122086666Y-101385714D01*
X122134285Y-101480952D01*
X122181904Y-101528571D01*
X122277142Y-101576190D01*
X122658095Y-101576190D01*
X121515238Y-101480952D02*
X121610476Y-101433333D01*
X121658095Y-101385714D01*
X121705714Y-101290476D01*
X121705714Y-101242857D01*
X121658095Y-101147619D01*
X121610476Y-101100000D01*
X121515238Y-101052380D01*
X121324761Y-101052380D01*
X121229523Y-101100000D01*
X121181904Y-101147619D01*
X121134285Y-101242857D01*
X121134285Y-101290476D01*
X121181904Y-101385714D01*
X121229523Y-101433333D01*
X121324761Y-101480952D01*
X121515238Y-101480952D01*
X121610476Y-101528571D01*
X121658095Y-101576190D01*
X121705714Y-101671428D01*
X121705714Y-101861904D01*
X121658095Y-101957142D01*
X121610476Y-102004761D01*
X121515238Y-102052380D01*
X121324761Y-102052380D01*
X121229523Y-102004761D01*
X121181904Y-101957142D01*
X121134285Y-101861904D01*
X121134285Y-101671428D01*
X121181904Y-101576190D01*
X121229523Y-101528571D01*
X121324761Y-101480952D01*
X122086666Y-99512380D02*
X122420000Y-99036190D01*
X122658095Y-99512380D02*
X122658095Y-98512380D01*
X122277142Y-98512380D01*
X122181904Y-98560000D01*
X122134285Y-98607619D01*
X122086666Y-98702857D01*
X122086666Y-98845714D01*
X122134285Y-98940952D01*
X122181904Y-98988571D01*
X122277142Y-99036190D01*
X122658095Y-99036190D01*
X121753333Y-98512380D02*
X121086666Y-98512380D01*
X121515238Y-99512380D01*
X142406666Y-81732380D02*
X142740000Y-81256190D01*
X142978095Y-81732380D02*
X142978095Y-80732380D01*
X142597142Y-80732380D01*
X142501904Y-80780000D01*
X142454285Y-80827619D01*
X142406666Y-80922857D01*
X142406666Y-81065714D01*
X142454285Y-81160952D01*
X142501904Y-81208571D01*
X142597142Y-81256190D01*
X142978095Y-81256190D01*
X141549523Y-80732380D02*
X141740000Y-80732380D01*
X141835238Y-80780000D01*
X141882857Y-80827619D01*
X141978095Y-80970476D01*
X142025714Y-81160952D01*
X142025714Y-81541904D01*
X141978095Y-81637142D01*
X141930476Y-81684761D01*
X141835238Y-81732380D01*
X141644761Y-81732380D01*
X141549523Y-81684761D01*
X141501904Y-81637142D01*
X141454285Y-81541904D01*
X141454285Y-81303809D01*
X141501904Y-81208571D01*
X141549523Y-81160952D01*
X141644761Y-81113333D01*
X141835238Y-81113333D01*
X141930476Y-81160952D01*
X141978095Y-81208571D01*
X142025714Y-81303809D01*
X142406666Y-79192380D02*
X142740000Y-78716190D01*
X142978095Y-79192380D02*
X142978095Y-78192380D01*
X142597142Y-78192380D01*
X142501904Y-78240000D01*
X142454285Y-78287619D01*
X142406666Y-78382857D01*
X142406666Y-78525714D01*
X142454285Y-78620952D01*
X142501904Y-78668571D01*
X142597142Y-78716190D01*
X142978095Y-78716190D01*
X141501904Y-78192380D02*
X141978095Y-78192380D01*
X142025714Y-78668571D01*
X141978095Y-78620952D01*
X141882857Y-78573333D01*
X141644761Y-78573333D01*
X141549523Y-78620952D01*
X141501904Y-78668571D01*
X141454285Y-78763809D01*
X141454285Y-79001904D01*
X141501904Y-79097142D01*
X141549523Y-79144761D01*
X141644761Y-79192380D01*
X141882857Y-79192380D01*
X141978095Y-79144761D01*
X142025714Y-79097142D01*
X122086666Y-83637380D02*
X122420000Y-83161190D01*
X122658095Y-83637380D02*
X122658095Y-82637380D01*
X122277142Y-82637380D01*
X122181904Y-82685000D01*
X122134285Y-82732619D01*
X122086666Y-82827857D01*
X122086666Y-82970714D01*
X122134285Y-83065952D01*
X122181904Y-83113571D01*
X122277142Y-83161190D01*
X122658095Y-83161190D01*
X121229523Y-82970714D02*
X121229523Y-83637380D01*
X121467619Y-82589761D02*
X121705714Y-83304047D01*
X121086666Y-83304047D01*
X122086666Y-76017380D02*
X122420000Y-75541190D01*
X122658095Y-76017380D02*
X122658095Y-75017380D01*
X122277142Y-75017380D01*
X122181904Y-75065000D01*
X122134285Y-75112619D01*
X122086666Y-75207857D01*
X122086666Y-75350714D01*
X122134285Y-75445952D01*
X122181904Y-75493571D01*
X122277142Y-75541190D01*
X122658095Y-75541190D01*
X121753333Y-75017380D02*
X121134285Y-75017380D01*
X121467619Y-75398333D01*
X121324761Y-75398333D01*
X121229523Y-75445952D01*
X121181904Y-75493571D01*
X121134285Y-75588809D01*
X121134285Y-75826904D01*
X121181904Y-75922142D01*
X121229523Y-75969761D01*
X121324761Y-76017380D01*
X121610476Y-76017380D01*
X121705714Y-75969761D01*
X121753333Y-75922142D01*
X122231666Y-78557380D02*
X122565000Y-78081190D01*
X122803095Y-78557380D02*
X122803095Y-77557380D01*
X122422142Y-77557380D01*
X122326904Y-77605000D01*
X122279285Y-77652619D01*
X122231666Y-77747857D01*
X122231666Y-77890714D01*
X122279285Y-77985952D01*
X122326904Y-78033571D01*
X122422142Y-78081190D01*
X122803095Y-78081190D01*
X121850714Y-77652619D02*
X121803095Y-77605000D01*
X121707857Y-77557380D01*
X121469761Y-77557380D01*
X121374523Y-77605000D01*
X121326904Y-77652619D01*
X121279285Y-77747857D01*
X121279285Y-77843095D01*
X121326904Y-77985952D01*
X121898333Y-78557380D01*
X121279285Y-78557380D01*
X122086666Y-81097380D02*
X122420000Y-80621190D01*
X122658095Y-81097380D02*
X122658095Y-80097380D01*
X122277142Y-80097380D01*
X122181904Y-80145000D01*
X122134285Y-80192619D01*
X122086666Y-80287857D01*
X122086666Y-80430714D01*
X122134285Y-80525952D01*
X122181904Y-80573571D01*
X122277142Y-80621190D01*
X122658095Y-80621190D01*
X121134285Y-81097380D02*
X121705714Y-81097380D01*
X121420000Y-81097380D02*
X121420000Y-80097380D01*
X121515238Y-80240238D01*
X121610476Y-80335476D01*
X121705714Y-80383095D01*
X129792857Y-96877142D02*
X129840476Y-96924761D01*
X129983333Y-96972380D01*
X130078571Y-96972380D01*
X130221428Y-96924761D01*
X130316666Y-96829523D01*
X130364285Y-96734285D01*
X130411904Y-96543809D01*
X130411904Y-96400952D01*
X130364285Y-96210476D01*
X130316666Y-96115238D01*
X130221428Y-96020000D01*
X130078571Y-95972380D01*
X129983333Y-95972380D01*
X129840476Y-96020000D01*
X129792857Y-96067619D01*
X128840476Y-96972380D02*
X129411904Y-96972380D01*
X129126190Y-96972380D02*
X129126190Y-95972380D01*
X129221428Y-96115238D01*
X129316666Y-96210476D01*
X129411904Y-96258095D01*
X128459523Y-96067619D02*
X128411904Y-96020000D01*
X128316666Y-95972380D01*
X128078571Y-95972380D01*
X127983333Y-96020000D01*
X127935714Y-96067619D01*
X127888095Y-96162857D01*
X127888095Y-96258095D01*
X127935714Y-96400952D01*
X128507142Y-96972380D01*
X127888095Y-96972380D01*
X135652857Y-96877142D02*
X135700476Y-96924761D01*
X135843333Y-96972380D01*
X135938571Y-96972380D01*
X136081428Y-96924761D01*
X136176666Y-96829523D01*
X136224285Y-96734285D01*
X136271904Y-96543809D01*
X136271904Y-96400952D01*
X136224285Y-96210476D01*
X136176666Y-96115238D01*
X136081428Y-96020000D01*
X135938571Y-95972380D01*
X135843333Y-95972380D01*
X135700476Y-96020000D01*
X135652857Y-96067619D01*
X134700476Y-96972380D02*
X135271904Y-96972380D01*
X134986190Y-96972380D02*
X134986190Y-95972380D01*
X135081428Y-96115238D01*
X135176666Y-96210476D01*
X135271904Y-96258095D01*
X133748095Y-96972380D02*
X134319523Y-96972380D01*
X134033809Y-96972380D02*
X134033809Y-95972380D01*
X134129047Y-96115238D01*
X134224285Y-96210476D01*
X134319523Y-96258095D01*
X129792857Y-74017142D02*
X129840476Y-74064761D01*
X129983333Y-74112380D01*
X130078571Y-74112380D01*
X130221428Y-74064761D01*
X130316666Y-73969523D01*
X130364285Y-73874285D01*
X130411904Y-73683809D01*
X130411904Y-73540952D01*
X130364285Y-73350476D01*
X130316666Y-73255238D01*
X130221428Y-73160000D01*
X130078571Y-73112380D01*
X129983333Y-73112380D01*
X129840476Y-73160000D01*
X129792857Y-73207619D01*
X128840476Y-74112380D02*
X129411904Y-74112380D01*
X129126190Y-74112380D02*
X129126190Y-73112380D01*
X129221428Y-73255238D01*
X129316666Y-73350476D01*
X129411904Y-73398095D01*
X128221428Y-73112380D02*
X128126190Y-73112380D01*
X128030952Y-73160000D01*
X127983333Y-73207619D01*
X127935714Y-73302857D01*
X127888095Y-73493333D01*
X127888095Y-73731428D01*
X127935714Y-73921904D01*
X127983333Y-74017142D01*
X128030952Y-74064761D01*
X128126190Y-74112380D01*
X128221428Y-74112380D01*
X128316666Y-74064761D01*
X128364285Y-74017142D01*
X128411904Y-73921904D01*
X128459523Y-73731428D01*
X128459523Y-73493333D01*
X128411904Y-73302857D01*
X128364285Y-73207619D01*
X128316666Y-73160000D01*
X128221428Y-73112380D01*
X134786666Y-74017142D02*
X134834285Y-74064761D01*
X134977142Y-74112380D01*
X135072380Y-74112380D01*
X135215238Y-74064761D01*
X135310476Y-73969523D01*
X135358095Y-73874285D01*
X135405714Y-73683809D01*
X135405714Y-73540952D01*
X135358095Y-73350476D01*
X135310476Y-73255238D01*
X135215238Y-73160000D01*
X135072380Y-73112380D01*
X134977142Y-73112380D01*
X134834285Y-73160000D01*
X134786666Y-73207619D01*
X134310476Y-74112380D02*
X134120000Y-74112380D01*
X134024761Y-74064761D01*
X133977142Y-74017142D01*
X133881904Y-73874285D01*
X133834285Y-73683809D01*
X133834285Y-73302857D01*
X133881904Y-73207619D01*
X133929523Y-73160000D01*
X134024761Y-73112380D01*
X134215238Y-73112380D01*
X134310476Y-73160000D01*
X134358095Y-73207619D01*
X134405714Y-73302857D01*
X134405714Y-73540952D01*
X134358095Y-73636190D01*
X134310476Y-73683809D01*
X134215238Y-73731428D01*
X134024761Y-73731428D01*
X133929523Y-73683809D01*
X133881904Y-73636190D01*
X133834285Y-73540952D01*
X123846666Y-62587142D02*
X123894285Y-62634761D01*
X124037142Y-62682380D01*
X124132380Y-62682380D01*
X124275238Y-62634761D01*
X124370476Y-62539523D01*
X124418095Y-62444285D01*
X124465714Y-62253809D01*
X124465714Y-62110952D01*
X124418095Y-61920476D01*
X124370476Y-61825238D01*
X124275238Y-61730000D01*
X124132380Y-61682380D01*
X124037142Y-61682380D01*
X123894285Y-61730000D01*
X123846666Y-61777619D01*
X123275238Y-62110952D02*
X123370476Y-62063333D01*
X123418095Y-62015714D01*
X123465714Y-61920476D01*
X123465714Y-61872857D01*
X123418095Y-61777619D01*
X123370476Y-61730000D01*
X123275238Y-61682380D01*
X123084761Y-61682380D01*
X122989523Y-61730000D01*
X122941904Y-61777619D01*
X122894285Y-61872857D01*
X122894285Y-61920476D01*
X122941904Y-62015714D01*
X122989523Y-62063333D01*
X123084761Y-62110952D01*
X123275238Y-62110952D01*
X123370476Y-62158571D01*
X123418095Y-62206190D01*
X123465714Y-62301428D01*
X123465714Y-62491904D01*
X123418095Y-62587142D01*
X123370476Y-62634761D01*
X123275238Y-62682380D01*
X123084761Y-62682380D01*
X122989523Y-62634761D01*
X122941904Y-62587142D01*
X122894285Y-62491904D01*
X122894285Y-62301428D01*
X122941904Y-62206190D01*
X122989523Y-62158571D01*
X123084761Y-62110952D01*
X129706666Y-51792142D02*
X129754285Y-51839761D01*
X129897142Y-51887380D01*
X129992380Y-51887380D01*
X130135238Y-51839761D01*
X130230476Y-51744523D01*
X130278095Y-51649285D01*
X130325714Y-51458809D01*
X130325714Y-51315952D01*
X130278095Y-51125476D01*
X130230476Y-51030238D01*
X130135238Y-50935000D01*
X129992380Y-50887380D01*
X129897142Y-50887380D01*
X129754285Y-50935000D01*
X129706666Y-50982619D01*
X129373333Y-50887380D02*
X128706666Y-50887380D01*
X129135238Y-51887380D01*
X123016666Y-70732142D02*
X123064285Y-70779761D01*
X123207142Y-70827380D01*
X123302380Y-70827380D01*
X123445238Y-70779761D01*
X123540476Y-70684523D01*
X123588095Y-70589285D01*
X123635714Y-70398809D01*
X123635714Y-70255952D01*
X123588095Y-70065476D01*
X123540476Y-69970238D01*
X123445238Y-69875000D01*
X123302380Y-69827380D01*
X123207142Y-69827380D01*
X123064285Y-69875000D01*
X123016666Y-69922619D01*
X122159523Y-69827380D02*
X122350000Y-69827380D01*
X122445238Y-69875000D01*
X122492857Y-69922619D01*
X122588095Y-70065476D01*
X122635714Y-70255952D01*
X122635714Y-70636904D01*
X122588095Y-70732142D01*
X122540476Y-70779761D01*
X122445238Y-70827380D01*
X122254761Y-70827380D01*
X122159523Y-70779761D01*
X122111904Y-70732142D01*
X122064285Y-70636904D01*
X122064285Y-70398809D01*
X122111904Y-70303571D01*
X122159523Y-70255952D01*
X122254761Y-70208333D01*
X122445238Y-70208333D01*
X122540476Y-70255952D01*
X122588095Y-70303571D01*
X122635714Y-70398809D01*
X122426666Y-49362142D02*
X122474285Y-49409761D01*
X122617142Y-49457380D01*
X122712380Y-49457380D01*
X122855238Y-49409761D01*
X122950476Y-49314523D01*
X122998095Y-49219285D01*
X123045714Y-49028809D01*
X123045714Y-48885952D01*
X122998095Y-48695476D01*
X122950476Y-48600238D01*
X122855238Y-48505000D01*
X122712380Y-48457380D01*
X122617142Y-48457380D01*
X122474285Y-48505000D01*
X122426666Y-48552619D01*
X121521904Y-48457380D02*
X121998095Y-48457380D01*
X122045714Y-48933571D01*
X121998095Y-48885952D01*
X121902857Y-48838333D01*
X121664761Y-48838333D01*
X121569523Y-48885952D01*
X121521904Y-48933571D01*
X121474285Y-49028809D01*
X121474285Y-49266904D01*
X121521904Y-49362142D01*
X121569523Y-49409761D01*
X121664761Y-49457380D01*
X121902857Y-49457380D01*
X121998095Y-49409761D01*
X122045714Y-49362142D01*
X142161666Y-106402142D02*
X142209285Y-106449761D01*
X142352142Y-106497380D01*
X142447380Y-106497380D01*
X142590238Y-106449761D01*
X142685476Y-106354523D01*
X142733095Y-106259285D01*
X142780714Y-106068809D01*
X142780714Y-105925952D01*
X142733095Y-105735476D01*
X142685476Y-105640238D01*
X142590238Y-105545000D01*
X142447380Y-105497380D01*
X142352142Y-105497380D01*
X142209285Y-105545000D01*
X142161666Y-105592619D01*
X141304523Y-105830714D02*
X141304523Y-106497380D01*
X141542619Y-105449761D02*
X141780714Y-106164047D01*
X141161666Y-106164047D01*
X122086666Y-107037142D02*
X122134285Y-107084761D01*
X122277142Y-107132380D01*
X122372380Y-107132380D01*
X122515238Y-107084761D01*
X122610476Y-106989523D01*
X122658095Y-106894285D01*
X122705714Y-106703809D01*
X122705714Y-106560952D01*
X122658095Y-106370476D01*
X122610476Y-106275238D01*
X122515238Y-106180000D01*
X122372380Y-106132380D01*
X122277142Y-106132380D01*
X122134285Y-106180000D01*
X122086666Y-106227619D01*
X121753333Y-106132380D02*
X121134285Y-106132380D01*
X121467619Y-106513333D01*
X121324761Y-106513333D01*
X121229523Y-106560952D01*
X121181904Y-106608571D01*
X121134285Y-106703809D01*
X121134285Y-106941904D01*
X121181904Y-107037142D01*
X121229523Y-107084761D01*
X121324761Y-107132380D01*
X121610476Y-107132380D01*
X121705714Y-107084761D01*
X121753333Y-107037142D01*
X142406666Y-84177142D02*
X142454285Y-84224761D01*
X142597142Y-84272380D01*
X142692380Y-84272380D01*
X142835238Y-84224761D01*
X142930476Y-84129523D01*
X142978095Y-84034285D01*
X143025714Y-83843809D01*
X143025714Y-83700952D01*
X142978095Y-83510476D01*
X142930476Y-83415238D01*
X142835238Y-83320000D01*
X142692380Y-83272380D01*
X142597142Y-83272380D01*
X142454285Y-83320000D01*
X142406666Y-83367619D01*
X142025714Y-83367619D02*
X141978095Y-83320000D01*
X141882857Y-83272380D01*
X141644761Y-83272380D01*
X141549523Y-83320000D01*
X141501904Y-83367619D01*
X141454285Y-83462857D01*
X141454285Y-83558095D01*
X141501904Y-83700952D01*
X142073333Y-84272380D01*
X141454285Y-84272380D01*
X122086666Y-86082142D02*
X122134285Y-86129761D01*
X122277142Y-86177380D01*
X122372380Y-86177380D01*
X122515238Y-86129761D01*
X122610476Y-86034523D01*
X122658095Y-85939285D01*
X122705714Y-85748809D01*
X122705714Y-85605952D01*
X122658095Y-85415476D01*
X122610476Y-85320238D01*
X122515238Y-85225000D01*
X122372380Y-85177380D01*
X122277142Y-85177380D01*
X122134285Y-85225000D01*
X122086666Y-85272619D01*
X121134285Y-86177380D02*
X121705714Y-86177380D01*
X121420000Y-86177380D02*
X121420000Y-85177380D01*
X121515238Y-85320238D01*
X121610476Y-85415476D01*
X121705714Y-85463095D01*
X132889523Y-66762380D02*
X132889523Y-67476666D01*
X132937142Y-67619523D01*
X133032380Y-67714761D01*
X133175238Y-67762380D01*
X133270476Y-67762380D01*
X131889523Y-67762380D02*
X132460952Y-67762380D01*
X132175238Y-67762380D02*
X132175238Y-66762380D01*
X132270476Y-66905238D01*
X132365714Y-67000476D01*
X132460952Y-67048095D01*
X131270476Y-66762380D02*
X131175238Y-66762380D01*
X131080000Y-66810000D01*
X131032380Y-66857619D01*
X130984761Y-66952857D01*
X130937142Y-67143333D01*
X130937142Y-67381428D01*
X130984761Y-67571904D01*
X131032380Y-67667142D01*
X131080000Y-67714761D01*
X131175238Y-67762380D01*
X131270476Y-67762380D01*
X131365714Y-67714761D01*
X131413333Y-67667142D01*
X131460952Y-67571904D01*
X131508571Y-67381428D01*
X131508571Y-67143333D01*
X131460952Y-66952857D01*
X131413333Y-66857619D01*
X131365714Y-66810000D01*
X131270476Y-66762380D01*
X159083333Y-121372380D02*
X159083333Y-122086666D01*
X159130952Y-122229523D01*
X159226190Y-122324761D01*
X159369047Y-122372380D01*
X159464285Y-122372380D01*
X158464285Y-121800952D02*
X158559523Y-121753333D01*
X158607142Y-121705714D01*
X158654761Y-121610476D01*
X158654761Y-121562857D01*
X158607142Y-121467619D01*
X158559523Y-121420000D01*
X158464285Y-121372380D01*
X158273809Y-121372380D01*
X158178571Y-121420000D01*
X158130952Y-121467619D01*
X158083333Y-121562857D01*
X158083333Y-121610476D01*
X158130952Y-121705714D01*
X158178571Y-121753333D01*
X158273809Y-121800952D01*
X158464285Y-121800952D01*
X158559523Y-121848571D01*
X158607142Y-121896190D01*
X158654761Y-121991428D01*
X158654761Y-122181904D01*
X158607142Y-122277142D01*
X158559523Y-122324761D01*
X158464285Y-122372380D01*
X158273809Y-122372380D01*
X158178571Y-122324761D01*
X158130952Y-122277142D01*
X158083333Y-122181904D01*
X158083333Y-121991428D01*
X158130952Y-121896190D01*
X158178571Y-121848571D01*
X158273809Y-121800952D01*
X105743333Y-68032380D02*
X105743333Y-68746666D01*
X105790952Y-68889523D01*
X105886190Y-68984761D01*
X106029047Y-69032380D01*
X106124285Y-69032380D01*
X104838571Y-68032380D02*
X105029047Y-68032380D01*
X105124285Y-68080000D01*
X105171904Y-68127619D01*
X105267142Y-68270476D01*
X105314761Y-68460952D01*
X105314761Y-68841904D01*
X105267142Y-68937142D01*
X105219523Y-68984761D01*
X105124285Y-69032380D01*
X104933809Y-69032380D01*
X104838571Y-68984761D01*
X104790952Y-68937142D01*
X104743333Y-68841904D01*
X104743333Y-68603809D01*
X104790952Y-68508571D01*
X104838571Y-68460952D01*
X104933809Y-68413333D01*
X105124285Y-68413333D01*
X105219523Y-68460952D01*
X105267142Y-68508571D01*
X105314761Y-68603809D01*
X159083333Y-68032380D02*
X159083333Y-68746666D01*
X159130952Y-68889523D01*
X159226190Y-68984761D01*
X159369047Y-69032380D01*
X159464285Y-69032380D01*
X158702380Y-68032380D02*
X158035714Y-68032380D01*
X158464285Y-69032380D01*
X105743333Y-121372380D02*
X105743333Y-122086666D01*
X105790952Y-122229523D01*
X105886190Y-122324761D01*
X106029047Y-122372380D01*
X106124285Y-122372380D01*
X105219523Y-122372380D02*
X105029047Y-122372380D01*
X104933809Y-122324761D01*
X104886190Y-122277142D01*
X104790952Y-122134285D01*
X104743333Y-121943809D01*
X104743333Y-121562857D01*
X104790952Y-121467619D01*
X104838571Y-121420000D01*
X104933809Y-121372380D01*
X105124285Y-121372380D01*
X105219523Y-121420000D01*
X105267142Y-121467619D01*
X105314761Y-121562857D01*
X105314761Y-121800952D01*
X105267142Y-121896190D01*
X105219523Y-121943809D01*
X105124285Y-121991428D01*
X104933809Y-121991428D01*
X104838571Y-121943809D01*
X104790952Y-121896190D01*
X104743333Y-121800952D01*
M02*
