M48
; DRILL file {KiCad 5.1.6-c6e7f7d~87~ubuntu18.04.1} date Wed Jul 29 19:07:09 2020
; FORMAT={-:-/ absolute / metric / decimal}
; #@! TF.CreationDate,2020-07-29T19:07:09-04:00
; #@! TF.GenerationSoftware,Kicad,Pcbnew,5.1.6-c6e7f7d~87~ubuntu18.04.1
FMAT,2
METRIC
T1C0.400
T2C0.800
T3C1.000
T4C1.600
T5C1.800
%
G90
G05
T1
X107.95Y-80.645
X114.3Y-78.105
X122.555Y-78.105
X122.555Y-80.645
X123.701Y-102.81
X123.825Y-93.98
X127.635Y-82.55
X129.54Y-106.045
X137.224Y-107.632
X141.605Y-82.563
X141.605Y-104.14
X149.86Y-90.424
T2
X119.38Y-114.3
X119.38Y-119.38
X124.46Y-71.12
X127.0Y-91.44
X127.0Y-96.52
X131.127Y-111.76
X132.893Y-116.84
X137.16Y-91.44
X137.16Y-96.52
X137.414Y-110.172
X143.586Y-116.84
X144.78Y-71.12
X144.78Y-86.36
T3
X147.36Y-66.04
X149.86Y-66.04
X152.36Y-66.04
X111.8Y-66.04
X114.3Y-66.04
X116.8Y-66.04
X105.41Y-101.6
X105.41Y-104.14
X105.41Y-106.68
X105.41Y-109.22
X105.41Y-111.76
X105.41Y-114.3
X105.41Y-116.84
X105.41Y-119.38
X130.81Y-54.61
X130.81Y-57.15
X130.81Y-59.69
X130.81Y-62.23
X130.81Y-64.77
X133.35Y-54.61
X133.35Y-57.15
X133.35Y-59.69
X133.35Y-62.23
X133.35Y-64.77
X158.75Y-71.12
X158.75Y-73.66
X158.75Y-76.2
X158.75Y-78.74
X105.41Y-71.12
X105.41Y-73.66
X105.41Y-76.2
X105.41Y-78.74
X147.32Y-104.14
X149.82Y-104.14
X152.32Y-104.14
X111.8Y-104.14
X114.3Y-104.14
X116.8Y-104.14
X158.75Y-111.76
X158.75Y-114.3
X158.75Y-116.84
X158.75Y-119.38
T4
X127.16Y-127.0
X135.46Y-127.0
X138.56Y-127.0
X148.115Y-127.0
X156.415Y-127.0
X159.515Y-127.0
X106.205Y-140.97
X114.505Y-140.97
X117.605Y-140.97
X148.115Y-140.97
X156.415Y-140.97
X159.515Y-140.97
X106.205Y-127.0
X114.505Y-127.0
X117.605Y-127.0
T5
X109.5Y-58.54
X119.1Y-58.54
X145.02Y-96.64
X154.62Y-96.64
X109.5Y-96.64
X119.1Y-96.64
X145.06Y-58.54
X154.66Y-58.54
T0
M30
