G04 #@! TF.GenerationSoftware,KiCad,Pcbnew,5.1.6-c6e7f7d~87~ubuntu18.04.1*
G04 #@! TF.CreationDate,2020-07-29T19:07:16-04:00*
G04 #@! TF.ProjectId,filter_carrier_board,66696c74-6572-45f6-9361-72726965725f,1*
G04 #@! TF.SameCoordinates,Original*
G04 #@! TF.FileFunction,Paste,Bot*
G04 #@! TF.FilePolarity,Positive*
%FSLAX46Y46*%
G04 Gerber Fmt 4.6, Leading zero omitted, Abs format (unit mm)*
G04 Created by KiCad (PCBNEW 5.1.6-c6e7f7d~87~ubuntu18.04.1) date 2020-07-29 19:07:16*
%MOMM*%
%LPD*%
G01*
G04 APERTURE LIST*
%ADD10R,0.800000X1.900000*%
G04 APERTURE END LIST*
G36*
G01*
X109035001Y-51865000D02*
X108134999Y-51865000D01*
G75*
G02*
X107885000Y-51615001I0J249999D01*
G01*
X107885000Y-50964999D01*
G75*
G02*
X108134999Y-50715000I249999J0D01*
G01*
X109035001Y-50715000D01*
G75*
G02*
X109285000Y-50964999I0J-249999D01*
G01*
X109285000Y-51615001D01*
G75*
G02*
X109035001Y-51865000I-249999J0D01*
G01*
G37*
G36*
G01*
X109035001Y-53915000D02*
X108134999Y-53915000D01*
G75*
G02*
X107885000Y-53665001I0J249999D01*
G01*
X107885000Y-53014999D01*
G75*
G02*
X108134999Y-52765000I249999J0D01*
G01*
X109035001Y-52765000D01*
G75*
G02*
X109285000Y-53014999I0J-249999D01*
G01*
X109285000Y-53665001D01*
G75*
G02*
X109035001Y-53915000I-249999J0D01*
G01*
G37*
G36*
G01*
X116020001Y-51620000D02*
X115119999Y-51620000D01*
G75*
G02*
X114870000Y-51370001I0J249999D01*
G01*
X114870000Y-50719999D01*
G75*
G02*
X115119999Y-50470000I249999J0D01*
G01*
X116020001Y-50470000D01*
G75*
G02*
X116270000Y-50719999I0J-249999D01*
G01*
X116270000Y-51370001D01*
G75*
G02*
X116020001Y-51620000I-249999J0D01*
G01*
G37*
G36*
G01*
X116020001Y-53670000D02*
X115119999Y-53670000D01*
G75*
G02*
X114870000Y-53420001I0J249999D01*
G01*
X114870000Y-52769999D01*
G75*
G02*
X115119999Y-52520000I249999J0D01*
G01*
X116020001Y-52520000D01*
G75*
G02*
X116270000Y-52769999I0J-249999D01*
G01*
X116270000Y-53420001D01*
G75*
G02*
X116020001Y-53670000I-249999J0D01*
G01*
G37*
D10*
X112075000Y-50975000D03*
X111125000Y-53975000D03*
X113025000Y-53975000D03*
G36*
G01*
X133580000Y-104925000D02*
X133580000Y-104625000D01*
G75*
G02*
X133730000Y-104475000I150000J0D01*
G01*
X135380000Y-104475000D01*
G75*
G02*
X135530000Y-104625000I0J-150000D01*
G01*
X135530000Y-104925000D01*
G75*
G02*
X135380000Y-105075000I-150000J0D01*
G01*
X133730000Y-105075000D01*
G75*
G02*
X133580000Y-104925000I0J150000D01*
G01*
G37*
G36*
G01*
X133580000Y-103655000D02*
X133580000Y-103355000D01*
G75*
G02*
X133730000Y-103205000I150000J0D01*
G01*
X135380000Y-103205000D01*
G75*
G02*
X135530000Y-103355000I0J-150000D01*
G01*
X135530000Y-103655000D01*
G75*
G02*
X135380000Y-103805000I-150000J0D01*
G01*
X133730000Y-103805000D01*
G75*
G02*
X133580000Y-103655000I0J150000D01*
G01*
G37*
G36*
G01*
X133580000Y-102385000D02*
X133580000Y-102085000D01*
G75*
G02*
X133730000Y-101935000I150000J0D01*
G01*
X135380000Y-101935000D01*
G75*
G02*
X135530000Y-102085000I0J-150000D01*
G01*
X135530000Y-102385000D01*
G75*
G02*
X135380000Y-102535000I-150000J0D01*
G01*
X133730000Y-102535000D01*
G75*
G02*
X133580000Y-102385000I0J150000D01*
G01*
G37*
G36*
G01*
X133580000Y-101115000D02*
X133580000Y-100815000D01*
G75*
G02*
X133730000Y-100665000I150000J0D01*
G01*
X135380000Y-100665000D01*
G75*
G02*
X135530000Y-100815000I0J-150000D01*
G01*
X135530000Y-101115000D01*
G75*
G02*
X135380000Y-101265000I-150000J0D01*
G01*
X133730000Y-101265000D01*
G75*
G02*
X133580000Y-101115000I0J150000D01*
G01*
G37*
G36*
G01*
X128630000Y-101115000D02*
X128630000Y-100815000D01*
G75*
G02*
X128780000Y-100665000I150000J0D01*
G01*
X130430000Y-100665000D01*
G75*
G02*
X130580000Y-100815000I0J-150000D01*
G01*
X130580000Y-101115000D01*
G75*
G02*
X130430000Y-101265000I-150000J0D01*
G01*
X128780000Y-101265000D01*
G75*
G02*
X128630000Y-101115000I0J150000D01*
G01*
G37*
G36*
G01*
X128630000Y-102385000D02*
X128630000Y-102085000D01*
G75*
G02*
X128780000Y-101935000I150000J0D01*
G01*
X130430000Y-101935000D01*
G75*
G02*
X130580000Y-102085000I0J-150000D01*
G01*
X130580000Y-102385000D01*
G75*
G02*
X130430000Y-102535000I-150000J0D01*
G01*
X128780000Y-102535000D01*
G75*
G02*
X128630000Y-102385000I0J150000D01*
G01*
G37*
G36*
G01*
X128630000Y-103655000D02*
X128630000Y-103355000D01*
G75*
G02*
X128780000Y-103205000I150000J0D01*
G01*
X130430000Y-103205000D01*
G75*
G02*
X130580000Y-103355000I0J-150000D01*
G01*
X130580000Y-103655000D01*
G75*
G02*
X130430000Y-103805000I-150000J0D01*
G01*
X128780000Y-103805000D01*
G75*
G02*
X128630000Y-103655000I0J150000D01*
G01*
G37*
G36*
G01*
X128630000Y-104925000D02*
X128630000Y-104625000D01*
G75*
G02*
X128780000Y-104475000I150000J0D01*
G01*
X130430000Y-104475000D01*
G75*
G02*
X130580000Y-104625000I0J-150000D01*
G01*
X130580000Y-104925000D01*
G75*
G02*
X130430000Y-105075000I-150000J0D01*
G01*
X128780000Y-105075000D01*
G75*
G02*
X128630000Y-104925000I0J150000D01*
G01*
G37*
G36*
G01*
X133580000Y-82700000D02*
X133580000Y-82400000D01*
G75*
G02*
X133730000Y-82250000I150000J0D01*
G01*
X135380000Y-82250000D01*
G75*
G02*
X135530000Y-82400000I0J-150000D01*
G01*
X135530000Y-82700000D01*
G75*
G02*
X135380000Y-82850000I-150000J0D01*
G01*
X133730000Y-82850000D01*
G75*
G02*
X133580000Y-82700000I0J150000D01*
G01*
G37*
G36*
G01*
X133580000Y-81430000D02*
X133580000Y-81130000D01*
G75*
G02*
X133730000Y-80980000I150000J0D01*
G01*
X135380000Y-80980000D01*
G75*
G02*
X135530000Y-81130000I0J-150000D01*
G01*
X135530000Y-81430000D01*
G75*
G02*
X135380000Y-81580000I-150000J0D01*
G01*
X133730000Y-81580000D01*
G75*
G02*
X133580000Y-81430000I0J150000D01*
G01*
G37*
G36*
G01*
X133580000Y-80160000D02*
X133580000Y-79860000D01*
G75*
G02*
X133730000Y-79710000I150000J0D01*
G01*
X135380000Y-79710000D01*
G75*
G02*
X135530000Y-79860000I0J-150000D01*
G01*
X135530000Y-80160000D01*
G75*
G02*
X135380000Y-80310000I-150000J0D01*
G01*
X133730000Y-80310000D01*
G75*
G02*
X133580000Y-80160000I0J150000D01*
G01*
G37*
G36*
G01*
X133580000Y-78890000D02*
X133580000Y-78590000D01*
G75*
G02*
X133730000Y-78440000I150000J0D01*
G01*
X135380000Y-78440000D01*
G75*
G02*
X135530000Y-78590000I0J-150000D01*
G01*
X135530000Y-78890000D01*
G75*
G02*
X135380000Y-79040000I-150000J0D01*
G01*
X133730000Y-79040000D01*
G75*
G02*
X133580000Y-78890000I0J150000D01*
G01*
G37*
G36*
G01*
X128630000Y-78890000D02*
X128630000Y-78590000D01*
G75*
G02*
X128780000Y-78440000I150000J0D01*
G01*
X130430000Y-78440000D01*
G75*
G02*
X130580000Y-78590000I0J-150000D01*
G01*
X130580000Y-78890000D01*
G75*
G02*
X130430000Y-79040000I-150000J0D01*
G01*
X128780000Y-79040000D01*
G75*
G02*
X128630000Y-78890000I0J150000D01*
G01*
G37*
G36*
G01*
X128630000Y-80160000D02*
X128630000Y-79860000D01*
G75*
G02*
X128780000Y-79710000I150000J0D01*
G01*
X130430000Y-79710000D01*
G75*
G02*
X130580000Y-79860000I0J-150000D01*
G01*
X130580000Y-80160000D01*
G75*
G02*
X130430000Y-80310000I-150000J0D01*
G01*
X128780000Y-80310000D01*
G75*
G02*
X128630000Y-80160000I0J150000D01*
G01*
G37*
G36*
G01*
X128630000Y-81430000D02*
X128630000Y-81130000D01*
G75*
G02*
X128780000Y-80980000I150000J0D01*
G01*
X130430000Y-80980000D01*
G75*
G02*
X130580000Y-81130000I0J-150000D01*
G01*
X130580000Y-81430000D01*
G75*
G02*
X130430000Y-81580000I-150000J0D01*
G01*
X128780000Y-81580000D01*
G75*
G02*
X128630000Y-81430000I0J150000D01*
G01*
G37*
G36*
G01*
X128630000Y-82700000D02*
X128630000Y-82400000D01*
G75*
G02*
X128780000Y-82250000I150000J0D01*
G01*
X130430000Y-82250000D01*
G75*
G02*
X130580000Y-82400000I0J-150000D01*
G01*
X130580000Y-82700000D01*
G75*
G02*
X130430000Y-82850000I-150000J0D01*
G01*
X128780000Y-82850000D01*
G75*
G02*
X128630000Y-82700000I0J150000D01*
G01*
G37*
G36*
G01*
X151970000Y-141420001D02*
X151970000Y-140519999D01*
G75*
G02*
X152219999Y-140270000I249999J0D01*
G01*
X152870001Y-140270000D01*
G75*
G02*
X153120000Y-140519999I0J-249999D01*
G01*
X153120000Y-141420001D01*
G75*
G02*
X152870001Y-141670000I-249999J0D01*
G01*
X152219999Y-141670000D01*
G75*
G02*
X151970000Y-141420001I0J249999D01*
G01*
G37*
G36*
G01*
X149920000Y-141420001D02*
X149920000Y-140519999D01*
G75*
G02*
X150169999Y-140270000I249999J0D01*
G01*
X150820001Y-140270000D01*
G75*
G02*
X151070000Y-140519999I0J-249999D01*
G01*
X151070000Y-141420001D01*
G75*
G02*
X150820001Y-141670000I-249999J0D01*
G01*
X150169999Y-141670000D01*
G75*
G02*
X149920000Y-141420001I0J249999D01*
G01*
G37*
G36*
G01*
X138615000Y-103054999D02*
X138615000Y-103955001D01*
G75*
G02*
X138365001Y-104205000I-249999J0D01*
G01*
X137714999Y-104205000D01*
G75*
G02*
X137465000Y-103955001I0J249999D01*
G01*
X137465000Y-103054999D01*
G75*
G02*
X137714999Y-102805000I249999J0D01*
G01*
X138365001Y-102805000D01*
G75*
G02*
X138615000Y-103054999I0J-249999D01*
G01*
G37*
G36*
G01*
X140665000Y-103054999D02*
X140665000Y-103955001D01*
G75*
G02*
X140415001Y-104205000I-249999J0D01*
G01*
X139764999Y-104205000D01*
G75*
G02*
X139515000Y-103955001I0J249999D01*
G01*
X139515000Y-103054999D01*
G75*
G02*
X139764999Y-102805000I249999J0D01*
G01*
X140415001Y-102805000D01*
G75*
G02*
X140665000Y-103054999I0J-249999D01*
G01*
G37*
G36*
G01*
X139515000Y-101415001D02*
X139515000Y-100514999D01*
G75*
G02*
X139764999Y-100265000I249999J0D01*
G01*
X140415001Y-100265000D01*
G75*
G02*
X140665000Y-100514999I0J-249999D01*
G01*
X140665000Y-101415001D01*
G75*
G02*
X140415001Y-101665000I-249999J0D01*
G01*
X139764999Y-101665000D01*
G75*
G02*
X139515000Y-101415001I0J249999D01*
G01*
G37*
G36*
G01*
X137465000Y-101415001D02*
X137465000Y-100514999D01*
G75*
G02*
X137714999Y-100265000I249999J0D01*
G01*
X138365001Y-100265000D01*
G75*
G02*
X138615000Y-100514999I0J-249999D01*
G01*
X138615000Y-101415001D01*
G75*
G02*
X138365001Y-101665000I-249999J0D01*
G01*
X137714999Y-101665000D01*
G75*
G02*
X137465000Y-101415001I0J249999D01*
G01*
G37*
G36*
G01*
X125300000Y-104590001D02*
X125300000Y-103689999D01*
G75*
G02*
X125549999Y-103440000I249999J0D01*
G01*
X126200001Y-103440000D01*
G75*
G02*
X126450000Y-103689999I0J-249999D01*
G01*
X126450000Y-104590001D01*
G75*
G02*
X126200001Y-104840000I-249999J0D01*
G01*
X125549999Y-104840000D01*
G75*
G02*
X125300000Y-104590001I0J249999D01*
G01*
G37*
G36*
G01*
X123250000Y-104590001D02*
X123250000Y-103689999D01*
G75*
G02*
X123499999Y-103440000I249999J0D01*
G01*
X124150001Y-103440000D01*
G75*
G02*
X124400000Y-103689999I0J-249999D01*
G01*
X124400000Y-104590001D01*
G75*
G02*
X124150001Y-104840000I-249999J0D01*
G01*
X123499999Y-104840000D01*
G75*
G02*
X123250000Y-104590001I0J249999D01*
G01*
G37*
G36*
G01*
X124400000Y-101149999D02*
X124400000Y-102050001D01*
G75*
G02*
X124150001Y-102300000I-249999J0D01*
G01*
X123499999Y-102300000D01*
G75*
G02*
X123250000Y-102050001I0J249999D01*
G01*
X123250000Y-101149999D01*
G75*
G02*
X123499999Y-100900000I249999J0D01*
G01*
X124150001Y-100900000D01*
G75*
G02*
X124400000Y-101149999I0J-249999D01*
G01*
G37*
G36*
G01*
X126450000Y-101149999D02*
X126450000Y-102050001D01*
G75*
G02*
X126200001Y-102300000I-249999J0D01*
G01*
X125549999Y-102300000D01*
G75*
G02*
X125300000Y-102050001I0J249999D01*
G01*
X125300000Y-101149999D01*
G75*
G02*
X125549999Y-100900000I249999J0D01*
G01*
X126200001Y-100900000D01*
G75*
G02*
X126450000Y-101149999I0J-249999D01*
G01*
G37*
G36*
G01*
X124400000Y-98609999D02*
X124400000Y-99510001D01*
G75*
G02*
X124150001Y-99760000I-249999J0D01*
G01*
X123499999Y-99760000D01*
G75*
G02*
X123250000Y-99510001I0J249999D01*
G01*
X123250000Y-98609999D01*
G75*
G02*
X123499999Y-98360000I249999J0D01*
G01*
X124150001Y-98360000D01*
G75*
G02*
X124400000Y-98609999I0J-249999D01*
G01*
G37*
G36*
G01*
X126450000Y-98609999D02*
X126450000Y-99510001D01*
G75*
G02*
X126200001Y-99760000I-249999J0D01*
G01*
X125549999Y-99760000D01*
G75*
G02*
X125300000Y-99510001I0J249999D01*
G01*
X125300000Y-98609999D01*
G75*
G02*
X125549999Y-98360000I249999J0D01*
G01*
X126200001Y-98360000D01*
G75*
G02*
X126450000Y-98609999I0J-249999D01*
G01*
G37*
G36*
G01*
X139005000Y-80829999D02*
X139005000Y-81730001D01*
G75*
G02*
X138755001Y-81980000I-249999J0D01*
G01*
X138104999Y-81980000D01*
G75*
G02*
X137855000Y-81730001I0J249999D01*
G01*
X137855000Y-80829999D01*
G75*
G02*
X138104999Y-80580000I249999J0D01*
G01*
X138755001Y-80580000D01*
G75*
G02*
X139005000Y-80829999I0J-249999D01*
G01*
G37*
G36*
G01*
X141055000Y-80829999D02*
X141055000Y-81730001D01*
G75*
G02*
X140805001Y-81980000I-249999J0D01*
G01*
X140154999Y-81980000D01*
G75*
G02*
X139905000Y-81730001I0J249999D01*
G01*
X139905000Y-80829999D01*
G75*
G02*
X140154999Y-80580000I249999J0D01*
G01*
X140805001Y-80580000D01*
G75*
G02*
X141055000Y-80829999I0J-249999D01*
G01*
G37*
G36*
G01*
X139905000Y-79190001D02*
X139905000Y-78289999D01*
G75*
G02*
X140154999Y-78040000I249999J0D01*
G01*
X140805001Y-78040000D01*
G75*
G02*
X141055000Y-78289999I0J-249999D01*
G01*
X141055000Y-79190001D01*
G75*
G02*
X140805001Y-79440000I-249999J0D01*
G01*
X140154999Y-79440000D01*
G75*
G02*
X139905000Y-79190001I0J249999D01*
G01*
G37*
G36*
G01*
X137855000Y-79190001D02*
X137855000Y-78289999D01*
G75*
G02*
X138104999Y-78040000I249999J0D01*
G01*
X138755001Y-78040000D01*
G75*
G02*
X139005000Y-78289999I0J-249999D01*
G01*
X139005000Y-79190001D01*
G75*
G02*
X138755001Y-79440000I-249999J0D01*
G01*
X138104999Y-79440000D01*
G75*
G02*
X137855000Y-79190001I0J249999D01*
G01*
G37*
G36*
G01*
X125300000Y-83635001D02*
X125300000Y-82734999D01*
G75*
G02*
X125549999Y-82485000I249999J0D01*
G01*
X126200001Y-82485000D01*
G75*
G02*
X126450000Y-82734999I0J-249999D01*
G01*
X126450000Y-83635001D01*
G75*
G02*
X126200001Y-83885000I-249999J0D01*
G01*
X125549999Y-83885000D01*
G75*
G02*
X125300000Y-83635001I0J249999D01*
G01*
G37*
G36*
G01*
X123250000Y-83635001D02*
X123250000Y-82734999D01*
G75*
G02*
X123499999Y-82485000I249999J0D01*
G01*
X124150001Y-82485000D01*
G75*
G02*
X124400000Y-82734999I0J-249999D01*
G01*
X124400000Y-83635001D01*
G75*
G02*
X124150001Y-83885000I-249999J0D01*
G01*
X123499999Y-83885000D01*
G75*
G02*
X123250000Y-83635001I0J249999D01*
G01*
G37*
G36*
G01*
X124400000Y-75114999D02*
X124400000Y-76015001D01*
G75*
G02*
X124150001Y-76265000I-249999J0D01*
G01*
X123499999Y-76265000D01*
G75*
G02*
X123250000Y-76015001I0J249999D01*
G01*
X123250000Y-75114999D01*
G75*
G02*
X123499999Y-74865000I249999J0D01*
G01*
X124150001Y-74865000D01*
G75*
G02*
X124400000Y-75114999I0J-249999D01*
G01*
G37*
G36*
G01*
X126450000Y-75114999D02*
X126450000Y-76015001D01*
G75*
G02*
X126200001Y-76265000I-249999J0D01*
G01*
X125549999Y-76265000D01*
G75*
G02*
X125300000Y-76015001I0J249999D01*
G01*
X125300000Y-75114999D01*
G75*
G02*
X125549999Y-74865000I249999J0D01*
G01*
X126200001Y-74865000D01*
G75*
G02*
X126450000Y-75114999I0J-249999D01*
G01*
G37*
G36*
G01*
X124400000Y-77654999D02*
X124400000Y-78555001D01*
G75*
G02*
X124150001Y-78805000I-249999J0D01*
G01*
X123499999Y-78805000D01*
G75*
G02*
X123250000Y-78555001I0J249999D01*
G01*
X123250000Y-77654999D01*
G75*
G02*
X123499999Y-77405000I249999J0D01*
G01*
X124150001Y-77405000D01*
G75*
G02*
X124400000Y-77654999I0J-249999D01*
G01*
G37*
G36*
G01*
X126450000Y-77654999D02*
X126450000Y-78555001D01*
G75*
G02*
X126200001Y-78805000I-249999J0D01*
G01*
X125549999Y-78805000D01*
G75*
G02*
X125300000Y-78555001I0J249999D01*
G01*
X125300000Y-77654999D01*
G75*
G02*
X125549999Y-77405000I249999J0D01*
G01*
X126200001Y-77405000D01*
G75*
G02*
X126450000Y-77654999I0J-249999D01*
G01*
G37*
G36*
G01*
X124400000Y-80194999D02*
X124400000Y-81095001D01*
G75*
G02*
X124150001Y-81345000I-249999J0D01*
G01*
X123499999Y-81345000D01*
G75*
G02*
X123250000Y-81095001I0J249999D01*
G01*
X123250000Y-80194999D01*
G75*
G02*
X123499999Y-79945000I249999J0D01*
G01*
X124150001Y-79945000D01*
G75*
G02*
X124400000Y-80194999I0J-249999D01*
G01*
G37*
G36*
G01*
X126450000Y-80194999D02*
X126450000Y-81095001D01*
G75*
G02*
X126200001Y-81345000I-249999J0D01*
G01*
X125549999Y-81345000D01*
G75*
G02*
X125300000Y-81095001I0J249999D01*
G01*
X125300000Y-80194999D01*
G75*
G02*
X125549999Y-79945000I249999J0D01*
G01*
X126200001Y-79945000D01*
G75*
G02*
X126450000Y-80194999I0J-249999D01*
G01*
G37*
G36*
G01*
X129600000Y-98875001D02*
X129600000Y-97974999D01*
G75*
G02*
X129849999Y-97725000I249999J0D01*
G01*
X130500001Y-97725000D01*
G75*
G02*
X130750000Y-97974999I0J-249999D01*
G01*
X130750000Y-98875001D01*
G75*
G02*
X130500001Y-99125000I-249999J0D01*
G01*
X129849999Y-99125000D01*
G75*
G02*
X129600000Y-98875001I0J249999D01*
G01*
G37*
G36*
G01*
X127550000Y-98875001D02*
X127550000Y-97974999D01*
G75*
G02*
X127799999Y-97725000I249999J0D01*
G01*
X128450001Y-97725000D01*
G75*
G02*
X128700000Y-97974999I0J-249999D01*
G01*
X128700000Y-98875001D01*
G75*
G02*
X128450001Y-99125000I-249999J0D01*
G01*
X127799999Y-99125000D01*
G75*
G02*
X127550000Y-98875001I0J249999D01*
G01*
G37*
G36*
G01*
X135460000Y-98875001D02*
X135460000Y-97974999D01*
G75*
G02*
X135709999Y-97725000I249999J0D01*
G01*
X136360001Y-97725000D01*
G75*
G02*
X136610000Y-97974999I0J-249999D01*
G01*
X136610000Y-98875001D01*
G75*
G02*
X136360001Y-99125000I-249999J0D01*
G01*
X135709999Y-99125000D01*
G75*
G02*
X135460000Y-98875001I0J249999D01*
G01*
G37*
G36*
G01*
X133410000Y-98875001D02*
X133410000Y-97974999D01*
G75*
G02*
X133659999Y-97725000I249999J0D01*
G01*
X134310001Y-97725000D01*
G75*
G02*
X134560000Y-97974999I0J-249999D01*
G01*
X134560000Y-98875001D01*
G75*
G02*
X134310001Y-99125000I-249999J0D01*
G01*
X133659999Y-99125000D01*
G75*
G02*
X133410000Y-98875001I0J249999D01*
G01*
G37*
G36*
G01*
X129600000Y-76015001D02*
X129600000Y-75114999D01*
G75*
G02*
X129849999Y-74865000I249999J0D01*
G01*
X130500001Y-74865000D01*
G75*
G02*
X130750000Y-75114999I0J-249999D01*
G01*
X130750000Y-76015001D01*
G75*
G02*
X130500001Y-76265000I-249999J0D01*
G01*
X129849999Y-76265000D01*
G75*
G02*
X129600000Y-76015001I0J249999D01*
G01*
G37*
G36*
G01*
X127550000Y-76015001D02*
X127550000Y-75114999D01*
G75*
G02*
X127799999Y-74865000I249999J0D01*
G01*
X128450001Y-74865000D01*
G75*
G02*
X128700000Y-75114999I0J-249999D01*
G01*
X128700000Y-76015001D01*
G75*
G02*
X128450001Y-76265000I-249999J0D01*
G01*
X127799999Y-76265000D01*
G75*
G02*
X127550000Y-76015001I0J249999D01*
G01*
G37*
G36*
G01*
X135460000Y-76015001D02*
X135460000Y-75114999D01*
G75*
G02*
X135709999Y-74865000I249999J0D01*
G01*
X136360001Y-74865000D01*
G75*
G02*
X136610000Y-75114999I0J-249999D01*
G01*
X136610000Y-76015001D01*
G75*
G02*
X136360001Y-76265000I-249999J0D01*
G01*
X135709999Y-76265000D01*
G75*
G02*
X135460000Y-76015001I0J249999D01*
G01*
G37*
G36*
G01*
X133410000Y-76015001D02*
X133410000Y-75114999D01*
G75*
G02*
X133659999Y-74865000I249999J0D01*
G01*
X134310001Y-74865000D01*
G75*
G02*
X134560000Y-75114999I0J-249999D01*
G01*
X134560000Y-76015001D01*
G75*
G02*
X134310001Y-76265000I-249999J0D01*
G01*
X133659999Y-76265000D01*
G75*
G02*
X133410000Y-76015001I0J249999D01*
G01*
G37*
G36*
G01*
X127060000Y-62680001D02*
X127060000Y-61779999D01*
G75*
G02*
X127309999Y-61530000I249999J0D01*
G01*
X127960001Y-61530000D01*
G75*
G02*
X128210000Y-61779999I0J-249999D01*
G01*
X128210000Y-62680001D01*
G75*
G02*
X127960001Y-62930000I-249999J0D01*
G01*
X127309999Y-62930000D01*
G75*
G02*
X127060000Y-62680001I0J249999D01*
G01*
G37*
G36*
G01*
X125010000Y-62680001D02*
X125010000Y-61779999D01*
G75*
G02*
X125259999Y-61530000I249999J0D01*
G01*
X125910001Y-61530000D01*
G75*
G02*
X126160000Y-61779999I0J-249999D01*
G01*
X126160000Y-62680001D01*
G75*
G02*
X125910001Y-62930000I-249999J0D01*
G01*
X125259999Y-62930000D01*
G75*
G02*
X125010000Y-62680001I0J249999D01*
G01*
G37*
G36*
G01*
X131875000Y-50984999D02*
X131875000Y-51885001D01*
G75*
G02*
X131625001Y-52135000I-249999J0D01*
G01*
X130974999Y-52135000D01*
G75*
G02*
X130725000Y-51885001I0J249999D01*
G01*
X130725000Y-50984999D01*
G75*
G02*
X130974999Y-50735000I249999J0D01*
G01*
X131625001Y-50735000D01*
G75*
G02*
X131875000Y-50984999I0J-249999D01*
G01*
G37*
G36*
G01*
X133925000Y-50984999D02*
X133925000Y-51885001D01*
G75*
G02*
X133675001Y-52135000I-249999J0D01*
G01*
X133024999Y-52135000D01*
G75*
G02*
X132775000Y-51885001I0J249999D01*
G01*
X132775000Y-50984999D01*
G75*
G02*
X133024999Y-50735000I249999J0D01*
G01*
X133675001Y-50735000D01*
G75*
G02*
X133925000Y-50984999I0J-249999D01*
G01*
G37*
G36*
G01*
X123550000Y-67225000D02*
X123550000Y-66125000D01*
G75*
G02*
X123800000Y-65875000I250000J0D01*
G01*
X126300000Y-65875000D01*
G75*
G02*
X126550000Y-66125000I0J-250000D01*
G01*
X126550000Y-67225000D01*
G75*
G02*
X126300000Y-67475000I-250000J0D01*
G01*
X123800000Y-67475000D01*
G75*
G02*
X123550000Y-67225000I0J250000D01*
G01*
G37*
G36*
G01*
X119150000Y-67225000D02*
X119150000Y-66125000D01*
G75*
G02*
X119400000Y-65875000I250000J0D01*
G01*
X121900000Y-65875000D01*
G75*
G02*
X122150000Y-66125000I0J-250000D01*
G01*
X122150000Y-67225000D01*
G75*
G02*
X121900000Y-67475000I-250000J0D01*
G01*
X119400000Y-67475000D01*
G75*
G02*
X119150000Y-67225000I0J250000D01*
G01*
G37*
G36*
G01*
X121560000Y-52155000D02*
X121560000Y-53255000D01*
G75*
G02*
X121310000Y-53505000I-250000J0D01*
G01*
X118810000Y-53505000D01*
G75*
G02*
X118560000Y-53255000I0J250000D01*
G01*
X118560000Y-52155000D01*
G75*
G02*
X118810000Y-51905000I250000J0D01*
G01*
X121310000Y-51905000D01*
G75*
G02*
X121560000Y-52155000I0J-250000D01*
G01*
G37*
G36*
G01*
X125960000Y-52155000D02*
X125960000Y-53255000D01*
G75*
G02*
X125710000Y-53505000I-250000J0D01*
G01*
X123210000Y-53505000D01*
G75*
G02*
X122960000Y-53255000I0J250000D01*
G01*
X122960000Y-52155000D01*
G75*
G02*
X123210000Y-51905000I250000J0D01*
G01*
X125710000Y-51905000D01*
G75*
G02*
X125960000Y-52155000I0J-250000D01*
G01*
G37*
G36*
G01*
X138615000Y-105594999D02*
X138615000Y-106495001D01*
G75*
G02*
X138365001Y-106745000I-249999J0D01*
G01*
X137714999Y-106745000D01*
G75*
G02*
X137465000Y-106495001I0J249999D01*
G01*
X137465000Y-105594999D01*
G75*
G02*
X137714999Y-105345000I249999J0D01*
G01*
X138365001Y-105345000D01*
G75*
G02*
X138615000Y-105594999I0J-249999D01*
G01*
G37*
G36*
G01*
X140665000Y-105594999D02*
X140665000Y-106495001D01*
G75*
G02*
X140415001Y-106745000I-249999J0D01*
G01*
X139764999Y-106745000D01*
G75*
G02*
X139515000Y-106495001I0J249999D01*
G01*
X139515000Y-105594999D01*
G75*
G02*
X139764999Y-105345000I249999J0D01*
G01*
X140415001Y-105345000D01*
G75*
G02*
X140665000Y-105594999I0J-249999D01*
G01*
G37*
G36*
G01*
X125300000Y-107130001D02*
X125300000Y-106229999D01*
G75*
G02*
X125549999Y-105980000I249999J0D01*
G01*
X126200001Y-105980000D01*
G75*
G02*
X126450000Y-106229999I0J-249999D01*
G01*
X126450000Y-107130001D01*
G75*
G02*
X126200001Y-107380000I-249999J0D01*
G01*
X125549999Y-107380000D01*
G75*
G02*
X125300000Y-107130001I0J249999D01*
G01*
G37*
G36*
G01*
X123250000Y-107130001D02*
X123250000Y-106229999D01*
G75*
G02*
X123499999Y-105980000I249999J0D01*
G01*
X124150001Y-105980000D01*
G75*
G02*
X124400000Y-106229999I0J-249999D01*
G01*
X124400000Y-107130001D01*
G75*
G02*
X124150001Y-107380000I-249999J0D01*
G01*
X123499999Y-107380000D01*
G75*
G02*
X123250000Y-107130001I0J249999D01*
G01*
G37*
G36*
G01*
X139005000Y-83369999D02*
X139005000Y-84270001D01*
G75*
G02*
X138755001Y-84520000I-249999J0D01*
G01*
X138104999Y-84520000D01*
G75*
G02*
X137855000Y-84270001I0J249999D01*
G01*
X137855000Y-83369999D01*
G75*
G02*
X138104999Y-83120000I249999J0D01*
G01*
X138755001Y-83120000D01*
G75*
G02*
X139005000Y-83369999I0J-249999D01*
G01*
G37*
G36*
G01*
X141055000Y-83369999D02*
X141055000Y-84270001D01*
G75*
G02*
X140805001Y-84520000I-249999J0D01*
G01*
X140154999Y-84520000D01*
G75*
G02*
X139905000Y-84270001I0J249999D01*
G01*
X139905000Y-83369999D01*
G75*
G02*
X140154999Y-83120000I249999J0D01*
G01*
X140805001Y-83120000D01*
G75*
G02*
X141055000Y-83369999I0J-249999D01*
G01*
G37*
G36*
G01*
X125300000Y-86175001D02*
X125300000Y-85274999D01*
G75*
G02*
X125549999Y-85025000I249999J0D01*
G01*
X126200001Y-85025000D01*
G75*
G02*
X126450000Y-85274999I0J-249999D01*
G01*
X126450000Y-86175001D01*
G75*
G02*
X126200001Y-86425000I-249999J0D01*
G01*
X125549999Y-86425000D01*
G75*
G02*
X125300000Y-86175001I0J249999D01*
G01*
G37*
G36*
G01*
X123250000Y-86175001D02*
X123250000Y-85274999D01*
G75*
G02*
X123499999Y-85025000I249999J0D01*
G01*
X124150001Y-85025000D01*
G75*
G02*
X124400000Y-85274999I0J-249999D01*
G01*
X124400000Y-86175001D01*
G75*
G02*
X124150001Y-86425000I-249999J0D01*
G01*
X123499999Y-86425000D01*
G75*
G02*
X123250000Y-86175001I0J249999D01*
G01*
G37*
M02*
