M48
; DRILL file {KiCad 5.1.6-c6e7f7d~87~ubuntu18.04.1} date Wed Aug 19 11:35:38 2020
; FORMAT={3:3/ absolute / metric / suppress leading zeros}
; #@! TF.CreationDate,2020-08-19T11:35:38-04:00
; #@! TF.GenerationSoftware,Kicad,Pcbnew,5.1.6-c6e7f7d~87~ubuntu18.04.1
FMAT,2
METRIC,TZ
T1C0.400
T2C0.800
T3C1.000
T4C1.600
T5C1.800
%
G90
G05
T1
X107950Y-80645
X114300Y-78105
X122555Y-78105
X122555Y-80645
X123701Y-102810
X123825Y-93980
X127635Y-82550
X129540Y-106045
X137224Y-107632
X141605Y-82563
X141605Y-104140
X149860Y-90424
T2
X119380Y-114300
X119380Y-119380
X124460Y-71120
X127000Y-91440
X127000Y-96520
X131128Y-111760
X132893Y-116840
X137160Y-91440
X137160Y-96520
X137414Y-110173
X143586Y-116840
X144780Y-71120
X144780Y-86360
T3
X158750Y-111760
X158750Y-114300
X158750Y-116840
X158750Y-119380
X130810Y-54610
X130810Y-57150
X130810Y-59690
X130810Y-62230
X130810Y-64770
X133350Y-54610
X133350Y-57150
X133350Y-59690
X133350Y-62230
X133350Y-64770
X111800Y-104140
X114300Y-104140
X116800Y-104140
X158750Y-73660
X158750Y-76200
X158750Y-78740
X158750Y-81280
X105410Y-73660
X105410Y-76200
X105410Y-78740
X105410Y-81280
X111800Y-66040
X114300Y-66040
X116800Y-66040
X105410Y-101600
X105410Y-104140
X105410Y-106680
X105410Y-109220
X105410Y-111760
X105410Y-114300
X105410Y-116840
X105410Y-119380
X147320Y-104140
X149820Y-104140
X152320Y-104140
X147360Y-66040
X149860Y-66040
X152360Y-66040
T4
X148115Y-140970
X156415Y-140970
X159515Y-140970
X148115Y-127000
X156415Y-127000
X159515Y-127000
X106205Y-127000
X114505Y-127000
X117605Y-127000
X106205Y-140970
X114505Y-140970
X117605Y-140970
X127160Y-127000
X135460Y-127000
X138560Y-127000
T5
X119100Y-58540
X145020Y-96640
X154620Y-96640
X145060Y-58540
X154660Y-58540
X109500Y-96640
X119100Y-96640
X109500Y-58540
T0
M30
