G04 #@! TF.GenerationSoftware,KiCad,Pcbnew,5.1.6-c6e7f7d~87~ubuntu18.04.1*
G04 #@! TF.CreationDate,2020-08-19T11:35:40-04:00*
G04 #@! TF.ProjectId,filter_carrier_board,66696c74-6572-45f6-9361-72726965725f,1.2*
G04 #@! TF.SameCoordinates,Original*
G04 #@! TF.FileFunction,Soldermask,Top*
G04 #@! TF.FilePolarity,Negative*
%FSLAX46Y46*%
G04 Gerber Fmt 4.6, Leading zero omitted, Abs format (unit mm)*
G04 Created by KiCad (PCBNEW 5.1.6-c6e7f7d~87~ubuntu18.04.1) date 2020-08-19 11:35:40*
%MOMM*%
%LPD*%
G01*
G04 APERTURE LIST*
%ADD10C,0.100000*%
G04 APERTURE END LIST*
D10*
G36*
X114782395Y-140055546D02*
G01*
X114955466Y-140127234D01*
X114955467Y-140127235D01*
X115111227Y-140231310D01*
X115243690Y-140363773D01*
X115243691Y-140363775D01*
X115347766Y-140519534D01*
X115419454Y-140692605D01*
X115456000Y-140876333D01*
X115456000Y-141063667D01*
X115419454Y-141247395D01*
X115347766Y-141420466D01*
X115347765Y-141420467D01*
X115243690Y-141576227D01*
X115111227Y-141708690D01*
X115032818Y-141761081D01*
X114955466Y-141812766D01*
X114782395Y-141884454D01*
X114598667Y-141921000D01*
X114411333Y-141921000D01*
X114227605Y-141884454D01*
X114054534Y-141812766D01*
X113977182Y-141761081D01*
X113898773Y-141708690D01*
X113766310Y-141576227D01*
X113662235Y-141420467D01*
X113662234Y-141420466D01*
X113590546Y-141247395D01*
X113554000Y-141063667D01*
X113554000Y-140876333D01*
X113590546Y-140692605D01*
X113662234Y-140519534D01*
X113766309Y-140363775D01*
X113766310Y-140363773D01*
X113898773Y-140231310D01*
X114054533Y-140127235D01*
X114054534Y-140127234D01*
X114227605Y-140055546D01*
X114411333Y-140019000D01*
X114598667Y-140019000D01*
X114782395Y-140055546D01*
G37*
G36*
X156692395Y-140055546D02*
G01*
X156865466Y-140127234D01*
X156865467Y-140127235D01*
X157021227Y-140231310D01*
X157153690Y-140363773D01*
X157153691Y-140363775D01*
X157257766Y-140519534D01*
X157329454Y-140692605D01*
X157366000Y-140876333D01*
X157366000Y-141063667D01*
X157329454Y-141247395D01*
X157257766Y-141420466D01*
X157257765Y-141420467D01*
X157153690Y-141576227D01*
X157021227Y-141708690D01*
X156942818Y-141761081D01*
X156865466Y-141812766D01*
X156692395Y-141884454D01*
X156508667Y-141921000D01*
X156321333Y-141921000D01*
X156137605Y-141884454D01*
X155964534Y-141812766D01*
X155887182Y-141761081D01*
X155808773Y-141708690D01*
X155676310Y-141576227D01*
X155572235Y-141420467D01*
X155572234Y-141420466D01*
X155500546Y-141247395D01*
X155464000Y-141063667D01*
X155464000Y-140876333D01*
X155500546Y-140692605D01*
X155572234Y-140519534D01*
X155676309Y-140363775D01*
X155676310Y-140363773D01*
X155808773Y-140231310D01*
X155964533Y-140127235D01*
X155964534Y-140127234D01*
X156137605Y-140055546D01*
X156321333Y-140019000D01*
X156508667Y-140019000D01*
X156692395Y-140055546D01*
G37*
G36*
X148392395Y-140055546D02*
G01*
X148565466Y-140127234D01*
X148565467Y-140127235D01*
X148721227Y-140231310D01*
X148853690Y-140363773D01*
X148853691Y-140363775D01*
X148957766Y-140519534D01*
X149029454Y-140692605D01*
X149066000Y-140876333D01*
X149066000Y-141063667D01*
X149029454Y-141247395D01*
X148957766Y-141420466D01*
X148957765Y-141420467D01*
X148853690Y-141576227D01*
X148721227Y-141708690D01*
X148642818Y-141761081D01*
X148565466Y-141812766D01*
X148392395Y-141884454D01*
X148208667Y-141921000D01*
X148021333Y-141921000D01*
X147837605Y-141884454D01*
X147664534Y-141812766D01*
X147587182Y-141761081D01*
X147508773Y-141708690D01*
X147376310Y-141576227D01*
X147272235Y-141420467D01*
X147272234Y-141420466D01*
X147200546Y-141247395D01*
X147164000Y-141063667D01*
X147164000Y-140876333D01*
X147200546Y-140692605D01*
X147272234Y-140519534D01*
X147376309Y-140363775D01*
X147376310Y-140363773D01*
X147508773Y-140231310D01*
X147664533Y-140127235D01*
X147664534Y-140127234D01*
X147837605Y-140055546D01*
X148021333Y-140019000D01*
X148208667Y-140019000D01*
X148392395Y-140055546D01*
G37*
G36*
X159792395Y-140055546D02*
G01*
X159965466Y-140127234D01*
X159965467Y-140127235D01*
X160121227Y-140231310D01*
X160253690Y-140363773D01*
X160253691Y-140363775D01*
X160357766Y-140519534D01*
X160429454Y-140692605D01*
X160466000Y-140876333D01*
X160466000Y-141063667D01*
X160429454Y-141247395D01*
X160357766Y-141420466D01*
X160357765Y-141420467D01*
X160253690Y-141576227D01*
X160121227Y-141708690D01*
X160042818Y-141761081D01*
X159965466Y-141812766D01*
X159792395Y-141884454D01*
X159608667Y-141921000D01*
X159421333Y-141921000D01*
X159237605Y-141884454D01*
X159064534Y-141812766D01*
X158987182Y-141761081D01*
X158908773Y-141708690D01*
X158776310Y-141576227D01*
X158672235Y-141420467D01*
X158672234Y-141420466D01*
X158600546Y-141247395D01*
X158564000Y-141063667D01*
X158564000Y-140876333D01*
X158600546Y-140692605D01*
X158672234Y-140519534D01*
X158776309Y-140363775D01*
X158776310Y-140363773D01*
X158908773Y-140231310D01*
X159064533Y-140127235D01*
X159064534Y-140127234D01*
X159237605Y-140055546D01*
X159421333Y-140019000D01*
X159608667Y-140019000D01*
X159792395Y-140055546D01*
G37*
G36*
X117882395Y-140055546D02*
G01*
X118055466Y-140127234D01*
X118055467Y-140127235D01*
X118211227Y-140231310D01*
X118343690Y-140363773D01*
X118343691Y-140363775D01*
X118447766Y-140519534D01*
X118519454Y-140692605D01*
X118556000Y-140876333D01*
X118556000Y-141063667D01*
X118519454Y-141247395D01*
X118447766Y-141420466D01*
X118447765Y-141420467D01*
X118343690Y-141576227D01*
X118211227Y-141708690D01*
X118132818Y-141761081D01*
X118055466Y-141812766D01*
X117882395Y-141884454D01*
X117698667Y-141921000D01*
X117511333Y-141921000D01*
X117327605Y-141884454D01*
X117154534Y-141812766D01*
X117077182Y-141761081D01*
X116998773Y-141708690D01*
X116866310Y-141576227D01*
X116762235Y-141420467D01*
X116762234Y-141420466D01*
X116690546Y-141247395D01*
X116654000Y-141063667D01*
X116654000Y-140876333D01*
X116690546Y-140692605D01*
X116762234Y-140519534D01*
X116866309Y-140363775D01*
X116866310Y-140363773D01*
X116998773Y-140231310D01*
X117154533Y-140127235D01*
X117154534Y-140127234D01*
X117327605Y-140055546D01*
X117511333Y-140019000D01*
X117698667Y-140019000D01*
X117882395Y-140055546D01*
G37*
G36*
X106482395Y-140055546D02*
G01*
X106655466Y-140127234D01*
X106655467Y-140127235D01*
X106811227Y-140231310D01*
X106943690Y-140363773D01*
X106943691Y-140363775D01*
X107047766Y-140519534D01*
X107119454Y-140692605D01*
X107156000Y-140876333D01*
X107156000Y-141063667D01*
X107119454Y-141247395D01*
X107047766Y-141420466D01*
X107047765Y-141420467D01*
X106943690Y-141576227D01*
X106811227Y-141708690D01*
X106732818Y-141761081D01*
X106655466Y-141812766D01*
X106482395Y-141884454D01*
X106298667Y-141921000D01*
X106111333Y-141921000D01*
X105927605Y-141884454D01*
X105754534Y-141812766D01*
X105677182Y-141761081D01*
X105598773Y-141708690D01*
X105466310Y-141576227D01*
X105362235Y-141420467D01*
X105362234Y-141420466D01*
X105290546Y-141247395D01*
X105254000Y-141063667D01*
X105254000Y-140876333D01*
X105290546Y-140692605D01*
X105362234Y-140519534D01*
X105466309Y-140363775D01*
X105466310Y-140363773D01*
X105598773Y-140231310D01*
X105754533Y-140127235D01*
X105754534Y-140127234D01*
X105927605Y-140055546D01*
X106111333Y-140019000D01*
X106298667Y-140019000D01*
X106482395Y-140055546D01*
G37*
G36*
X148392395Y-126085546D02*
G01*
X148565466Y-126157234D01*
X148565467Y-126157235D01*
X148721227Y-126261310D01*
X148853690Y-126393773D01*
X148853691Y-126393775D01*
X148957766Y-126549534D01*
X149029454Y-126722605D01*
X149066000Y-126906333D01*
X149066000Y-127093667D01*
X149029454Y-127277395D01*
X148957766Y-127450466D01*
X148957765Y-127450467D01*
X148853690Y-127606227D01*
X148721227Y-127738690D01*
X148642818Y-127791081D01*
X148565466Y-127842766D01*
X148392395Y-127914454D01*
X148208667Y-127951000D01*
X148021333Y-127951000D01*
X147837605Y-127914454D01*
X147664534Y-127842766D01*
X147587182Y-127791081D01*
X147508773Y-127738690D01*
X147376310Y-127606227D01*
X147272235Y-127450467D01*
X147272234Y-127450466D01*
X147200546Y-127277395D01*
X147164000Y-127093667D01*
X147164000Y-126906333D01*
X147200546Y-126722605D01*
X147272234Y-126549534D01*
X147376309Y-126393775D01*
X147376310Y-126393773D01*
X147508773Y-126261310D01*
X147664533Y-126157235D01*
X147664534Y-126157234D01*
X147837605Y-126085546D01*
X148021333Y-126049000D01*
X148208667Y-126049000D01*
X148392395Y-126085546D01*
G37*
G36*
X114782395Y-126085546D02*
G01*
X114955466Y-126157234D01*
X114955467Y-126157235D01*
X115111227Y-126261310D01*
X115243690Y-126393773D01*
X115243691Y-126393775D01*
X115347766Y-126549534D01*
X115419454Y-126722605D01*
X115456000Y-126906333D01*
X115456000Y-127093667D01*
X115419454Y-127277395D01*
X115347766Y-127450466D01*
X115347765Y-127450467D01*
X115243690Y-127606227D01*
X115111227Y-127738690D01*
X115032818Y-127791081D01*
X114955466Y-127842766D01*
X114782395Y-127914454D01*
X114598667Y-127951000D01*
X114411333Y-127951000D01*
X114227605Y-127914454D01*
X114054534Y-127842766D01*
X113977182Y-127791081D01*
X113898773Y-127738690D01*
X113766310Y-127606227D01*
X113662235Y-127450467D01*
X113662234Y-127450466D01*
X113590546Y-127277395D01*
X113554000Y-127093667D01*
X113554000Y-126906333D01*
X113590546Y-126722605D01*
X113662234Y-126549534D01*
X113766309Y-126393775D01*
X113766310Y-126393773D01*
X113898773Y-126261310D01*
X114054533Y-126157235D01*
X114054534Y-126157234D01*
X114227605Y-126085546D01*
X114411333Y-126049000D01*
X114598667Y-126049000D01*
X114782395Y-126085546D01*
G37*
G36*
X117882395Y-126085546D02*
G01*
X118055466Y-126157234D01*
X118055467Y-126157235D01*
X118211227Y-126261310D01*
X118343690Y-126393773D01*
X118343691Y-126393775D01*
X118447766Y-126549534D01*
X118519454Y-126722605D01*
X118556000Y-126906333D01*
X118556000Y-127093667D01*
X118519454Y-127277395D01*
X118447766Y-127450466D01*
X118447765Y-127450467D01*
X118343690Y-127606227D01*
X118211227Y-127738690D01*
X118132818Y-127791081D01*
X118055466Y-127842766D01*
X117882395Y-127914454D01*
X117698667Y-127951000D01*
X117511333Y-127951000D01*
X117327605Y-127914454D01*
X117154534Y-127842766D01*
X117077182Y-127791081D01*
X116998773Y-127738690D01*
X116866310Y-127606227D01*
X116762235Y-127450467D01*
X116762234Y-127450466D01*
X116690546Y-127277395D01*
X116654000Y-127093667D01*
X116654000Y-126906333D01*
X116690546Y-126722605D01*
X116762234Y-126549534D01*
X116866309Y-126393775D01*
X116866310Y-126393773D01*
X116998773Y-126261310D01*
X117154533Y-126157235D01*
X117154534Y-126157234D01*
X117327605Y-126085546D01*
X117511333Y-126049000D01*
X117698667Y-126049000D01*
X117882395Y-126085546D01*
G37*
G36*
X106482395Y-126085546D02*
G01*
X106655466Y-126157234D01*
X106655467Y-126157235D01*
X106811227Y-126261310D01*
X106943690Y-126393773D01*
X106943691Y-126393775D01*
X107047766Y-126549534D01*
X107119454Y-126722605D01*
X107156000Y-126906333D01*
X107156000Y-127093667D01*
X107119454Y-127277395D01*
X107047766Y-127450466D01*
X107047765Y-127450467D01*
X106943690Y-127606227D01*
X106811227Y-127738690D01*
X106732818Y-127791081D01*
X106655466Y-127842766D01*
X106482395Y-127914454D01*
X106298667Y-127951000D01*
X106111333Y-127951000D01*
X105927605Y-127914454D01*
X105754534Y-127842766D01*
X105677182Y-127791081D01*
X105598773Y-127738690D01*
X105466310Y-127606227D01*
X105362235Y-127450467D01*
X105362234Y-127450466D01*
X105290546Y-127277395D01*
X105254000Y-127093667D01*
X105254000Y-126906333D01*
X105290546Y-126722605D01*
X105362234Y-126549534D01*
X105466309Y-126393775D01*
X105466310Y-126393773D01*
X105598773Y-126261310D01*
X105754533Y-126157235D01*
X105754534Y-126157234D01*
X105927605Y-126085546D01*
X106111333Y-126049000D01*
X106298667Y-126049000D01*
X106482395Y-126085546D01*
G37*
G36*
X135737395Y-126085546D02*
G01*
X135910466Y-126157234D01*
X135910467Y-126157235D01*
X136066227Y-126261310D01*
X136198690Y-126393773D01*
X136198691Y-126393775D01*
X136302766Y-126549534D01*
X136374454Y-126722605D01*
X136411000Y-126906333D01*
X136411000Y-127093667D01*
X136374454Y-127277395D01*
X136302766Y-127450466D01*
X136302765Y-127450467D01*
X136198690Y-127606227D01*
X136066227Y-127738690D01*
X135987818Y-127791081D01*
X135910466Y-127842766D01*
X135737395Y-127914454D01*
X135553667Y-127951000D01*
X135366333Y-127951000D01*
X135182605Y-127914454D01*
X135009534Y-127842766D01*
X134932182Y-127791081D01*
X134853773Y-127738690D01*
X134721310Y-127606227D01*
X134617235Y-127450467D01*
X134617234Y-127450466D01*
X134545546Y-127277395D01*
X134509000Y-127093667D01*
X134509000Y-126906333D01*
X134545546Y-126722605D01*
X134617234Y-126549534D01*
X134721309Y-126393775D01*
X134721310Y-126393773D01*
X134853773Y-126261310D01*
X135009533Y-126157235D01*
X135009534Y-126157234D01*
X135182605Y-126085546D01*
X135366333Y-126049000D01*
X135553667Y-126049000D01*
X135737395Y-126085546D01*
G37*
G36*
X138837395Y-126085546D02*
G01*
X139010466Y-126157234D01*
X139010467Y-126157235D01*
X139166227Y-126261310D01*
X139298690Y-126393773D01*
X139298691Y-126393775D01*
X139402766Y-126549534D01*
X139474454Y-126722605D01*
X139511000Y-126906333D01*
X139511000Y-127093667D01*
X139474454Y-127277395D01*
X139402766Y-127450466D01*
X139402765Y-127450467D01*
X139298690Y-127606227D01*
X139166227Y-127738690D01*
X139087818Y-127791081D01*
X139010466Y-127842766D01*
X138837395Y-127914454D01*
X138653667Y-127951000D01*
X138466333Y-127951000D01*
X138282605Y-127914454D01*
X138109534Y-127842766D01*
X138032182Y-127791081D01*
X137953773Y-127738690D01*
X137821310Y-127606227D01*
X137717235Y-127450467D01*
X137717234Y-127450466D01*
X137645546Y-127277395D01*
X137609000Y-127093667D01*
X137609000Y-126906333D01*
X137645546Y-126722605D01*
X137717234Y-126549534D01*
X137821309Y-126393775D01*
X137821310Y-126393773D01*
X137953773Y-126261310D01*
X138109533Y-126157235D01*
X138109534Y-126157234D01*
X138282605Y-126085546D01*
X138466333Y-126049000D01*
X138653667Y-126049000D01*
X138837395Y-126085546D01*
G37*
G36*
X127437395Y-126085546D02*
G01*
X127610466Y-126157234D01*
X127610467Y-126157235D01*
X127766227Y-126261310D01*
X127898690Y-126393773D01*
X127898691Y-126393775D01*
X128002766Y-126549534D01*
X128074454Y-126722605D01*
X128111000Y-126906333D01*
X128111000Y-127093667D01*
X128074454Y-127277395D01*
X128002766Y-127450466D01*
X128002765Y-127450467D01*
X127898690Y-127606227D01*
X127766227Y-127738690D01*
X127687818Y-127791081D01*
X127610466Y-127842766D01*
X127437395Y-127914454D01*
X127253667Y-127951000D01*
X127066333Y-127951000D01*
X126882605Y-127914454D01*
X126709534Y-127842766D01*
X126632182Y-127791081D01*
X126553773Y-127738690D01*
X126421310Y-127606227D01*
X126317235Y-127450467D01*
X126317234Y-127450466D01*
X126245546Y-127277395D01*
X126209000Y-127093667D01*
X126209000Y-126906333D01*
X126245546Y-126722605D01*
X126317234Y-126549534D01*
X126421309Y-126393775D01*
X126421310Y-126393773D01*
X126553773Y-126261310D01*
X126709533Y-126157235D01*
X126709534Y-126157234D01*
X126882605Y-126085546D01*
X127066333Y-126049000D01*
X127253667Y-126049000D01*
X127437395Y-126085546D01*
G37*
G36*
X156692395Y-126085546D02*
G01*
X156865466Y-126157234D01*
X156865467Y-126157235D01*
X157021227Y-126261310D01*
X157153690Y-126393773D01*
X157153691Y-126393775D01*
X157257766Y-126549534D01*
X157329454Y-126722605D01*
X157366000Y-126906333D01*
X157366000Y-127093667D01*
X157329454Y-127277395D01*
X157257766Y-127450466D01*
X157257765Y-127450467D01*
X157153690Y-127606227D01*
X157021227Y-127738690D01*
X156942818Y-127791081D01*
X156865466Y-127842766D01*
X156692395Y-127914454D01*
X156508667Y-127951000D01*
X156321333Y-127951000D01*
X156137605Y-127914454D01*
X155964534Y-127842766D01*
X155887182Y-127791081D01*
X155808773Y-127738690D01*
X155676310Y-127606227D01*
X155572235Y-127450467D01*
X155572234Y-127450466D01*
X155500546Y-127277395D01*
X155464000Y-127093667D01*
X155464000Y-126906333D01*
X155500546Y-126722605D01*
X155572234Y-126549534D01*
X155676309Y-126393775D01*
X155676310Y-126393773D01*
X155808773Y-126261310D01*
X155964533Y-126157235D01*
X155964534Y-126157234D01*
X156137605Y-126085546D01*
X156321333Y-126049000D01*
X156508667Y-126049000D01*
X156692395Y-126085546D01*
G37*
G36*
X159792395Y-126085546D02*
G01*
X159965466Y-126157234D01*
X159965467Y-126157235D01*
X160121227Y-126261310D01*
X160253690Y-126393773D01*
X160253691Y-126393775D01*
X160357766Y-126549534D01*
X160429454Y-126722605D01*
X160466000Y-126906333D01*
X160466000Y-127093667D01*
X160429454Y-127277395D01*
X160357766Y-127450466D01*
X160357765Y-127450467D01*
X160253690Y-127606227D01*
X160121227Y-127738690D01*
X160042818Y-127791081D01*
X159965466Y-127842766D01*
X159792395Y-127914454D01*
X159608667Y-127951000D01*
X159421333Y-127951000D01*
X159237605Y-127914454D01*
X159064534Y-127842766D01*
X158987182Y-127791081D01*
X158908773Y-127738690D01*
X158776310Y-127606227D01*
X158672235Y-127450467D01*
X158672234Y-127450466D01*
X158600546Y-127277395D01*
X158564000Y-127093667D01*
X158564000Y-126906333D01*
X158600546Y-126722605D01*
X158672234Y-126549534D01*
X158776309Y-126393775D01*
X158776310Y-126393773D01*
X158908773Y-126261310D01*
X159064533Y-126157235D01*
X159064534Y-126157234D01*
X159237605Y-126085546D01*
X159421333Y-126049000D01*
X159608667Y-126049000D01*
X159792395Y-126085546D01*
G37*
G36*
X105523512Y-118483927D02*
G01*
X105672812Y-118513624D01*
X105836784Y-118581544D01*
X105984354Y-118680147D01*
X106109853Y-118805646D01*
X106208456Y-118953216D01*
X106276376Y-119117188D01*
X106311000Y-119291259D01*
X106311000Y-119468741D01*
X106276376Y-119642812D01*
X106208456Y-119806784D01*
X106109853Y-119954354D01*
X105984354Y-120079853D01*
X105836784Y-120178456D01*
X105672812Y-120246376D01*
X105523512Y-120276073D01*
X105498742Y-120281000D01*
X105321258Y-120281000D01*
X105296488Y-120276073D01*
X105147188Y-120246376D01*
X104983216Y-120178456D01*
X104835646Y-120079853D01*
X104710147Y-119954354D01*
X104611544Y-119806784D01*
X104543624Y-119642812D01*
X104509000Y-119468741D01*
X104509000Y-119291259D01*
X104543624Y-119117188D01*
X104611544Y-118953216D01*
X104710147Y-118805646D01*
X104835646Y-118680147D01*
X104983216Y-118581544D01*
X105147188Y-118513624D01*
X105296488Y-118483927D01*
X105321258Y-118479000D01*
X105498742Y-118479000D01*
X105523512Y-118483927D01*
G37*
G36*
X158863512Y-118483927D02*
G01*
X159012812Y-118513624D01*
X159176784Y-118581544D01*
X159324354Y-118680147D01*
X159449853Y-118805646D01*
X159548456Y-118953216D01*
X159616376Y-119117188D01*
X159651000Y-119291259D01*
X159651000Y-119468741D01*
X159616376Y-119642812D01*
X159548456Y-119806784D01*
X159449853Y-119954354D01*
X159324354Y-120079853D01*
X159176784Y-120178456D01*
X159012812Y-120246376D01*
X158863512Y-120276073D01*
X158838742Y-120281000D01*
X158661258Y-120281000D01*
X158636488Y-120276073D01*
X158487188Y-120246376D01*
X158323216Y-120178456D01*
X158175646Y-120079853D01*
X158050147Y-119954354D01*
X157951544Y-119806784D01*
X157883624Y-119642812D01*
X157849000Y-119468741D01*
X157849000Y-119291259D01*
X157883624Y-119117188D01*
X157951544Y-118953216D01*
X158050147Y-118805646D01*
X158175646Y-118680147D01*
X158323216Y-118581544D01*
X158487188Y-118513624D01*
X158636488Y-118483927D01*
X158661258Y-118479000D01*
X158838742Y-118479000D01*
X158863512Y-118483927D01*
G37*
G36*
X158863512Y-115943927D02*
G01*
X159012812Y-115973624D01*
X159176784Y-116041544D01*
X159324354Y-116140147D01*
X159449853Y-116265646D01*
X159548456Y-116413216D01*
X159616376Y-116577188D01*
X159651000Y-116751259D01*
X159651000Y-116928741D01*
X159616376Y-117102812D01*
X159548456Y-117266784D01*
X159449853Y-117414354D01*
X159324354Y-117539853D01*
X159176784Y-117638456D01*
X159012812Y-117706376D01*
X158863512Y-117736073D01*
X158838742Y-117741000D01*
X158661258Y-117741000D01*
X158636488Y-117736073D01*
X158487188Y-117706376D01*
X158323216Y-117638456D01*
X158175646Y-117539853D01*
X158050147Y-117414354D01*
X157951544Y-117266784D01*
X157883624Y-117102812D01*
X157849000Y-116928741D01*
X157849000Y-116751259D01*
X157883624Y-116577188D01*
X157951544Y-116413216D01*
X158050147Y-116265646D01*
X158175646Y-116140147D01*
X158323216Y-116041544D01*
X158487188Y-115973624D01*
X158636488Y-115943927D01*
X158661258Y-115939000D01*
X158838742Y-115939000D01*
X158863512Y-115943927D01*
G37*
G36*
X105523512Y-115943927D02*
G01*
X105672812Y-115973624D01*
X105836784Y-116041544D01*
X105984354Y-116140147D01*
X106109853Y-116265646D01*
X106208456Y-116413216D01*
X106276376Y-116577188D01*
X106311000Y-116751259D01*
X106311000Y-116928741D01*
X106276376Y-117102812D01*
X106208456Y-117266784D01*
X106109853Y-117414354D01*
X105984354Y-117539853D01*
X105836784Y-117638456D01*
X105672812Y-117706376D01*
X105523512Y-117736073D01*
X105498742Y-117741000D01*
X105321258Y-117741000D01*
X105296488Y-117736073D01*
X105147188Y-117706376D01*
X104983216Y-117638456D01*
X104835646Y-117539853D01*
X104710147Y-117414354D01*
X104611544Y-117266784D01*
X104543624Y-117102812D01*
X104509000Y-116928741D01*
X104509000Y-116751259D01*
X104543624Y-116577188D01*
X104611544Y-116413216D01*
X104710147Y-116265646D01*
X104835646Y-116140147D01*
X104983216Y-116041544D01*
X105147188Y-115973624D01*
X105296488Y-115943927D01*
X105321258Y-115939000D01*
X105498742Y-115939000D01*
X105523512Y-115943927D01*
G37*
G36*
X105523512Y-113403927D02*
G01*
X105672812Y-113433624D01*
X105836784Y-113501544D01*
X105984354Y-113600147D01*
X106109853Y-113725646D01*
X106208456Y-113873216D01*
X106276376Y-114037188D01*
X106311000Y-114211259D01*
X106311000Y-114388741D01*
X106276376Y-114562812D01*
X106208456Y-114726784D01*
X106109853Y-114874354D01*
X105984354Y-114999853D01*
X105836784Y-115098456D01*
X105672812Y-115166376D01*
X105523512Y-115196073D01*
X105498742Y-115201000D01*
X105321258Y-115201000D01*
X105296488Y-115196073D01*
X105147188Y-115166376D01*
X104983216Y-115098456D01*
X104835646Y-114999853D01*
X104710147Y-114874354D01*
X104611544Y-114726784D01*
X104543624Y-114562812D01*
X104509000Y-114388741D01*
X104509000Y-114211259D01*
X104543624Y-114037188D01*
X104611544Y-113873216D01*
X104710147Y-113725646D01*
X104835646Y-113600147D01*
X104983216Y-113501544D01*
X105147188Y-113433624D01*
X105296488Y-113403927D01*
X105321258Y-113399000D01*
X105498742Y-113399000D01*
X105523512Y-113403927D01*
G37*
G36*
X158863512Y-113403927D02*
G01*
X159012812Y-113433624D01*
X159176784Y-113501544D01*
X159324354Y-113600147D01*
X159449853Y-113725646D01*
X159548456Y-113873216D01*
X159616376Y-114037188D01*
X159651000Y-114211259D01*
X159651000Y-114388741D01*
X159616376Y-114562812D01*
X159548456Y-114726784D01*
X159449853Y-114874354D01*
X159324354Y-114999853D01*
X159176784Y-115098456D01*
X159012812Y-115166376D01*
X158863512Y-115196073D01*
X158838742Y-115201000D01*
X158661258Y-115201000D01*
X158636488Y-115196073D01*
X158487188Y-115166376D01*
X158323216Y-115098456D01*
X158175646Y-114999853D01*
X158050147Y-114874354D01*
X157951544Y-114726784D01*
X157883624Y-114562812D01*
X157849000Y-114388741D01*
X157849000Y-114211259D01*
X157883624Y-114037188D01*
X157951544Y-113873216D01*
X158050147Y-113725646D01*
X158175646Y-113600147D01*
X158323216Y-113501544D01*
X158487188Y-113433624D01*
X158636488Y-113403927D01*
X158661258Y-113399000D01*
X158838742Y-113399000D01*
X158863512Y-113403927D01*
G37*
G36*
X105523512Y-110863927D02*
G01*
X105672812Y-110893624D01*
X105836784Y-110961544D01*
X105984354Y-111060147D01*
X106109853Y-111185646D01*
X106208456Y-111333216D01*
X106276376Y-111497188D01*
X106311000Y-111671259D01*
X106311000Y-111848741D01*
X106276376Y-112022812D01*
X106208456Y-112186784D01*
X106109853Y-112334354D01*
X105984354Y-112459853D01*
X105836784Y-112558456D01*
X105672812Y-112626376D01*
X105523512Y-112656073D01*
X105498742Y-112661000D01*
X105321258Y-112661000D01*
X105296488Y-112656073D01*
X105147188Y-112626376D01*
X104983216Y-112558456D01*
X104835646Y-112459853D01*
X104710147Y-112334354D01*
X104611544Y-112186784D01*
X104543624Y-112022812D01*
X104509000Y-111848741D01*
X104509000Y-111671259D01*
X104543624Y-111497188D01*
X104611544Y-111333216D01*
X104710147Y-111185646D01*
X104835646Y-111060147D01*
X104983216Y-110961544D01*
X105147188Y-110893624D01*
X105296488Y-110863927D01*
X105321258Y-110859000D01*
X105498742Y-110859000D01*
X105523512Y-110863927D01*
G37*
G36*
X159651000Y-112661000D02*
G01*
X157849000Y-112661000D01*
X157849000Y-110859000D01*
X159651000Y-110859000D01*
X159651000Y-112661000D01*
G37*
G36*
X105523512Y-108323927D02*
G01*
X105672812Y-108353624D01*
X105836784Y-108421544D01*
X105984354Y-108520147D01*
X106109853Y-108645646D01*
X106208456Y-108793216D01*
X106276376Y-108957188D01*
X106311000Y-109131259D01*
X106311000Y-109308741D01*
X106276376Y-109482812D01*
X106208456Y-109646784D01*
X106109853Y-109794354D01*
X105984354Y-109919853D01*
X105836784Y-110018456D01*
X105672812Y-110086376D01*
X105523512Y-110116073D01*
X105498742Y-110121000D01*
X105321258Y-110121000D01*
X105296488Y-110116073D01*
X105147188Y-110086376D01*
X104983216Y-110018456D01*
X104835646Y-109919853D01*
X104710147Y-109794354D01*
X104611544Y-109646784D01*
X104543624Y-109482812D01*
X104509000Y-109308741D01*
X104509000Y-109131259D01*
X104543624Y-108957188D01*
X104611544Y-108793216D01*
X104710147Y-108645646D01*
X104835646Y-108520147D01*
X104983216Y-108421544D01*
X105147188Y-108353624D01*
X105296488Y-108323927D01*
X105321258Y-108319000D01*
X105498742Y-108319000D01*
X105523512Y-108323927D01*
G37*
G36*
X105523512Y-105783927D02*
G01*
X105672812Y-105813624D01*
X105836784Y-105881544D01*
X105984354Y-105980147D01*
X106109853Y-106105646D01*
X106208456Y-106253216D01*
X106276376Y-106417188D01*
X106311000Y-106591259D01*
X106311000Y-106768741D01*
X106276376Y-106942812D01*
X106208456Y-107106784D01*
X106109853Y-107254354D01*
X105984354Y-107379853D01*
X105836784Y-107478456D01*
X105672812Y-107546376D01*
X105523512Y-107576073D01*
X105498742Y-107581000D01*
X105321258Y-107581000D01*
X105296488Y-107576073D01*
X105147188Y-107546376D01*
X104983216Y-107478456D01*
X104835646Y-107379853D01*
X104710147Y-107254354D01*
X104611544Y-107106784D01*
X104543624Y-106942812D01*
X104509000Y-106768741D01*
X104509000Y-106591259D01*
X104543624Y-106417188D01*
X104611544Y-106253216D01*
X104710147Y-106105646D01*
X104835646Y-105980147D01*
X104983216Y-105881544D01*
X105147188Y-105813624D01*
X105296488Y-105783927D01*
X105321258Y-105779000D01*
X105498742Y-105779000D01*
X105523512Y-105783927D01*
G37*
G36*
X117077395Y-103225546D02*
G01*
X117250466Y-103297234D01*
X117250467Y-103297235D01*
X117406227Y-103401310D01*
X117538690Y-103533773D01*
X117538691Y-103533775D01*
X117642766Y-103689534D01*
X117714454Y-103862605D01*
X117751000Y-104046333D01*
X117751000Y-104233667D01*
X117714454Y-104417395D01*
X117642766Y-104590466D01*
X117642765Y-104590467D01*
X117538690Y-104746227D01*
X117406227Y-104878690D01*
X117327818Y-104931081D01*
X117250466Y-104982766D01*
X117077395Y-105054454D01*
X116893667Y-105091000D01*
X116706333Y-105091000D01*
X116522605Y-105054454D01*
X116349534Y-104982766D01*
X116272182Y-104931081D01*
X116193773Y-104878690D01*
X116061310Y-104746227D01*
X115957235Y-104590467D01*
X115957234Y-104590466D01*
X115885546Y-104417395D01*
X115849000Y-104233667D01*
X115849000Y-104046333D01*
X115885546Y-103862605D01*
X115957234Y-103689534D01*
X116061309Y-103533775D01*
X116061310Y-103533773D01*
X116193773Y-103401310D01*
X116349533Y-103297235D01*
X116349534Y-103297234D01*
X116522605Y-103225546D01*
X116706333Y-103189000D01*
X116893667Y-103189000D01*
X117077395Y-103225546D01*
G37*
G36*
X148271000Y-105091000D02*
G01*
X146369000Y-105091000D01*
X146369000Y-103189000D01*
X148271000Y-103189000D01*
X148271000Y-105091000D01*
G37*
G36*
X150097395Y-103225546D02*
G01*
X150270466Y-103297234D01*
X150270467Y-103297235D01*
X150426227Y-103401310D01*
X150558690Y-103533773D01*
X150558691Y-103533775D01*
X150662766Y-103689534D01*
X150734454Y-103862605D01*
X150771000Y-104046333D01*
X150771000Y-104233667D01*
X150734454Y-104417395D01*
X150662766Y-104590466D01*
X150662765Y-104590467D01*
X150558690Y-104746227D01*
X150426227Y-104878690D01*
X150347818Y-104931081D01*
X150270466Y-104982766D01*
X150097395Y-105054454D01*
X149913667Y-105091000D01*
X149726333Y-105091000D01*
X149542605Y-105054454D01*
X149369534Y-104982766D01*
X149292182Y-104931081D01*
X149213773Y-104878690D01*
X149081310Y-104746227D01*
X148977235Y-104590467D01*
X148977234Y-104590466D01*
X148905546Y-104417395D01*
X148869000Y-104233667D01*
X148869000Y-104046333D01*
X148905546Y-103862605D01*
X148977234Y-103689534D01*
X149081309Y-103533775D01*
X149081310Y-103533773D01*
X149213773Y-103401310D01*
X149369533Y-103297235D01*
X149369534Y-103297234D01*
X149542605Y-103225546D01*
X149726333Y-103189000D01*
X149913667Y-103189000D01*
X150097395Y-103225546D01*
G37*
G36*
X152597395Y-103225546D02*
G01*
X152770466Y-103297234D01*
X152770467Y-103297235D01*
X152926227Y-103401310D01*
X153058690Y-103533773D01*
X153058691Y-103533775D01*
X153162766Y-103689534D01*
X153234454Y-103862605D01*
X153271000Y-104046333D01*
X153271000Y-104233667D01*
X153234454Y-104417395D01*
X153162766Y-104590466D01*
X153162765Y-104590467D01*
X153058690Y-104746227D01*
X152926227Y-104878690D01*
X152847818Y-104931081D01*
X152770466Y-104982766D01*
X152597395Y-105054454D01*
X152413667Y-105091000D01*
X152226333Y-105091000D01*
X152042605Y-105054454D01*
X151869534Y-104982766D01*
X151792182Y-104931081D01*
X151713773Y-104878690D01*
X151581310Y-104746227D01*
X151477235Y-104590467D01*
X151477234Y-104590466D01*
X151405546Y-104417395D01*
X151369000Y-104233667D01*
X151369000Y-104046333D01*
X151405546Y-103862605D01*
X151477234Y-103689534D01*
X151581309Y-103533775D01*
X151581310Y-103533773D01*
X151713773Y-103401310D01*
X151869533Y-103297235D01*
X151869534Y-103297234D01*
X152042605Y-103225546D01*
X152226333Y-103189000D01*
X152413667Y-103189000D01*
X152597395Y-103225546D01*
G37*
G36*
X114577395Y-103225546D02*
G01*
X114750466Y-103297234D01*
X114750467Y-103297235D01*
X114906227Y-103401310D01*
X115038690Y-103533773D01*
X115038691Y-103533775D01*
X115142766Y-103689534D01*
X115214454Y-103862605D01*
X115251000Y-104046333D01*
X115251000Y-104233667D01*
X115214454Y-104417395D01*
X115142766Y-104590466D01*
X115142765Y-104590467D01*
X115038690Y-104746227D01*
X114906227Y-104878690D01*
X114827818Y-104931081D01*
X114750466Y-104982766D01*
X114577395Y-105054454D01*
X114393667Y-105091000D01*
X114206333Y-105091000D01*
X114022605Y-105054454D01*
X113849534Y-104982766D01*
X113772182Y-104931081D01*
X113693773Y-104878690D01*
X113561310Y-104746227D01*
X113457235Y-104590467D01*
X113457234Y-104590466D01*
X113385546Y-104417395D01*
X113349000Y-104233667D01*
X113349000Y-104046333D01*
X113385546Y-103862605D01*
X113457234Y-103689534D01*
X113561309Y-103533775D01*
X113561310Y-103533773D01*
X113693773Y-103401310D01*
X113849533Y-103297235D01*
X113849534Y-103297234D01*
X114022605Y-103225546D01*
X114206333Y-103189000D01*
X114393667Y-103189000D01*
X114577395Y-103225546D01*
G37*
G36*
X112751000Y-105091000D02*
G01*
X110849000Y-105091000D01*
X110849000Y-103189000D01*
X112751000Y-103189000D01*
X112751000Y-105091000D01*
G37*
G36*
X105523512Y-103243927D02*
G01*
X105672812Y-103273624D01*
X105836784Y-103341544D01*
X105984354Y-103440147D01*
X106109853Y-103565646D01*
X106208456Y-103713216D01*
X106276376Y-103877188D01*
X106311000Y-104051259D01*
X106311000Y-104228741D01*
X106276376Y-104402812D01*
X106208456Y-104566784D01*
X106109853Y-104714354D01*
X105984354Y-104839853D01*
X105836784Y-104938456D01*
X105672812Y-105006376D01*
X105523512Y-105036073D01*
X105498742Y-105041000D01*
X105321258Y-105041000D01*
X105296488Y-105036073D01*
X105147188Y-105006376D01*
X104983216Y-104938456D01*
X104835646Y-104839853D01*
X104710147Y-104714354D01*
X104611544Y-104566784D01*
X104543624Y-104402812D01*
X104509000Y-104228741D01*
X104509000Y-104051259D01*
X104543624Y-103877188D01*
X104611544Y-103713216D01*
X104710147Y-103565646D01*
X104835646Y-103440147D01*
X104983216Y-103341544D01*
X105147188Y-103273624D01*
X105296488Y-103243927D01*
X105321258Y-103239000D01*
X105498742Y-103239000D01*
X105523512Y-103243927D01*
G37*
G36*
X106311000Y-102501000D02*
G01*
X104509000Y-102501000D01*
X104509000Y-100699000D01*
X106311000Y-100699000D01*
X106311000Y-102501000D01*
G37*
G36*
X109987412Y-95033215D02*
G01*
X110291514Y-95159178D01*
X110565199Y-95342049D01*
X110797951Y-95574801D01*
X110980822Y-95848486D01*
X111106785Y-96152588D01*
X111171000Y-96475420D01*
X111171000Y-96804580D01*
X111106785Y-97127412D01*
X110980822Y-97431514D01*
X110797951Y-97705199D01*
X110565199Y-97937951D01*
X110291514Y-98120822D01*
X109987412Y-98246785D01*
X109664580Y-98311000D01*
X109335420Y-98311000D01*
X109012588Y-98246785D01*
X108708486Y-98120822D01*
X108434801Y-97937951D01*
X108202049Y-97705199D01*
X108019178Y-97431514D01*
X107893215Y-97127412D01*
X107829000Y-96804580D01*
X107829000Y-96475420D01*
X107893215Y-96152588D01*
X108019178Y-95848486D01*
X108202049Y-95574801D01*
X108434801Y-95342049D01*
X108708486Y-95159178D01*
X109012588Y-95033215D01*
X109335420Y-94969000D01*
X109664580Y-94969000D01*
X109987412Y-95033215D01*
G37*
G36*
X145507412Y-95033215D02*
G01*
X145811514Y-95159178D01*
X146085199Y-95342049D01*
X146317951Y-95574801D01*
X146500822Y-95848486D01*
X146626785Y-96152588D01*
X146691000Y-96475420D01*
X146691000Y-96804580D01*
X146626785Y-97127412D01*
X146500822Y-97431514D01*
X146317951Y-97705199D01*
X146085199Y-97937951D01*
X145811514Y-98120822D01*
X145507412Y-98246785D01*
X145184580Y-98311000D01*
X144855420Y-98311000D01*
X144532588Y-98246785D01*
X144228486Y-98120822D01*
X143954801Y-97937951D01*
X143722049Y-97705199D01*
X143539178Y-97431514D01*
X143413215Y-97127412D01*
X143349000Y-96804580D01*
X143349000Y-96475420D01*
X143413215Y-96152588D01*
X143539178Y-95848486D01*
X143722049Y-95574801D01*
X143954801Y-95342049D01*
X144228486Y-95159178D01*
X144532588Y-95033215D01*
X144855420Y-94969000D01*
X145184580Y-94969000D01*
X145507412Y-95033215D01*
G37*
G36*
X155107412Y-95033215D02*
G01*
X155411514Y-95159178D01*
X155685199Y-95342049D01*
X155917951Y-95574801D01*
X156100822Y-95848486D01*
X156226785Y-96152588D01*
X156291000Y-96475420D01*
X156291000Y-96804580D01*
X156226785Y-97127412D01*
X156100822Y-97431514D01*
X155917951Y-97705199D01*
X155685199Y-97937951D01*
X155411514Y-98120822D01*
X155107412Y-98246785D01*
X154784580Y-98311000D01*
X154455420Y-98311000D01*
X154132588Y-98246785D01*
X153828486Y-98120822D01*
X153554801Y-97937951D01*
X153322049Y-97705199D01*
X153139178Y-97431514D01*
X153013215Y-97127412D01*
X152949000Y-96804580D01*
X152949000Y-96475420D01*
X153013215Y-96152588D01*
X153139178Y-95848486D01*
X153322049Y-95574801D01*
X153554801Y-95342049D01*
X153828486Y-95159178D01*
X154132588Y-95033215D01*
X154455420Y-94969000D01*
X154784580Y-94969000D01*
X155107412Y-95033215D01*
G37*
G36*
X119587412Y-95033215D02*
G01*
X119891514Y-95159178D01*
X120165199Y-95342049D01*
X120397951Y-95574801D01*
X120580822Y-95848486D01*
X120706785Y-96152588D01*
X120771000Y-96475420D01*
X120771000Y-96804580D01*
X120706785Y-97127412D01*
X120580822Y-97431514D01*
X120397951Y-97705199D01*
X120165199Y-97937951D01*
X119891514Y-98120822D01*
X119587412Y-98246785D01*
X119264580Y-98311000D01*
X118935420Y-98311000D01*
X118612588Y-98246785D01*
X118308486Y-98120822D01*
X118034801Y-97937951D01*
X117802049Y-97705199D01*
X117619178Y-97431514D01*
X117493215Y-97127412D01*
X117429000Y-96804580D01*
X117429000Y-96475420D01*
X117493215Y-96152588D01*
X117619178Y-95848486D01*
X117802049Y-95574801D01*
X118034801Y-95342049D01*
X118308486Y-95159178D01*
X118612588Y-95033215D01*
X118935420Y-94969000D01*
X119264580Y-94969000D01*
X119587412Y-95033215D01*
G37*
G36*
X105523512Y-80383927D02*
G01*
X105672812Y-80413624D01*
X105836784Y-80481544D01*
X105984354Y-80580147D01*
X106109853Y-80705646D01*
X106208456Y-80853216D01*
X106276376Y-81017188D01*
X106311000Y-81191259D01*
X106311000Y-81368741D01*
X106276376Y-81542812D01*
X106208456Y-81706784D01*
X106109853Y-81854354D01*
X105984354Y-81979853D01*
X105836784Y-82078456D01*
X105672812Y-82146376D01*
X105523512Y-82176073D01*
X105498742Y-82181000D01*
X105321258Y-82181000D01*
X105296488Y-82176073D01*
X105147188Y-82146376D01*
X104983216Y-82078456D01*
X104835646Y-81979853D01*
X104710147Y-81854354D01*
X104611544Y-81706784D01*
X104543624Y-81542812D01*
X104509000Y-81368741D01*
X104509000Y-81191259D01*
X104543624Y-81017188D01*
X104611544Y-80853216D01*
X104710147Y-80705646D01*
X104835646Y-80580147D01*
X104983216Y-80481544D01*
X105147188Y-80413624D01*
X105296488Y-80383927D01*
X105321258Y-80379000D01*
X105498742Y-80379000D01*
X105523512Y-80383927D01*
G37*
G36*
X158863512Y-80383927D02*
G01*
X159012812Y-80413624D01*
X159176784Y-80481544D01*
X159324354Y-80580147D01*
X159449853Y-80705646D01*
X159548456Y-80853216D01*
X159616376Y-81017188D01*
X159651000Y-81191259D01*
X159651000Y-81368741D01*
X159616376Y-81542812D01*
X159548456Y-81706784D01*
X159449853Y-81854354D01*
X159324354Y-81979853D01*
X159176784Y-82078456D01*
X159012812Y-82146376D01*
X158863512Y-82176073D01*
X158838742Y-82181000D01*
X158661258Y-82181000D01*
X158636488Y-82176073D01*
X158487188Y-82146376D01*
X158323216Y-82078456D01*
X158175646Y-81979853D01*
X158050147Y-81854354D01*
X157951544Y-81706784D01*
X157883624Y-81542812D01*
X157849000Y-81368741D01*
X157849000Y-81191259D01*
X157883624Y-81017188D01*
X157951544Y-80853216D01*
X158050147Y-80705646D01*
X158175646Y-80580147D01*
X158323216Y-80481544D01*
X158487188Y-80413624D01*
X158636488Y-80383927D01*
X158661258Y-80379000D01*
X158838742Y-80379000D01*
X158863512Y-80383927D01*
G37*
G36*
X105523512Y-77843927D02*
G01*
X105672812Y-77873624D01*
X105836784Y-77941544D01*
X105984354Y-78040147D01*
X106109853Y-78165646D01*
X106208456Y-78313216D01*
X106276376Y-78477188D01*
X106311000Y-78651259D01*
X106311000Y-78828741D01*
X106276376Y-79002812D01*
X106208456Y-79166784D01*
X106109853Y-79314354D01*
X105984354Y-79439853D01*
X105836784Y-79538456D01*
X105672812Y-79606376D01*
X105523512Y-79636073D01*
X105498742Y-79641000D01*
X105321258Y-79641000D01*
X105296488Y-79636073D01*
X105147188Y-79606376D01*
X104983216Y-79538456D01*
X104835646Y-79439853D01*
X104710147Y-79314354D01*
X104611544Y-79166784D01*
X104543624Y-79002812D01*
X104509000Y-78828741D01*
X104509000Y-78651259D01*
X104543624Y-78477188D01*
X104611544Y-78313216D01*
X104710147Y-78165646D01*
X104835646Y-78040147D01*
X104983216Y-77941544D01*
X105147188Y-77873624D01*
X105296488Y-77843927D01*
X105321258Y-77839000D01*
X105498742Y-77839000D01*
X105523512Y-77843927D01*
G37*
G36*
X158863512Y-77843927D02*
G01*
X159012812Y-77873624D01*
X159176784Y-77941544D01*
X159324354Y-78040147D01*
X159449853Y-78165646D01*
X159548456Y-78313216D01*
X159616376Y-78477188D01*
X159651000Y-78651259D01*
X159651000Y-78828741D01*
X159616376Y-79002812D01*
X159548456Y-79166784D01*
X159449853Y-79314354D01*
X159324354Y-79439853D01*
X159176784Y-79538456D01*
X159012812Y-79606376D01*
X158863512Y-79636073D01*
X158838742Y-79641000D01*
X158661258Y-79641000D01*
X158636488Y-79636073D01*
X158487188Y-79606376D01*
X158323216Y-79538456D01*
X158175646Y-79439853D01*
X158050147Y-79314354D01*
X157951544Y-79166784D01*
X157883624Y-79002812D01*
X157849000Y-78828741D01*
X157849000Y-78651259D01*
X157883624Y-78477188D01*
X157951544Y-78313216D01*
X158050147Y-78165646D01*
X158175646Y-78040147D01*
X158323216Y-77941544D01*
X158487188Y-77873624D01*
X158636488Y-77843927D01*
X158661258Y-77839000D01*
X158838742Y-77839000D01*
X158863512Y-77843927D01*
G37*
G36*
X158863512Y-75303927D02*
G01*
X159012812Y-75333624D01*
X159176784Y-75401544D01*
X159324354Y-75500147D01*
X159449853Y-75625646D01*
X159548456Y-75773216D01*
X159616376Y-75937188D01*
X159651000Y-76111259D01*
X159651000Y-76288741D01*
X159616376Y-76462812D01*
X159548456Y-76626784D01*
X159449853Y-76774354D01*
X159324354Y-76899853D01*
X159176784Y-76998456D01*
X159012812Y-77066376D01*
X158863512Y-77096073D01*
X158838742Y-77101000D01*
X158661258Y-77101000D01*
X158636488Y-77096073D01*
X158487188Y-77066376D01*
X158323216Y-76998456D01*
X158175646Y-76899853D01*
X158050147Y-76774354D01*
X157951544Y-76626784D01*
X157883624Y-76462812D01*
X157849000Y-76288741D01*
X157849000Y-76111259D01*
X157883624Y-75937188D01*
X157951544Y-75773216D01*
X158050147Y-75625646D01*
X158175646Y-75500147D01*
X158323216Y-75401544D01*
X158487188Y-75333624D01*
X158636488Y-75303927D01*
X158661258Y-75299000D01*
X158838742Y-75299000D01*
X158863512Y-75303927D01*
G37*
G36*
X105523512Y-75303927D02*
G01*
X105672812Y-75333624D01*
X105836784Y-75401544D01*
X105984354Y-75500147D01*
X106109853Y-75625646D01*
X106208456Y-75773216D01*
X106276376Y-75937188D01*
X106311000Y-76111259D01*
X106311000Y-76288741D01*
X106276376Y-76462812D01*
X106208456Y-76626784D01*
X106109853Y-76774354D01*
X105984354Y-76899853D01*
X105836784Y-76998456D01*
X105672812Y-77066376D01*
X105523512Y-77096073D01*
X105498742Y-77101000D01*
X105321258Y-77101000D01*
X105296488Y-77096073D01*
X105147188Y-77066376D01*
X104983216Y-76998456D01*
X104835646Y-76899853D01*
X104710147Y-76774354D01*
X104611544Y-76626784D01*
X104543624Y-76462812D01*
X104509000Y-76288741D01*
X104509000Y-76111259D01*
X104543624Y-75937188D01*
X104611544Y-75773216D01*
X104710147Y-75625646D01*
X104835646Y-75500147D01*
X104983216Y-75401544D01*
X105147188Y-75333624D01*
X105296488Y-75303927D01*
X105321258Y-75299000D01*
X105498742Y-75299000D01*
X105523512Y-75303927D01*
G37*
G36*
X106311000Y-74561000D02*
G01*
X104509000Y-74561000D01*
X104509000Y-72759000D01*
X106311000Y-72759000D01*
X106311000Y-74561000D01*
G37*
G36*
X159651000Y-74561000D02*
G01*
X157849000Y-74561000D01*
X157849000Y-72759000D01*
X159651000Y-72759000D01*
X159651000Y-74561000D01*
G37*
G36*
X117077395Y-65125546D02*
G01*
X117250466Y-65197234D01*
X117250467Y-65197235D01*
X117406227Y-65301310D01*
X117538690Y-65433773D01*
X117538691Y-65433775D01*
X117642766Y-65589534D01*
X117714454Y-65762605D01*
X117751000Y-65946333D01*
X117751000Y-66133667D01*
X117714454Y-66317395D01*
X117642766Y-66490466D01*
X117642765Y-66490467D01*
X117538690Y-66646227D01*
X117406227Y-66778690D01*
X117327818Y-66831081D01*
X117250466Y-66882766D01*
X117077395Y-66954454D01*
X116893667Y-66991000D01*
X116706333Y-66991000D01*
X116522605Y-66954454D01*
X116349534Y-66882766D01*
X116272182Y-66831081D01*
X116193773Y-66778690D01*
X116061310Y-66646227D01*
X115957235Y-66490467D01*
X115957234Y-66490466D01*
X115885546Y-66317395D01*
X115849000Y-66133667D01*
X115849000Y-65946333D01*
X115885546Y-65762605D01*
X115957234Y-65589534D01*
X116061309Y-65433775D01*
X116061310Y-65433773D01*
X116193773Y-65301310D01*
X116349533Y-65197235D01*
X116349534Y-65197234D01*
X116522605Y-65125546D01*
X116706333Y-65089000D01*
X116893667Y-65089000D01*
X117077395Y-65125546D01*
G37*
G36*
X152637395Y-65125546D02*
G01*
X152810466Y-65197234D01*
X152810467Y-65197235D01*
X152966227Y-65301310D01*
X153098690Y-65433773D01*
X153098691Y-65433775D01*
X153202766Y-65589534D01*
X153274454Y-65762605D01*
X153311000Y-65946333D01*
X153311000Y-66133667D01*
X153274454Y-66317395D01*
X153202766Y-66490466D01*
X153202765Y-66490467D01*
X153098690Y-66646227D01*
X152966227Y-66778690D01*
X152887818Y-66831081D01*
X152810466Y-66882766D01*
X152637395Y-66954454D01*
X152453667Y-66991000D01*
X152266333Y-66991000D01*
X152082605Y-66954454D01*
X151909534Y-66882766D01*
X151832182Y-66831081D01*
X151753773Y-66778690D01*
X151621310Y-66646227D01*
X151517235Y-66490467D01*
X151517234Y-66490466D01*
X151445546Y-66317395D01*
X151409000Y-66133667D01*
X151409000Y-65946333D01*
X151445546Y-65762605D01*
X151517234Y-65589534D01*
X151621309Y-65433775D01*
X151621310Y-65433773D01*
X151753773Y-65301310D01*
X151909533Y-65197235D01*
X151909534Y-65197234D01*
X152082605Y-65125546D01*
X152266333Y-65089000D01*
X152453667Y-65089000D01*
X152637395Y-65125546D01*
G37*
G36*
X148311000Y-66991000D02*
G01*
X146409000Y-66991000D01*
X146409000Y-65089000D01*
X148311000Y-65089000D01*
X148311000Y-66991000D01*
G37*
G36*
X112751000Y-66991000D02*
G01*
X110849000Y-66991000D01*
X110849000Y-65089000D01*
X112751000Y-65089000D01*
X112751000Y-66991000D01*
G37*
G36*
X150137395Y-65125546D02*
G01*
X150310466Y-65197234D01*
X150310467Y-65197235D01*
X150466227Y-65301310D01*
X150598690Y-65433773D01*
X150598691Y-65433775D01*
X150702766Y-65589534D01*
X150774454Y-65762605D01*
X150811000Y-65946333D01*
X150811000Y-66133667D01*
X150774454Y-66317395D01*
X150702766Y-66490466D01*
X150702765Y-66490467D01*
X150598690Y-66646227D01*
X150466227Y-66778690D01*
X150387818Y-66831081D01*
X150310466Y-66882766D01*
X150137395Y-66954454D01*
X149953667Y-66991000D01*
X149766333Y-66991000D01*
X149582605Y-66954454D01*
X149409534Y-66882766D01*
X149332182Y-66831081D01*
X149253773Y-66778690D01*
X149121310Y-66646227D01*
X149017235Y-66490467D01*
X149017234Y-66490466D01*
X148945546Y-66317395D01*
X148909000Y-66133667D01*
X148909000Y-65946333D01*
X148945546Y-65762605D01*
X149017234Y-65589534D01*
X149121309Y-65433775D01*
X149121310Y-65433773D01*
X149253773Y-65301310D01*
X149409533Y-65197235D01*
X149409534Y-65197234D01*
X149582605Y-65125546D01*
X149766333Y-65089000D01*
X149953667Y-65089000D01*
X150137395Y-65125546D01*
G37*
G36*
X114577395Y-65125546D02*
G01*
X114750466Y-65197234D01*
X114750467Y-65197235D01*
X114906227Y-65301310D01*
X115038690Y-65433773D01*
X115038691Y-65433775D01*
X115142766Y-65589534D01*
X115214454Y-65762605D01*
X115251000Y-65946333D01*
X115251000Y-66133667D01*
X115214454Y-66317395D01*
X115142766Y-66490466D01*
X115142765Y-66490467D01*
X115038690Y-66646227D01*
X114906227Y-66778690D01*
X114827818Y-66831081D01*
X114750466Y-66882766D01*
X114577395Y-66954454D01*
X114393667Y-66991000D01*
X114206333Y-66991000D01*
X114022605Y-66954454D01*
X113849534Y-66882766D01*
X113772182Y-66831081D01*
X113693773Y-66778690D01*
X113561310Y-66646227D01*
X113457235Y-66490467D01*
X113457234Y-66490466D01*
X113385546Y-66317395D01*
X113349000Y-66133667D01*
X113349000Y-65946333D01*
X113385546Y-65762605D01*
X113457234Y-65589534D01*
X113561309Y-65433775D01*
X113561310Y-65433773D01*
X113693773Y-65301310D01*
X113849533Y-65197235D01*
X113849534Y-65197234D01*
X114022605Y-65125546D01*
X114206333Y-65089000D01*
X114393667Y-65089000D01*
X114577395Y-65125546D01*
G37*
G36*
X131711000Y-65671000D02*
G01*
X129909000Y-65671000D01*
X129909000Y-63869000D01*
X131711000Y-63869000D01*
X131711000Y-65671000D01*
G37*
G36*
X133463512Y-63873927D02*
G01*
X133612812Y-63903624D01*
X133776784Y-63971544D01*
X133924354Y-64070147D01*
X134049853Y-64195646D01*
X134148456Y-64343216D01*
X134216376Y-64507188D01*
X134251000Y-64681259D01*
X134251000Y-64858741D01*
X134216376Y-65032812D01*
X134148456Y-65196784D01*
X134049853Y-65344354D01*
X133924354Y-65469853D01*
X133776784Y-65568456D01*
X133612812Y-65636376D01*
X133463512Y-65666073D01*
X133438742Y-65671000D01*
X133261258Y-65671000D01*
X133236488Y-65666073D01*
X133087188Y-65636376D01*
X132923216Y-65568456D01*
X132775646Y-65469853D01*
X132650147Y-65344354D01*
X132551544Y-65196784D01*
X132483624Y-65032812D01*
X132449000Y-64858741D01*
X132449000Y-64681259D01*
X132483624Y-64507188D01*
X132551544Y-64343216D01*
X132650147Y-64195646D01*
X132775646Y-64070147D01*
X132923216Y-63971544D01*
X133087188Y-63903624D01*
X133236488Y-63873927D01*
X133261258Y-63869000D01*
X133438742Y-63869000D01*
X133463512Y-63873927D01*
G37*
G36*
X130923512Y-61333927D02*
G01*
X131072812Y-61363624D01*
X131236784Y-61431544D01*
X131384354Y-61530147D01*
X131509853Y-61655646D01*
X131608456Y-61803216D01*
X131676376Y-61967188D01*
X131711000Y-62141259D01*
X131711000Y-62318741D01*
X131676376Y-62492812D01*
X131608456Y-62656784D01*
X131509853Y-62804354D01*
X131384354Y-62929853D01*
X131236784Y-63028456D01*
X131072812Y-63096376D01*
X130923512Y-63126073D01*
X130898742Y-63131000D01*
X130721258Y-63131000D01*
X130696488Y-63126073D01*
X130547188Y-63096376D01*
X130383216Y-63028456D01*
X130235646Y-62929853D01*
X130110147Y-62804354D01*
X130011544Y-62656784D01*
X129943624Y-62492812D01*
X129909000Y-62318741D01*
X129909000Y-62141259D01*
X129943624Y-61967188D01*
X130011544Y-61803216D01*
X130110147Y-61655646D01*
X130235646Y-61530147D01*
X130383216Y-61431544D01*
X130547188Y-61363624D01*
X130696488Y-61333927D01*
X130721258Y-61329000D01*
X130898742Y-61329000D01*
X130923512Y-61333927D01*
G37*
G36*
X133463512Y-61333927D02*
G01*
X133612812Y-61363624D01*
X133776784Y-61431544D01*
X133924354Y-61530147D01*
X134049853Y-61655646D01*
X134148456Y-61803216D01*
X134216376Y-61967188D01*
X134251000Y-62141259D01*
X134251000Y-62318741D01*
X134216376Y-62492812D01*
X134148456Y-62656784D01*
X134049853Y-62804354D01*
X133924354Y-62929853D01*
X133776784Y-63028456D01*
X133612812Y-63096376D01*
X133463512Y-63126073D01*
X133438742Y-63131000D01*
X133261258Y-63131000D01*
X133236488Y-63126073D01*
X133087188Y-63096376D01*
X132923216Y-63028456D01*
X132775646Y-62929853D01*
X132650147Y-62804354D01*
X132551544Y-62656784D01*
X132483624Y-62492812D01*
X132449000Y-62318741D01*
X132449000Y-62141259D01*
X132483624Y-61967188D01*
X132551544Y-61803216D01*
X132650147Y-61655646D01*
X132775646Y-61530147D01*
X132923216Y-61431544D01*
X133087188Y-61363624D01*
X133236488Y-61333927D01*
X133261258Y-61329000D01*
X133438742Y-61329000D01*
X133463512Y-61333927D01*
G37*
G36*
X130923512Y-58793927D02*
G01*
X131072812Y-58823624D01*
X131236784Y-58891544D01*
X131384354Y-58990147D01*
X131509853Y-59115646D01*
X131608456Y-59263216D01*
X131676376Y-59427188D01*
X131711000Y-59601259D01*
X131711000Y-59778741D01*
X131676376Y-59952812D01*
X131608456Y-60116784D01*
X131509853Y-60264354D01*
X131384354Y-60389853D01*
X131236784Y-60488456D01*
X131072812Y-60556376D01*
X130923512Y-60586073D01*
X130898742Y-60591000D01*
X130721258Y-60591000D01*
X130696488Y-60586073D01*
X130547188Y-60556376D01*
X130383216Y-60488456D01*
X130235646Y-60389853D01*
X130110147Y-60264354D01*
X130011544Y-60116784D01*
X129943624Y-59952812D01*
X129909000Y-59778741D01*
X129909000Y-59601259D01*
X129943624Y-59427188D01*
X130011544Y-59263216D01*
X130110147Y-59115646D01*
X130235646Y-58990147D01*
X130383216Y-58891544D01*
X130547188Y-58823624D01*
X130696488Y-58793927D01*
X130721258Y-58789000D01*
X130898742Y-58789000D01*
X130923512Y-58793927D01*
G37*
G36*
X133463512Y-58793927D02*
G01*
X133612812Y-58823624D01*
X133776784Y-58891544D01*
X133924354Y-58990147D01*
X134049853Y-59115646D01*
X134148456Y-59263216D01*
X134216376Y-59427188D01*
X134251000Y-59601259D01*
X134251000Y-59778741D01*
X134216376Y-59952812D01*
X134148456Y-60116784D01*
X134049853Y-60264354D01*
X133924354Y-60389853D01*
X133776784Y-60488456D01*
X133612812Y-60556376D01*
X133463512Y-60586073D01*
X133438742Y-60591000D01*
X133261258Y-60591000D01*
X133236488Y-60586073D01*
X133087188Y-60556376D01*
X132923216Y-60488456D01*
X132775646Y-60389853D01*
X132650147Y-60264354D01*
X132551544Y-60116784D01*
X132483624Y-59952812D01*
X132449000Y-59778741D01*
X132449000Y-59601259D01*
X132483624Y-59427188D01*
X132551544Y-59263216D01*
X132650147Y-59115646D01*
X132775646Y-58990147D01*
X132923216Y-58891544D01*
X133087188Y-58823624D01*
X133236488Y-58793927D01*
X133261258Y-58789000D01*
X133438742Y-58789000D01*
X133463512Y-58793927D01*
G37*
G36*
X119587412Y-56933215D02*
G01*
X119891514Y-57059178D01*
X120165199Y-57242049D01*
X120397951Y-57474801D01*
X120580822Y-57748486D01*
X120706785Y-58052588D01*
X120771000Y-58375420D01*
X120771000Y-58704580D01*
X120706785Y-59027412D01*
X120580822Y-59331514D01*
X120397951Y-59605199D01*
X120165199Y-59837951D01*
X119891514Y-60020822D01*
X119587412Y-60146785D01*
X119264580Y-60211000D01*
X118935420Y-60211000D01*
X118612588Y-60146785D01*
X118308486Y-60020822D01*
X118034801Y-59837951D01*
X117802049Y-59605199D01*
X117619178Y-59331514D01*
X117493215Y-59027412D01*
X117429000Y-58704580D01*
X117429000Y-58375420D01*
X117493215Y-58052588D01*
X117619178Y-57748486D01*
X117802049Y-57474801D01*
X118034801Y-57242049D01*
X118308486Y-57059178D01*
X118612588Y-56933215D01*
X118935420Y-56869000D01*
X119264580Y-56869000D01*
X119587412Y-56933215D01*
G37*
G36*
X109987412Y-56933215D02*
G01*
X110291514Y-57059178D01*
X110565199Y-57242049D01*
X110797951Y-57474801D01*
X110980822Y-57748486D01*
X111106785Y-58052588D01*
X111171000Y-58375420D01*
X111171000Y-58704580D01*
X111106785Y-59027412D01*
X110980822Y-59331514D01*
X110797951Y-59605199D01*
X110565199Y-59837951D01*
X110291514Y-60020822D01*
X109987412Y-60146785D01*
X109664580Y-60211000D01*
X109335420Y-60211000D01*
X109012588Y-60146785D01*
X108708486Y-60020822D01*
X108434801Y-59837951D01*
X108202049Y-59605199D01*
X108019178Y-59331514D01*
X107893215Y-59027412D01*
X107829000Y-58704580D01*
X107829000Y-58375420D01*
X107893215Y-58052588D01*
X108019178Y-57748486D01*
X108202049Y-57474801D01*
X108434801Y-57242049D01*
X108708486Y-57059178D01*
X109012588Y-56933215D01*
X109335420Y-56869000D01*
X109664580Y-56869000D01*
X109987412Y-56933215D01*
G37*
G36*
X155147412Y-56933215D02*
G01*
X155451514Y-57059178D01*
X155725199Y-57242049D01*
X155957951Y-57474801D01*
X156140822Y-57748486D01*
X156266785Y-58052588D01*
X156331000Y-58375420D01*
X156331000Y-58704580D01*
X156266785Y-59027412D01*
X156140822Y-59331514D01*
X155957951Y-59605199D01*
X155725199Y-59837951D01*
X155451514Y-60020822D01*
X155147412Y-60146785D01*
X154824580Y-60211000D01*
X154495420Y-60211000D01*
X154172588Y-60146785D01*
X153868486Y-60020822D01*
X153594801Y-59837951D01*
X153362049Y-59605199D01*
X153179178Y-59331514D01*
X153053215Y-59027412D01*
X152989000Y-58704580D01*
X152989000Y-58375420D01*
X153053215Y-58052588D01*
X153179178Y-57748486D01*
X153362049Y-57474801D01*
X153594801Y-57242049D01*
X153868486Y-57059178D01*
X154172588Y-56933215D01*
X154495420Y-56869000D01*
X154824580Y-56869000D01*
X155147412Y-56933215D01*
G37*
G36*
X145547412Y-56933215D02*
G01*
X145851514Y-57059178D01*
X146125199Y-57242049D01*
X146357951Y-57474801D01*
X146540822Y-57748486D01*
X146666785Y-58052588D01*
X146731000Y-58375420D01*
X146731000Y-58704580D01*
X146666785Y-59027412D01*
X146540822Y-59331514D01*
X146357951Y-59605199D01*
X146125199Y-59837951D01*
X145851514Y-60020822D01*
X145547412Y-60146785D01*
X145224580Y-60211000D01*
X144895420Y-60211000D01*
X144572588Y-60146785D01*
X144268486Y-60020822D01*
X143994801Y-59837951D01*
X143762049Y-59605199D01*
X143579178Y-59331514D01*
X143453215Y-59027412D01*
X143389000Y-58704580D01*
X143389000Y-58375420D01*
X143453215Y-58052588D01*
X143579178Y-57748486D01*
X143762049Y-57474801D01*
X143994801Y-57242049D01*
X144268486Y-57059178D01*
X144572588Y-56933215D01*
X144895420Y-56869000D01*
X145224580Y-56869000D01*
X145547412Y-56933215D01*
G37*
G36*
X133463512Y-56253927D02*
G01*
X133612812Y-56283624D01*
X133776784Y-56351544D01*
X133924354Y-56450147D01*
X134049853Y-56575646D01*
X134148456Y-56723216D01*
X134216376Y-56887188D01*
X134251000Y-57061259D01*
X134251000Y-57238741D01*
X134216376Y-57412812D01*
X134148456Y-57576784D01*
X134049853Y-57724354D01*
X133924354Y-57849853D01*
X133776784Y-57948456D01*
X133612812Y-58016376D01*
X133463512Y-58046073D01*
X133438742Y-58051000D01*
X133261258Y-58051000D01*
X133236488Y-58046073D01*
X133087188Y-58016376D01*
X132923216Y-57948456D01*
X132775646Y-57849853D01*
X132650147Y-57724354D01*
X132551544Y-57576784D01*
X132483624Y-57412812D01*
X132449000Y-57238741D01*
X132449000Y-57061259D01*
X132483624Y-56887188D01*
X132551544Y-56723216D01*
X132650147Y-56575646D01*
X132775646Y-56450147D01*
X132923216Y-56351544D01*
X133087188Y-56283624D01*
X133236488Y-56253927D01*
X133261258Y-56249000D01*
X133438742Y-56249000D01*
X133463512Y-56253927D01*
G37*
G36*
X130923512Y-56253927D02*
G01*
X131072812Y-56283624D01*
X131236784Y-56351544D01*
X131384354Y-56450147D01*
X131509853Y-56575646D01*
X131608456Y-56723216D01*
X131676376Y-56887188D01*
X131711000Y-57061259D01*
X131711000Y-57238741D01*
X131676376Y-57412812D01*
X131608456Y-57576784D01*
X131509853Y-57724354D01*
X131384354Y-57849853D01*
X131236784Y-57948456D01*
X131072812Y-58016376D01*
X130923512Y-58046073D01*
X130898742Y-58051000D01*
X130721258Y-58051000D01*
X130696488Y-58046073D01*
X130547188Y-58016376D01*
X130383216Y-57948456D01*
X130235646Y-57849853D01*
X130110147Y-57724354D01*
X130011544Y-57576784D01*
X129943624Y-57412812D01*
X129909000Y-57238741D01*
X129909000Y-57061259D01*
X129943624Y-56887188D01*
X130011544Y-56723216D01*
X130110147Y-56575646D01*
X130235646Y-56450147D01*
X130383216Y-56351544D01*
X130547188Y-56283624D01*
X130696488Y-56253927D01*
X130721258Y-56249000D01*
X130898742Y-56249000D01*
X130923512Y-56253927D01*
G37*
G36*
X133463512Y-53713927D02*
G01*
X133612812Y-53743624D01*
X133776784Y-53811544D01*
X133924354Y-53910147D01*
X134049853Y-54035646D01*
X134148456Y-54183216D01*
X134216376Y-54347188D01*
X134251000Y-54521259D01*
X134251000Y-54698741D01*
X134216376Y-54872812D01*
X134148456Y-55036784D01*
X134049853Y-55184354D01*
X133924354Y-55309853D01*
X133776784Y-55408456D01*
X133612812Y-55476376D01*
X133463512Y-55506073D01*
X133438742Y-55511000D01*
X133261258Y-55511000D01*
X133236488Y-55506073D01*
X133087188Y-55476376D01*
X132923216Y-55408456D01*
X132775646Y-55309853D01*
X132650147Y-55184354D01*
X132551544Y-55036784D01*
X132483624Y-54872812D01*
X132449000Y-54698741D01*
X132449000Y-54521259D01*
X132483624Y-54347188D01*
X132551544Y-54183216D01*
X132650147Y-54035646D01*
X132775646Y-53910147D01*
X132923216Y-53811544D01*
X133087188Y-53743624D01*
X133236488Y-53713927D01*
X133261258Y-53709000D01*
X133438742Y-53709000D01*
X133463512Y-53713927D01*
G37*
G36*
X130923512Y-53713927D02*
G01*
X131072812Y-53743624D01*
X131236784Y-53811544D01*
X131384354Y-53910147D01*
X131509853Y-54035646D01*
X131608456Y-54183216D01*
X131676376Y-54347188D01*
X131711000Y-54521259D01*
X131711000Y-54698741D01*
X131676376Y-54872812D01*
X131608456Y-55036784D01*
X131509853Y-55184354D01*
X131384354Y-55309853D01*
X131236784Y-55408456D01*
X131072812Y-55476376D01*
X130923512Y-55506073D01*
X130898742Y-55511000D01*
X130721258Y-55511000D01*
X130696488Y-55506073D01*
X130547188Y-55476376D01*
X130383216Y-55408456D01*
X130235646Y-55309853D01*
X130110147Y-55184354D01*
X130011544Y-55036784D01*
X129943624Y-54872812D01*
X129909000Y-54698741D01*
X129909000Y-54521259D01*
X129943624Y-54347188D01*
X130011544Y-54183216D01*
X130110147Y-54035646D01*
X130235646Y-53910147D01*
X130383216Y-53811544D01*
X130547188Y-53743624D01*
X130696488Y-53713927D01*
X130721258Y-53709000D01*
X130898742Y-53709000D01*
X130923512Y-53713927D01*
G37*
M02*
