%TF.GenerationSoftware,KiCad,Pcbnew,5.1.6-c6e7f7d~87~ubuntu18.04.1*%
%TF.CreationDate,2020-07-29T19:06:40-04:00*%
%TF.ProjectId,front_panel,66726f6e-745f-4706-916e-656c2e6b6963,rev?*%
%TF.SameCoordinates,Original*%
%TF.FileFunction,Legend,Bot*%
%TF.FilePolarity,Positive*%
%FSLAX46Y46*%
G04 Gerber Fmt 4.6, Leading zero omitted, Abs format (unit mm)*
G04 Created by KiCad (PCBNEW 5.1.6-c6e7f7d~87~ubuntu18.04.1) date 2020-07-29 19:06:40*
%MOMM*%
%LPD*%
G01*
G04 APERTURE LIST*
%ADD10C,0.200000*%
G04 APERTURE END LIST*
D10*
X37228571Y-1718571D02*
X37228571Y-2790000D01*
X37300000Y-3004285D01*
X37442857Y-3147142D01*
X37657142Y-3218571D01*
X37800000Y-3218571D01*
X35800000Y-3218571D02*
X36514285Y-3218571D01*
X36514285Y-1718571D01*
X34442857Y-3075714D02*
X34514285Y-3147142D01*
X34728571Y-3218571D01*
X34871428Y-3218571D01*
X35085714Y-3147142D01*
X35228571Y-3004285D01*
X35300000Y-2861428D01*
X35371428Y-2575714D01*
X35371428Y-2361428D01*
X35300000Y-2075714D01*
X35228571Y-1932857D01*
X35085714Y-1790000D01*
X34871428Y-1718571D01*
X34728571Y-1718571D01*
X34514285Y-1790000D01*
X34442857Y-1861428D01*
X33371428Y-1718571D02*
X33371428Y-2790000D01*
X33442857Y-3004285D01*
X33585714Y-3147142D01*
X33800000Y-3218571D01*
X33942857Y-3218571D01*
X31942857Y-3218571D02*
X32657142Y-3218571D01*
X32657142Y-1718571D01*
X30585714Y-3075714D02*
X30657142Y-3147142D01*
X30871428Y-3218571D01*
X31014285Y-3218571D01*
X31228571Y-3147142D01*
X31371428Y-3004285D01*
X31442857Y-2861428D01*
X31514285Y-2575714D01*
X31514285Y-2361428D01*
X31442857Y-2075714D01*
X31371428Y-1932857D01*
X31228571Y-1790000D01*
X31014285Y-1718571D01*
X30871428Y-1718571D01*
X30657142Y-1790000D01*
X30585714Y-1861428D01*
X29514285Y-1718571D02*
X29514285Y-2790000D01*
X29585714Y-3004285D01*
X29728571Y-3147142D01*
X29942857Y-3218571D01*
X30085714Y-3218571D01*
X28085714Y-3218571D02*
X28800000Y-3218571D01*
X28800000Y-1718571D01*
X26728571Y-3075714D02*
X26800000Y-3147142D01*
X27014285Y-3218571D01*
X27157142Y-3218571D01*
X27371428Y-3147142D01*
X27514285Y-3004285D01*
X27585714Y-2861428D01*
X27657142Y-2575714D01*
X27657142Y-2361428D01*
X27585714Y-2075714D01*
X27514285Y-1932857D01*
X27371428Y-1790000D01*
X27157142Y-1718571D01*
X27014285Y-1718571D01*
X26800000Y-1790000D01*
X26728571Y-1861428D01*
X25657142Y-1718571D02*
X25657142Y-2790000D01*
X25728571Y-3004285D01*
X25871428Y-3147142D01*
X26085714Y-3218571D01*
X26228571Y-3218571D01*
X24228571Y-3218571D02*
X24942857Y-3218571D01*
X24942857Y-1718571D01*
X22871428Y-3075714D02*
X22942857Y-3147142D01*
X23157142Y-3218571D01*
X23300000Y-3218571D01*
X23514285Y-3147142D01*
X23657142Y-3004285D01*
X23728571Y-2861428D01*
X23800000Y-2575714D01*
X23800000Y-2361428D01*
X23728571Y-2075714D01*
X23657142Y-1932857D01*
X23514285Y-1790000D01*
X23300000Y-1718571D01*
X23157142Y-1718571D01*
X22942857Y-1790000D01*
X22871428Y-1861428D01*
M02*
